%FSDAX23Y23*%
%MOIN*%
%SFA1B1*%

%IPPOS*%
%ADD52C,0.009800*%
%ADD53C,0.007900*%
%ADD57C,0.005000*%
%LNde-110817-1*%
%LPD*%
G54D52*
X02861Y01613D02*
D01*
X02861Y01614*
X02861Y01614*
X02861Y01614*
X02861Y01615*
X02861Y01615*
X02861Y01615*
X02861Y01616*
X02861Y01616*
X02860Y01616*
X02860Y01617*
X02860Y01617*
X02860Y01617*
X02860Y01617*
X02859Y01617*
X02859Y01618*
X02859Y01618*
X02858Y01618*
X02858Y01618*
X02858Y01618*
X02857Y01618*
X02857Y01618*
X02857Y01618*
X02856*
X02856Y01618*
X02856Y01618*
X02855Y01618*
X02855Y01618*
X02855Y01618*
X02854Y01618*
X02854Y01618*
X02854Y01617*
X02853Y01617*
X02853Y01617*
X02853Y01617*
X02853Y01617*
X02853Y01616*
X02852Y01616*
X02852Y01616*
X02852Y01615*
X02852Y01615*
X02852Y01615*
X02852Y01614*
X02852Y01614*
X02852Y01614*
X02852Y01613*
X02852Y01613*
X02852Y01613*
X02852Y01612*
X02852Y01612*
X02852Y01612*
X02852Y01611*
X02852Y01611*
X02852Y01611*
X02853Y01611*
X02853Y01610*
X02853Y01610*
X02853Y01610*
X02853Y01610*
X02854Y01609*
X02854Y01609*
X02854Y01609*
X02855Y01609*
X02855Y01609*
X02855Y01609*
X02856Y01609*
X02856Y01609*
X02856Y01609*
X02857*
X02857Y01609*
X02857Y01609*
X02858Y01609*
X02858Y01609*
X02858Y01609*
X02859Y01609*
X02859Y01609*
X02859Y01609*
X02860Y01610*
X02860Y01610*
X02860Y01610*
X02860Y01610*
X02860Y01611*
X02861Y01611*
X02861Y01611*
X02861Y01611*
X02861Y01612*
X02861Y01612*
X02861Y01612*
X02861Y01613*
X02861Y01613*
X02861Y01613*
X02921D02*
D01*
X02921Y01614*
X02921Y01614*
X02921Y01614*
X02921Y01615*
X02921Y01615*
X02921Y01615*
X02921Y01616*
X02921Y01616*
X02920Y01616*
X02920Y01617*
X02920Y01617*
X02920Y01617*
X02920Y01617*
X02919Y01617*
X02919Y01618*
X02919Y01618*
X02918Y01618*
X02918Y01618*
X02918Y01618*
X02917Y01618*
X02917Y01618*
X02917Y01618*
X02916*
X02916Y01618*
X02916Y01618*
X02915Y01618*
X02915Y01618*
X02915Y01618*
X02914Y01618*
X02914Y01618*
X02914Y01617*
X02913Y01617*
X02913Y01617*
X02913Y01617*
X02913Y01617*
X02913Y01616*
X02912Y01616*
X02912Y01616*
X02912Y01615*
X02912Y01615*
X02912Y01615*
X02912Y01614*
X02912Y01614*
X02912Y01614*
X02912Y01613*
X02912Y01613*
X02912Y01613*
X02912Y01612*
X02912Y01612*
X02912Y01612*
X02912Y01611*
X02912Y01611*
X02912Y01611*
X02913Y01611*
X02913Y01610*
X02913Y01610*
X02913Y01610*
X02913Y01610*
X02914Y01609*
X02914Y01609*
X02914Y01609*
X02915Y01609*
X02915Y01609*
X02915Y01609*
X02916Y01609*
X02916Y01609*
X02916Y01609*
X02917*
X02917Y01609*
X02917Y01609*
X02918Y01609*
X02918Y01609*
X02918Y01609*
X02919Y01609*
X02919Y01609*
X02919Y01609*
X02920Y01610*
X02920Y01610*
X02920Y01610*
X02920Y01610*
X02920Y01611*
X02921Y01611*
X02921Y01611*
X02921Y01611*
X02921Y01612*
X02921Y01612*
X02921Y01612*
X02921Y01613*
X02921Y01613*
X02921Y01613*
X02991D02*
D01*
X02991Y01614*
X02991Y01614*
X02991Y01614*
X02991Y01615*
X02991Y01615*
X02991Y01615*
X02991Y01616*
X02991Y01616*
X02990Y01616*
X02990Y01617*
X02990Y01617*
X02990Y01617*
X02990Y01617*
X02989Y01617*
X02989Y01618*
X02989Y01618*
X02988Y01618*
X02988Y01618*
X02988Y01618*
X02987Y01618*
X02987Y01618*
X02987Y01618*
X02986*
X02986Y01618*
X02986Y01618*
X02985Y01618*
X02985Y01618*
X02985Y01618*
X02984Y01618*
X02984Y01618*
X02984Y01617*
X02983Y01617*
X02983Y01617*
X02983Y01617*
X02983Y01617*
X02983Y01616*
X02982Y01616*
X02982Y01616*
X02982Y01615*
X02982Y01615*
X02982Y01615*
X02982Y01614*
X02982Y01614*
X02982Y01614*
X02982Y01613*
X02982Y01613*
X02982Y01613*
X02982Y01612*
X02982Y01612*
X02982Y01612*
X02982Y01611*
X02982Y01611*
X02982Y01611*
X02983Y01611*
X02983Y01610*
X02983Y01610*
X02983Y01610*
X02983Y01610*
X02984Y01609*
X02984Y01609*
X02984Y01609*
X02985Y01609*
X02985Y01609*
X02985Y01609*
X02986Y01609*
X02986Y01609*
X02986Y01609*
X02987*
X02987Y01609*
X02987Y01609*
X02988Y01609*
X02988Y01609*
X02988Y01609*
X02989Y01609*
X02989Y01609*
X02989Y01609*
X02990Y01610*
X02990Y01610*
X02990Y01610*
X02990Y01610*
X02990Y01611*
X02991Y01611*
X02991Y01611*
X02991Y01611*
X02991Y01612*
X02991Y01612*
X02991Y01612*
X02991Y01613*
X02991Y01613*
X02991Y01613*
X03056D02*
D01*
X03056Y01614*
X03056Y01614*
X03056Y01614*
X03056Y01615*
X03056Y01615*
X03056Y01615*
X03056Y01616*
X03056Y01616*
X03055Y01616*
X03055Y01617*
X03055Y01617*
X03055Y01617*
X03055Y01617*
X03054Y01617*
X03054Y01618*
X03054Y01618*
X03053Y01618*
X03053Y01618*
X03053Y01618*
X03052Y01618*
X03052Y01618*
X03052Y01618*
X03051*
X03051Y01618*
X03051Y01618*
X03050Y01618*
X03050Y01618*
X03050Y01618*
X03049Y01618*
X03049Y01618*
X03049Y01617*
X03048Y01617*
X03048Y01617*
X03048Y01617*
X03048Y01617*
X03048Y01616*
X03047Y01616*
X03047Y01616*
X03047Y01615*
X03047Y01615*
X03047Y01615*
X03047Y01614*
X03047Y01614*
X03047Y01614*
X03047Y01613*
X03047Y01613*
X03047Y01613*
X03047Y01612*
X03047Y01612*
X03047Y01612*
X03047Y01611*
X03047Y01611*
X03047Y01611*
X03048Y01611*
X03048Y01610*
X03048Y01610*
X03048Y01610*
X03048Y01610*
X03049Y01609*
X03049Y01609*
X03049Y01609*
X03050Y01609*
X03050Y01609*
X03050Y01609*
X03051Y01609*
X03051Y01609*
X03051Y01609*
X03052*
X03052Y01609*
X03052Y01609*
X03053Y01609*
X03053Y01609*
X03053Y01609*
X03054Y01609*
X03054Y01609*
X03054Y01609*
X03055Y01610*
X03055Y01610*
X03055Y01610*
X03055Y01610*
X03055Y01611*
X03056Y01611*
X03056Y01611*
X03056Y01611*
X03056Y01612*
X03056Y01612*
X03056Y01612*
X03056Y01613*
X03056Y01613*
X03056Y01613*
X03321D02*
D01*
X03321Y01614*
X03321Y01614*
X03321Y01614*
X03321Y01615*
X03321Y01615*
X03321Y01615*
X03321Y01616*
X03321Y01616*
X03320Y01616*
X03320Y01617*
X03320Y01617*
X03320Y01617*
X03320Y01617*
X03319Y01617*
X03319Y01618*
X03319Y01618*
X03318Y01618*
X03318Y01618*
X03318Y01618*
X03317Y01618*
X03317Y01618*
X03317Y01618*
X03316*
X03316Y01618*
X03316Y01618*
X03315Y01618*
X03315Y01618*
X03315Y01618*
X03314Y01618*
X03314Y01618*
X03314Y01617*
X03313Y01617*
X03313Y01617*
X03313Y01617*
X03313Y01617*
X03313Y01616*
X03312Y01616*
X03312Y01616*
X03312Y01615*
X03312Y01615*
X03312Y01615*
X03312Y01614*
X03312Y01614*
X03312Y01614*
X03312Y01613*
X03312Y01613*
X03312Y01613*
X03312Y01612*
X03312Y01612*
X03312Y01612*
X03312Y01611*
X03312Y01611*
X03312Y01611*
X03313Y01611*
X03313Y01610*
X03313Y01610*
X03313Y01610*
X03313Y01610*
X03314Y01609*
X03314Y01609*
X03314Y01609*
X03315Y01609*
X03315Y01609*
X03315Y01609*
X03316Y01609*
X03316Y01609*
X03316Y01609*
X03317*
X03317Y01609*
X03317Y01609*
X03318Y01609*
X03318Y01609*
X03318Y01609*
X03319Y01609*
X03319Y01609*
X03319Y01609*
X03320Y01610*
X03320Y01610*
X03320Y01610*
X03320Y01610*
X03320Y01611*
X03321Y01611*
X03321Y01611*
X03321Y01611*
X03321Y01612*
X03321Y01612*
X03321Y01612*
X03321Y01613*
X03321Y01613*
X03321Y01613*
X03256D02*
D01*
X03256Y01614*
X03256Y01614*
X03256Y01614*
X03256Y01615*
X03256Y01615*
X03256Y01615*
X03256Y01616*
X03256Y01616*
X03255Y01616*
X03255Y01617*
X03255Y01617*
X03255Y01617*
X03255Y01617*
X03254Y01617*
X03254Y01618*
X03254Y01618*
X03253Y01618*
X03253Y01618*
X03253Y01618*
X03252Y01618*
X03252Y01618*
X03252Y01618*
X03251*
X03251Y01618*
X03251Y01618*
X03250Y01618*
X03250Y01618*
X03250Y01618*
X03249Y01618*
X03249Y01618*
X03249Y01617*
X03248Y01617*
X03248Y01617*
X03248Y01617*
X03248Y01617*
X03248Y01616*
X03247Y01616*
X03247Y01616*
X03247Y01615*
X03247Y01615*
X03247Y01615*
X03247Y01614*
X03247Y01614*
X03247Y01614*
X03247Y01613*
X03247Y01613*
X03247Y01613*
X03247Y01612*
X03247Y01612*
X03247Y01612*
X03247Y01611*
X03247Y01611*
X03247Y01611*
X03248Y01611*
X03248Y01610*
X03248Y01610*
X03248Y01610*
X03248Y01610*
X03249Y01609*
X03249Y01609*
X03249Y01609*
X03250Y01609*
X03250Y01609*
X03250Y01609*
X03251Y01609*
X03251Y01609*
X03251Y01609*
X03252*
X03252Y01609*
X03252Y01609*
X03253Y01609*
X03253Y01609*
X03253Y01609*
X03254Y01609*
X03254Y01609*
X03254Y01609*
X03255Y01610*
X03255Y01610*
X03255Y01610*
X03255Y01610*
X03255Y01611*
X03256Y01611*
X03256Y01611*
X03256Y01611*
X03256Y01612*
X03256Y01612*
X03256Y01612*
X03256Y01613*
X03256Y01613*
X03256Y01613*
X03186D02*
D01*
X03186Y01614*
X03186Y01614*
X03186Y01614*
X03186Y01615*
X03186Y01615*
X03186Y01615*
X03186Y01616*
X03186Y01616*
X03185Y01616*
X03185Y01617*
X03185Y01617*
X03185Y01617*
X03185Y01617*
X03184Y01617*
X03184Y01618*
X03184Y01618*
X03183Y01618*
X03183Y01618*
X03183Y01618*
X03182Y01618*
X03182Y01618*
X03182Y01618*
X03181*
X03181Y01618*
X03181Y01618*
X03180Y01618*
X03180Y01618*
X03180Y01618*
X03179Y01618*
X03179Y01618*
X03179Y01617*
X03178Y01617*
X03178Y01617*
X03178Y01617*
X03178Y01617*
X03178Y01616*
X03177Y01616*
X03177Y01616*
X03177Y01615*
X03177Y01615*
X03177Y01615*
X03177Y01614*
X03177Y01614*
X03177Y01614*
X03177Y01613*
X03177Y01613*
X03177Y01613*
X03177Y01612*
X03177Y01612*
X03177Y01612*
X03177Y01611*
X03177Y01611*
X03177Y01611*
X03178Y01611*
X03178Y01610*
X03178Y01610*
X03178Y01610*
X03178Y01610*
X03179Y01609*
X03179Y01609*
X03179Y01609*
X03180Y01609*
X03180Y01609*
X03180Y01609*
X03181Y01609*
X03181Y01609*
X03181Y01609*
X03182*
X03182Y01609*
X03182Y01609*
X03183Y01609*
X03183Y01609*
X03183Y01609*
X03184Y01609*
X03184Y01609*
X03184Y01609*
X03185Y01610*
X03185Y01610*
X03185Y01610*
X03185Y01610*
X03185Y01611*
X03186Y01611*
X03186Y01611*
X03186Y01611*
X03186Y01612*
X03186Y01612*
X03186Y01612*
X03186Y01613*
X03186Y01613*
X03186Y01613*
X03121D02*
D01*
X03121Y01614*
X03121Y01614*
X03121Y01614*
X03121Y01615*
X03121Y01615*
X03121Y01615*
X03121Y01616*
X03121Y01616*
X03120Y01616*
X03120Y01617*
X03120Y01617*
X03120Y01617*
X03120Y01617*
X03119Y01617*
X03119Y01618*
X03119Y01618*
X03118Y01618*
X03118Y01618*
X03118Y01618*
X03117Y01618*
X03117Y01618*
X03117Y01618*
X03116*
X03116Y01618*
X03116Y01618*
X03115Y01618*
X03115Y01618*
X03115Y01618*
X03114Y01618*
X03114Y01618*
X03114Y01617*
X03113Y01617*
X03113Y01617*
X03113Y01617*
X03113Y01617*
X03113Y01616*
X03112Y01616*
X03112Y01616*
X03112Y01615*
X03112Y01615*
X03112Y01615*
X03112Y01614*
X03112Y01614*
X03112Y01614*
X03112Y01613*
X03112Y01613*
X03112Y01613*
X03112Y01612*
X03112Y01612*
X03112Y01612*
X03112Y01611*
X03112Y01611*
X03112Y01611*
X03113Y01611*
X03113Y01610*
X03113Y01610*
X03113Y01610*
X03113Y01610*
X03114Y01609*
X03114Y01609*
X03114Y01609*
X03115Y01609*
X03115Y01609*
X03115Y01609*
X03116Y01609*
X03116Y01609*
X03116Y01609*
X03117*
X03117Y01609*
X03117Y01609*
X03118Y01609*
X03118Y01609*
X03118Y01609*
X03119Y01609*
X03119Y01609*
X03119Y01609*
X03120Y01610*
X03120Y01610*
X03120Y01610*
X03120Y01610*
X03120Y01611*
X03121Y01611*
X03121Y01611*
X03121Y01611*
X03121Y01612*
X03121Y01612*
X03121Y01612*
X03121Y01613*
X03121Y01613*
X03121Y01613*
X03401D02*
D01*
X03401Y01614*
X03401Y01614*
X03401Y01614*
X03401Y01615*
X03401Y01615*
X03401Y01615*
X03401Y01616*
X03401Y01616*
X03400Y01616*
X03400Y01617*
X03400Y01617*
X03400Y01617*
X03400Y01617*
X03399Y01617*
X03399Y01618*
X03399Y01618*
X03398Y01618*
X03398Y01618*
X03398Y01618*
X03397Y01618*
X03397Y01618*
X03397Y01618*
X03396*
X03396Y01618*
X03396Y01618*
X03395Y01618*
X03395Y01618*
X03395Y01618*
X03394Y01618*
X03394Y01618*
X03394Y01617*
X03393Y01617*
X03393Y01617*
X03393Y01617*
X03393Y01617*
X03393Y01616*
X03392Y01616*
X03392Y01616*
X03392Y01615*
X03392Y01615*
X03392Y01615*
X03392Y01614*
X03392Y01614*
X03392Y01614*
X03392Y01613*
X03392Y01613*
X03392Y01613*
X03392Y01612*
X03392Y01612*
X03392Y01612*
X03392Y01611*
X03392Y01611*
X03392Y01611*
X03393Y01611*
X03393Y01610*
X03393Y01610*
X03393Y01610*
X03393Y01610*
X03394Y01609*
X03394Y01609*
X03394Y01609*
X03395Y01609*
X03395Y01609*
X03395Y01609*
X03396Y01609*
X03396Y01609*
X03396Y01609*
X03397*
X03397Y01609*
X03397Y01609*
X03398Y01609*
X03398Y01609*
X03398Y01609*
X03399Y01609*
X03399Y01609*
X03399Y01609*
X03400Y01610*
X03400Y01610*
X03400Y01610*
X03400Y01610*
X03400Y01611*
X03401Y01611*
X03401Y01611*
X03401Y01611*
X03401Y01612*
X03401Y01612*
X03401Y01612*
X03401Y01613*
X03401Y01613*
X03401Y01613*
X03466D02*
D01*
X03466Y01614*
X03466Y01614*
X03466Y01614*
X03466Y01615*
X03466Y01615*
X03466Y01615*
X03466Y01616*
X03466Y01616*
X03465Y01616*
X03465Y01617*
X03465Y01617*
X03465Y01617*
X03465Y01617*
X03464Y01617*
X03464Y01618*
X03464Y01618*
X03463Y01618*
X03463Y01618*
X03463Y01618*
X03462Y01618*
X03462Y01618*
X03462Y01618*
X03461*
X03461Y01618*
X03461Y01618*
X03460Y01618*
X03460Y01618*
X03460Y01618*
X03459Y01618*
X03459Y01618*
X03459Y01617*
X03458Y01617*
X03458Y01617*
X03458Y01617*
X03458Y01617*
X03458Y01616*
X03457Y01616*
X03457Y01616*
X03457Y01615*
X03457Y01615*
X03457Y01615*
X03457Y01614*
X03457Y01614*
X03457Y01614*
X03457Y01613*
X03457Y01613*
X03457Y01613*
X03457Y01612*
X03457Y01612*
X03457Y01612*
X03457Y01611*
X03457Y01611*
X03457Y01611*
X03458Y01611*
X03458Y01610*
X03458Y01610*
X03458Y01610*
X03458Y01610*
X03459Y01609*
X03459Y01609*
X03459Y01609*
X03460Y01609*
X03460Y01609*
X03460Y01609*
X03461Y01609*
X03461Y01609*
X03461Y01609*
X03462*
X03462Y01609*
X03462Y01609*
X03463Y01609*
X03463Y01609*
X03463Y01609*
X03464Y01609*
X03464Y01609*
X03464Y01609*
X03465Y01610*
X03465Y01610*
X03465Y01610*
X03465Y01610*
X03465Y01611*
X03466Y01611*
X03466Y01611*
X03466Y01611*
X03466Y01612*
X03466Y01612*
X03466Y01612*
X03466Y01613*
X03466Y01613*
X03466Y01613*
X03531D02*
D01*
X03531Y01614*
X03531Y01614*
X03531Y01614*
X03531Y01615*
X03531Y01615*
X03531Y01615*
X03531Y01616*
X03531Y01616*
X03530Y01616*
X03530Y01617*
X03530Y01617*
X03530Y01617*
X03530Y01617*
X03529Y01617*
X03529Y01618*
X03529Y01618*
X03528Y01618*
X03528Y01618*
X03528Y01618*
X03527Y01618*
X03527Y01618*
X03527Y01618*
X03526*
X03526Y01618*
X03526Y01618*
X03525Y01618*
X03525Y01618*
X03525Y01618*
X03524Y01618*
X03524Y01618*
X03524Y01617*
X03523Y01617*
X03523Y01617*
X03523Y01617*
X03523Y01617*
X03523Y01616*
X03522Y01616*
X03522Y01616*
X03522Y01615*
X03522Y01615*
X03522Y01615*
X03522Y01614*
X03522Y01614*
X03522Y01614*
X03522Y01613*
X03522Y01613*
X03522Y01613*
X03522Y01612*
X03522Y01612*
X03522Y01612*
X03522Y01611*
X03522Y01611*
X03522Y01611*
X03523Y01611*
X03523Y01610*
X03523Y01610*
X03523Y01610*
X03523Y01610*
X03524Y01609*
X03524Y01609*
X03524Y01609*
X03525Y01609*
X03525Y01609*
X03525Y01609*
X03526Y01609*
X03526Y01609*
X03526Y01609*
X03527*
X03527Y01609*
X03527Y01609*
X03528Y01609*
X03528Y01609*
X03528Y01609*
X03529Y01609*
X03529Y01609*
X03529Y01609*
X03530Y01610*
X03530Y01610*
X03530Y01610*
X03530Y01610*
X03530Y01611*
X03531Y01611*
X03531Y01611*
X03531Y01611*
X03531Y01612*
X03531Y01612*
X03531Y01612*
X03531Y01613*
X03531Y01613*
X03531Y01613*
X03596D02*
D01*
X03596Y01614*
X03596Y01614*
X03596Y01614*
X03596Y01615*
X03596Y01615*
X03596Y01615*
X03596Y01616*
X03596Y01616*
X03595Y01616*
X03595Y01617*
X03595Y01617*
X03595Y01617*
X03595Y01617*
X03594Y01617*
X03594Y01618*
X03594Y01618*
X03593Y01618*
X03593Y01618*
X03593Y01618*
X03592Y01618*
X03592Y01618*
X03592Y01618*
X03591*
X03591Y01618*
X03591Y01618*
X03590Y01618*
X03590Y01618*
X03590Y01618*
X03589Y01618*
X03589Y01618*
X03589Y01617*
X03588Y01617*
X03588Y01617*
X03588Y01617*
X03588Y01617*
X03588Y01616*
X03587Y01616*
X03587Y01616*
X03587Y01615*
X03587Y01615*
X03587Y01615*
X03587Y01614*
X03587Y01614*
X03587Y01614*
X03587Y01613*
X03587Y01613*
X03587Y01613*
X03587Y01612*
X03587Y01612*
X03587Y01612*
X03587Y01611*
X03587Y01611*
X03587Y01611*
X03588Y01611*
X03588Y01610*
X03588Y01610*
X03588Y01610*
X03588Y01610*
X03589Y01609*
X03589Y01609*
X03589Y01609*
X03590Y01609*
X03590Y01609*
X03590Y01609*
X03591Y01609*
X03591Y01609*
X03591Y01609*
X03592*
X03592Y01609*
X03592Y01609*
X03593Y01609*
X03593Y01609*
X03593Y01609*
X03594Y01609*
X03594Y01609*
X03594Y01609*
X03595Y01610*
X03595Y01610*
X03595Y01610*
X03595Y01610*
X03595Y01611*
X03596Y01611*
X03596Y01611*
X03596Y01611*
X03596Y01612*
X03596Y01612*
X03596Y01612*
X03596Y01613*
X03596Y01613*
X03596Y01613*
X03856D02*
D01*
X03856Y01614*
X03856Y01614*
X03856Y01614*
X03856Y01615*
X03856Y01615*
X03856Y01615*
X03856Y01616*
X03856Y01616*
X03855Y01616*
X03855Y01617*
X03855Y01617*
X03855Y01617*
X03855Y01617*
X03854Y01617*
X03854Y01618*
X03854Y01618*
X03853Y01618*
X03853Y01618*
X03853Y01618*
X03852Y01618*
X03852Y01618*
X03852Y01618*
X03851*
X03851Y01618*
X03851Y01618*
X03850Y01618*
X03850Y01618*
X03850Y01618*
X03849Y01618*
X03849Y01618*
X03849Y01617*
X03848Y01617*
X03848Y01617*
X03848Y01617*
X03848Y01617*
X03848Y01616*
X03847Y01616*
X03847Y01616*
X03847Y01615*
X03847Y01615*
X03847Y01615*
X03847Y01614*
X03847Y01614*
X03847Y01614*
X03847Y01613*
X03847Y01613*
X03847Y01613*
X03847Y01612*
X03847Y01612*
X03847Y01612*
X03847Y01611*
X03847Y01611*
X03847Y01611*
X03848Y01611*
X03848Y01610*
X03848Y01610*
X03848Y01610*
X03848Y01610*
X03849Y01609*
X03849Y01609*
X03849Y01609*
X03850Y01609*
X03850Y01609*
X03850Y01609*
X03851Y01609*
X03851Y01609*
X03851Y01609*
X03852*
X03852Y01609*
X03852Y01609*
X03853Y01609*
X03853Y01609*
X03853Y01609*
X03854Y01609*
X03854Y01609*
X03854Y01609*
X03855Y01610*
X03855Y01610*
X03855Y01610*
X03855Y01610*
X03855Y01611*
X03856Y01611*
X03856Y01611*
X03856Y01611*
X03856Y01612*
X03856Y01612*
X03856Y01612*
X03856Y01613*
X03856Y01613*
X03856Y01613*
X03791D02*
D01*
X03791Y01614*
X03791Y01614*
X03791Y01614*
X03791Y01615*
X03791Y01615*
X03791Y01615*
X03791Y01616*
X03791Y01616*
X03790Y01616*
X03790Y01617*
X03790Y01617*
X03790Y01617*
X03790Y01617*
X03789Y01617*
X03789Y01618*
X03789Y01618*
X03788Y01618*
X03788Y01618*
X03788Y01618*
X03787Y01618*
X03787Y01618*
X03787Y01618*
X03786*
X03786Y01618*
X03786Y01618*
X03785Y01618*
X03785Y01618*
X03785Y01618*
X03784Y01618*
X03784Y01618*
X03784Y01617*
X03783Y01617*
X03783Y01617*
X03783Y01617*
X03783Y01617*
X03783Y01616*
X03782Y01616*
X03782Y01616*
X03782Y01615*
X03782Y01615*
X03782Y01615*
X03782Y01614*
X03782Y01614*
X03782Y01614*
X03782Y01613*
X03782Y01613*
X03782Y01613*
X03782Y01612*
X03782Y01612*
X03782Y01612*
X03782Y01611*
X03782Y01611*
X03782Y01611*
X03783Y01611*
X03783Y01610*
X03783Y01610*
X03783Y01610*
X03783Y01610*
X03784Y01609*
X03784Y01609*
X03784Y01609*
X03785Y01609*
X03785Y01609*
X03785Y01609*
X03786Y01609*
X03786Y01609*
X03786Y01609*
X03787*
X03787Y01609*
X03787Y01609*
X03788Y01609*
X03788Y01609*
X03788Y01609*
X03789Y01609*
X03789Y01609*
X03789Y01609*
X03790Y01610*
X03790Y01610*
X03790Y01610*
X03790Y01610*
X03790Y01611*
X03791Y01611*
X03791Y01611*
X03791Y01611*
X03791Y01612*
X03791Y01612*
X03791Y01612*
X03791Y01613*
X03791Y01613*
X03791Y01613*
X03726D02*
D01*
X03726Y01614*
X03726Y01614*
X03726Y01614*
X03726Y01615*
X03726Y01615*
X03726Y01615*
X03726Y01616*
X03726Y01616*
X03725Y01616*
X03725Y01617*
X03725Y01617*
X03725Y01617*
X03725Y01617*
X03724Y01617*
X03724Y01618*
X03724Y01618*
X03723Y01618*
X03723Y01618*
X03723Y01618*
X03722Y01618*
X03722Y01618*
X03722Y01618*
X03721*
X03721Y01618*
X03721Y01618*
X03720Y01618*
X03720Y01618*
X03720Y01618*
X03719Y01618*
X03719Y01618*
X03719Y01617*
X03718Y01617*
X03718Y01617*
X03718Y01617*
X03718Y01617*
X03718Y01616*
X03717Y01616*
X03717Y01616*
X03717Y01615*
X03717Y01615*
X03717Y01615*
X03717Y01614*
X03717Y01614*
X03717Y01614*
X03717Y01613*
X03717Y01613*
X03717Y01613*
X03717Y01612*
X03717Y01612*
X03717Y01612*
X03717Y01611*
X03717Y01611*
X03717Y01611*
X03718Y01611*
X03718Y01610*
X03718Y01610*
X03718Y01610*
X03718Y01610*
X03719Y01609*
X03719Y01609*
X03719Y01609*
X03720Y01609*
X03720Y01609*
X03720Y01609*
X03721Y01609*
X03721Y01609*
X03721Y01609*
X03722*
X03722Y01609*
X03722Y01609*
X03723Y01609*
X03723Y01609*
X03723Y01609*
X03724Y01609*
X03724Y01609*
X03724Y01609*
X03725Y01610*
X03725Y01610*
X03725Y01610*
X03725Y01610*
X03725Y01611*
X03726Y01611*
X03726Y01611*
X03726Y01611*
X03726Y01612*
X03726Y01612*
X03726Y01612*
X03726Y01613*
X03726Y01613*
X03726Y01613*
X03661D02*
D01*
X03661Y01614*
X03661Y01614*
X03661Y01614*
X03661Y01615*
X03661Y01615*
X03661Y01615*
X03661Y01616*
X03661Y01616*
X03660Y01616*
X03660Y01617*
X03660Y01617*
X03660Y01617*
X03660Y01617*
X03659Y01617*
X03659Y01618*
X03659Y01618*
X03658Y01618*
X03658Y01618*
X03658Y01618*
X03657Y01618*
X03657Y01618*
X03657Y01618*
X03656*
X03656Y01618*
X03656Y01618*
X03655Y01618*
X03655Y01618*
X03655Y01618*
X03654Y01618*
X03654Y01618*
X03654Y01617*
X03653Y01617*
X03653Y01617*
X03653Y01617*
X03653Y01617*
X03653Y01616*
X03652Y01616*
X03652Y01616*
X03652Y01615*
X03652Y01615*
X03652Y01615*
X03652Y01614*
X03652Y01614*
X03652Y01614*
X03652Y01613*
X03652Y01613*
X03652Y01613*
X03652Y01612*
X03652Y01612*
X03652Y01612*
X03652Y01611*
X03652Y01611*
X03652Y01611*
X03653Y01611*
X03653Y01610*
X03653Y01610*
X03653Y01610*
X03653Y01610*
X03654Y01609*
X03654Y01609*
X03654Y01609*
X03655Y01609*
X03655Y01609*
X03655Y01609*
X03656Y01609*
X03656Y01609*
X03656Y01609*
X03657*
X03657Y01609*
X03657Y01609*
X03658Y01609*
X03658Y01609*
X03658Y01609*
X03659Y01609*
X03659Y01609*
X03659Y01609*
X03660Y01610*
X03660Y01610*
X03660Y01610*
X03660Y01610*
X03660Y01611*
X03661Y01611*
X03661Y01611*
X03661Y01611*
X03661Y01612*
X03661Y01612*
X03661Y01612*
X03661Y01613*
X03661Y01613*
X03661Y01613*
G54D53*
X02879Y01806D02*
X02910D01*
X02939Y01811D02*
X02970D01*
X03009D02*
X03040D01*
X03074Y01806D02*
X03105D01*
X03339D02*
X03370D01*
X03274D02*
X03305D01*
X03204D02*
X03235D01*
X03139D02*
X03170D01*
X03419D02*
X03450D01*
X03484D02*
X03515D01*
X03549D02*
X03580D01*
X03614D02*
X03645D01*
X03874D02*
X03905D01*
X03809D02*
X03840D01*
X03744D02*
X03775D01*
X03679D02*
X03710D01*
X02868Y01554D02*
Y01585D01*
X02921Y01554D02*
Y01585D01*
X02868D02*
X02921D01*
X02868Y01554D02*
X02921D01*
X02928D02*
Y01585D01*
X02981Y01554D02*
Y01585D01*
X02928D02*
X02981D01*
X02928Y01554D02*
X02981D01*
X02998D02*
Y01585D01*
X03051Y01554D02*
Y01585D01*
X02998D02*
X03051D01*
X02998Y01554D02*
X03051D01*
X03063D02*
Y01585D01*
X03116Y01554D02*
Y01585D01*
X03063D02*
X03116D01*
X03063Y01554D02*
X03116D01*
X03328D02*
Y01585D01*
X03381Y01554D02*
Y01585D01*
X03328D02*
X03381D01*
X03328Y01554D02*
X03381D01*
X03263D02*
Y01585D01*
X03316Y01554D02*
Y01585D01*
X03263D02*
X03316D01*
X03263Y01554D02*
X03316D01*
X03193D02*
Y01585D01*
X03246Y01554D02*
Y01585D01*
X03193D02*
X03246D01*
X03193Y01554D02*
X03246D01*
X03128D02*
Y01585D01*
X03181Y01554D02*
Y01585D01*
X03128D02*
X03181D01*
X03128Y01554D02*
X03181D01*
X03408D02*
Y01585D01*
X03461Y01554D02*
Y01585D01*
X03408D02*
X03461D01*
X03408Y01554D02*
X03461D01*
X03473D02*
Y01585D01*
X03526Y01554D02*
Y01585D01*
X03473D02*
X03526D01*
X03473Y01554D02*
X03526D01*
X03538D02*
Y01585D01*
X03591Y01554D02*
Y01585D01*
X03538D02*
X03591D01*
X03538Y01554D02*
X03591D01*
X03603D02*
Y01585D01*
X03656Y01554D02*
Y01585D01*
X03603D02*
X03656D01*
X03603Y01554D02*
X03656D01*
X03863D02*
Y01585D01*
X03916Y01554D02*
Y01585D01*
X03863D02*
X03916D01*
X03863Y01554D02*
X03916D01*
X03798D02*
Y01585D01*
X03851Y01554D02*
Y01585D01*
X03798D02*
X03851D01*
X03798Y01554D02*
X03851D01*
X03733D02*
Y01585D01*
X03786Y01554D02*
Y01585D01*
X03733D02*
X03786D01*
X03733Y01554D02*
X03786D01*
X03668D02*
Y01585D01*
X03721Y01554D02*
Y01585D01*
X03668D02*
X03721D01*
X03668Y01554D02*
X03721D01*
G54D57*
X02896Y01833D02*
X02900Y01830D01*
Y01823*
X02896Y01820*
X02883*
X02880Y01823*
Y01830*
X02883Y01833*
X02880Y01853D02*
Y01840D01*
X02893Y01853*
X02896*
X02900Y01850*
Y01843*
X02896Y01840*
Y01860D02*
X02900Y01863D01*
Y01870*
X02896Y01873*
X02883*
X02880Y01870*
Y01863*
X02883Y01860*
X02896*
Y01880D02*
X02900Y01883D01*
Y01890*
X02896Y01893*
X02883*
X02880Y01890*
Y01883*
X02883Y01880*
X02896*
X02956Y01838D02*
X02960Y01835D01*
Y01828*
X02956Y01825*
X02943*
X02940Y01828*
Y01835*
X02943Y01838*
X02940Y01858D02*
Y01845D01*
X02953Y01858*
X02956*
X02960Y01855*
Y01848*
X02956Y01845*
Y01865D02*
X02960Y01868D01*
Y01875*
X02956Y01878*
X02943*
X02940Y01875*
Y01868*
X02943Y01865*
X02956*
X02940Y01885D02*
Y01891D01*
Y01888*
X02960*
X02956Y01885*
X03026Y01838D02*
X03030Y01835D01*
Y01828*
X03026Y01825*
X03013*
X03010Y01828*
Y01835*
X03013Y01838*
X03010Y01858D02*
Y01845D01*
X03023Y01858*
X03026*
X03030Y01855*
Y01848*
X03026Y01845*
Y01865D02*
X03030Y01868D01*
Y01875*
X03026Y01878*
X03013*
X03010Y01875*
Y01868*
X03013Y01865*
X03026*
X03010Y01898D02*
Y01885D01*
X03023Y01898*
X03026*
X03030Y01895*
Y01888*
X03026Y01885*
X03091Y01833D02*
X03095Y01830D01*
Y01823*
X03091Y01820*
X03078*
X03075Y01823*
Y01830*
X03078Y01833*
X03075Y01853D02*
Y01840D01*
X03088Y01853*
X03091*
X03095Y01850*
Y01843*
X03091Y01840*
Y01860D02*
X03095Y01863D01*
Y01870*
X03091Y01873*
X03078*
X03075Y01870*
Y01863*
X03078Y01860*
X03091*
Y01880D02*
X03095Y01883D01*
Y01890*
X03091Y01893*
X03088*
X03085Y01890*
Y01886*
Y01890*
X03081Y01893*
X03078*
X03075Y01890*
Y01883*
X03078Y01880*
X03356Y01833D02*
X03360Y01830D01*
Y01823*
X03356Y01820*
X03343*
X03340Y01823*
Y01830*
X03343Y01833*
X03340Y01853D02*
Y01840D01*
X03353Y01853*
X03356*
X03360Y01850*
Y01843*
X03356Y01840*
X03340Y01860D02*
Y01866D01*
Y01863*
X03360*
X03356Y01860*
X03360Y01890D02*
X03356Y01883D01*
X03350Y01876*
X03343*
X03340Y01880*
Y01886*
X03343Y01890*
X03346*
X03350Y01886*
Y01876*
X03291Y01833D02*
X03295Y01830D01*
Y01823*
X03291Y01820*
X03278*
X03275Y01823*
Y01830*
X03278Y01833*
X03275Y01853D02*
Y01840D01*
X03288Y01853*
X03291*
X03295Y01850*
Y01843*
X03291Y01840*
X03275Y01860D02*
Y01866D01*
Y01863*
X03295*
X03291Y01860*
X03295Y01876D02*
Y01890D01*
X03291*
X03278Y01876*
X03275*
X03221Y01833D02*
X03225Y01830D01*
Y01823*
X03221Y01820*
X03208*
X03205Y01823*
Y01830*
X03208Y01833*
X03205Y01853D02*
Y01840D01*
X03218Y01853*
X03221*
X03225Y01850*
Y01843*
X03221Y01840*
X03205Y01860D02*
Y01866D01*
Y01863*
X03225*
X03221Y01860*
Y01876D02*
X03225Y01880D01*
Y01886*
X03221Y01890*
X03218*
X03215Y01886*
X03211Y01890*
X03208*
X03205Y01886*
Y01880*
X03208Y01876*
X03211*
X03215Y01880*
X03218Y01876*
X03221*
X03215Y01880D02*
Y01886D01*
X03156Y01833D02*
X03160Y01830D01*
Y01823*
X03156Y01820*
X03143*
X03140Y01823*
Y01830*
X03143Y01833*
X03140Y01853D02*
Y01840D01*
X03153Y01853*
X03156*
X03160Y01850*
Y01843*
X03156Y01840*
X03140Y01860D02*
Y01866D01*
Y01863*
X03160*
X03156Y01860*
X03143Y01876D02*
X03140Y01880D01*
Y01886*
X03143Y01890*
X03156*
X03160Y01886*
Y01880*
X03156Y01876*
X03153*
X03150Y01880*
Y01890*
X03436Y01833D02*
X03440Y01830D01*
Y01823*
X03436Y01820*
X03423*
X03420Y01823*
Y01830*
X03423Y01833*
X03420Y01853D02*
Y01840D01*
X03433Y01853*
X03436*
X03440Y01850*
Y01843*
X03436Y01840*
X03420Y01873D02*
Y01860D01*
X03433Y01873*
X03436*
X03440Y01870*
Y01863*
X03436Y01860*
X03420Y01880D02*
Y01886D01*
Y01883*
X03440*
X03436Y01880*
X03501Y01833D02*
X03505Y01830D01*
Y01823*
X03501Y01820*
X03488*
X03485Y01823*
Y01830*
X03488Y01833*
X03485Y01853D02*
Y01840D01*
X03498Y01853*
X03501*
X03505Y01850*
Y01843*
X03501Y01840*
X03485Y01873D02*
Y01860D01*
X03498Y01873*
X03501*
X03505Y01870*
Y01863*
X03501Y01860*
X03485Y01893D02*
Y01880D01*
X03498Y01893*
X03501*
X03505Y01890*
Y01883*
X03501Y01880*
X03566Y01828D02*
X03570Y01825D01*
Y01818*
X03566Y01815*
X03553*
X03550Y01818*
Y01825*
X03553Y01828*
X03550Y01848D02*
Y01835D01*
X03563Y01848*
X03566*
X03570Y01845*
Y01838*
X03566Y01835*
X03550Y01868D02*
Y01855D01*
X03563Y01868*
X03566*
X03570Y01865*
Y01858*
X03566Y01855*
Y01875D02*
X03570Y01878D01*
Y01885*
X03566Y01888*
X03563*
X03560Y01885*
Y01881*
Y01885*
X03556Y01888*
X03553*
X03550Y01885*
Y01878*
X03553Y01875*
X03631Y01843D02*
X03635Y01840D01*
Y01833*
X03631Y01830*
X03618*
X03615Y01833*
Y01840*
X03618Y01843*
X03615Y01863D02*
Y01850D01*
X03628Y01863*
X03631*
X03635Y01860*
Y01853*
X03631Y01850*
X03615Y01883D02*
Y01870D01*
X03628Y01883*
X03631*
X03635Y01880*
Y01873*
X03631Y01870*
X03615Y01900D02*
X03635D01*
X03625Y01890*
Y01903*
X03901Y01838D02*
X03905Y01835D01*
Y01828*
X03901Y01825*
X03888*
X03885Y01828*
Y01835*
X03888Y01838*
X03885Y01858D02*
Y01845D01*
X03898Y01858*
X03901*
X03905Y01855*
Y01848*
X03901Y01845*
Y01865D02*
X03905Y01868D01*
Y01875*
X03901Y01878*
X03898*
X03895Y01875*
Y01871*
Y01875*
X03891Y01878*
X03888*
X03885Y01875*
Y01868*
X03888Y01865*
X03885Y01898D02*
Y01885D01*
X03898Y01898*
X03901*
X03905Y01895*
Y01888*
X03901Y01885*
X03831Y01833D02*
X03835Y01830D01*
Y01823*
X03831Y01820*
X03818*
X03815Y01823*
Y01830*
X03818Y01833*
X03815Y01853D02*
Y01840D01*
X03828Y01853*
X03831*
X03835Y01850*
Y01843*
X03831Y01840*
Y01860D02*
X03835Y01863D01*
Y01870*
X03831Y01873*
X03828*
X03825Y01870*
Y01866*
Y01870*
X03821Y01873*
X03818*
X03815Y01870*
Y01863*
X03818Y01860*
X03831Y01880D02*
X03835Y01883D01*
Y01890*
X03831Y01893*
X03828*
X03825Y01890*
Y01886*
Y01890*
X03821Y01893*
X03818*
X03815Y01890*
Y01883*
X03818Y01880*
X03771Y01848D02*
X03775Y01845D01*
Y01838*
X03771Y01835*
X03758*
X03755Y01838*
Y01845*
X03758Y01848*
X03755Y01868D02*
Y01855D01*
X03768Y01868*
X03771*
X03775Y01865*
Y01858*
X03771Y01855*
Y01875D02*
X03775Y01878D01*
Y01885*
X03771Y01888*
X03768*
X03765Y01885*
Y01881*
Y01885*
X03761Y01888*
X03758*
X03755Y01885*
Y01878*
X03758Y01875*
X03755Y01905D02*
X03775D01*
X03765Y01895*
Y01908*
X03696Y01838D02*
X03700Y01835D01*
Y01828*
X03696Y01825*
X03683*
X03680Y01828*
Y01835*
X03683Y01838*
X03680Y01858D02*
Y01845D01*
X03693Y01858*
X03696*
X03700Y01855*
Y01848*
X03696Y01845*
Y01865D02*
X03700Y01868D01*
Y01875*
X03696Y01878*
X03693*
X03690Y01875*
Y01871*
Y01875*
X03686Y01878*
X03683*
X03680Y01875*
Y01868*
X03683Y01865*
X03700Y01898D02*
Y01885D01*
X03690*
X03693Y01891*
Y01895*
X03690Y01898*
X03683*
X03680Y01895*
Y01888*
X03683Y01885*
X02900Y01425D02*
X02880D01*
Y01435*
X02883Y01438*
X02896*
X02900Y01435*
Y01425*
X02880Y01458D02*
Y01445D01*
X02893Y01458*
X02896*
X02900Y01455*
Y01448*
X02896Y01445*
Y01465D02*
X02900Y01468D01*
Y01475*
X02896Y01478*
X02883*
X02880Y01475*
Y01468*
X02883Y01465*
X02896*
Y01485D02*
X02900Y01488D01*
Y01495*
X02896Y01498*
X02883*
X02880Y01495*
Y01488*
X02883Y01485*
X02896*
X02960Y01425D02*
X02940D01*
Y01435*
X02943Y01438*
X02956*
X02960Y01435*
Y01425*
X02940Y01458D02*
Y01445D01*
X02953Y01458*
X02956*
X02960Y01455*
Y01448*
X02956Y01445*
Y01465D02*
X02960Y01468D01*
Y01475*
X02956Y01478*
X02943*
X02940Y01475*
Y01468*
X02943Y01465*
X02956*
X02940Y01485D02*
Y01491D01*
Y01488*
X02960*
X02956Y01485*
X03030Y01425D02*
X03010D01*
Y01435*
X03013Y01438*
X03026*
X03030Y01435*
Y01425*
X03010Y01458D02*
Y01445D01*
X03023Y01458*
X03026*
X03030Y01455*
Y01448*
X03026Y01445*
Y01465D02*
X03030Y01468D01*
Y01475*
X03026Y01478*
X03013*
X03010Y01475*
Y01468*
X03013Y01465*
X03026*
X03010Y01498D02*
Y01485D01*
X03023Y01498*
X03026*
X03030Y01495*
Y01488*
X03026Y01485*
X03095Y01425D02*
X03075D01*
Y01435*
X03078Y01438*
X03091*
X03095Y01435*
Y01425*
X03075Y01458D02*
Y01445D01*
X03088Y01458*
X03091*
X03095Y01455*
Y01448*
X03091Y01445*
Y01465D02*
X03095Y01468D01*
Y01475*
X03091Y01478*
X03078*
X03075Y01475*
Y01468*
X03078Y01465*
X03091*
Y01485D02*
X03095Y01488D01*
Y01495*
X03091Y01498*
X03088*
X03085Y01495*
Y01491*
Y01495*
X03081Y01498*
X03078*
X03075Y01495*
Y01488*
X03078Y01485*
X03360Y01425D02*
X03340D01*
Y01435*
X03343Y01438*
X03356*
X03360Y01435*
Y01425*
X03340Y01458D02*
Y01445D01*
X03353Y01458*
X03356*
X03360Y01455*
Y01448*
X03356Y01445*
Y01465D02*
X03360Y01468D01*
Y01475*
X03356Y01478*
X03343*
X03340Y01475*
Y01468*
X03343Y01465*
X03356*
X03360Y01498D02*
X03356Y01491D01*
X03350Y01485*
X03343*
X03340Y01488*
Y01495*
X03343Y01498*
X03346*
X03350Y01495*
Y01485*
X03295Y01425D02*
X03275D01*
Y01435*
X03278Y01438*
X03291*
X03295Y01435*
Y01425*
X03275Y01458D02*
Y01445D01*
X03288Y01458*
X03291*
X03295Y01455*
Y01448*
X03291Y01445*
Y01465D02*
X03295Y01468D01*
Y01475*
X03291Y01478*
X03278*
X03275Y01475*
Y01468*
X03278Y01465*
X03291*
X03295Y01485D02*
Y01498D01*
X03291*
X03278Y01485*
X03275*
X03225Y01425D02*
X03205D01*
Y01435*
X03208Y01438*
X03221*
X03225Y01435*
Y01425*
X03205Y01458D02*
Y01445D01*
X03218Y01458*
X03221*
X03225Y01455*
Y01448*
X03221Y01445*
Y01465D02*
X03225Y01468D01*
Y01475*
X03221Y01478*
X03208*
X03205Y01475*
Y01468*
X03208Y01465*
X03221*
Y01485D02*
X03225Y01488D01*
Y01495*
X03221Y01498*
X03218*
X03215Y01495*
X03211Y01498*
X03208*
X03205Y01495*
Y01488*
X03208Y01485*
X03211*
X03215Y01488*
X03218Y01485*
X03221*
X03215Y01488D02*
Y01495D01*
X03160Y01425D02*
X03140D01*
Y01435*
X03143Y01438*
X03156*
X03160Y01435*
Y01425*
X03140Y01458D02*
Y01445D01*
X03153Y01458*
X03156*
X03160Y01455*
Y01448*
X03156Y01445*
Y01465D02*
X03160Y01468D01*
Y01475*
X03156Y01478*
X03143*
X03140Y01475*
Y01468*
X03143Y01465*
X03156*
X03143Y01485D02*
X03140Y01488D01*
Y01495*
X03143Y01498*
X03156*
X03160Y01495*
Y01488*
X03156Y01485*
X03153*
X03150Y01488*
Y01498*
X03440Y01420D02*
X03420D01*
Y01430*
X03423Y01433*
X03436*
X03440Y01430*
Y01420*
X03420Y01453D02*
Y01440D01*
X03433Y01453*
X03436*
X03440Y01450*
Y01443*
X03436Y01440*
X03420Y01460D02*
Y01466D01*
Y01463*
X03440*
X03436Y01460*
Y01476D02*
X03440Y01480D01*
Y01486*
X03436Y01490*
X03423*
X03420Y01486*
Y01480*
X03423Y01476*
X03436*
X03505Y01420D02*
X03485D01*
Y01430*
X03488Y01433*
X03501*
X03505Y01430*
Y01420*
X03485Y01453D02*
Y01440D01*
X03498Y01453*
X03501*
X03505Y01450*
Y01443*
X03501Y01440*
X03485Y01460D02*
Y01466D01*
Y01463*
X03505*
X03501Y01460*
X03485Y01476D02*
Y01483D01*
Y01480*
X03505*
X03501Y01476*
X03570Y01420D02*
X03550D01*
Y01430*
X03553Y01433*
X03566*
X03570Y01430*
Y01420*
X03550Y01453D02*
Y01440D01*
X03563Y01453*
X03566*
X03570Y01450*
Y01443*
X03566Y01440*
X03550Y01460D02*
Y01466D01*
Y01463*
X03570*
X03566Y01460*
X03550Y01490D02*
Y01476D01*
X03563Y01490*
X03566*
X03570Y01486*
Y01480*
X03566Y01476*
X03635Y01420D02*
X03615D01*
Y01430*
X03618Y01433*
X03631*
X03635Y01430*
Y01420*
X03615Y01453D02*
Y01440D01*
X03628Y01453*
X03631*
X03635Y01450*
Y01443*
X03631Y01440*
X03615Y01460D02*
Y01466D01*
Y01463*
X03635*
X03631Y01460*
Y01476D02*
X03635Y01480D01*
Y01486*
X03631Y01490*
X03628*
X03625Y01486*
Y01483*
Y01486*
X03621Y01490*
X03618*
X03615Y01486*
Y01480*
X03618Y01476*
X03890Y01420D02*
X03870D01*
Y01430*
X03873Y01433*
X03886*
X03890Y01430*
Y01420*
X03870Y01453D02*
Y01440D01*
X03883Y01453*
X03886*
X03890Y01450*
Y01443*
X03886Y01440*
X03870Y01460D02*
Y01466D01*
Y01463*
X03890*
X03886Y01460*
X03870Y01486D02*
X03890D01*
X03880Y01476*
Y01490*
X03825Y01420D02*
X03805D01*
Y01430*
X03808Y01433*
X03821*
X03825Y01430*
Y01420*
X03805Y01453D02*
Y01440D01*
X03818Y01453*
X03821*
X03825Y01450*
Y01443*
X03821Y01440*
X03805Y01460D02*
Y01466D01*
Y01463*
X03825*
X03821Y01460*
X03825Y01490D02*
Y01476D01*
X03815*
X03818Y01483*
Y01486*
X03815Y01490*
X03808*
X03805Y01486*
Y01480*
X03808Y01476*
X03765Y01420D02*
X03745D01*
Y01430*
X03748Y01433*
X03761*
X03765Y01430*
Y01420*
X03745Y01453D02*
Y01440D01*
X03758Y01453*
X03761*
X03765Y01450*
Y01443*
X03761Y01440*
X03745Y01460D02*
Y01466D01*
Y01463*
X03765*
X03761Y01460*
X03765Y01490D02*
X03761Y01483D01*
X03755Y01476*
X03748*
X03745Y01480*
Y01486*
X03748Y01490*
X03751*
X03755Y01486*
Y01476*
X03700Y01420D02*
X03680D01*
Y01430*
X03683Y01433*
X03696*
X03700Y01430*
Y01420*
X03680Y01453D02*
Y01440D01*
X03693Y01453*
X03696*
X03700Y01450*
Y01443*
X03696Y01440*
X03680Y01460D02*
Y01466D01*
Y01463*
X03700*
X03696Y01460*
X03700Y01476D02*
Y01490D01*
X03696*
X03683Y01476*
X03680*
X03140Y01035D02*
Y01055D01*
X03130*
X03126Y01051*
Y01045*
X03130Y01041*
X03140*
X03133D02*
X03126Y01035D01*
X03106D02*
X03120D01*
X03106Y01048*
Y01051*
X03110Y01055*
X03116*
X03120Y01051*
X03100D02*
X03096Y01055D01*
X03090*
X03086Y01051*
Y01038*
X03090Y01035*
X03096*
X03100Y01038*
Y01051*
X03080D02*
X03076Y01055D01*
X03070*
X03066Y01051*
Y01038*
X03070Y01035*
X03076*
X03080Y01038*
Y01051*
X03105Y01200D02*
Y01220D01*
X03095*
X03091Y01216*
Y01210*
X03095Y01206*
X03105*
X03098D02*
X03091Y01200D01*
X03071D02*
X03085D01*
X03071Y01213*
Y01216*
X03075Y01220*
X03081*
X03085Y01216*
X03065D02*
X03061Y01220D01*
X03055*
X03051Y01216*
Y01203*
X03055Y01200*
X03061*
X03065Y01203*
Y01216*
X03045Y01200D02*
X03038D01*
X03041*
Y01220*
X03045Y01216*
X03035Y01040D02*
Y01060D01*
X03025*
X03021Y01056*
Y01050*
X03025Y01046*
X03035*
X03028D02*
X03021Y01040D01*
X03001D02*
X03015D01*
X03001Y01053*
Y01056*
X03005Y01060*
X03011*
X03015Y01056*
X02995D02*
X02991Y01060D01*
X02985*
X02981Y01056*
Y01043*
X02985Y01040*
X02991*
X02995Y01043*
Y01056*
X02961Y01040D02*
X02975D01*
X02961Y01053*
Y01056*
X02965Y01060*
X02971*
X02975Y01056*
X02965Y01200D02*
Y01220D01*
X02955*
X02951Y01216*
Y01210*
X02955Y01206*
X02965*
X02958D02*
X02951Y01200D01*
X02931D02*
X02945D01*
X02931Y01213*
Y01216*
X02935Y01220*
X02941*
X02945Y01216*
X02925D02*
X02921Y01220D01*
X02915*
X02911Y01216*
Y01203*
X02915Y01200*
X02921*
X02925Y01203*
Y01216*
X02905D02*
X02901Y01220D01*
X02895*
X02891Y01216*
Y01213*
X02895Y01210*
X02898*
X02895*
X02891Y01206*
Y01203*
X02895Y01200*
X02901*
X02905Y01203*
X03375Y01040D02*
Y01060D01*
X03365*
X03361Y01056*
Y01050*
X03365Y01046*
X03375*
X03368D02*
X03361Y01040D01*
X03341D02*
X03355D01*
X03341Y01053*
Y01056*
X03345Y01060*
X03351*
X03355Y01056*
X03321Y01040D02*
X03335D01*
X03321Y01053*
Y01056*
X03325Y01060*
X03331*
X03335Y01056*
X03315D02*
X03311Y01060D01*
X03305*
X03301Y01056*
Y01043*
X03305Y01040*
X03311*
X03315Y01043*
Y01056*
Y01205D02*
Y01225D01*
X03305*
X03301Y01221*
Y01215*
X03305Y01211*
X03315*
X03308D02*
X03301Y01205D01*
X03281D02*
X03295D01*
X03281Y01218*
Y01221*
X03285Y01225*
X03291*
X03295Y01221*
X03261Y01205D02*
X03275D01*
X03261Y01218*
Y01221*
X03265Y01225*
X03271*
X03275Y01221*
X03255Y01205D02*
X03248D01*
X03251*
Y01225*
X03255Y01221*
X03260Y01040D02*
Y01060D01*
X03250*
X03246Y01056*
Y01050*
X03250Y01046*
X03260*
X03253D02*
X03246Y01040D01*
X03226D02*
X03240D01*
X03226Y01053*
Y01056*
X03230Y01060*
X03236*
X03240Y01056*
X03206Y01040D02*
X03220D01*
X03206Y01053*
Y01056*
X03210Y01060*
X03216*
X03220Y01056*
X03186Y01040D02*
X03200D01*
X03186Y01053*
Y01056*
X03190Y01060*
X03196*
X03200Y01056*
X03210Y01205D02*
Y01225D01*
X03200*
X03196Y01221*
Y01215*
X03200Y01211*
X03210*
X03203D02*
X03196Y01205D01*
X03176D02*
X03190D01*
X03176Y01218*
Y01221*
X03180Y01225*
X03186*
X03190Y01221*
X03156Y01205D02*
X03170D01*
X03156Y01218*
Y01221*
X03160Y01225*
X03166*
X03170Y01221*
X03150D02*
X03146Y01225D01*
X03140*
X03136Y01221*
Y01218*
X03140Y01215*
X03143*
X03140*
X03136Y01211*
Y01208*
X03140Y01205*
X03146*
X03150Y01208*
X03615Y01040D02*
Y01060D01*
X03605*
X03601Y01056*
Y01050*
X03605Y01046*
X03615*
X03608D02*
X03601Y01040D01*
X03581D02*
X03595D01*
X03581Y01053*
Y01056*
X03585Y01060*
X03591*
X03595Y01056*
X03561Y01040D02*
X03575D01*
X03561Y01053*
Y01056*
X03565Y01060*
X03571*
X03575Y01056*
X03541Y01060D02*
X03548Y01056D01*
X03555Y01050*
Y01043*
X03551Y01040*
X03545*
X03541Y01043*
Y01046*
X03545Y01050*
X03555*
X03550Y01200D02*
Y01220D01*
X03540*
X03536Y01216*
Y01210*
X03540Y01206*
X03550*
X03543D02*
X03536Y01200D01*
X03516D02*
X03530D01*
X03516Y01213*
Y01216*
X03520Y01220*
X03526*
X03530Y01216*
X03496Y01200D02*
X03510D01*
X03496Y01213*
Y01216*
X03500Y01220*
X03506*
X03510Y01216*
X03490Y01220D02*
X03476D01*
Y01216*
X03490Y01203*
Y01200*
X03495Y01040D02*
Y01060D01*
X03485*
X03481Y01056*
Y01050*
X03485Y01046*
X03495*
X03488D02*
X03481Y01040D01*
X03461D02*
X03475D01*
X03461Y01053*
Y01056*
X03465Y01060*
X03471*
X03475Y01056*
X03441Y01040D02*
X03455D01*
X03441Y01053*
Y01056*
X03445Y01060*
X03451*
X03455Y01056*
X03435D02*
X03431Y01060D01*
X03425*
X03421Y01056*
Y01053*
X03425Y01050*
X03421Y01046*
Y01043*
X03425Y01040*
X03431*
X03435Y01043*
Y01046*
X03431Y01050*
X03435Y01053*
Y01056*
X03431Y01050D02*
X03425D01*
X03430Y01200D02*
Y01220D01*
X03420*
X03416Y01216*
Y01210*
X03420Y01206*
X03430*
X03423D02*
X03416Y01200D01*
X03396D02*
X03410D01*
X03396Y01213*
Y01216*
X03400Y01220*
X03406*
X03410Y01216*
X03390D02*
X03386Y01220D01*
X03380*
X03376Y01216*
Y01213*
X03380Y01210*
X03383*
X03380*
X03376Y01206*
Y01203*
X03380Y01200*
X03386*
X03390Y01203*
X03370Y01216D02*
X03366Y01220D01*
X03360*
X03356Y01216*
Y01203*
X03360Y01200*
X03366*
X03370Y01203*
Y01216*
X03855Y01040D02*
Y01060D01*
X03845*
X03841Y01056*
Y01050*
X03845Y01046*
X03855*
X03848D02*
X03841Y01040D01*
X03821D02*
X03835D01*
X03821Y01053*
Y01056*
X03825Y01060*
X03831*
X03835Y01056*
X03805Y01040D02*
Y01060D01*
X03815Y01050*
X03801*
X03795Y01056D02*
X03791Y01060D01*
X03785*
X03781Y01056*
Y01053*
X03785Y01050*
X03788*
X03785*
X03781Y01046*
Y01043*
X03785Y01040*
X03791*
X03795Y01043*
Y01200D02*
Y01220D01*
X03785*
X03781Y01216*
Y01210*
X03785Y01206*
X03795*
X03788D02*
X03781Y01200D01*
X03761D02*
X03775D01*
X03761Y01213*
Y01216*
X03765Y01220*
X03771*
X03775Y01216*
X03745Y01200D02*
Y01220D01*
X03755Y01210*
X03741*
X03725Y01200D02*
Y01220D01*
X03735Y01210*
X03721*
X03735Y01040D02*
Y01060D01*
X03725*
X03721Y01056*
Y01050*
X03725Y01046*
X03735*
X03728D02*
X03721Y01040D01*
X03701D02*
X03715D01*
X03701Y01053*
Y01056*
X03705Y01060*
X03711*
X03715Y01056*
X03685Y01040D02*
Y01060D01*
X03695Y01050*
X03681*
X03661Y01060D02*
X03675D01*
Y01050*
X03668Y01053*
X03665*
X03661Y01050*
Y01043*
X03665Y01040*
X03671*
X03675Y01043*
Y01195D02*
Y01215D01*
X03665*
X03661Y01211*
Y01205*
X03665Y01201*
X03675*
X03668D02*
X03661Y01195D01*
X03641D02*
X03655D01*
X03641Y01208*
Y01211*
X03645Y01215*
X03651*
X03655Y01211*
X03625Y01195D02*
Y01215D01*
X03635Y01205*
X03621*
X03601Y01215D02*
X03608Y01211D01*
X03615Y01205*
Y01198*
X03611Y01195*
X03605*
X03601Y01198*
Y01201*
X03605Y01205*
X03615*
X02195Y03550D02*
Y03570D01*
X02185*
X02181Y03566*
Y03560*
X02185Y03556*
X02195*
X02188D02*
X02181Y03550D01*
X02161D02*
X02175D01*
X02161Y03563*
Y03566*
X02165Y03570*
X02171*
X02175Y03566*
X02145Y03550D02*
Y03570D01*
X02155Y03560*
X02141*
X02135Y03570D02*
X02121D01*
Y03566*
X02135Y03553*
Y03550*
X02290D02*
Y03570D01*
X02280*
X02276Y03566*
Y03560*
X02280Y03556*
X02290*
X02283D02*
X02276Y03550D01*
X02256D02*
X02270D01*
X02256Y03563*
Y03566*
X02260Y03570*
X02266*
X02270Y03566*
X02240Y03550D02*
Y03570D01*
X02250Y03560*
X02236*
X02230Y03566D02*
X02226Y03570D01*
X02220*
X02216Y03566*
Y03563*
X02220Y03560*
X02216Y03556*
Y03553*
X02220Y03550*
X02226*
X02230Y03553*
Y03556*
X02226Y03560*
X02230Y03563*
Y03566*
X02226Y03560D02*
X02220D01*
X02390Y03550D02*
Y03570D01*
X02380*
X02376Y03566*
Y03560*
X02380Y03556*
X02390*
X02383D02*
X02376Y03550D01*
X02356D02*
X02370D01*
X02356Y03563*
Y03566*
X02360Y03570*
X02366*
X02370Y03566*
X02340Y03550D02*
Y03570D01*
X02350Y03560*
X02336*
X02330Y03553D02*
X02326Y03550D01*
X02320*
X02316Y03553*
Y03566*
X02320Y03570*
X02326*
X02330Y03566*
Y03563*
X02326Y03560*
X02316*
X02490Y03550D02*
Y03570D01*
X02480*
X02476Y03566*
Y03560*
X02480Y03556*
X02490*
X02483D02*
X02476Y03550D01*
X02456D02*
X02470D01*
X02456Y03563*
Y03566*
X02460Y03570*
X02466*
X02470Y03566*
X02436Y03570D02*
X02450D01*
Y03560*
X02443Y03563*
X02440*
X02436Y03560*
Y03553*
X02440Y03550*
X02446*
X02450Y03553*
X02430Y03566D02*
X02426Y03570D01*
X02420*
X02416Y03566*
Y03553*
X02420Y03550*
X02426*
X02430Y03553*
Y03566*
X02590Y03550D02*
Y03570D01*
X02580*
X02576Y03566*
Y03560*
X02580Y03556*
X02590*
X02583D02*
X02576Y03550D01*
X02556D02*
X02570D01*
X02556Y03563*
Y03566*
X02560Y03570*
X02566*
X02570Y03566*
X02536Y03570D02*
X02550D01*
Y03560*
X02543Y03563*
X02540*
X02536Y03560*
Y03553*
X02540Y03550*
X02546*
X02550Y03553*
X02530Y03550D02*
X02523D01*
X02526*
Y03570*
X02530Y03566*
X02690Y03550D02*
Y03570D01*
X02680*
X02676Y03566*
Y03560*
X02680Y03556*
X02690*
X02683D02*
X02676Y03550D01*
X02656D02*
X02670D01*
X02656Y03563*
Y03566*
X02660Y03570*
X02666*
X02670Y03566*
X02636Y03570D02*
X02650D01*
Y03560*
X02643Y03563*
X02640*
X02636Y03560*
Y03553*
X02640Y03550*
X02646*
X02650Y03553*
X02616Y03550D02*
X02630D01*
X02616Y03563*
Y03566*
X02620Y03570*
X02626*
X02630Y03566*
X02790Y03550D02*
Y03570D01*
X02780*
X02776Y03566*
Y03560*
X02780Y03556*
X02790*
X02783D02*
X02776Y03550D01*
X02756D02*
X02770D01*
X02756Y03563*
Y03566*
X02760Y03570*
X02766*
X02770Y03566*
X02736Y03570D02*
X02750D01*
Y03560*
X02743Y03563*
X02740*
X02736Y03560*
Y03553*
X02740Y03550*
X02746*
X02750Y03553*
X02730Y03566D02*
X02726Y03570D01*
X02720*
X02716Y03566*
Y03563*
X02720Y03560*
X02723*
X02720*
X02716Y03556*
Y03553*
X02720Y03550*
X02726*
X02730Y03553*
X02890Y03550D02*
Y03570D01*
X02880*
X02876Y03566*
Y03560*
X02880Y03556*
X02890*
X02883D02*
X02876Y03550D01*
X02856D02*
X02870D01*
X02856Y03563*
Y03566*
X02860Y03570*
X02866*
X02870Y03566*
X02836Y03570D02*
X02850D01*
Y03560*
X02843Y03563*
X02840*
X02836Y03560*
Y03553*
X02840Y03550*
X02846*
X02850Y03553*
X02820Y03550D02*
Y03570D01*
X02830Y03560*
X02816*
M02*