%FSDAX23Y23*%
%MOIN*%
%SFA1B1*%

%IPPOS*%
%ADD38C,0.010000*%
%ADD52C,0.009800*%
%ADD53C,0.007900*%
%ADD54C,0.023600*%
%ADD55C,0.008000*%
%ADD56C,0.003900*%
%ADD57C,0.005000*%
%LNde-110817-1*%
%LPD*%
G36*
X04012Y03330D02*
X03997Y03340D01*
X04012Y03350*
Y03330*
G37*
G54D38*
X04540Y02500D02*
X04555Y02515D01*
X04540Y02530D02*
X04555Y02515D01*
X04470D02*
X04555D01*
X04395Y02590D02*
X04470Y02515D01*
X04375Y02590D02*
X04395D01*
X04335Y02850D02*
X04520D01*
X04320Y02890D02*
X04330Y02900D01*
X04320Y02600D02*
Y02890D01*
Y02600D02*
X04330Y02590D01*
X04505*
X04595Y02680*
Y02700*
Y02865*
X04560Y02900D02*
X04595Y02865D01*
X04330Y02900D02*
X04560D01*
X04070Y02180D02*
X04245D01*
X04540Y01920D02*
X04555Y01935D01*
X04540Y01950D02*
X04555Y01935D01*
X04495D02*
X04555D01*
X04390Y01830D02*
X04495Y01935D01*
X04390Y01820D02*
Y01830D01*
X04020Y02215D02*
X04050Y02245D01*
X04020Y01795D02*
Y02215D01*
Y01795D02*
X04065Y01750D01*
X04085*
X04350*
X04390Y01790*
Y01890*
X04365Y01915D02*
X04390Y01890D01*
X04330Y01950D02*
X04365Y01915D01*
X04330Y01950D02*
Y02040D01*
Y02200*
X04285Y02245D02*
X04330Y02200D01*
X04050Y02245D02*
X04285D01*
X03235Y03555D02*
X03695D01*
X03235Y03315D02*
X03695D01*
X03235Y03315D02*
Y03551D01*
X03695Y03315D02*
Y03555D01*
X03744Y03544D02*
Y03858D01*
X04335Y03544D02*
Y03858D01*
X03744Y03544D02*
X04335D01*
X03744Y03858D02*
X04335D01*
X01578Y03547D02*
X01971D01*
Y03867*
X01578Y03547D02*
Y03867D01*
X01971*
G54D52*
X03764Y01801D02*
D01*
X03764Y01801*
X03764Y01802*
X03764Y01802*
X03764Y01802*
X03764Y01803*
X03763Y01803*
X03763Y01803*
X03763Y01804*
X03763Y01804*
X03763Y01804*
X03763Y01804*
X03762Y01805*
X03762Y01805*
X03762Y01805*
X03761Y01805*
X03761Y01805*
X03761Y01806*
X03761Y01806*
X03760Y01806*
X03760Y01806*
X03760Y01806*
X03759Y01806*
X03759*
X03758Y01806*
X03758Y01806*
X03758Y01806*
X03757Y01806*
X03757Y01806*
X03757Y01805*
X03757Y01805*
X03756Y01805*
X03756Y01805*
X03756Y01805*
X03755Y01804*
X03755Y01804*
X03755Y01804*
X03755Y01804*
X03755Y01803*
X03755Y01803*
X03754Y01803*
X03754Y01802*
X03754Y01802*
X03754Y01802*
X03754Y01801*
X03754Y01801*
X03754Y01801*
X03754Y01800*
X03754Y01800*
X03754Y01800*
X03754Y01799*
X03755Y01799*
X03755Y01799*
X03755Y01798*
X03755Y01798*
X03755Y01798*
X03755Y01798*
X03756Y01797*
X03756Y01797*
X03756Y01797*
X03757Y01797*
X03757Y01797*
X03757Y01796*
X03757Y01796*
X03758Y01796*
X03758Y01796*
X03758Y01796*
X03759Y01796*
X03759*
X03760Y01796*
X03760Y01796*
X03760Y01796*
X03761Y01796*
X03761Y01796*
X03761Y01797*
X03761Y01797*
X03762Y01797*
X03762Y01797*
X03762Y01797*
X03763Y01798*
X03763Y01798*
X03763Y01798*
X03763Y01798*
X03763Y01799*
X03763Y01799*
X03764Y01799*
X03764Y01800*
X03764Y01800*
X03764Y01800*
X03764Y01801*
X03764Y01801*
X01408Y02070D02*
D01*
X01408Y02071*
X01408Y02071*
X01407Y02071*
X01407Y02072*
X01407Y02072*
X01407Y02072*
X01407Y02073*
X01407Y02073*
X01407Y02073*
X01406Y02073*
X01406Y02074*
X01406Y02074*
X01406Y02074*
X01405Y02074*
X01405Y02075*
X01405Y02075*
X01405Y02075*
X01404Y02075*
X01404Y02075*
X01404Y02075*
X01403Y02075*
X01403Y02075*
X01403*
X01402Y02075*
X01402Y02075*
X01402Y02075*
X01401Y02075*
X01401Y02075*
X01401Y02075*
X01400Y02075*
X01400Y02074*
X01400Y02074*
X01399Y02074*
X01399Y02074*
X01399Y02073*
X01399Y02073*
X01399Y02073*
X01398Y02073*
X01398Y02072*
X01398Y02072*
X01398Y02072*
X01398Y02071*
X01398Y02071*
X01398Y02071*
X01398Y02070*
X01398Y02070*
X01398Y02070*
X01398Y02069*
X01398Y02069*
X01398Y02069*
X01398Y02068*
X01398Y02068*
X01399Y02068*
X01399Y02067*
X01399Y02067*
X01399Y02067*
X01399Y02067*
X01400Y02066*
X01400Y02066*
X01400Y02066*
X01401Y02066*
X01401Y02066*
X01401Y02066*
X01402Y02066*
X01402Y02065*
X01402Y02065*
X01403Y02065*
X01403*
X01403Y02065*
X01404Y02065*
X01404Y02066*
X01404Y02066*
X01405Y02066*
X01405Y02066*
X01405Y02066*
X01405Y02066*
X01406Y02066*
X01406Y02067*
X01406Y02067*
X01406Y02067*
X01407Y02067*
X01407Y02068*
X01407Y02068*
X01407Y02068*
X01407Y02069*
X01407Y02069*
X01407Y02069*
X01408Y02070*
X01408Y02070*
X01408Y02070*
X01567Y02101D02*
D01*
X01567Y02102*
X01567Y02102*
X01567Y02102*
X01567Y02103*
X01567Y02103*
X01566Y02103*
X01566Y02104*
X01566Y02104*
X01566Y02104*
X01566Y02105*
X01566Y02105*
X01565Y02105*
X01565Y02105*
X01565Y02105*
X01564Y02106*
X01564Y02106*
X01564Y02106*
X01564Y02106*
X01563Y02106*
X01563Y02106*
X01563Y02106*
X01562Y02106*
X01562*
X01561Y02106*
X01561Y02106*
X01561Y02106*
X01560Y02106*
X01560Y02106*
X01560Y02106*
X01560Y02106*
X01559Y02105*
X01559Y02105*
X01559Y02105*
X01558Y02105*
X01558Y02105*
X01558Y02104*
X01558Y02104*
X01558Y02104*
X01558Y02103*
X01557Y02103*
X01557Y02103*
X01557Y02102*
X01557Y02102*
X01557Y02102*
X01557Y02101*
X01557Y02101*
X01557Y02101*
X01557Y02100*
X01557Y02100*
X01557Y02100*
X01558Y02099*
X01558Y02099*
X01558Y02099*
X01558Y02099*
X01558Y02098*
X01558Y02098*
X01559Y02098*
X01559Y02098*
X01559Y02097*
X01560Y02097*
X01560Y02097*
X01560Y02097*
X01560Y02097*
X01561Y02097*
X01561Y02097*
X01561Y02097*
X01562Y02097*
X01562*
X01563Y02097*
X01563Y02097*
X01563Y02097*
X01564Y02097*
X01564Y02097*
X01564Y02097*
X01564Y02097*
X01565Y02097*
X01565Y02098*
X01565Y02098*
X01566Y02098*
X01566Y02098*
X01566Y02099*
X01566Y02099*
X01566Y02099*
X01566Y02099*
X01567Y02100*
X01567Y02100*
X01567Y02100*
X01567Y02101*
X01567Y02101*
X01567Y02101*
X02110Y02400D02*
D01*
X02110Y02400*
X02110Y02400*
X02110Y02401*
X02110Y02401*
X02110Y02401*
X02110Y02401*
X02109Y02402*
X02109Y02402*
X02109Y02402*
X02109Y02403*
X02109Y02403*
X02108Y02403*
X02108Y02403*
X02108Y02404*
X02108Y02404*
X02107Y02404*
X02107Y02404*
X02107Y02404*
X02106Y02404*
X02106Y02404*
X02106Y02404*
X02105Y02404*
X02105*
X02105Y02404*
X02104Y02404*
X02104Y02404*
X02104Y02404*
X02103Y02404*
X02103Y02404*
X02103Y02404*
X02102Y02404*
X02102Y02403*
X02102Y02403*
X02102Y02403*
X02101Y02403*
X02101Y02402*
X02101Y02402*
X02101Y02402*
X02101Y02401*
X02100Y02401*
X02100Y02401*
X02100Y02401*
X02100Y02400*
X02100Y02400*
X02100Y02400*
X02100Y02399*
X02100Y02399*
X02100Y02398*
X02100Y02398*
X02100Y02398*
X02101Y02398*
X02101Y02397*
X02101Y02397*
X02101Y02397*
X02101Y02396*
X02102Y02396*
X02102Y02396*
X02102Y02396*
X02102Y02395*
X02103Y02395*
X02103Y02395*
X02103Y02395*
X02104Y02395*
X02104Y02395*
X02104Y02395*
X02105Y02395*
X02105Y02395*
X02105*
X02106Y02395*
X02106Y02395*
X02106Y02395*
X02107Y02395*
X02107Y02395*
X02107Y02395*
X02108Y02395*
X02108Y02395*
X02108Y02396*
X02108Y02396*
X02109Y02396*
X02109Y02396*
X02109Y02397*
X02109Y02397*
X02109Y02397*
X02110Y02398*
X02110Y02398*
X02110Y02398*
X02110Y02398*
X02110Y02399*
X02110Y02399*
X02110Y02400*
X02459Y01676D02*
D01*
X02459Y01676*
X02459Y01677*
X02459Y01677*
X02459Y01677*
X02459Y01678*
X02458Y01678*
X02458Y01678*
X02458Y01679*
X02458Y01679*
X02458Y01679*
X02458Y01679*
X02457Y01680*
X02457Y01680*
X02457Y01680*
X02456Y01680*
X02456Y01680*
X02456Y01681*
X02456Y01681*
X02455Y01681*
X02455Y01681*
X02455Y01681*
X02454Y01681*
X02454*
X02453Y01681*
X02453Y01681*
X02453Y01681*
X02452Y01681*
X02452Y01681*
X02452Y01680*
X02452Y01680*
X02451Y01680*
X02451Y01680*
X02451Y01680*
X02450Y01679*
X02450Y01679*
X02450Y01679*
X02450Y01679*
X02450Y01678*
X02450Y01678*
X02449Y01678*
X02449Y01677*
X02449Y01677*
X02449Y01677*
X02449Y01676*
X02449Y01676*
X02449Y01676*
X02449Y01675*
X02449Y01675*
X02449Y01675*
X02449Y01674*
X02450Y01674*
X02450Y01674*
X02450Y01673*
X02450Y01673*
X02450Y01673*
X02450Y01673*
X02451Y01672*
X02451Y01672*
X02451Y01672*
X02452Y01672*
X02452Y01672*
X02452Y01671*
X02452Y01671*
X02453Y01671*
X02453Y01671*
X02453Y01671*
X02454Y01671*
X02454*
X02455Y01671*
X02455Y01671*
X02455Y01671*
X02456Y01671*
X02456Y01671*
X02456Y01672*
X02456Y01672*
X02457Y01672*
X02457Y01672*
X02457Y01672*
X02458Y01673*
X02458Y01673*
X02458Y01673*
X02458Y01673*
X02458Y01674*
X02458Y01674*
X02459Y01674*
X02459Y01675*
X02459Y01675*
X02459Y01675*
X02459Y01676*
X02459Y01676*
X01527Y01965D02*
D01*
X01527Y01966*
X01527Y01966*
X01527Y01966*
X01527Y01967*
X01527Y01967*
X01527Y01967*
X01526Y01968*
X01526Y01968*
X01526Y01968*
X01526Y01969*
X01526Y01969*
X01525Y01969*
X01525Y01969*
X01525Y01969*
X01525Y01970*
X01524Y01970*
X01524Y01970*
X01524Y01970*
X01523Y01970*
X01523Y01970*
X01523Y01970*
X01522Y01970*
X01522*
X01522Y01970*
X01521Y01970*
X01521Y01970*
X01521Y01970*
X01520Y01970*
X01520Y01970*
X01520Y01970*
X01519Y01969*
X01519Y01969*
X01519Y01969*
X01519Y01969*
X01518Y01969*
X01518Y01968*
X01518Y01968*
X01518Y01968*
X01518Y01967*
X01517Y01967*
X01517Y01967*
X01517Y01966*
X01517Y01966*
X01517Y01966*
X01517Y01965*
X01517Y01965*
X01517Y01965*
X01517Y01964*
X01517Y01964*
X01517Y01964*
X01518Y01963*
X01518Y01963*
X01518Y01963*
X01518Y01963*
X01518Y01962*
X01519Y01962*
X01519Y01962*
X01519Y01962*
X01519Y01961*
X01520Y01961*
X01520Y01961*
X01520Y01961*
X01521Y01961*
X01521Y01961*
X01521Y01961*
X01522Y01961*
X01522Y01961*
X01522*
X01523Y01961*
X01523Y01961*
X01523Y01961*
X01524Y01961*
X01524Y01961*
X01524Y01961*
X01525Y01961*
X01525Y01961*
X01525Y01962*
X01525Y01962*
X01526Y01962*
X01526Y01962*
X01526Y01963*
X01526Y01963*
X01526Y01963*
X01527Y01963*
X01527Y01964*
X01527Y01964*
X01527Y01964*
X01527Y01965*
X01527Y01965*
X01527Y01965*
X04026Y03217D02*
D01*
X04026Y03217*
X04026Y03218*
X04026Y03218*
X04026Y03218*
X04026Y03219*
X04026Y03219*
X04025Y03219*
X04025Y03220*
X04025Y03220*
X04025Y03220*
X04025Y03220*
X04024Y03221*
X04024Y03221*
X04024Y03221*
X04024Y03221*
X04023Y03221*
X04023Y03222*
X04023Y03222*
X04022Y03222*
X04022Y03222*
X04022Y03222*
X04021Y03222*
X04021*
X04021Y03222*
X04020Y03222*
X04020Y03222*
X04020Y03222*
X04019Y03222*
X04019Y03221*
X04019Y03221*
X04018Y03221*
X04018Y03221*
X04018Y03221*
X04018Y03220*
X04017Y03220*
X04017Y03220*
X04017Y03220*
X04017Y03219*
X04017Y03219*
X04016Y03219*
X04016Y03218*
X04016Y03218*
X04016Y03218*
X04016Y03217*
X04016Y03217*
X04016Y03217*
X04016Y03216*
X04016Y03216*
X04016Y03216*
X04016Y03215*
X04017Y03215*
X04017Y03215*
X04017Y03214*
X04017Y03214*
X04017Y03214*
X04018Y03214*
X04018Y03213*
X04018Y03213*
X04018Y03213*
X04019Y03213*
X04019Y03213*
X04019Y03212*
X04020Y03212*
X04020Y03212*
X04020Y03212*
X04021Y03212*
X04021Y03212*
X04021*
X04022Y03212*
X04022Y03212*
X04022Y03212*
X04023Y03212*
X04023Y03212*
X04023Y03213*
X04024Y03213*
X04024Y03213*
X04024Y03213*
X04024Y03213*
X04025Y03214*
X04025Y03214*
X04025Y03214*
X04025Y03214*
X04025Y03215*
X04026Y03215*
X04026Y03215*
X04026Y03216*
X04026Y03216*
X04026Y03216*
X04026Y03217*
X04026Y03217*
X02575Y02860D02*
D01*
X02575Y02861*
X02575Y02861*
X02575Y02861*
X02575Y02862*
X02575Y02862*
X02575Y02862*
X02574Y02863*
X02574Y02863*
X02574Y02863*
X02574Y02863*
X02574Y02864*
X02573Y02864*
X02573Y02864*
X02573Y02864*
X02573Y02865*
X02572Y02865*
X02572Y02865*
X02572Y02865*
X02571Y02865*
X02571Y02865*
X02571Y02865*
X02570Y02865*
X02570*
X02570Y02865*
X02569Y02865*
X02569Y02865*
X02569Y02865*
X02568Y02865*
X02568Y02865*
X02568Y02865*
X02567Y02864*
X02567Y02864*
X02567Y02864*
X02567Y02864*
X02566Y02863*
X02566Y02863*
X02566Y02863*
X02566Y02863*
X02566Y02862*
X02565Y02862*
X02565Y02862*
X02565Y02861*
X02565Y02861*
X02565Y02861*
X02565Y02860*
X02565Y02860*
X02565Y02860*
X02565Y02859*
X02565Y02859*
X02565Y02859*
X02566Y02858*
X02566Y02858*
X02566Y02858*
X02566Y02857*
X02566Y02857*
X02567Y02857*
X02567Y02857*
X02567Y02856*
X02567Y02856*
X02568Y02856*
X02568Y02856*
X02568Y02856*
X02569Y02856*
X02569Y02856*
X02569Y02855*
X02570Y02855*
X02570Y02855*
X02570*
X02571Y02855*
X02571Y02855*
X02571Y02856*
X02572Y02856*
X02572Y02856*
X02572Y02856*
X02573Y02856*
X02573Y02856*
X02573Y02856*
X02573Y02857*
X02574Y02857*
X02574Y02857*
X02574Y02857*
X02574Y02858*
X02574Y02858*
X02575Y02858*
X02575Y02859*
X02575Y02859*
X02575Y02859*
X02575Y02860*
X02575Y02860*
X02575Y02860*
X02330Y03413D02*
D01*
X02330Y03413*
X02330Y03414*
X02330Y03414*
X02330Y03414*
X02330Y03415*
X02330Y03415*
X02330Y03415*
X02330Y03416*
X02329Y03416*
X02329Y03416*
X02329Y03416*
X02329Y03417*
X02329Y03417*
X02328Y03417*
X02328Y03417*
X02328Y03417*
X02327Y03418*
X02327Y03418*
X02327Y03418*
X02326Y03418*
X02326Y03418*
X02326Y03418*
X02325*
X02325Y03418*
X02325Y03418*
X02324Y03418*
X02324Y03418*
X02324Y03418*
X02323Y03417*
X02323Y03417*
X02323Y03417*
X02322Y03417*
X02322Y03417*
X02322Y03416*
X02322Y03416*
X02322Y03416*
X02321Y03416*
X02321Y03415*
X02321Y03415*
X02321Y03415*
X02321Y03414*
X02321Y03414*
X02321Y03414*
X02321Y03413*
X02321Y03413*
X02321Y03413*
X02321Y03412*
X02321Y03412*
X02321Y03412*
X02321Y03411*
X02321Y03411*
X02321Y03411*
X02321Y03410*
X02322Y03410*
X02322Y03410*
X02322Y03410*
X02322Y03409*
X02322Y03409*
X02323Y03409*
X02323Y03409*
X02323Y03409*
X02324Y03408*
X02324Y03408*
X02324Y03408*
X02325Y03408*
X02325Y03408*
X02325Y03408*
X02326*
X02326Y03408*
X02326Y03408*
X02327Y03408*
X02327Y03408*
X02327Y03408*
X02328Y03409*
X02328Y03409*
X02328Y03409*
X02329Y03409*
X02329Y03409*
X02329Y03410*
X02329Y03410*
X02329Y03410*
X02330Y03410*
X02330Y03411*
X02330Y03411*
X02330Y03411*
X02330Y03412*
X02330Y03412*
X02330Y03412*
X02330Y03413*
X02330Y03413*
X02216Y02977D02*
D01*
X02216Y02977*
X02216Y02977*
X02216Y02978*
X02216Y02978*
X02216Y02978*
X02216Y02978*
X02216Y02979*
X02216Y02979*
X02215Y02979*
X02215Y02980*
X02215Y02980*
X02215Y02980*
X02215Y02980*
X02214Y02981*
X02214Y02981*
X02214Y02981*
X02213Y02981*
X02213Y02981*
X02213Y02981*
X02212Y02981*
X02212Y02981*
X02212Y02981*
X02211*
X02211Y02981*
X02211Y02981*
X02210Y02981*
X02210Y02981*
X02210Y02981*
X02209Y02981*
X02209Y02981*
X02209Y02981*
X02208Y02980*
X02208Y02980*
X02208Y02980*
X02208Y02980*
X02208Y02979*
X02207Y02979*
X02207Y02979*
X02207Y02978*
X02207Y02978*
X02207Y02978*
X02207Y02978*
X02207Y02977*
X02207Y02977*
X02207Y02977*
X02207Y02976*
X02207Y02976*
X02207Y02975*
X02207Y02975*
X02207Y02975*
X02207Y02975*
X02207Y02974*
X02207Y02974*
X02208Y02974*
X02208Y02973*
X02208Y02973*
X02208Y02973*
X02208Y02973*
X02209Y02972*
X02209Y02972*
X02209Y02972*
X02210Y02972*
X02210Y02972*
X02210Y02972*
X02211Y02972*
X02211Y02972*
X02211Y02972*
X02212*
X02212Y02972*
X02212Y02972*
X02213Y02972*
X02213Y02972*
X02213Y02972*
X02214Y02972*
X02214Y02972*
X02214Y02972*
X02215Y02973*
X02215Y02973*
X02215Y02973*
X02215Y02973*
X02215Y02974*
X02216Y02974*
X02216Y02974*
X02216Y02975*
X02216Y02975*
X02216Y02975*
X02216Y02975*
X02216Y02976*
X02216Y02976*
X02216Y02977*
X03224Y01801D02*
D01*
X03224Y01801*
X03224Y01802*
X03224Y01802*
X03224Y01802*
X03224Y01803*
X03223Y01803*
X03223Y01803*
X03223Y01804*
X03223Y01804*
X03223Y01804*
X03223Y01804*
X03222Y01805*
X03222Y01805*
X03222Y01805*
X03221Y01805*
X03221Y01805*
X03221Y01806*
X03221Y01806*
X03220Y01806*
X03220Y01806*
X03220Y01806*
X03219Y01806*
X03219*
X03218Y01806*
X03218Y01806*
X03218Y01806*
X03217Y01806*
X03217Y01806*
X03217Y01805*
X03217Y01805*
X03216Y01805*
X03216Y01805*
X03216Y01805*
X03215Y01804*
X03215Y01804*
X03215Y01804*
X03215Y01804*
X03215Y01803*
X03215Y01803*
X03214Y01803*
X03214Y01802*
X03214Y01802*
X03214Y01802*
X03214Y01801*
X03214Y01801*
X03214Y01801*
X03214Y01800*
X03214Y01800*
X03214Y01800*
X03214Y01799*
X03215Y01799*
X03215Y01799*
X03215Y01798*
X03215Y01798*
X03215Y01798*
X03215Y01798*
X03216Y01797*
X03216Y01797*
X03216Y01797*
X03217Y01797*
X03217Y01797*
X03217Y01796*
X03217Y01796*
X03218Y01796*
X03218Y01796*
X03218Y01796*
X03219Y01796*
X03219*
X03220Y01796*
X03220Y01796*
X03220Y01796*
X03221Y01796*
X03221Y01796*
X03221Y01797*
X03221Y01797*
X03222Y01797*
X03222Y01797*
X03222Y01797*
X03223Y01798*
X03223Y01798*
X03223Y01798*
X03223Y01798*
X03223Y01799*
X03223Y01799*
X03224Y01799*
X03224Y01800*
X03224Y01800*
X03224Y01800*
X03224Y01801*
X03224Y01801*
G54D53*
X03855Y02848D02*
D01*
X03853Y02847*
X03851Y02847*
X03849Y02847*
X03848Y02847*
X03846Y02846*
X03844Y02845*
X03843Y02845*
X03841Y02844*
X03840Y02843*
X03838Y02842*
X03837Y02840*
X03836Y02839*
X03835Y02838*
X03834Y02836*
X03833Y02835*
X03832Y02833*
X03831Y02832*
X03831Y02830*
X03830Y02829*
X03830Y02827*
X03830Y02825*
X03830Y02823*
Y02822*
X03830Y02820*
X03830Y02818*
X03830Y02816*
X03831Y02815*
X03831Y02813*
X03832Y02812*
X03833Y02810*
X03834Y02809*
X03835Y02807*
X03836Y02806*
X03837Y02805*
X03838Y02803*
X03840Y02802*
X03841Y02801*
X03843Y02800*
X03844Y02800*
X03846Y02799*
X03848Y02798*
X03849Y02798*
X03851Y02798*
X03853Y02798*
X03855Y02798*
X03920Y02797D02*
D01*
X03921Y02797*
X03923Y02797*
X03925Y02797*
X03926Y02797*
X03928Y02798*
X03930Y02799*
X03931Y02799*
X03933Y02800*
X03934Y02801*
X03936Y02802*
X03937Y02804*
X03938Y02805*
X03939Y02806*
X03940Y02808*
X03941Y02809*
X03942Y02811*
X03943Y02812*
X03943Y02814*
X03944Y02815*
X03944Y02817*
X03944Y02819*
X03944Y02821*
Y02822*
X03944Y02824*
X03944Y02826*
X03944Y02828*
X03943Y02829*
X03943Y02831*
X03942Y02832*
X03941Y02834*
X03940Y02835*
X03939Y02837*
X03938Y02838*
X03937Y02839*
X03936Y02841*
X03934Y02842*
X03933Y02843*
X03931Y02844*
X03930Y02844*
X03928Y02845*
X03926Y02846*
X03925Y02846*
X03923Y02846*
X03921Y02846*
X03920Y02847*
X01761Y02770D02*
D01*
X01761Y02783*
X01759Y02797*
X01757Y02810*
X01754Y02824*
X01749Y02837*
X01744Y02850*
X01738Y02862*
X01731Y02874*
X01724Y02885*
X01715Y02896*
X01706Y02906*
X01696Y02916*
X01686Y02925*
X01675Y02933*
X01663Y02940*
X01651Y02946*
X01638Y02952*
X01625Y02957*
X01612Y02961*
X01599Y02963*
X01585Y02965*
X01571Y02966*
X01558*
X01544Y02965*
X01530Y02963*
X01517Y02961*
X01504Y02957*
X01491Y02952*
X01478Y02946*
X01466Y02940*
X01454Y02933*
X01443Y02925*
X01433Y02916*
X01423Y02906*
X01414Y02896*
X01405Y02885*
X01397Y02874*
X01391Y02862*
X01385Y02850*
X01379Y02837*
X01375Y02824*
X01372Y02810*
X01369Y02797*
X01368Y02783*
X01368Y02770*
X01368Y02756*
X01369Y02742*
X01372Y02729*
X01375Y02715*
X01379Y02702*
X01385Y02689*
X01391Y02677*
X01397Y02665*
X01405Y02654*
X01414Y02643*
X01423Y02633*
X01433Y02623*
X01443Y02614*
X01454Y02606*
X01466Y02599*
X01478Y02593*
X01491Y02587*
X01504Y02582*
X01517Y02578*
X01530Y02576*
X01544Y02574*
X01558Y02573*
X01571*
X01585Y02574*
X01599Y02576*
X01612Y02578*
X01625Y02582*
X01638Y02587*
X01651Y02593*
X01663Y02599*
X01675Y02606*
X01686Y02614*
X01696Y02623*
X01706Y02633*
X01715Y02643*
X01724Y02654*
X01731Y02665*
X01738Y02677*
X01744Y02689*
X01749Y02702*
X01754Y02715*
X01757Y02729*
X01759Y02742*
X01761Y02756*
X01761Y02770*
X03358Y03270D02*
D01*
X03358Y03268*
X03358Y03266*
X03358Y03264*
X03359Y03263*
X03359Y03261*
X03360Y03259*
X03361Y03258*
X03361Y03256*
X03362Y03255*
X03363Y03253*
X03365Y03252*
X03366Y03251*
X03367Y03250*
X03369Y03249*
X03370Y03248*
X03372Y03247*
X03373Y03246*
X03375Y03246*
X03377Y03245*
X03378Y03245*
X03380Y03245*
X03382Y03245*
X03383*
X03385Y03245*
X03387Y03245*
X03389Y03245*
X03390Y03246*
X03392Y03246*
X03394Y03247*
X03395Y03248*
X03397Y03249*
X03398Y03250*
X03399Y03251*
X03401Y03252*
X03402Y03253*
X03403Y03255*
X03404Y03256*
X03405Y03258*
X03405Y03259*
X03406Y03261*
X03407Y03263*
X03407Y03264*
X03407Y03266*
X03408Y03268*
X03408Y03270*
X02120Y03830D02*
X03020D01*
X02120Y03730D02*
Y03830D01*
Y03730D02*
X03020D01*
Y03830*
X03700Y01813D02*
Y02206D01*
X03629Y01813D02*
Y02206D01*
Y01813D02*
X03700D01*
X03629Y02206D02*
X03700D01*
X03479Y01926D02*
X03510D01*
X02848Y01819D02*
Y01850D01*
X03855Y02848D02*
Y02947D01*
Y02698D02*
Y02798D01*
X03455Y02698D02*
X03855D01*
X03455D02*
Y02947D01*
X03855*
X03920Y02697D02*
Y02797D01*
Y02847D02*
Y02946D01*
X04320*
Y02697D02*
Y02946D01*
X03920Y02697D02*
X04320D01*
X04739Y02799D02*
Y02850D01*
X04731Y02739D02*
Y02770D01*
X04534Y02069D02*
Y02120D01*
X04526Y02009D02*
Y02040D01*
X01823Y02444D02*
Y02475D01*
X02121Y02444D02*
Y02475D01*
X02134Y02584D02*
Y02635D01*
Y02504D02*
Y02555D01*
X01578Y03284D02*
Y03315D01*
X01815Y02664D02*
Y02715D01*
Y02584D02*
Y02635D01*
Y02504D02*
Y02555D01*
X01551Y03284D02*
Y03315D01*
X02084Y01595D02*
X02135D01*
X01999Y01603D02*
X02030D01*
X02163Y01619D02*
Y01650D01*
X02184Y01524D02*
X02235D01*
X02084D02*
X02135D01*
X01984D02*
X02035D01*
X02284D02*
X02335D01*
X02484D02*
X02535D01*
X02584D02*
X02635D01*
X02684D02*
X02735D01*
X02384D02*
X02435D01*
X01406Y02214D02*
Y02245D01*
X01395Y02334D02*
Y02385D01*
X01314Y02343D02*
X01345D01*
X01413Y02274D02*
Y02305D01*
X01429Y01966D02*
X01460D01*
X01705Y01859D02*
Y01910D01*
X01713Y01939D02*
Y01970D01*
X03879Y01366D02*
X03910D01*
X04526Y03440D02*
X04593D01*
X04508Y03422D02*
X04526Y03440D01*
X04593D02*
X04611Y03422D01*
X04508Y03141D02*
Y03247D01*
X04611Y03141D02*
Y03247D01*
X04508Y03141D02*
X04611D01*
X04508Y03322D02*
Y03422D01*
X04611Y03322D02*
Y03422D01*
X04401Y03255D02*
X04468D01*
X04383Y03237D02*
X04401Y03255D01*
X04468D02*
X04486Y03237D01*
X04383Y02956D02*
Y03062D01*
X04486Y02956D02*
Y03062D01*
X04383Y02956D02*
X04486D01*
X04383Y03137D02*
Y03237D01*
X04486Y03137D02*
Y03237D01*
X04575Y02265D02*
X04775D01*
X04575Y02665D02*
X04775D01*
Y02265D02*
Y02665D01*
X04575Y02265D02*
Y02665D01*
X04665Y02940D02*
X04765D01*
X04665D02*
Y03440D01*
X04765Y02940D02*
Y03440D01*
X04665D02*
X04765D01*
X04575Y01425D02*
Y02125D01*
X04775Y01425D02*
Y02125D01*
X04575D02*
X04775D01*
X04575Y01425D02*
X04775D01*
X01960Y01190D02*
X02760D01*
X01960Y01090D02*
Y01190D01*
Y01090D02*
X02760D01*
Y01190*
X01855Y01415D02*
Y01615D01*
X01455Y01415D02*
Y01615D01*
X01855*
X01455Y01415D02*
X01855D01*
Y01085D02*
Y01285D01*
X01455Y01085D02*
Y01285D01*
X01855*
X01455Y01085D02*
X01855D01*
X04365Y01215D02*
Y01415D01*
X03965Y01215D02*
Y01415D01*
X04365*
X03965Y01215D02*
X04365D01*
Y01515D02*
Y01715D01*
X03965Y01515D02*
Y01715D01*
X04365*
X03965Y01515D02*
X04365D01*
X01531Y02105D02*
Y02169D01*
X01428Y02105D02*
Y02169D01*
X01446*
X01513D02*
X01531D01*
X01826Y02157D02*
Y02283D01*
X01562Y02157D02*
Y02283D01*
X01826*
X01562Y02157D02*
X01826D01*
X03145Y03030D02*
X03245D01*
Y02530D02*
Y03030D01*
X03145Y02530D02*
Y03030D01*
Y02530D02*
X03245D01*
X01360Y03254D02*
X01769D01*
Y03073D02*
Y03254D01*
X01360Y03073D02*
X01769D01*
X01360D02*
Y03254D01*
Y03234D02*
X01769D01*
X01883Y02142D02*
X02146D01*
X01883D02*
Y02287D01*
X02146*
Y02142D02*
Y02287D01*
X02395Y01688D02*
Y02081D01*
X02324Y01688D02*
Y02081D01*
Y01688D02*
X02395D01*
X02324Y02081D02*
X02395D01*
X01587Y01835D02*
Y01867D01*
X01567Y01835D02*
X01587D01*
Y01922D02*
Y01954D01*
X01567D02*
X01587D01*
X04196Y03484D02*
Y03515D01*
X04228Y03270D02*
Y03349D01*
X04031Y03270D02*
Y03349D01*
X04228*
X04031Y03270D02*
X04228D01*
X02985Y01415D02*
X03785D01*
X02985Y01215D02*
X03785D01*
X02985D02*
Y01415D01*
X03785Y01215D02*
Y01415D01*
X03993Y03263D02*
Y03295D01*
X03875Y03262D02*
X03907D01*
X03875D02*
Y03294D01*
X03962Y03262D02*
X03994D01*
X02840Y03115D02*
X03040D01*
X02840Y03015D02*
Y03115D01*
Y03015D02*
X03040D01*
Y03115*
X02109Y02791D02*
X02140D01*
X02109Y02858D02*
X02140D01*
X02589Y03441D02*
X02621D01*
X02398Y02344D02*
Y02375D01*
Y02404D02*
Y02435D01*
X02621Y02616D02*
Y02833D01*
X02838Y02616D02*
Y02833D01*
X02621D02*
X02838D01*
X02621Y02616D02*
X02838D01*
X02586Y02979D02*
Y03010D01*
X02574Y03044D02*
Y03095D01*
X02818Y02469D02*
Y02500D01*
X02409Y02833D02*
X02440D01*
X02959Y02803D02*
X02990D01*
X02385Y03206D02*
X02455D01*
X02385Y03403D02*
X02455D01*
Y03206D02*
Y03403D01*
X02385Y03206D02*
Y03403D01*
X03327Y03270D02*
X03358D01*
X03408D02*
X03438D01*
Y03070D02*
Y03270D01*
X03327Y03070D02*
X03438D01*
X03327D02*
Y03270D01*
X03729Y03313D02*
X03760D01*
X03789Y03305D02*
X03840D01*
X03179Y03313D02*
X03210D01*
X03099Y03305D02*
X03150D01*
X03280Y03579D02*
Y03630D01*
X03500Y03579D02*
Y03630D01*
X04006Y03069D02*
Y03100D01*
X03773Y02539D02*
Y02570D01*
X02678Y02035D02*
X02870D01*
X02570D02*
X02870D01*
X02570Y02235D02*
X02870D01*
X02570Y02035D02*
Y02235D01*
X02870Y02035D02*
Y02235D01*
X02616Y01792D02*
X02624D01*
X02616Y01717D02*
X02624D01*
X02565Y01792D02*
X02573D01*
X02565Y01717D02*
X02573D01*
X02624D02*
Y01792D01*
X02565Y01717D02*
Y01792D01*
X02573Y01776D02*
Y01792D01*
X02565Y01776D02*
X02573D01*
X02616D02*
X02624D01*
X02616D02*
Y01792D01*
Y01962D02*
X02624D01*
X02616Y01887D02*
X02624D01*
X02565Y01962D02*
X02573D01*
X02565Y01887D02*
X02573D01*
X02624D02*
Y01962D01*
X02565Y01887D02*
Y01962D01*
X02573Y01946D02*
Y01962D01*
X02565Y01946D02*
X02573D01*
X02616D02*
X02624D01*
X02616D02*
Y01962D01*
X02371Y02565D02*
Y03014D01*
X02341Y02565D02*
X02371D01*
X02178Y03014D02*
X02208D01*
X02178Y02565D02*
Y03014D01*
Y02565D02*
X02208D01*
X02341Y03014D02*
X02371D01*
X03160Y01813D02*
Y02206D01*
X03089Y01813D02*
Y02206D01*
Y01813D02*
X03160D01*
X03089Y02206D02*
X03160D01*
X02796Y01979D02*
Y02010D01*
X04724Y03601D02*
X04755D01*
X04644Y03609D02*
X04695D01*
G54D54*
X02672Y02793D02*
D01*
X02672Y02794*
X02672Y02795*
X02672Y02796*
X02672Y02797*
X02672Y02797*
X02671Y02798*
X02671Y02799*
X02671Y02800*
X02670Y02800*
X02670Y02801*
X02669Y02802*
X02668Y02802*
X02668Y02803*
X02667Y02803*
X02667Y02804*
X02666Y02804*
X02665Y02804*
X02664Y02805*
X02663Y02805*
X02663Y02805*
X02662Y02805*
X02661Y02805*
X02660*
X02659Y02805*
X02659Y02805*
X02658Y02805*
X02657Y02805*
X02656Y02804*
X02655Y02804*
X02655Y02804*
X02654Y02803*
X02653Y02803*
X02653Y02802*
X02652Y02802*
X02652Y02801*
X02651Y02800*
X02651Y02800*
X02650Y02799*
X02650Y02798*
X02650Y02797*
X02649Y02797*
X02649Y02796*
X02649Y02795*
X02649Y02794*
X02649Y02793*
X02649Y02793*
X02649Y02792*
X02649Y02791*
X02649Y02790*
X02650Y02789*
X02650Y02789*
X02650Y02788*
X02651Y02787*
X02651Y02786*
X02652Y02786*
X02652Y02785*
X02653Y02785*
X02653Y02784*
X02654Y02784*
X02655Y02783*
X02655Y02783*
X02656Y02782*
X02657Y02782*
X02658Y02782*
X02659Y02782*
X02659Y02782*
X02660Y02782*
X02661*
X02662Y02782*
X02663Y02782*
X02663Y02782*
X02664Y02782*
X02665Y02782*
X02666Y02783*
X02667Y02783*
X02667Y02784*
X02668Y02784*
X02668Y02785*
X02669Y02785*
X02670Y02786*
X02670Y02786*
X02671Y02787*
X02671Y02788*
X02671Y02789*
X02672Y02789*
X02672Y02790*
X02672Y02791*
X02672Y02792*
X02672Y02793*
X02672Y02793*
G54D55*
X03173Y02465D02*
X03184D01*
X03178*
Y02431*
X03173*
X03184*
X03201Y02448D02*
X03224D01*
X03235Y02431D02*
Y02465D01*
X03247Y02454*
X03258Y02465*
Y02431*
X03292Y02465D02*
X03270D01*
Y02431*
X03292*
X03270Y02448D02*
X03281D01*
X03304Y02465D02*
Y02431D01*
X03321*
X03327Y02437*
Y02459*
X03321Y02465*
X03304*
X03338D02*
X03349D01*
X03344*
Y02431*
X03338*
X03349*
X03367D02*
Y02454D01*
X03378Y02465*
X03389Y02454*
Y02431*
Y02448*
X03367*
X03458Y02459D02*
X03452Y02465D01*
X03441*
X03435Y02459*
Y02437*
X03441Y02431*
X03452*
X03458Y02437*
Y02448*
X03446*
X03469Y02431D02*
Y02465D01*
X03486*
X03492Y02459*
Y02448*
X03486Y02442*
X03469*
X03481D02*
X03492Y02431D01*
X03521Y02465D02*
X03509D01*
X03504Y02459*
Y02437*
X03509Y02431*
X03521*
X03526Y02437*
Y02459*
X03521Y02465*
X03538D02*
Y02437D01*
X03543Y02431*
X03555*
X03561Y02437*
Y02465*
X03572Y02431D02*
Y02465D01*
X03589*
X03595Y02459*
Y02448*
X03589Y02442*
X03572*
X03663Y02465D02*
Y02431D01*
X03646*
X03641Y02437*
Y02448*
X03646Y02454*
X03663*
X03675Y02431D02*
Y02437D01*
X03680*
Y02431*
X03675*
X03709D02*
X03720D01*
X03726Y02437*
Y02448*
X03720Y02454*
X03709*
X03703Y02448*
Y02437*
X03709Y02431*
X03738D02*
Y02437D01*
X03743*
Y02431*
X03738*
X03772D02*
X03783D01*
X03789Y02437*
Y02448*
X03783Y02454*
X03772*
X03766Y02448*
Y02437*
X03772Y02431*
X03800D02*
Y02437D01*
X03806*
Y02431*
X03800*
X03886Y02459D02*
X03880Y02465D01*
X03869*
X03863Y02459*
Y02454*
X03869Y02448*
X03880*
X03886Y02442*
Y02437*
X03880Y02431*
X03869*
X03863Y02437*
X03903Y02454D02*
X03914D01*
X03920Y02448*
Y02431*
X03903*
X03897Y02437*
X03903Y02442*
X03920*
X03932Y02454D02*
Y02431D01*
Y02442*
X03937Y02448*
X03943Y02454*
X03949*
X03972D02*
X03983D01*
X03989Y02448*
Y02431*
X03972*
X03966Y02437*
X03972Y02442*
X03989*
X04000Y02420D02*
X04006D01*
X04011Y02425*
Y02454*
X04051Y02431D02*
X04040D01*
X04034Y02437*
Y02448*
X04040Y02454*
X04051*
X04057Y02448*
Y02442*
X04034*
X04069Y02454D02*
X04080Y02431D01*
X04091Y02454*
X04108Y02431D02*
X04120D01*
X04126Y02437*
Y02448*
X04120Y02454*
X04108*
X04103Y02448*
Y02437*
X04108Y02431*
X03195Y02393D02*
X03173D01*
Y02376*
X03184*
X03173*
Y02359*
X03224D02*
X03212D01*
X03207Y02365*
Y02376*
X03212Y02382*
X03224*
X03230Y02376*
Y02371*
X03207*
X03264Y02393D02*
Y02359D01*
X03247*
X03241Y02365*
Y02376*
X03247Y02382*
X03264*
X03292Y02359D02*
X03281D01*
X03275Y02365*
Y02376*
X03281Y02382*
X03292*
X03298Y02376*
Y02371*
X03275*
X03310Y02382D02*
Y02359D01*
Y02371*
X03315Y02376*
X03321Y02382*
X03327*
X03349D02*
X03361D01*
X03367Y02376*
Y02359*
X03349*
X03344Y02365*
X03349Y02371*
X03367*
X03401Y02382D02*
X03384D01*
X03378Y02376*
Y02365*
X03384Y02359*
X03401*
X03412D02*
X03424D01*
X03418*
Y02382*
X03412*
X03441Y02348D02*
X03446D01*
X03452Y02354*
Y02382*
X03481D02*
X03492D01*
X03498Y02376*
Y02359*
X03481*
X03475Y02365*
X03481Y02371*
X03498*
X03543Y02393D02*
Y02359D01*
X03561*
X03566Y02365*
Y02371*
X03561Y02376*
X03543*
X03561*
X03566Y02382*
Y02388*
X03561Y02393*
X03543*
X03578Y02359D02*
X03589D01*
X03583*
Y02382*
X03578*
X03606Y02393D02*
Y02359D01*
Y02376*
X03629*
Y02393*
Y02359*
X03646Y02354D02*
X03652Y02359D01*
Y02365*
X03646*
Y02359*
X03652*
X03646Y02354*
X03641Y02348*
X03675Y02393D02*
Y02359D01*
X03692*
X03698Y02365*
Y02371*
X03692Y02376*
X03675*
X03692*
X03698Y02382*
Y02388*
X03692Y02393*
X03675*
X03715Y02359D02*
X03726D01*
X03732Y02365*
Y02376*
X03726Y02382*
X03715*
X03709Y02376*
Y02365*
X03715Y02359*
X03743D02*
X03760D01*
X03766Y02365*
X03760Y02371*
X03749*
X03743Y02376*
X03749Y02382*
X03766*
X03777Y02359D02*
Y02382D01*
X03795*
X03800Y02376*
Y02359*
X03817Y02382D02*
X03829D01*
X03835Y02376*
Y02359*
X03817*
X03812Y02365*
X03817Y02371*
X03835*
X03880Y02359D02*
X03892D01*
X03886*
Y02382*
X03880*
X03943Y02393D02*
Y02359D01*
Y02376*
X03966*
Y02393*
Y02359*
X03994D02*
X03983D01*
X03977Y02365*
Y02376*
X03983Y02382*
X03994*
X04000Y02376*
Y02371*
X03977*
X04011Y02382D02*
Y02359D01*
Y02371*
X04017Y02376*
X04023Y02382*
X04029*
X04069D02*
X04051D01*
X04046Y02376*
Y02365*
X04051Y02359*
X04069*
X04097D02*
X04086D01*
X04080Y02365*
Y02376*
X04086Y02382*
X04097*
X04103Y02376*
Y02371*
X04080*
X04126Y02348D02*
X04131D01*
X04137Y02354*
Y02382*
X04120*
X04114Y02376*
Y02365*
X04120Y02359*
X04137*
X04154D02*
X04166D01*
X04171Y02365*
Y02376*
X04166Y02382*
X04154*
X04148Y02376*
Y02365*
X04154Y02359*
X04183Y02382D02*
X04194Y02359D01*
X04205Y02382*
X04217Y02359D02*
X04228D01*
X04223*
Y02382*
X04217*
X04245Y02359D02*
Y02382D01*
X04263*
X04268Y02376*
Y02359*
X04285Y02382D02*
X04297D01*
X04302Y02376*
Y02359*
X04285*
X04280Y02365*
X04285Y02371*
X04302*
X03173Y02310D02*
Y02293D01*
X03178Y02288*
X03184Y02293*
X03190Y02288*
X03195Y02293*
Y02310*
X03207D02*
Y02293D01*
X03212Y02288*
X03218Y02293*
X03224Y02288*
X03230Y02293*
Y02310*
X03241D02*
Y02293D01*
X03247Y02288*
X03252Y02293*
X03258Y02288*
X03264Y02293*
Y02310*
X03275Y02288D02*
Y02293D01*
X03281*
Y02288*
X03275*
X03304D02*
X03315D01*
X03310*
Y02310*
X03304*
X03332Y02288D02*
Y02310D01*
X03338*
X03344Y02305*
Y02288*
Y02305*
X03349Y02310*
X03355Y02305*
Y02288*
X03384D02*
X03372D01*
X03367Y02293*
Y02305*
X03372Y02310*
X03384*
X03389Y02305*
Y02299*
X03367*
X03424Y02322D02*
Y02288D01*
X03407*
X03401Y02293*
Y02305*
X03407Y02310*
X03424*
X03435Y02288D02*
X03446D01*
X03441*
Y02310*
X03435*
X03469D02*
X03481D01*
X03486Y02305*
Y02288*
X03469*
X03464Y02293*
X03469Y02299*
X03486*
X03498Y02288D02*
Y02293D01*
X03504*
Y02288*
X03498*
X03526Y02322D02*
Y02288D01*
X03543*
X03549Y02293*
Y02299*
Y02305*
X03543Y02310*
X03526*
X03566D02*
X03578D01*
X03583Y02305*
Y02288*
X03566*
X03561Y02293*
X03566Y02299*
X03583*
X03835Y02288D02*
X03846D01*
X03840*
Y02310*
X03835*
X03863Y02288D02*
Y02310D01*
X03880*
X03886Y02305*
Y02288*
X03903D02*
Y02316D01*
Y02305*
X03897*
X03909*
X03903*
Y02316*
X03909Y02322*
X03932Y02288D02*
X03943D01*
X03949Y02293*
Y02305*
X03943Y02310*
X03932*
X03926Y02305*
Y02293*
X03932Y02288*
X03977Y02299D02*
Y02305D01*
X03972*
Y02299*
X03977*
X03983Y02305*
Y02316*
X03977Y02322*
X03966*
X03960Y02316*
Y02293*
X03966Y02288*
X03983*
X03994D02*
X04006D01*
X04000*
Y02310*
X03994*
X04023Y02288D02*
Y02310D01*
X04029*
X04034Y02305*
Y02288*
Y02305*
X04040Y02310*
X04046Y02305*
Y02288*
X04074D02*
X04063D01*
X04057Y02293*
Y02305*
X04063Y02310*
X04074*
X04080Y02305*
Y02299*
X04057*
X04114Y02322D02*
Y02288D01*
X04097*
X04091Y02293*
Y02305*
X04097Y02310*
X04114*
X04126Y02288D02*
X04137D01*
X04131*
Y02310*
X04126*
X04160D02*
X04171D01*
X04177Y02305*
Y02288*
X04160*
X04154Y02293*
X04160Y02299*
X04177*
X04188Y02288D02*
Y02293D01*
X04194*
Y02288*
X04188*
X04217Y02322D02*
Y02288D01*
X04234*
X04240Y02293*
Y02299*
Y02305*
X04234Y02310*
X04217*
X04257D02*
X04268D01*
X04274Y02305*
Y02288*
X04257*
X04251Y02293*
X04257Y02299*
X04274*
X01313Y03505D02*
Y03545D01*
X01332*
X01339Y03538*
Y03525*
X01332Y03519*
X01313*
X01326D02*
X01339Y03505D01*
X01352D02*
Y03532D01*
X01365Y03545*
X01378Y03532*
Y03505*
Y03525*
X01352*
X01391Y03545D02*
Y03505D01*
X01411*
X01418Y03512*
Y03538*
X01411Y03545*
X01391*
X01431D02*
X01444D01*
X01437*
Y03505*
X01431*
X01444*
X01483Y03545D02*
X01470D01*
X01463Y03538*
Y03512*
X01470Y03505*
X01483*
X01490Y03512*
Y03538*
X01483Y03545*
X01313Y03478D02*
X01339D01*
X01326*
Y03439*
X01352D02*
Y03478D01*
X01372*
X01378Y03472*
Y03459*
X01372Y03452*
X01352*
X01365D02*
X01378Y03439D01*
X01391D02*
Y03465D01*
X01404Y03478*
X01418Y03465*
Y03439*
Y03459*
X01391*
X01431Y03439D02*
Y03478D01*
X01457Y03439*
Y03478*
X01496Y03472D02*
X01490Y03478D01*
X01477*
X01470Y03472*
Y03465*
X01477Y03459*
X01490*
X01496Y03452*
Y03446*
X01490Y03439*
X01477*
X01470Y03446*
X01509Y03439D02*
Y03478D01*
X01522Y03465*
X01536Y03478*
Y03439*
X01549Y03478D02*
X01562D01*
X01555*
Y03439*
X01549*
X01562*
X01581Y03478D02*
X01608D01*
X01595*
Y03439*
X01621Y03478D02*
X01647D01*
X01634*
Y03439*
X01686Y03478D02*
X01660D01*
Y03439*
X01686*
X01660Y03459D02*
X01673D01*
X01700Y03439D02*
Y03478D01*
X01719*
X01726Y03472*
Y03459*
X01719Y03452*
X01700*
X01713D02*
X01726Y03439D01*
X01313Y03412D02*
X01326D01*
X01319*
Y03373*
X01313*
X01326*
X01345D02*
Y03412D01*
X01365*
X01372Y03405*
Y03392*
X01365Y03386*
X01345*
X01358D02*
X01372Y03373D01*
X01385Y03412D02*
X01411D01*
X01398*
Y03373*
X01424Y03405D02*
X01431Y03412D01*
X01444*
X01450Y03405*
Y03379*
X01444Y03373*
X01431*
X01424Y03379*
Y03405*
X01463D02*
X01470Y03412D01*
X01483*
X01490Y03405*
Y03399*
X01483Y03392*
X01490Y03386*
Y03379*
X01483Y03373*
X01470*
X01463Y03379*
Y03386*
X01470Y03392*
X01463Y03399*
Y03405*
X01470Y03392D02*
X01483D01*
X01503Y03373D02*
X01516D01*
X01509*
Y03412*
X01503Y03405*
X01562Y03412D02*
X01549Y03405D01*
X01536Y03392*
Y03379*
X01542Y03373*
X01555*
X01562Y03379*
Y03386*
X01555Y03392*
X01536*
G54D56*
X04338Y02869D02*
Y02884D01*
X04346*
X04349Y02882*
Y02876*
X04346Y02874*
X04338*
X04354Y02869D02*
X04359D01*
X04357*
Y02884*
X04354Y02882*
X04367D02*
X04370Y02884D01*
X04375*
X04378Y02882*
Y02871*
X04375Y02869*
X04370*
X04367Y02871*
Y02882*
X04383D02*
X04386Y02884D01*
X04391*
X04394Y02882*
Y02879*
X04391Y02876*
X04388*
X04391*
X04394Y02874*
Y02871*
X04391Y02869*
X04386*
X04383Y02871*
X04415Y02869D02*
Y02884D01*
X04422*
X04425Y02882*
Y02876*
X04422Y02874*
X04415*
X04430Y02884D02*
X04436D01*
X04433*
Y02869*
X04430*
X04436*
X04443D02*
Y02884D01*
X04454Y02869*
Y02884*
X04467D02*
X04462D01*
X04459Y02882*
Y02871*
X04462Y02869*
X04467*
X04470Y02871*
Y02882*
X04467Y02884*
X04475D02*
Y02871D01*
X04478Y02869*
X04483*
X04485Y02871*
Y02884*
X04491D02*
X04501D01*
X04496*
Y02869*
X04338Y02825D02*
X04341Y02828D01*
X04346*
X04349Y02825*
Y02822*
X04346Y02820*
X04349Y02817*
Y02814*
X04346Y02812*
X04341*
X04338Y02814*
Y02817*
X04341Y02820*
X04338Y02822*
Y02825*
X04341Y02820D02*
X04346D01*
X04370D02*
X04380D01*
X04401Y02812D02*
Y02828D01*
X04412Y02812*
Y02828*
X04417Y02812D02*
Y02828D01*
X04425*
X04428Y02825*
Y02820*
X04425Y02817*
X04417*
X04422D02*
X04428Y02812D01*
X04443Y02828D02*
X04433D01*
Y02820*
X04438*
X04433*
Y02812*
X04459D02*
X04449D01*
X04459Y02822*
Y02825*
X04457Y02828*
X04451*
X04449Y02825*
X04472Y02812D02*
Y02828D01*
X04464Y02820*
X04475*
X04480Y02828D02*
Y02812D01*
X04491*
X04496Y02825D02*
X04499Y02828D01*
X04504*
X04506Y02825*
Y02814*
X04504Y02812*
X04499*
X04496Y02814*
Y02825*
X04512Y02812D02*
X04517D01*
X04514*
Y02828*
X04512Y02825*
X04541Y02828D02*
X04546D01*
X04543*
Y02812*
X04541*
X04546*
X04554D02*
Y02828D01*
X04562*
X04564Y02825*
Y02820*
X04562Y02817*
X04554*
X04559D02*
X04564Y02812D01*
X04580Y02814D02*
Y02825D01*
X04577Y02828*
X04572*
X04569Y02825*
Y02814*
X04572Y02812*
X04577*
X04575Y02817D02*
X04580Y02812D01*
X04577D02*
X04580Y02814D01*
X04338Y02799D02*
X04349D01*
Y02797*
X04338Y02786*
Y02784*
X04370Y02791D02*
X04380D01*
X04412Y02797D02*
X04409Y02799D01*
X04404*
X04401Y02797*
Y02794*
X04404Y02791*
X04409*
X04412Y02789*
Y02786*
X04409Y02784*
X04404*
X04401Y02786*
X04417Y02784D02*
Y02799D01*
X04425*
X04428Y02797*
Y02791*
X04425Y02789*
X04417*
X04433Y02799D02*
X04438D01*
X04436*
Y02784*
X04433*
X04438*
X04462D02*
Y02799D01*
X04467Y02794*
X04472Y02799*
Y02784*
X04478Y02799D02*
X04483D01*
X04480*
Y02784*
X04478*
X04483*
X04501Y02797D02*
X04499Y02799D01*
X04493*
X04491Y02797*
Y02794*
X04493Y02791*
X04499*
X04501Y02789*
Y02786*
X04499Y02784*
X04493*
X04491Y02786*
X04514Y02799D02*
X04509D01*
X04506Y02797*
Y02786*
X04509Y02784*
X04514*
X04517Y02786*
Y02797*
X04514Y02799*
X04349Y02771D02*
X04344Y02768D01*
X04338Y02763*
Y02758*
X04341Y02755*
X04346*
X04349Y02758*
Y02760*
X04346Y02763*
X04338*
X04370D02*
X04380D01*
X04412Y02768D02*
X04409Y02771D01*
X04404*
X04401Y02768*
Y02766*
X04404Y02763*
X04409*
X04412Y02760*
Y02758*
X04409Y02755*
X04404*
X04401Y02758*
X04417Y02755D02*
Y02771D01*
X04425*
X04428Y02768*
Y02763*
X04425Y02760*
X04417*
X04433Y02771D02*
X04438D01*
X04436*
Y02755*
X04433*
X04438*
X04462D02*
Y02771D01*
X04467Y02766*
X04472Y02771*
Y02755*
X04485Y02771D02*
X04480D01*
X04478Y02768*
Y02758*
X04480Y02755*
X04485*
X04488Y02758*
Y02768*
X04485Y02771*
X04504Y02768D02*
X04501Y02771D01*
X04496*
X04493Y02768*
Y02766*
X04496Y02763*
X04501*
X04504Y02760*
Y02758*
X04501Y02755*
X04496*
X04493Y02758*
X04509Y02771D02*
X04514D01*
X04512*
Y02755*
X04509*
X04514*
X04349Y02743D02*
X04338D01*
Y02735*
X04344Y02737*
X04346*
X04349Y02735*
Y02729*
X04346Y02727*
X04341*
X04338Y02729*
X04370Y02735D02*
X04380D01*
X04412Y02740D02*
X04409Y02743D01*
X04404*
X04401Y02740*
Y02737*
X04404Y02735*
X04409*
X04412Y02732*
Y02729*
X04409Y02727*
X04404*
X04401Y02729*
X04417Y02727D02*
Y02743D01*
X04425*
X04428Y02740*
Y02735*
X04425Y02732*
X04417*
X04433Y02743D02*
X04438D01*
X04436*
Y02727*
X04433*
X04438*
X04472Y02740D02*
X04470Y02743D01*
X04464*
X04462Y02740*
Y02737*
X04464Y02735*
X04470*
X04472Y02732*
Y02729*
X04470Y02727*
X04464*
X04462Y02729*
X04488Y02740D02*
X04485Y02743D01*
X04480*
X04478Y02740*
Y02729*
X04480Y02727*
X04485*
X04488Y02729*
X04493Y02743D02*
Y02727D01*
Y02732*
X04504Y02743*
X04496Y02735*
X04504Y02727*
X04346Y02699D02*
Y02714D01*
X04338Y02706*
X04349*
X04370D02*
X04380D01*
X04401Y02699D02*
Y02714D01*
X04412Y02699*
Y02714*
X04417Y02699D02*
Y02714D01*
X04425*
X04428Y02712*
Y02706*
X04425Y02704*
X04417*
X04422D02*
X04428Y02699D01*
X04443Y02714D02*
X04433D01*
Y02706*
X04438*
X04433*
Y02699*
X04459D02*
X04449D01*
X04459Y02709*
Y02712*
X04457Y02714*
X04451*
X04449Y02712*
X04472Y02699D02*
Y02714D01*
X04464Y02706*
X04475*
X04480Y02714D02*
Y02699D01*
X04491*
X04496Y02712D02*
X04499Y02714D01*
X04504*
X04506Y02712*
Y02701*
X04504Y02699*
X04499*
X04496Y02701*
Y02712*
X04512Y02699D02*
X04517D01*
X04514*
Y02714*
X04512Y02712*
X04551D02*
X04548Y02714D01*
X04543*
X04541Y02712*
Y02701*
X04543Y02699*
X04548*
X04551Y02701*
X04567Y02712D02*
X04564Y02714D01*
X04559*
X04556Y02712*
Y02709*
X04559Y02706*
X04564*
X04567Y02704*
Y02701*
X04564Y02699*
X04559*
X04556Y02701*
X04572Y02699D02*
Y02714D01*
X04583Y02699*
Y02714*
X04338Y02683D02*
X04341Y02686D01*
X04346*
X04349Y02683*
Y02681*
X04346Y02678*
X04344*
X04346*
X04349Y02675*
Y02673*
X04346Y02670*
X04341*
X04338Y02673*
X04370Y02678D02*
X04380D01*
X04401Y02670D02*
Y02686D01*
X04412Y02670*
Y02686*
X04417Y02670D02*
Y02686D01*
X04425*
X04428Y02683*
Y02678*
X04425Y02675*
X04417*
X04422D02*
X04428Y02670D01*
X04443Y02686D02*
X04433D01*
Y02678*
X04438*
X04433*
Y02670*
X04459D02*
X04449D01*
X04459Y02681*
Y02683*
X04457Y02686*
X04451*
X04449Y02683*
X04472Y02670D02*
Y02686D01*
X04464Y02678*
X04475*
X04480Y02686D02*
Y02670D01*
X04491*
X04496Y02683D02*
X04499Y02686D01*
X04504*
X04506Y02683*
Y02673*
X04504Y02670*
X04499*
X04496Y02673*
Y02683*
X04512Y02670D02*
X04517D01*
X04514*
Y02686*
X04512Y02683*
X04551D02*
X04548Y02686D01*
X04543*
X04541Y02683*
Y02673*
X04543Y02670*
X04548*
X04551Y02673*
X04567Y02686D02*
X04556D01*
Y02670*
X04567*
X04556Y02678D02*
X04562D01*
X04349Y02642D02*
X04338D01*
X04349Y02652*
Y02655*
X04346Y02658*
X04341*
X04338Y02655*
X04370Y02650D02*
X04380D01*
X04401D02*
X04412D01*
X04407Y02655D02*
Y02644D01*
X04417Y02655D02*
X04420Y02658D01*
X04425*
X04428Y02655*
Y02652*
X04425Y02650*
X04422*
X04425*
X04428Y02647*
Y02644*
X04425Y02642*
X04420*
X04417Y02644*
X04433Y02658D02*
Y02647D01*
X04438Y02642*
X04443Y02647*
Y02658*
X04449Y02655D02*
X04451Y02658D01*
X04457*
X04459Y02655*
Y02652*
X04457Y02650*
X04454*
X04457*
X04459Y02647*
Y02644*
X04457Y02642*
X04451*
X04449Y02644*
X04338Y02613D02*
X04344D01*
X04341*
Y02629*
X04338Y02627*
X04367Y02621D02*
X04378D01*
X04409Y02627D02*
X04407Y02629D01*
X04401*
X04399Y02627*
Y02616*
X04401Y02613*
X04407*
X04409Y02616*
Y02621*
X04404*
X04415Y02613D02*
Y02629D01*
X04425Y02613*
Y02629*
X04430D02*
Y02613D01*
X04438*
X04441Y02616*
Y02627*
X04438Y02629*
X04430*
X04078Y02199D02*
Y02214D01*
X04086*
X04089Y02212*
Y02206*
X04086Y02204*
X04078*
X04094Y02199D02*
X04099D01*
X04097*
Y02214*
X04094Y02212*
X04107D02*
X04110Y02214D01*
X04115*
X04118Y02212*
Y02201*
X04115Y02199*
X04110*
X04107Y02201*
Y02212*
X04134Y02199D02*
X04123D01*
X04134Y02209*
Y02212*
X04131Y02214*
X04126*
X04123Y02212*
X04155Y02199D02*
Y02214D01*
X04162*
X04165Y02212*
Y02206*
X04162Y02204*
X04155*
X04170Y02214D02*
X04176D01*
X04173*
Y02199*
X04170*
X04176*
X04183D02*
Y02214D01*
X04194Y02199*
Y02214*
X04207D02*
X04202D01*
X04199Y02212*
Y02201*
X04202Y02199*
X04207*
X04210Y02201*
Y02212*
X04207Y02214*
X04215D02*
Y02201D01*
X04218Y02199*
X04223*
X04225Y02201*
Y02214*
X04231D02*
X04241D01*
X04236*
Y02199*
X04078Y02142D02*
X04084D01*
X04081*
Y02158*
X04078Y02155*
X04099Y02142D02*
Y02158D01*
X04092Y02150*
X04102*
X04123D02*
X04134D01*
X04165Y02155D02*
X04162Y02158D01*
X04157*
X04155Y02155*
Y02145*
X04157Y02142*
X04162*
X04165Y02145*
Y02150*
X04160*
X04170Y02142D02*
Y02158D01*
X04181Y02142*
Y02158*
X04186D02*
Y02142D01*
X04194*
X04197Y02145*
Y02155*
X04194Y02158*
X04186*
X04078Y02114D02*
X04084D01*
X04081*
Y02129*
X04078Y02127*
X04092D02*
X04094Y02129D01*
X04099*
X04102Y02127*
Y02124*
X04099Y02121*
X04097*
X04099*
X04102Y02119*
Y02116*
X04099Y02114*
X04094*
X04092Y02116*
X04123Y02121D02*
X04134D01*
X04165Y02127D02*
X04162Y02129D01*
X04157*
X04155Y02127*
Y02116*
X04157Y02114*
X04162*
X04165Y02116*
Y02121*
X04160*
X04170Y02114D02*
Y02129D01*
X04181Y02114*
Y02129*
X04186D02*
Y02114D01*
X04194*
X04197Y02116*
Y02127*
X04194Y02129*
X04186*
X04078Y02085D02*
X04084D01*
X04081*
Y02101*
X04078Y02098*
X04102Y02085D02*
X04092D01*
X04102Y02096*
Y02098*
X04099Y02101*
X04094*
X04092Y02098*
X04123Y02093D02*
X04134D01*
X04155Y02085D02*
Y02101D01*
X04165Y02085*
Y02101*
X04170Y02085D02*
Y02101D01*
X04178*
X04181Y02098*
Y02093*
X04178Y02090*
X04170*
X04176D02*
X04181Y02085D01*
X04197Y02101D02*
X04186D01*
Y02093*
X04191*
X04186*
Y02085*
X04202Y02088D02*
X04204Y02085D01*
X04210*
X04212Y02088*
Y02098*
X04210Y02101*
X04204*
X04202Y02098*
Y02096*
X04204Y02093*
X04212*
X04218Y02098D02*
X04220Y02101D01*
X04225*
X04228Y02098*
Y02088*
X04225Y02085*
X04220*
X04218Y02088*
Y02098*
X04244Y02101D02*
X04233D01*
Y02093*
X04239Y02096*
X04241*
X04244Y02093*
Y02088*
X04241Y02085*
X04236*
X04233Y02088*
X04275Y02098D02*
X04273Y02101D01*
X04267*
X04265Y02098*
Y02088*
X04267Y02085*
X04273*
X04275Y02088*
X04291Y02098D02*
X04288Y02101D01*
X04283*
X04281Y02098*
Y02096*
X04283Y02093*
X04288*
X04291Y02090*
Y02088*
X04288Y02085*
X04283*
X04281Y02088*
X04296Y02085D02*
Y02101D01*
X04307Y02085*
Y02101*
X04078Y02057D02*
X04084D01*
X04081*
Y02073*
X04078Y02070*
X04092Y02057D02*
X04097D01*
X04094*
Y02073*
X04092Y02070*
X04120Y02065D02*
X04131D01*
X04162Y02070D02*
X04160Y02073D01*
X04155*
X04152Y02070*
Y02067*
X04155Y02065*
X04160*
X04162Y02062*
Y02060*
X04160Y02057*
X04155*
X04152Y02060*
X04168Y02057D02*
Y02073D01*
X04176*
X04178Y02070*
Y02065*
X04176Y02062*
X04168*
X04183Y02073D02*
X04189D01*
X04186*
Y02057*
X04183*
X04189*
X04223Y02070D02*
X04220Y02073D01*
X04215*
X04212Y02070*
Y02067*
X04215Y02065*
X04220*
X04223Y02062*
Y02060*
X04220Y02057*
X04215*
X04212Y02060*
X04239Y02070D02*
X04236Y02073D01*
X04231*
X04228Y02070*
Y02060*
X04231Y02057*
X04236*
X04239Y02060*
X04244Y02073D02*
Y02057D01*
Y02062*
X04254Y02073*
X04246Y02065*
X04254Y02057*
X04078Y02029D02*
X04084D01*
X04081*
Y02044*
X04078Y02042*
X04092D02*
X04094Y02044D01*
X04099*
X04102Y02042*
Y02031*
X04099Y02029*
X04094*
X04092Y02031*
Y02042*
X04123Y02036D02*
X04134D01*
X04165Y02042D02*
X04162Y02044D01*
X04157*
X04155Y02042*
Y02039*
X04157Y02036*
X04162*
X04165Y02034*
Y02031*
X04162Y02029*
X04157*
X04155Y02031*
X04170Y02029D02*
Y02044D01*
X04178*
X04181Y02042*
Y02036*
X04178Y02034*
X04170*
X04186Y02044D02*
X04191D01*
X04189*
Y02029*
X04186*
X04191*
X04215D02*
Y02044D01*
X04220Y02039*
X04225Y02044*
Y02029*
X04239Y02044D02*
X04233D01*
X04231Y02042*
Y02031*
X04233Y02029*
X04239*
X04241Y02031*
Y02042*
X04239Y02044*
X04257Y02042D02*
X04254Y02044D01*
X04249*
X04246Y02042*
Y02039*
X04249Y02036*
X04254*
X04257Y02034*
Y02031*
X04254Y02029*
X04249*
X04246Y02031*
X04262Y02044D02*
X04267D01*
X04265*
Y02029*
X04262*
X04267*
X04078Y02003D02*
X04081Y02000D01*
X04086*
X04089Y02003*
Y02013*
X04086Y02016*
X04081*
X04078Y02013*
Y02011*
X04081Y02008*
X04089*
X04126D02*
X04136D01*
X04168Y02013D02*
X04165Y02016D01*
X04160*
X04157Y02013*
Y02011*
X04160Y02008*
X04165*
X04168Y02005*
Y02003*
X04165Y02000*
X04160*
X04157Y02003*
X04173Y02000D02*
Y02016D01*
X04181*
X04183Y02013*
Y02008*
X04181Y02005*
X04173*
X04189Y02016D02*
X04194D01*
X04191*
Y02000*
X04189*
X04194*
X04218D02*
Y02016D01*
X04223Y02011*
X04228Y02016*
Y02000*
X04233Y02016D02*
X04239D01*
X04236*
Y02000*
X04233*
X04239*
X04257Y02013D02*
X04254Y02016D01*
X04249*
X04246Y02013*
Y02011*
X04249Y02008*
X04254*
X04257Y02005*
Y02003*
X04254Y02000*
X04249*
X04246Y02003*
X04270Y02016D02*
X04265D01*
X04262Y02013*
Y02003*
X04265Y02000*
X04270*
X04273Y02003*
Y02013*
X04270Y02016*
X04078Y01985D02*
X04081Y01988D01*
X04086*
X04089Y01985*
Y01982*
X04086Y01980*
X04089Y01977*
Y01974*
X04086Y01972*
X04081*
X04078Y01974*
Y01977*
X04081Y01980*
X04078Y01982*
Y01985*
X04081Y01980D02*
X04086D01*
X04126D02*
X04136D01*
X04157Y01972D02*
Y01988D01*
X04168Y01972*
Y01988*
X04173Y01972D02*
Y01988D01*
X04181*
X04183Y01985*
Y01980*
X04181Y01977*
X04173*
X04178D02*
X04183Y01972D01*
X04199Y01988D02*
X04189D01*
Y01980*
X04194*
X04189*
Y01972*
X04204Y01974D02*
X04207Y01972D01*
X04212*
X04215Y01974*
Y01985*
X04212Y01988*
X04207*
X04204Y01985*
Y01982*
X04207Y01980*
X04215*
X04220Y01985D02*
X04223Y01988D01*
X04228*
X04231Y01985*
Y01974*
X04228Y01972*
X04223*
X04220Y01974*
Y01985*
X04246Y01988D02*
X04236D01*
Y01980*
X04241Y01982*
X04244*
X04246Y01980*
Y01974*
X04244Y01972*
X04239*
X04236Y01974*
X04267Y01988D02*
Y01972D01*
X04275*
X04278Y01974*
Y01985*
X04275Y01988*
X04267*
X04283Y01972D02*
Y01988D01*
X04291*
X04294Y01985*
Y01980*
X04291Y01977*
X04283*
X04288D02*
X04294Y01972D01*
X04078Y01959D02*
X04089D01*
Y01957*
X04078Y01946*
Y01944*
X04126Y01951D02*
X04136D01*
X04157Y01944D02*
Y01959D01*
X04168Y01944*
Y01959*
X04173Y01944D02*
Y01959D01*
X04181*
X04183Y01957*
Y01951*
X04181Y01949*
X04173*
X04178D02*
X04183Y01944D01*
X04199Y01959D02*
X04189D01*
Y01951*
X04194*
X04189*
Y01944*
X04204Y01946D02*
X04207Y01944D01*
X04212*
X04215Y01946*
Y01957*
X04212Y01959*
X04207*
X04204Y01957*
Y01954*
X04207Y01951*
X04215*
X04220Y01957D02*
X04223Y01959D01*
X04228*
X04231Y01957*
Y01946*
X04228Y01944*
X04223*
X04220Y01946*
Y01957*
X04246Y01959D02*
X04236D01*
Y01951*
X04241Y01954*
X04244*
X04246Y01951*
Y01946*
X04244Y01944*
X04239*
X04236Y01946*
X04267Y01944D02*
Y01954D01*
X04273Y01959*
X04278Y01954*
Y01944*
Y01951*
X04267*
X04283Y01944D02*
Y01959D01*
X04288Y01954*
X04294Y01959*
Y01944*
X04089Y01931D02*
X04084Y01928D01*
X04078Y01923*
Y01918*
X04081Y01915*
X04086*
X04089Y01918*
Y01920*
X04086Y01923*
X04078*
X04126D02*
X04136D01*
X04157Y01915D02*
Y01931D01*
X04168Y01915*
Y01931*
X04173Y01915D02*
Y01931D01*
X04181*
X04183Y01928*
Y01923*
X04181Y01920*
X04173*
X04178D02*
X04183Y01915D01*
X04199Y01931D02*
X04189D01*
Y01923*
X04194*
X04189*
Y01915*
X04204Y01918D02*
X04207Y01915D01*
X04212*
X04215Y01918*
Y01928*
X04212Y01931*
X04207*
X04204Y01928*
Y01926*
X04207Y01923*
X04215*
X04220Y01928D02*
X04223Y01931D01*
X04228*
X04231Y01928*
Y01918*
X04228Y01915*
X04223*
X04220Y01918*
Y01928*
X04246Y01931D02*
X04236D01*
Y01923*
X04241Y01926*
X04244*
X04246Y01923*
Y01918*
X04244Y01915*
X04239*
X04236Y01918*
X04278Y01928D02*
X04275Y01931D01*
X04270*
X04267Y01928*
Y01918*
X04270Y01915*
X04275*
X04278Y01918*
X04283Y01931D02*
Y01915D01*
X04291*
X04294Y01918*
Y01928*
X04291Y01931*
X04283*
X04089Y01903D02*
X04078D01*
Y01895*
X04084Y01897*
X04086*
X04089Y01895*
Y01889*
X04086Y01887*
X04081*
X04078Y01889*
X04126Y01895D02*
X04136D01*
X04157Y01887D02*
Y01903D01*
X04168Y01887*
Y01903*
X04173Y01887D02*
Y01903D01*
X04181*
X04183Y01900*
Y01895*
X04181Y01892*
X04173*
X04178D02*
X04183Y01887D01*
X04199Y01903D02*
X04189D01*
Y01895*
X04194*
X04189*
Y01887*
X04204Y01889D02*
X04207Y01887D01*
X04212*
X04215Y01889*
Y01900*
X04212Y01903*
X04207*
X04204Y01900*
Y01897*
X04207Y01895*
X04215*
X04220Y01900D02*
X04223Y01903D01*
X04228*
X04231Y01900*
Y01889*
X04228Y01887*
X04223*
X04220Y01889*
Y01900*
X04246Y01903D02*
X04236D01*
Y01895*
X04241Y01897*
X04244*
X04246Y01895*
Y01889*
X04244Y01887*
X04239*
X04236Y01889*
X04267Y01903D02*
Y01889D01*
X04270Y01887*
X04275*
X04278Y01889*
Y01903*
X04294Y01900D02*
X04291Y01903D01*
X04286*
X04283Y01900*
Y01889*
X04286Y01887*
X04291*
X04294Y01889*
X04299Y01903D02*
Y01887D01*
X04309*
X04315Y01903D02*
Y01887D01*
Y01892*
X04325Y01903*
X04317Y01895*
X04325Y01887*
X04086Y01859D02*
Y01874D01*
X04078Y01866*
X04089*
X04126D02*
X04136D01*
X04157Y01859D02*
Y01874D01*
X04168Y01859*
Y01874*
X04173Y01859D02*
Y01874D01*
X04181*
X04183Y01872*
Y01866*
X04181Y01864*
X04173*
X04178D02*
X04183Y01859D01*
X04199Y01874D02*
X04189D01*
Y01866*
X04194*
X04189*
Y01859*
X04204Y01861D02*
X04207Y01859D01*
X04212*
X04215Y01861*
Y01872*
X04212Y01874*
X04207*
X04204Y01872*
Y01869*
X04207Y01866*
X04215*
X04220Y01872D02*
X04223Y01874D01*
X04228*
X04231Y01872*
Y01861*
X04228Y01859*
X04223*
X04220Y01861*
Y01872*
X04246Y01874D02*
X04236D01*
Y01866*
X04241Y01869*
X04244*
X04246Y01866*
Y01861*
X04244Y01859*
X04239*
X04236Y01861*
X04267Y01859D02*
Y01874D01*
X04275*
X04278Y01872*
Y01866*
X04275Y01864*
X04267*
X04283Y01874D02*
Y01859D01*
X04288Y01864*
X04294Y01859*
Y01874*
X04299Y01859D02*
Y01874D01*
X04307*
X04309Y01872*
Y01866*
X04307Y01864*
X04299*
X04304D02*
X04309Y01859D01*
X04330Y01874D02*
Y01861D01*
X04333Y01859*
X04338*
X04341Y01861*
Y01874*
X04346Y01859D02*
Y01874D01*
X04354*
X04357Y01872*
Y01866*
X04354Y01864*
X04346*
X04078Y01843D02*
X04081Y01846D01*
X04086*
X04089Y01843*
Y01841*
X04086Y01838*
X04084*
X04086*
X04089Y01835*
Y01833*
X04086Y01830*
X04081*
X04078Y01833*
X04126Y01838D02*
X04136D01*
X04157Y01830D02*
Y01846D01*
X04168Y01830*
Y01846*
X04173Y01830D02*
Y01846D01*
X04181*
X04183Y01843*
Y01838*
X04181Y01835*
X04173*
X04178D02*
X04183Y01830D01*
X04199Y01846D02*
X04189D01*
Y01838*
X04194*
X04189*
Y01830*
X04204Y01833D02*
X04207Y01830D01*
X04212*
X04215Y01833*
Y01843*
X04212Y01846*
X04207*
X04204Y01843*
Y01841*
X04207Y01838*
X04215*
X04220Y01843D02*
X04223Y01846D01*
X04228*
X04231Y01843*
Y01833*
X04228Y01830*
X04223*
X04220Y01833*
Y01843*
X04246Y01846D02*
X04236D01*
Y01838*
X04241Y01841*
X04244*
X04246Y01838*
Y01833*
X04244Y01830*
X04239*
X04236Y01833*
X04267Y01846D02*
X04278D01*
X04273*
Y01830*
X04283D02*
Y01846D01*
X04291*
X04294Y01843*
Y01838*
X04291Y01835*
X04283*
X04288D02*
X04294Y01830D01*
X04299Y01846D02*
X04309Y01830D01*
Y01846D02*
X04299Y01830D01*
X04341Y01843D02*
X04338Y01846D01*
X04333*
X04330Y01843*
Y01833*
X04333Y01830*
X04338*
X04341Y01833*
X04357Y01846D02*
X04346D01*
Y01830*
X04357*
X04346Y01838D02*
X04351D01*
X04089Y01802D02*
X04078D01*
X04089Y01812*
Y01815*
X04086Y01818*
X04081*
X04078Y01815*
X04126Y01810D02*
X04136D01*
X04157Y01802D02*
Y01818D01*
X04168Y01802*
Y01818*
X04173Y01802D02*
Y01818D01*
X04181*
X04183Y01815*
Y01810*
X04181Y01807*
X04173*
X04178D02*
X04183Y01802D01*
X04199Y01818D02*
X04189D01*
Y01810*
X04194*
X04189*
Y01802*
X04204Y01804D02*
X04207Y01802D01*
X04212*
X04215Y01804*
Y01815*
X04212Y01818*
X04207*
X04204Y01815*
Y01812*
X04207Y01810*
X04215*
X04220Y01815D02*
X04223Y01818D01*
X04228*
X04231Y01815*
Y01804*
X04228Y01802*
X04223*
X04220Y01804*
Y01815*
X04246Y01818D02*
X04236D01*
Y01810*
X04241Y01812*
X04244*
X04246Y01810*
Y01804*
X04244Y01802*
X04239*
X04236Y01804*
X04267Y01818D02*
X04278D01*
X04273*
Y01802*
X04283Y01818D02*
X04294Y01802D01*
Y01818D02*
X04283Y01802D01*
X04325Y01818D02*
X04315D01*
Y01802*
X04325*
X04315Y01810D02*
X04320D01*
X04330Y01802D02*
Y01818D01*
X04341Y01802*
Y01818*
X04078Y01773D02*
X04084D01*
X04081*
Y01789*
X04078Y01787*
X04123Y01781D02*
X04134D01*
X04155D02*
X04165D01*
X04160Y01787D02*
Y01776D01*
X04170Y01787D02*
X04173Y01789D01*
X04178*
X04181Y01787*
Y01784*
X04178Y01781*
X04176*
X04178*
X04181Y01779*
Y01776*
X04178Y01773*
X04173*
X04170Y01776*
X04186Y01789D02*
Y01779D01*
X04191Y01773*
X04197Y01779*
Y01789*
X04202Y01787D02*
X04204Y01789D01*
X04210*
X04212Y01787*
Y01784*
X04210Y01781*
X04207*
X04210*
X04212Y01779*
Y01776*
X04210Y01773*
X04204*
X04202Y01776*
X02623Y02271D02*
X02619Y02274D01*
X02613*
X02610Y02271*
Y02268*
X02613Y02264*
X02619*
X02623Y02261*
Y02258*
X02619Y02255*
X02613*
X02610Y02258*
X02629Y02255D02*
Y02274D01*
X02639*
X02642Y02271*
Y02264*
X02639Y02261*
X02629*
X02649Y02274D02*
X02655D01*
X02652*
Y02255*
X02649*
X02655*
X02698Y02274D02*
X02685D01*
Y02255*
X02698*
X02685Y02264D02*
X02692D01*
X02705Y02274D02*
X02718Y02255D01*
Y02274D02*
X02705Y02255D01*
X02724D02*
Y02274D01*
X02734*
X02737Y02271*
Y02264*
X02734Y02261*
X02724*
X02744Y02255D02*
Y02268D01*
X02751Y02274*
X02757Y02268*
Y02255*
Y02264*
X02744*
X02764Y02255D02*
Y02274D01*
X02777Y02255*
Y02274*
X02783D02*
Y02255D01*
X02793*
X02796Y02258*
Y02271*
X02793Y02274*
X02783*
X02816D02*
X02803D01*
Y02255*
X02816*
X02803Y02264D02*
X02810D01*
X02823Y02255D02*
Y02274D01*
X02833*
X02836Y02271*
Y02264*
X02833Y02261*
X02823*
X02829D02*
X02836Y02255D01*
G54D57*
X02150Y03934D02*
Y03899D01*
X02173*
X02208Y03934D02*
X02185D01*
Y03899*
X02208*
X02185Y03916D02*
X02196D01*
X02220Y03934D02*
Y03899D01*
X02237*
X02243Y03904*
Y03928*
X02237Y03934*
X02220*
X02307D02*
X02295D01*
X02290Y03928*
Y03904*
X02295Y03899*
X02307*
X02313Y03904*
Y03928*
X02307Y03934*
X02324D02*
Y03904D01*
X02330Y03899*
X02342*
X02348Y03904*
Y03934*
X02359D02*
X02383D01*
X02371*
Y03899*
X02394D02*
Y03934D01*
X02412*
X02418Y03928*
Y03916*
X02412Y03910*
X02394*
X02429Y03934D02*
Y03904D01*
X02435Y03899*
X02447*
X02453Y03904*
Y03934*
X02464D02*
X02488D01*
X02476*
Y03899*
X02150Y03874D02*
X02155Y03880D01*
X02167*
X02173Y03874*
Y03850*
X02167Y03845*
X02155*
X02150Y03850*
Y03874*
X02255Y03845D02*
X02266D01*
X02260*
Y03880*
X02255Y03874*
X02377Y03845D02*
X02354D01*
X02377Y03868*
Y03874*
X02371Y03880*
X02359*
X02354Y03874*
X02459D02*
X02464Y03880D01*
X02476*
X02482Y03874*
Y03868*
X02476Y03862*
X02470*
X02476*
X02482Y03856*
Y03850*
X02476Y03845*
X02464*
X02459Y03850*
X02581Y03845D02*
Y03880D01*
X02564Y03862*
X02587*
X02692Y03880D02*
X02669D01*
Y03862*
X02680Y03868*
X02686*
X02692Y03862*
Y03850*
X02686Y03845*
X02674*
X02669Y03850*
X02797Y03880D02*
X02785Y03874D01*
X02774Y03862*
Y03850*
X02779Y03845*
X02791*
X02797Y03850*
Y03856*
X02791Y03862*
X02774*
X02878Y03880D02*
X02902D01*
Y03874*
X02878Y03850*
Y03845*
X02972Y03874D02*
X02966Y03880D01*
X02954*
X02948Y03874*
Y03850*
X02954Y03845*
X02966*
X02972Y03850*
Y03862*
X02960*
X02983Y03845D02*
Y03880D01*
X03007Y03845*
Y03880*
X03018D02*
Y03845D01*
X03036*
X03042Y03850*
Y03874*
X03036Y03880*
X03018*
X02995Y01192D02*
Y01160D01*
X03011*
X03016Y01166*
Y01187*
X03011Y01192*
X02995*
X03027D02*
X03037D01*
X03032*
Y01160*
X03027*
X03037*
X03075Y01187D02*
X03069Y01192D01*
X03059*
X03053Y01187*
Y01166*
X03059Y01160*
X03069*
X03075Y01166*
Y01176*
X03064*
X03085Y01192D02*
X03096D01*
X03091*
Y01160*
X03085*
X03096*
X03112Y01192D02*
X03133D01*
X03123*
Y01160*
X03144D02*
Y01182D01*
X03154Y01192*
X03165Y01182*
Y01160*
Y01176*
X03144*
X03176Y01192D02*
Y01160D01*
X03197*
X03240Y01192D02*
X03250D01*
X03245*
Y01160*
X03240*
X03250*
X03266D02*
Y01192D01*
X03288Y01160*
Y01192*
X03298Y01160D02*
Y01192D01*
X03314*
X03320Y01187*
Y01176*
X03314Y01171*
X03298*
X03330Y01192D02*
Y01166D01*
X03336Y01160*
X03346*
X03352Y01166*
Y01192*
X03362D02*
X03384D01*
X03373*
Y01160*
X03394Y01182D02*
X03400D01*
Y01176*
X03394*
Y01182*
Y01166D02*
X03400D01*
Y01160*
X03394*
Y01166*
X02995Y01142D02*
Y01110D01*
X03011*
X03016Y01115*
Y01137*
X03011Y01142*
X02995*
X03027Y01110D02*
X03037D01*
X03032*
Y01142*
X03027Y01137*
X03085Y01142D02*
Y01110D01*
X03101*
X03107Y01115*
Y01137*
X03101Y01142*
X03085*
X03117Y01137D02*
X03123Y01142D01*
X03133*
X03139Y01137*
Y01131*
X03133Y01126*
X03128*
X03133*
X03139Y01121*
Y01115*
X03133Y01110*
X03123*
X03117Y01115*
X03181Y01142D02*
Y01110D01*
X03197*
X03202Y01115*
Y01137*
X03197Y01142*
X03181*
X03234D02*
X03213D01*
Y01126*
X03224Y01131*
X03229*
X03234Y01126*
Y01115*
X03229Y01110*
X03218*
X03213Y01115*
X03277Y01142D02*
Y01110D01*
X03293*
X03298Y01115*
Y01137*
X03293Y01142*
X03277*
X03309D02*
X03330D01*
Y01137*
X03309Y01115*
Y01110*
X03373Y01142D02*
Y01110D01*
X03389*
X03394Y01115*
Y01137*
X03389Y01142*
X03373*
X03405Y01115D02*
X03410Y01110D01*
X03421*
X03426Y01115*
Y01137*
X03421Y01142*
X03410*
X03405Y01137*
Y01131*
X03410Y01126*
X03426*
X03469Y01142D02*
Y01110D01*
X03485*
X03490Y01115*
Y01137*
X03485Y01142*
X03469*
X03501Y01110D02*
X03512D01*
X03506*
Y01142*
X03501Y01137*
X03528Y01110D02*
X03538D01*
X03533*
Y01142*
X03528Y01137*
X03586Y01142D02*
Y01110D01*
X03602*
X03608Y01115*
Y01137*
X03602Y01142*
X03586*
X03618Y01110D02*
X03629D01*
X03624*
Y01142*
X03618Y01137*
X03645D02*
X03650Y01142D01*
X03661*
X03666Y01137*
Y01131*
X03661Y01126*
X03656*
X03661*
X03666Y01121*
Y01115*
X03661Y01110*
X03650*
X03645Y01115*
X03709Y01142D02*
Y01110D01*
X03725*
X03730Y01115*
Y01137*
X03725Y01142*
X03709*
X03741Y01110D02*
X03752D01*
X03746*
Y01142*
X03741Y01137*
X03789Y01142D02*
X03768D01*
Y01126*
X03778Y01131*
X03784*
X03789Y01126*
Y01115*
X03784Y01110*
X03773*
X03768Y01115*
X02995Y01092D02*
Y01060D01*
X03011*
X03016Y01065*
Y01086*
X03011Y01092*
X02995*
X03027Y01086D02*
X03032Y01092D01*
X03043*
X03048Y01086*
Y01065*
X03043Y01060*
X03032*
X03027Y01065*
Y01086*
X03091Y01092D02*
Y01060D01*
X03107*
X03112Y01065*
Y01086*
X03107Y01092*
X03091*
X03144Y01060D02*
X03123D01*
X03144Y01081*
Y01086*
X03139Y01092*
X03128*
X03123Y01086*
X03186Y01092D02*
Y01060D01*
X03202*
X03208Y01065*
Y01086*
X03202Y01092*
X03186*
X03234Y01060D02*
Y01092D01*
X03218Y01076*
X03240*
X03282Y01092D02*
Y01060D01*
X03298*
X03304Y01065*
Y01086*
X03298Y01092*
X03282*
X03336D02*
X03325Y01086D01*
X03314Y01076*
Y01065*
X03320Y01060*
X03330*
X03336Y01065*
Y01070*
X03330Y01076*
X03314*
X03378Y01092D02*
Y01060D01*
X03394*
X03400Y01065*
Y01086*
X03394Y01092*
X03378*
X03410Y01086D02*
X03416Y01092D01*
X03426*
X03432Y01086*
Y01081*
X03426Y01076*
X03432Y01070*
Y01065*
X03426Y01060*
X03416*
X03410Y01065*
Y01070*
X03416Y01076*
X03410Y01081*
Y01086*
X03416Y01076D02*
X03426D01*
X03474Y01092D02*
Y01060D01*
X03490*
X03496Y01065*
Y01086*
X03490Y01092*
X03474*
X03506Y01060D02*
X03517D01*
X03512*
Y01092*
X03506Y01086*
X03533D02*
X03538Y01092D01*
X03549*
X03554Y01086*
Y01065*
X03549Y01060*
X03538*
X03533Y01065*
Y01086*
X03597Y01092D02*
Y01060D01*
X03613*
X03618Y01065*
Y01086*
X03613Y01092*
X03597*
X03629Y01060D02*
X03640D01*
X03634*
Y01092*
X03629Y01086*
X03677Y01060D02*
X03656D01*
X03677Y01081*
Y01086*
X03672Y01092*
X03661*
X03656Y01086*
X03720Y01092D02*
Y01060D01*
X03736*
X03741Y01065*
Y01086*
X03736Y01092*
X03720*
X03752Y01060D02*
X03762D01*
X03757*
Y01092*
X03752Y01086*
X03794Y01060D02*
Y01092D01*
X03778Y01076*
X03800*
X03400Y02885D02*
X03416D01*
X03420Y02888*
Y02895*
X03416Y02898*
X03400*
X03420Y02905D02*
Y02911D01*
Y02908*
X03400*
X03403Y02905*
Y02921D02*
X03400Y02925D01*
Y02931*
X03403Y02935*
X03416*
X03420Y02931*
Y02925*
X03416Y02921*
X03403*
Y02941D02*
X03400Y02945D01*
Y02951*
X03403Y02955*
X03406*
X03410Y02951*
X03413Y02955*
X03416*
X03420Y02951*
Y02945*
X03416Y02941*
X03413*
X03410Y02945*
X03406Y02941*
X03403*
X03410Y02945D02*
Y02951D01*
X03885Y02885D02*
X03901D01*
X03905Y02888*
Y02895*
X03901Y02898*
X03885*
X03905Y02905D02*
Y02911D01*
Y02908*
X03885*
X03888Y02905*
Y02921D02*
X03885Y02925D01*
Y02931*
X03888Y02935*
X03901*
X03905Y02931*
Y02925*
X03901Y02921*
X03888*
X03885Y02955D02*
Y02941D01*
X03895*
X03891Y02948*
Y02951*
X03895Y02955*
X03901*
X03905Y02951*
Y02945*
X03901Y02941*
X04768Y02816D02*
X04765Y02820D01*
X04758*
X04755Y02816*
Y02803*
X04758Y02800*
X04765*
X04768Y02803*
X04775Y02800D02*
X04781D01*
X04778*
Y02820*
X04775Y02816*
X04791D02*
X04795Y02820D01*
X04801*
X04805Y02816*
Y02803*
X04801Y02800*
X04795*
X04791Y02803*
Y02816*
X04821Y02800D02*
Y02820D01*
X04811Y02810*
X04825*
X04768Y02761D02*
X04765Y02765D01*
X04758*
X04755Y02761*
Y02748*
X04758Y02745*
X04765*
X04768Y02748*
X04775Y02745D02*
X04781D01*
X04778*
Y02765*
X04775Y02761*
X04791D02*
X04795Y02765D01*
X04801*
X04805Y02761*
Y02748*
X04801Y02745*
X04795*
X04791Y02748*
Y02761*
X04825Y02765D02*
X04811D01*
Y02755*
X04818Y02758*
X04821*
X04825Y02755*
Y02748*
X04821Y02745*
X04815*
X04811Y02748*
X04653Y03641D02*
X04650Y03645D01*
X04643*
X04640Y03641*
Y03628*
X04643Y03625*
X04650*
X04653Y03628*
X04660Y03625D02*
X04666D01*
X04663*
Y03645*
X04660Y03641*
X04676D02*
X04680Y03645D01*
X04686*
X04690Y03641*
Y03628*
X04686Y03625*
X04680*
X04676Y03628*
Y03641*
X04696D02*
X04700Y03645D01*
X04706*
X04710Y03641*
Y03628*
X04706Y03625*
X04700*
X04696Y03628*
Y03641*
X02038Y02971D02*
X02035Y02975D01*
X02028*
X02025Y02971*
Y02958*
X02028Y02955*
X02035*
X02038Y02958*
X02045Y02955D02*
X02051D01*
X02048*
Y02975*
X02045Y02971*
X02061D02*
X02065Y02975D01*
X02071*
X02075Y02971*
Y02958*
X02071Y02955*
X02065*
X02061Y02958*
Y02971*
X02095Y02975D02*
X02088Y02971D01*
X02081Y02965*
Y02958*
X02085Y02955*
X02091*
X02095Y02958*
Y02961*
X02091Y02965*
X02081*
X02033Y02771D02*
X02030Y02775D01*
X02023*
X02020Y02771*
Y02758*
X02023Y02755*
X02030*
X02033Y02758*
X02040Y02755D02*
X02046D01*
X02043*
Y02775*
X02040Y02771*
X02056D02*
X02060Y02775D01*
X02066*
X02070Y02771*
Y02758*
X02066Y02755*
X02060*
X02056Y02758*
Y02771*
X02076Y02775D02*
X02090D01*
Y02771*
X02076Y02758*
Y02755*
X04783Y03591D02*
X04780Y03595D01*
X04773*
X04770Y03591*
Y03578*
X04773Y03575*
X04780*
X04783Y03578*
X04790Y03575D02*
X04796D01*
X04793*
Y03595*
X04790Y03591*
X04806D02*
X04810Y03595D01*
X04816*
X04820Y03591*
Y03578*
X04816Y03575*
X04810*
X04806Y03578*
Y03591*
X04826Y03575D02*
X04833D01*
X04830*
Y03595*
X04826Y03591*
X02418Y02816D02*
X02415Y02820D01*
X02408*
X02405Y02816*
Y02803*
X02408Y02800*
X02415*
X02418Y02803*
X02425Y02800D02*
X02431D01*
X02428*
Y02820*
X02425Y02816*
X02441D02*
X02445Y02820D01*
X02451*
X02455Y02816*
Y02803*
X02451Y02800*
X02445*
X02441Y02803*
Y02816*
X02461D02*
X02465Y02820D01*
X02471*
X02475Y02816*
Y02813*
X02471Y02810*
X02475Y02806*
Y02803*
X02471Y02800*
X02465*
X02461Y02803*
Y02806*
X02465Y02810*
X02461Y02813*
Y02816*
X02465Y02810D02*
X02471D01*
X02603Y03476D02*
X02600Y03480D01*
X02593*
X02590Y03476*
Y03463*
X02593Y03460*
X02600*
X02603Y03463*
X02610Y03460D02*
X02616D01*
X02613*
Y03480*
X02610Y03476*
X02626D02*
X02630Y03480D01*
X02636*
X02640Y03476*
Y03463*
X02636Y03460*
X02630*
X02626Y03463*
Y03476*
X02646Y03463D02*
X02650Y03460D01*
X02656*
X02660Y03463*
Y03476*
X02656Y03480*
X02650*
X02646Y03476*
Y03473*
X02650Y03470*
X02660*
X04413Y02156D02*
X04410Y02160D01*
X04403*
X04400Y02156*
Y02143*
X04403Y02140*
X04410*
X04413Y02143*
X04420Y02140D02*
X04426D01*
X04423*
Y02160*
X04420Y02156*
X04436D02*
X04440Y02160D01*
X04446*
X04450Y02156*
Y02143*
X04446Y02140*
X04440*
X04436Y02143*
Y02156*
X04470Y02140D02*
X04456D01*
X04470Y02153*
Y02156*
X04466Y02160*
X04460*
X04456Y02156*
X02373Y03111D02*
X02370Y03115D01*
X02363*
X02360Y03111*
Y03098*
X02363Y03095*
X02370*
X02373Y03098*
X02380Y03095D02*
X02386D01*
X02383*
Y03115*
X02380Y03111*
X02396Y03095D02*
X02403D01*
X02400*
Y03115*
X02396Y03111*
X02426Y03115D02*
X02420Y03111D01*
X02413Y03105*
Y03098*
X02416Y03095*
X02423*
X02426Y03098*
Y03101*
X02423Y03105*
X02413*
X02398Y02996D02*
X02395Y03000D01*
X02388*
X02385Y02996*
Y02983*
X02388Y02980*
X02395*
X02398Y02983*
X02405Y02980D02*
X02411D01*
X02408*
Y03000*
X02405Y02996*
X02421Y02980D02*
X02428D01*
X02425*
Y03000*
X02421Y02996*
X02438Y03000D02*
X02451D01*
Y02996*
X02438Y02983*
Y02980*
X02753Y02491D02*
X02750Y02495D01*
X02743*
X02740Y02491*
Y02478*
X02743Y02475*
X02750*
X02753Y02478*
X02760Y02475D02*
X02766D01*
X02763*
Y02495*
X02760Y02491*
X02776Y02475D02*
X02783D01*
X02780*
Y02495*
X02776Y02491*
X02793D02*
X02796Y02495D01*
X02803*
X02806Y02491*
Y02488*
X02803Y02485*
X02806Y02481*
Y02478*
X02803Y02475*
X02796*
X02793Y02478*
Y02481*
X02796Y02485*
X02793Y02488*
Y02491*
X02796Y02485D02*
X02803D01*
X02893Y02956D02*
X02890Y02960D01*
X02883*
X02880Y02956*
Y02943*
X02883Y02940*
X02890*
X02893Y02943*
X02900Y02940D02*
X02906D01*
X02903*
Y02960*
X02900Y02956*
X02916Y02940D02*
X02923D01*
X02920*
Y02960*
X02916Y02956*
X02933Y02943D02*
X02936Y02940D01*
X02943*
X02946Y02943*
Y02956*
X02943Y02960*
X02936*
X02933Y02956*
Y02953*
X02936Y02950*
X02946*
X02548Y02366D02*
X02545Y02370D01*
X02538*
X02535Y02366*
Y02353*
X02538Y02350*
X02545*
X02548Y02353*
X02555Y02350D02*
X02561D01*
X02558*
Y02370*
X02555Y02366*
X02585Y02350D02*
X02571D01*
X02585Y02363*
Y02366*
X02581Y02370*
X02575*
X02571Y02366*
X02591D02*
X02595Y02370D01*
X02601*
X02605Y02366*
Y02353*
X02601Y02350*
X02595*
X02591Y02353*
Y02366*
X02548Y02426D02*
X02545Y02430D01*
X02538*
X02535Y02426*
Y02413*
X02538Y02410*
X02545*
X02548Y02413*
X02555Y02410D02*
X02561D01*
X02558*
Y02430*
X02555Y02426*
X02585Y02410D02*
X02571D01*
X02585Y02423*
Y02426*
X02581Y02430*
X02575*
X02571Y02426*
X02591Y02410D02*
X02598D01*
X02595*
Y02430*
X02591Y02426*
X04413Y01986D02*
X04410Y01990D01*
X04403*
X04400Y01986*
Y01973*
X04403Y01970*
X04410*
X04413Y01973*
X04420Y01970D02*
X04426D01*
X04423*
Y01990*
X04420Y01986*
X04436D02*
X04440Y01990D01*
X04446*
X04450Y01986*
Y01973*
X04446Y01970*
X04440*
X04436Y01973*
Y01986*
X04456D02*
X04460Y01990D01*
X04466*
X04470Y01986*
Y01983*
X04466Y01980*
X04463*
X04466*
X04470Y01976*
Y01973*
X04466Y01970*
X04460*
X04456Y01973*
X01758Y02466D02*
X01755Y02470D01*
X01748*
X01745Y02466*
Y02453*
X01748Y02450*
X01755*
X01758Y02453*
X01765Y02450D02*
X01771D01*
X01768*
Y02470*
X01765Y02466*
X01795Y02450D02*
X01781D01*
X01795Y02463*
Y02466*
X01791Y02470*
X01785*
X01781Y02466*
X01811Y02450D02*
Y02470D01*
X01801Y02460*
X01815*
X01968Y02453D02*
X01965Y02450D01*
Y02443*
X01968Y02440*
X01981*
X01985Y02443*
Y02450*
X01981Y02453*
X01985Y02460D02*
Y02466D01*
Y02463*
X01965*
X01968Y02460*
X01985Y02490D02*
Y02476D01*
X01971Y02490*
X01968*
X01965Y02486*
Y02480*
X01968Y02476*
X01965Y02510D02*
Y02496D01*
X01975*
X01971Y02503*
Y02506*
X01975Y02510*
X01981*
X01985Y02506*
Y02500*
X01981Y02496*
X01968Y02588D02*
X01965Y02585D01*
Y02578*
X01968Y02575*
X01981*
X01985Y02578*
Y02585*
X01981Y02588*
X01985Y02595D02*
Y02601D01*
Y02598*
X01965*
X01968Y02595*
X01985Y02625D02*
Y02611D01*
X01971Y02625*
X01968*
X01965Y02621*
Y02615*
X01968Y02611*
X01965Y02645D02*
X01968Y02638D01*
X01975Y02631*
X01981*
X01985Y02635*
Y02641*
X01981Y02645*
X01978*
X01975Y02641*
Y02631*
X02153Y02518D02*
X02150Y02515D01*
Y02508*
X02153Y02505*
X02166*
X02170Y02508*
Y02515*
X02166Y02518*
X02170Y02525D02*
Y02531D01*
Y02528*
X02150*
X02153Y02525*
X02170Y02555D02*
Y02541D01*
X02156Y02555*
X02153*
X02150Y02551*
Y02545*
X02153Y02541*
X02150Y02561D02*
Y02575D01*
X02153*
X02166Y02561*
X02170*
X01733Y03301D02*
X01730Y03305D01*
X01723*
X01720Y03301*
Y03288*
X01723Y03285*
X01730*
X01733Y03288*
X01740Y03285D02*
X01746D01*
X01743*
Y03305*
X01740Y03301*
X01770Y03285D02*
X01756D01*
X01770Y03298*
Y03301*
X01766Y03305*
X01760*
X01756Y03301*
X01776D02*
X01780Y03305D01*
X01786*
X01790Y03301*
Y03298*
X01786Y03295*
X01790Y03291*
Y03288*
X01786Y03285*
X01780*
X01776Y03288*
Y03291*
X01780Y03295*
X01776Y03298*
Y03301*
X01780Y03295D02*
X01786D01*
X01978Y02711D02*
X01975Y02715D01*
X01968*
X01965Y02711*
Y02698*
X01968Y02695*
X01975*
X01978Y02698*
X01985Y02695D02*
X01991D01*
X01988*
Y02715*
X01985Y02711*
X02015Y02695D02*
X02001D01*
X02015Y02708*
Y02711*
X02011Y02715*
X02005*
X02001Y02711*
X02021Y02698D02*
X02025Y02695D01*
X02031*
X02035Y02698*
Y02711*
X02031Y02715*
X02025*
X02021Y02711*
Y02708*
X02025Y02705*
X02035*
X01748Y02601D02*
X01745Y02605D01*
X01738*
X01735Y02601*
Y02588*
X01738Y02585*
X01745*
X01748Y02588*
X01755Y02585D02*
X01761D01*
X01758*
Y02605*
X01755Y02601*
X01771D02*
X01775Y02605D01*
X01781*
X01785Y02601*
Y02598*
X01781Y02595*
X01778*
X01781*
X01785Y02591*
Y02588*
X01781Y02585*
X01775*
X01771Y02588*
X01791Y02601D02*
X01795Y02605D01*
X01801*
X01805Y02601*
Y02588*
X01801Y02585*
X01795*
X01791Y02588*
Y02601*
X01753Y02536D02*
X01750Y02540D01*
X01743*
X01740Y02536*
Y02523*
X01743Y02520*
X01750*
X01753Y02523*
X01760Y02520D02*
X01766D01*
X01763*
Y02540*
X01760Y02536*
X01776D02*
X01780Y02540D01*
X01786*
X01790Y02536*
Y02533*
X01786Y02530*
X01783*
X01786*
X01790Y02526*
Y02523*
X01786Y02520*
X01780*
X01776Y02523*
X01796Y02520D02*
X01803D01*
X01800*
Y02540*
X01796Y02536*
X01348Y03301D02*
X01345Y03305D01*
X01338*
X01335Y03301*
Y03288*
X01338Y03285*
X01345*
X01348Y03288*
X01355Y03285D02*
X01361D01*
X01358*
Y03305*
X01355Y03301*
X01371D02*
X01375Y03305D01*
X01381*
X01385Y03301*
Y03298*
X01381Y03295*
X01378*
X01381*
X01385Y03291*
Y03288*
X01381Y03285*
X01375*
X01371Y03288*
X01405Y03285D02*
X01391D01*
X01405Y03298*
Y03301*
X01401Y03305*
X01395*
X01391Y03301*
X01253Y02906D02*
X01250Y02910D01*
X01243*
X01240Y02906*
Y02893*
X01243Y02890*
X01250*
X01253Y02893*
X01260Y02890D02*
X01266D01*
X01263*
Y02910*
X01260Y02906*
X01276D02*
X01280Y02910D01*
X01286*
X01290Y02906*
Y02903*
X01286Y02900*
X01283*
X01286*
X01290Y02896*
Y02893*
X01286Y02890*
X01280*
X01276Y02893*
X01296Y02906D02*
X01300Y02910D01*
X01306*
X01310Y02906*
Y02903*
X01306Y02900*
X01303*
X01306*
X01310Y02896*
Y02893*
X01306Y02890*
X01300*
X01296Y02893*
X02773Y01841D02*
X02770Y01845D01*
X02763*
X02760Y01841*
Y01828*
X02763Y01825*
X02770*
X02773Y01828*
X02793Y01825D02*
X02780D01*
X02793Y01838*
Y01841*
X02790Y01845*
X02783*
X02780Y01841*
X02800D02*
X02803Y01845D01*
X02810*
X02813Y01841*
Y01828*
X02810Y01825*
X02803*
X02800Y01828*
Y01841*
X02830Y01825D02*
Y01845D01*
X02820Y01835*
X02833*
X02093Y01761D02*
X02090Y01765D01*
X02083*
X02080Y01761*
Y01748*
X02083Y01745*
X02090*
X02093Y01748*
X02113Y01745D02*
X02100D01*
X02113Y01758*
Y01761*
X02110Y01765*
X02103*
X02100Y01761*
X02120D02*
X02123Y01765D01*
X02130*
X02133Y01761*
Y01748*
X02130Y01745*
X02123*
X02120Y01748*
Y01761*
X02153Y01765D02*
X02140D01*
Y01755*
X02146Y01758*
X02150*
X02153Y01755*
Y01748*
X02150Y01745*
X02143*
X02140Y01748*
X01988Y01761D02*
X01985Y01765D01*
X01978*
X01975Y01761*
Y01748*
X01978Y01745*
X01985*
X01988Y01748*
X02008Y01745D02*
X01995D01*
X02008Y01758*
Y01761*
X02005Y01765*
X01998*
X01995Y01761*
X02015D02*
X02018Y01765D01*
X02025*
X02028Y01761*
Y01748*
X02025Y01745*
X02018*
X02015Y01748*
Y01761*
X02048Y01765D02*
X02041Y01761D01*
X02035Y01755*
Y01748*
X02038Y01745*
X02045*
X02048Y01748*
Y01751*
X02045Y01755*
X02035*
X02313Y01636D02*
X02310Y01640D01*
X02303*
X02300Y01636*
Y01623*
X02303Y01620*
X02310*
X02313Y01623*
X02333Y01620D02*
X02320D01*
X02333Y01633*
Y01636*
X02330Y01640*
X02323*
X02320Y01636*
X02340D02*
X02343Y01640D01*
X02350*
X02353Y01636*
Y01623*
X02350Y01620*
X02343*
X02340Y01623*
Y01636*
X02360Y01640D02*
X02373D01*
Y01636*
X02360Y01623*
Y01620*
X02194Y01570D02*
X02191Y01574D01*
X02184*
X02181Y01570*
Y01557*
X02184Y01554*
X02191*
X02194Y01557*
X02214Y01554D02*
X02201D01*
X02214Y01567*
Y01570*
X02211Y01574*
X02204*
X02201Y01570*
X02221D02*
X02224Y01574D01*
X02231*
X02234Y01570*
Y01557*
X02231Y01554*
X02224*
X02221Y01557*
Y01570*
X02241Y01557D02*
X02244Y01554D01*
X02251*
X02254Y01557*
Y01570*
X02251Y01574*
X02244*
X02241Y01570*
Y01567*
X02244Y01564*
X02254*
X02094Y01570D02*
X02091Y01574D01*
X02084*
X02081Y01570*
Y01557*
X02084Y01554*
X02091*
X02094Y01557*
X02114Y01554D02*
X02101D01*
X02114Y01567*
Y01570*
X02111Y01574*
X02104*
X02101Y01570*
X02121Y01554D02*
X02127D01*
X02124*
Y01574*
X02121Y01570*
X02137D02*
X02141Y01574D01*
X02147*
X02151Y01570*
Y01557*
X02147Y01554*
X02141*
X02137Y01557*
Y01570*
X01994D02*
X01991Y01574D01*
X01984*
X01981Y01570*
Y01557*
X01984Y01554*
X01991*
X01994Y01557*
X02014Y01554D02*
X02001D01*
X02014Y01567*
Y01570*
X02011Y01574*
X02004*
X02001Y01570*
X02021Y01554D02*
X02027D01*
X02024*
Y01574*
X02021Y01570*
X02037Y01554D02*
X02044D01*
X02041*
Y01574*
X02037Y01570*
X02294D02*
X02291Y01574D01*
X02284*
X02281Y01570*
Y01557*
X02284Y01554*
X02291*
X02294Y01557*
X02314Y01554D02*
X02301D01*
X02314Y01567*
Y01570*
X02311Y01574*
X02304*
X02301Y01570*
X02321D02*
X02324Y01574D01*
X02331*
X02334Y01570*
Y01557*
X02331Y01554*
X02324*
X02321Y01557*
Y01570*
X02341D02*
X02344Y01574D01*
X02351*
X02354Y01570*
Y01567*
X02351Y01564*
X02354Y01560*
Y01557*
X02351Y01554*
X02344*
X02341Y01557*
Y01560*
X02344Y01564*
X02341Y01567*
Y01570*
X02344Y01564D02*
X02351D01*
X02494Y01570D02*
X02491Y01574D01*
X02484*
X02481Y01570*
Y01557*
X02484Y01554*
X02491*
X02494Y01557*
X02514Y01554D02*
X02501D01*
X02514Y01567*
Y01570*
X02511Y01574*
X02504*
X02501Y01570*
X02521Y01554D02*
X02527D01*
X02524*
Y01574*
X02521Y01570*
X02551Y01554D02*
X02537D01*
X02551Y01567*
Y01570*
X02547Y01574*
X02541*
X02537Y01570*
X02594D02*
X02591Y01574D01*
X02584*
X02581Y01570*
Y01557*
X02584Y01554*
X02591*
X02594Y01557*
X02614Y01554D02*
X02601D01*
X02614Y01567*
Y01570*
X02611Y01574*
X02604*
X02601Y01570*
X02621Y01554D02*
X02627D01*
X02624*
Y01574*
X02621Y01570*
X02637D02*
X02641Y01574D01*
X02647*
X02651Y01570*
Y01567*
X02647Y01564*
X02644*
X02647*
X02651Y01560*
Y01557*
X02647Y01554*
X02641*
X02637Y01557*
X02694Y01570D02*
X02691Y01574D01*
X02684*
X02681Y01570*
Y01557*
X02684Y01554*
X02691*
X02694Y01557*
X02714Y01554D02*
X02701D01*
X02714Y01567*
Y01570*
X02711Y01574*
X02704*
X02701Y01570*
X02721Y01554D02*
X02727D01*
X02724*
Y01574*
X02721Y01570*
X02747Y01554D02*
Y01574D01*
X02737Y01564*
X02751*
X02394Y01570D02*
X02391Y01574D01*
X02384*
X02381Y01570*
Y01557*
X02384Y01554*
X02391*
X02394Y01557*
X02414Y01554D02*
X02401D01*
X02414Y01567*
Y01570*
X02411Y01574*
X02404*
X02401Y01570*
X02421Y01554D02*
X02427D01*
X02424*
Y01574*
X02421Y01570*
X02451Y01574D02*
X02437D01*
Y01564*
X02444Y01567*
X02447*
X02451Y01564*
Y01557*
X02447Y01554*
X02441*
X02437Y01557*
X01293Y02196D02*
X01290Y02200D01*
X01283*
X01280Y02196*
Y02183*
X01283Y02180*
X01290*
X01293Y02183*
X01313Y02180D02*
X01300D01*
X01313Y02193*
Y02196*
X01310Y02200*
X01303*
X01300Y02196*
X01333Y02180D02*
X01320D01*
X01333Y02193*
Y02196*
X01330Y02200*
X01323*
X01320Y02196*
X01340D02*
X01343Y02200D01*
X01350*
X01353Y02196*
Y02183*
X01350Y02180*
X01343*
X01340Y02183*
Y02196*
X03398Y01911D02*
X03395Y01915D01*
X03388*
X03385Y01911*
Y01898*
X03388Y01895*
X03395*
X03398Y01898*
X03418Y01895D02*
X03405D01*
X03418Y01908*
Y01911*
X03415Y01915*
X03408*
X03405Y01911*
X03438Y01895D02*
X03425D01*
X03438Y01908*
Y01911*
X03435Y01915*
X03428*
X03425Y01911*
X03458Y01915D02*
X03445D01*
Y01905*
X03451Y01908*
X03455*
X03458Y01905*
Y01898*
X03455Y01895*
X03448*
X03445Y01898*
X01558Y02416D02*
X01555Y02420D01*
X01548*
X01545Y02416*
Y02403*
X01548Y02400*
X01555*
X01558Y02403*
X01578Y02400D02*
X01565D01*
X01578Y02413*
Y02416*
X01575Y02420*
X01568*
X01565Y02416*
X01598Y02400D02*
X01585D01*
X01598Y02413*
Y02416*
X01595Y02420*
X01588*
X01585Y02416*
X01618Y02420D02*
X01611Y02416D01*
X01605Y02410*
Y02403*
X01608Y02400*
X01615*
X01618Y02403*
Y02406*
X01615Y02410*
X01605*
X01318Y02491D02*
X01315Y02495D01*
X01308*
X01305Y02491*
Y02478*
X01308Y02475*
X01315*
X01318Y02478*
X01338Y02475D02*
X01325D01*
X01338Y02488*
Y02491*
X01335Y02495*
X01328*
X01325Y02491*
X01358Y02475D02*
X01345D01*
X01358Y02488*
Y02491*
X01355Y02495*
X01348*
X01345Y02491*
X01365Y02495D02*
X01378D01*
Y02491*
X01365Y02478*
Y02475*
X01558Y02341D02*
X01555Y02345D01*
X01548*
X01545Y02341*
Y02328*
X01548Y02325*
X01555*
X01558Y02328*
X01578Y02325D02*
X01565D01*
X01578Y02338*
Y02341*
X01575Y02345*
X01568*
X01565Y02341*
X01598Y02325D02*
X01585D01*
X01598Y02338*
Y02341*
X01595Y02345*
X01588*
X01585Y02341*
X01605D02*
X01608Y02345D01*
X01615*
X01618Y02341*
Y02338*
X01615Y02335*
X01618Y02331*
Y02328*
X01615Y02325*
X01608*
X01605Y02328*
Y02331*
X01608Y02335*
X01605Y02338*
Y02341*
X01608Y02335D02*
X01615D01*
X01393Y01858D02*
X01390Y01855D01*
Y01848*
X01393Y01845*
X01406*
X01410Y01848*
Y01855*
X01406Y01858*
X01410Y01878D02*
Y01865D01*
X01396Y01878*
X01393*
X01390Y01875*
Y01868*
X01393Y01865*
X01410Y01898D02*
Y01885D01*
X01396Y01898*
X01393*
X01390Y01895*
Y01888*
X01393Y01885*
X01406Y01905D02*
X01410Y01908D01*
Y01915*
X01406Y01918*
X01393*
X01390Y01915*
Y01908*
X01393Y01905*
X01396*
X01400Y01908*
Y01918*
X01868Y01891D02*
X01865Y01895D01*
X01858*
X01855Y01891*
Y01878*
X01858Y01875*
X01865*
X01868Y01878*
X01888Y01875D02*
X01875D01*
X01888Y01888*
Y01891*
X01885Y01895*
X01878*
X01875Y01891*
X01895D02*
X01898Y01895D01*
X01905*
X01908Y01891*
Y01888*
X01905Y01885*
X01901*
X01905*
X01908Y01881*
Y01878*
X01905Y01875*
X01898*
X01895Y01878*
X01915Y01891D02*
X01918Y01895D01*
X01925*
X01928Y01891*
Y01878*
X01925Y01875*
X01918*
X01915Y01878*
Y01891*
X01863Y01961D02*
X01860Y01965D01*
X01853*
X01850Y01961*
Y01948*
X01853Y01945*
X01860*
X01863Y01948*
X01883Y01945D02*
X01870D01*
X01883Y01958*
Y01961*
X01880Y01965*
X01873*
X01870Y01961*
X01890D02*
X01893Y01965D01*
X01900*
X01903Y01961*
Y01958*
X01900Y01955*
X01896*
X01900*
X01903Y01951*
Y01948*
X01900Y01945*
X01893*
X01890Y01948*
X01910Y01945D02*
X01916D01*
X01913*
Y01965*
X01910Y01961*
X03863Y01401D02*
X03860Y01405D01*
X03853*
X03850Y01401*
Y01388*
X03853Y01385*
X03860*
X03863Y01388*
X03883Y01385D02*
X03870D01*
X03883Y01398*
Y01401*
X03880Y01405*
X03873*
X03870Y01401*
X03890D02*
X03893Y01405D01*
X03900*
X03903Y01401*
Y01398*
X03900Y01395*
X03896*
X03900*
X03903Y01391*
Y01388*
X03900Y01385*
X03893*
X03890Y01388*
X03923Y01405D02*
X03916Y01401D01*
X03910Y01395*
Y01388*
X03913Y01385*
X03920*
X03923Y01388*
Y01391*
X03920Y01395*
X03910*
X04510Y03489D02*
Y03469D01*
X04520*
X04523Y03472*
Y03485*
X04520Y03489*
X04510*
X04530Y03469D02*
X04536D01*
X04533*
Y03489*
X04530Y03485*
X04546D02*
X04550Y03489D01*
X04556*
X04560Y03485*
Y03472*
X04556Y03469*
X04550*
X04546Y03472*
Y03485*
X04566D02*
X04570Y03489D01*
X04576*
X04580Y03485*
Y03472*
X04576Y03469*
X04570*
X04566Y03472*
Y03485*
X04385Y03304D02*
Y03284D01*
X04395*
X04398Y03287*
Y03300*
X04395Y03304*
X04385*
X04405Y03284D02*
X04411D01*
X04408*
Y03304*
X04405Y03300*
X04421D02*
X04425Y03304D01*
X04431*
X04435Y03300*
Y03287*
X04431Y03284*
X04425*
X04421Y03287*
Y03300*
X04441Y03284D02*
X04448D01*
X04445*
Y03304*
X04441Y03300*
X02640Y01960D02*
Y01940D01*
X02650*
X02653Y01943*
Y01956*
X02650Y01960*
X02640*
X02673Y01940D02*
X02660D01*
X02673Y01953*
Y01956*
X02670Y01960*
X02663*
X02660Y01956*
X02680D02*
X02683Y01960D01*
X02690*
X02693Y01956*
Y01943*
X02690Y01940*
X02683*
X02680Y01943*
Y01956*
X02710Y01940D02*
Y01960D01*
X02700Y01950*
X02713*
X02640Y01735D02*
Y01715D01*
X02650*
X02653Y01718*
Y01731*
X02650Y01735*
X02640*
X02673Y01715D02*
X02660D01*
X02673Y01728*
Y01731*
X02670Y01735*
X02663*
X02660Y01731*
X02680D02*
X02683Y01735D01*
X02690*
X02693Y01731*
Y01718*
X02690Y01715*
X02683*
X02680Y01718*
Y01731*
X02713Y01735D02*
X02700D01*
Y01725*
X02706Y01728*
X02710*
X02713Y01725*
Y01718*
X02710Y01715*
X02703*
X02700Y01718*
X02043Y03310D02*
X02030D01*
Y03300*
X02036*
X02030*
Y03290*
X02050Y03310D02*
Y03290D01*
X02060*
X02063Y03293*
Y03306*
X02060Y03310*
X02050*
X02070Y03290D02*
X02076D01*
X02073*
Y03310*
X02070Y03306*
X02086D02*
X02090Y03310D01*
X02096*
X02100Y03306*
Y03293*
X02096Y03290*
X02090*
X02086Y03293*
Y03306*
X02106D02*
X02110Y03310D01*
X02116*
X02120Y03306*
Y03293*
X02116Y03290*
X02110*
X02106Y03293*
Y03306*
X02445Y02250D02*
Y02230D01*
X02458*
X02465D02*
X02471D01*
X02468*
Y02250*
X02465Y02246*
X02481D02*
X02485Y02250D01*
X02491*
X02495Y02246*
Y02233*
X02491Y02230*
X02485*
X02481Y02233*
Y02246*
X02501D02*
X02505Y02250D01*
X02511*
X02515Y02246*
Y02233*
X02511Y02230*
X02505*
X02501Y02233*
Y02246*
X01995Y01885D02*
Y01865D01*
X02008*
X02028D02*
X02015D01*
X02028Y01878*
Y01881*
X02025Y01885*
X02018*
X02015Y01881*
X02035D02*
X02038Y01885D01*
X02045*
X02048Y01881*
Y01868*
X02045Y01865*
X02038*
X02035Y01868*
Y01881*
X02055D02*
X02058Y01885D01*
X02065*
X02068Y01881*
Y01868*
X02065Y01865*
X02058*
X02055Y01868*
Y01881*
X01545Y02450D02*
Y02430D01*
X01558*
X01578D02*
X01565D01*
X01578Y02443*
Y02446*
X01575Y02450*
X01568*
X01565Y02446*
X01585D02*
X01588Y02450D01*
X01595*
X01598Y02446*
Y02433*
X01595Y02430*
X01588*
X01585Y02433*
Y02446*
X01605Y02430D02*
X01611D01*
X01608*
Y02450*
X01605Y02446*
X04795Y02640D02*
Y02660D01*
X04805*
X04808Y02656*
Y02650*
X04805Y02646*
X04795*
X04815Y02640D02*
X04821D01*
X04818*
Y02660*
X04815Y02656*
X04831D02*
X04835Y02660D01*
X04841*
X04845Y02656*
Y02643*
X04841Y02640*
X04835*
X04831Y02643*
Y02656*
X04851D02*
X04855Y02660D01*
X04861*
X04865Y02656*
Y02653*
X04861Y02650*
X04858*
X04861*
X04865Y02646*
Y02643*
X04861Y02640*
X04855*
X04851Y02643*
X04580Y02950D02*
Y02970D01*
X04590*
X04593Y02966*
Y02960*
X04590Y02956*
X04580*
X04600Y02950D02*
X04606D01*
X04603*
Y02970*
X04600Y02966*
X04616D02*
X04620Y02970D01*
X04626*
X04630Y02966*
Y02953*
X04626Y02950*
X04620*
X04616Y02953*
Y02966*
X04636Y02950D02*
X04643D01*
X04640*
Y02970*
X04636Y02966*
X04790Y02090D02*
Y02110D01*
X04800*
X04803Y02106*
Y02100*
X04800Y02096*
X04790*
X04810Y02090D02*
X04816D01*
X04813*
Y02110*
X04810Y02106*
X04826D02*
X04830Y02110D01*
X04836*
X04840Y02106*
Y02093*
X04836Y02090*
X04830*
X04826Y02093*
Y02106*
X04860Y02090D02*
X04846D01*
X04860Y02103*
Y02106*
X04856Y02110*
X04850*
X04846Y02106*
X02775Y01165D02*
Y01185D01*
X02785*
X02788Y01181*
Y01175*
X02785Y01171*
X02775*
X02808Y01165D02*
X02795D01*
X02808Y01178*
Y01181*
X02805Y01185*
X02798*
X02795Y01181*
X02815D02*
X02818Y01185D01*
X02825*
X02828Y01181*
Y01168*
X02825Y01165*
X02818*
X02815Y01168*
Y01181*
X02835D02*
X02838Y01185D01*
X02845*
X02848Y01181*
Y01168*
X02845Y01165*
X02838*
X02835Y01168*
Y01181*
X01455Y01635D02*
Y01655D01*
X01465*
X01468Y01651*
Y01645*
X01465Y01641*
X01455*
X01488Y01635D02*
X01475D01*
X01488Y01648*
Y01651*
X01485Y01655*
X01478*
X01475Y01651*
X01495D02*
X01498Y01655D01*
X01505*
X01508Y01651*
Y01638*
X01505Y01635*
X01498*
X01495Y01638*
Y01651*
X01515Y01635D02*
X01521D01*
X01518*
Y01655*
X01515Y01651*
X01455Y01305D02*
Y01325D01*
X01465*
X01468Y01321*
Y01315*
X01465Y01311*
X01455*
X01488Y01305D02*
X01475D01*
X01488Y01318*
Y01321*
X01485Y01325*
X01478*
X01475Y01321*
X01495D02*
X01498Y01325D01*
X01505*
X01508Y01321*
Y01308*
X01505Y01305*
X01498*
X01495Y01308*
Y01321*
X01528Y01305D02*
X01515D01*
X01528Y01318*
Y01321*
X01525Y01325*
X01518*
X01515Y01321*
X04380Y01395D02*
Y01415D01*
X04390*
X04393Y01411*
Y01405*
X04390Y01401*
X04380*
X04413Y01395D02*
X04400D01*
X04413Y01408*
Y01411*
X04410Y01415*
X04403*
X04400Y01411*
X04420D02*
X04423Y01415D01*
X04430*
X04433Y01411*
Y01398*
X04430Y01395*
X04423*
X04420Y01398*
Y01411*
X04453Y01415D02*
X04440D01*
Y01405*
X04446Y01408*
X04450*
X04453Y01405*
Y01398*
X04450Y01395*
X04443*
X04440Y01398*
X02120Y03690D02*
Y03710D01*
X02130*
X02133Y03706*
Y03700*
X02130Y03696*
X02120*
X02153Y03690D02*
X02140D01*
X02153Y03703*
Y03706*
X02150Y03710*
X02143*
X02140Y03706*
X02160D02*
X02163Y03710D01*
X02170*
X02173Y03706*
Y03693*
X02170Y03690*
X02163*
X02160Y03693*
Y03706*
X02180D02*
X02183Y03710D01*
X02190*
X02193Y03706*
Y03703*
X02190Y03700*
X02186*
X02190*
X02193Y03696*
Y03693*
X02190Y03690*
X02183*
X02180Y03693*
X04380Y01690D02*
Y01710D01*
X04390*
X04393Y01706*
Y01700*
X04390Y01696*
X04380*
X04413Y01690D02*
X04400D01*
X04413Y01703*
Y01706*
X04410Y01710*
X04403*
X04400Y01706*
X04420D02*
X04423Y01710D01*
X04430*
X04433Y01706*
Y01693*
X04430Y01690*
X04423*
X04420Y01693*
Y01706*
X04453Y01710D02*
X04446Y01706D01*
X04440Y01700*
Y01693*
X04443Y01690*
X04450*
X04453Y01693*
Y01696*
X04450Y01700*
X04440*
X01353Y02108D02*
Y02121D01*
X01350Y02125*
X01343*
X01340Y02121*
Y02108*
X01343Y02105*
X01350*
X01346Y02111D02*
X01353Y02105D01*
X01350D02*
X01353Y02108D01*
X01373Y02105D02*
X01360D01*
X01373Y02118*
Y02121*
X01370Y02125*
X01363*
X01360Y02121*
X01380D02*
X01383Y02125D01*
X01390*
X01393Y02121*
Y02108*
X01390Y02105*
X01383*
X01380Y02108*
Y02121*
X01400D02*
X01403Y02125D01*
X01410*
X01413Y02121*
Y02108*
X01410Y02105*
X01403*
X01400Y02108*
Y02121*
X01778Y02408D02*
Y02421D01*
X01775Y02425*
X01768*
X01765Y02421*
Y02408*
X01768Y02405*
X01775*
X01771Y02411D02*
X01778Y02405D01*
X01775D02*
X01778Y02408D01*
X01798Y02405D02*
X01785D01*
X01798Y02418*
Y02421*
X01795Y02425*
X01788*
X01785Y02421*
X01805D02*
X01808Y02425D01*
X01815*
X01818Y02421*
Y02408*
X01815Y02405*
X01808*
X01805Y02408*
Y02421*
X01825Y02405D02*
X01831D01*
X01828*
Y02425*
X01825Y02421*
X04510Y03610D02*
Y03630D01*
X04520*
X04523Y03626*
Y03620*
X04520Y03616*
X04510*
X04516D02*
X04523Y03610D01*
X04530D02*
X04536D01*
X04533*
Y03630*
X04530Y03626*
X04546D02*
X04550Y03630D01*
X04556*
X04560Y03626*
Y03613*
X04556Y03610*
X04550*
X04546Y03613*
Y03626*
X04566D02*
X04570Y03630D01*
X04576*
X04580Y03626*
Y03613*
X04576Y03610*
X04570*
X04566Y03613*
Y03626*
X02520Y02925D02*
Y02945D01*
X02530*
X02533Y02941*
Y02935*
X02530Y02931*
X02520*
X02526D02*
X02533Y02925D01*
X02540D02*
X02546D01*
X02543*
Y02945*
X02540Y02941*
X02556D02*
X02560Y02945D01*
X02566*
X02570Y02941*
Y02928*
X02566Y02925*
X02560*
X02556Y02928*
Y02941*
X02576D02*
X02580Y02945D01*
X02586*
X02590Y02941*
Y02938*
X02586Y02935*
X02590Y02931*
Y02928*
X02586Y02925*
X02580*
X02576Y02928*
Y02931*
X02580Y02935*
X02576Y02938*
Y02941*
X02580Y02935D02*
X02586D01*
X02920Y01480D02*
Y01500D01*
X02930*
X02933Y01496*
Y01490*
X02930Y01486*
X02920*
X02926D02*
X02933Y01480D01*
X02953D02*
X02940D01*
X02953Y01493*
Y01496*
X02950Y01500*
X02943*
X02940Y01496*
X02960D02*
X02963Y01500D01*
X02970*
X02973Y01496*
Y01483*
X02970Y01480*
X02963*
X02960Y01483*
Y01496*
X02990Y01480D02*
Y01500D01*
X02980Y01490*
X02993*
X02965Y01690D02*
Y01710D01*
X02975*
X02978Y01706*
Y01700*
X02975Y01696*
X02965*
X02971D02*
X02978Y01690D01*
X02998D02*
X02985D01*
X02998Y01703*
Y01706*
X02995Y01710*
X02988*
X02985Y01706*
X03005D02*
X03008Y01710D01*
X03015*
X03018Y01706*
Y01693*
X03015Y01690*
X03008*
X03005Y01693*
Y01706*
X03038Y01710D02*
X03025D01*
Y01700*
X03031Y01703*
X03035*
X03038Y01700*
Y01693*
X03035Y01690*
X03028*
X03025Y01693*
X01980Y01220D02*
X01960D01*
Y01230*
X01963Y01233*
X01970*
X01973Y01230*
Y01220*
Y01226D02*
X01980Y01233D01*
Y01253D02*
Y01240D01*
X01966Y01253*
X01963*
X01960Y01250*
Y01243*
X01963Y01240*
Y01260D02*
X01960Y01263D01*
Y01270*
X01963Y01273*
X01976*
X01980Y01270*
Y01263*
X01976Y01260*
X01963*
X01960Y01293D02*
X01963Y01286D01*
X01970Y01280*
X01976*
X01980Y01283*
Y01290*
X01976Y01293*
X01973*
X01970Y01290*
Y01280*
X03040Y01480D02*
Y01500D01*
X03050*
X03053Y01496*
Y01490*
X03050Y01486*
X03040*
X03046D02*
X03053Y01480D01*
X03073D02*
X03060D01*
X03073Y01493*
Y01496*
X03070Y01500*
X03063*
X03060Y01496*
X03080D02*
X03083Y01500D01*
X03090*
X03093Y01496*
Y01483*
X03090Y01480*
X03083*
X03080Y01483*
Y01496*
X03100Y01500D02*
X03113D01*
Y01496*
X03100Y01483*
Y01480*
X02080Y01220D02*
X02060D01*
Y01230*
X02063Y01233*
X02070*
X02073Y01230*
Y01220*
Y01226D02*
X02080Y01233D01*
Y01253D02*
Y01240D01*
X02066Y01253*
X02063*
X02060Y01250*
Y01243*
X02063Y01240*
Y01260D02*
X02060Y01263D01*
Y01270*
X02063Y01273*
X02076*
X02080Y01270*
Y01263*
X02076Y01260*
X02063*
Y01280D02*
X02060Y01283D01*
Y01290*
X02063Y01293*
X02066*
X02070Y01290*
X02073Y01293*
X02076*
X02080Y01290*
Y01283*
X02076Y01280*
X02073*
X02070Y01283*
X02066Y01280*
X02063*
X02070Y01283D02*
Y01290D01*
X03080Y01691D02*
Y01711D01*
X03090*
X03094Y01707*
Y01701*
X03090Y01697*
X03080*
X03087D02*
X03094Y01691D01*
X03114D02*
X03100D01*
X03114Y01704*
Y01707*
X03110Y01711*
X03104*
X03100Y01707*
X03120D02*
X03124Y01711D01*
X03130*
X03134Y01707*
Y01694*
X03130Y01691*
X03124*
X03120Y01694*
Y01707*
X03140Y01694D02*
X03144Y01691D01*
X03150*
X03154Y01694*
Y01707*
X03150Y01711*
X03144*
X03140Y01707*
Y01704*
X03144Y01701*
X03154*
X02180Y01220D02*
X02160D01*
Y01230*
X02163Y01233*
X02170*
X02173Y01230*
Y01220*
Y01226D02*
X02180Y01233D01*
Y01253D02*
Y01240D01*
X02166Y01253*
X02163*
X02160Y01250*
Y01243*
X02163Y01240*
X02180Y01260D02*
Y01266D01*
Y01263*
X02160*
X02163Y01260*
Y01276D02*
X02160Y01280D01*
Y01286*
X02163Y01290*
X02176*
X02180Y01286*
Y01280*
X02176Y01276*
X02163*
X03160Y01480D02*
Y01500D01*
X03170*
X03173Y01496*
Y01490*
X03170Y01486*
X03160*
X03166D02*
X03173Y01480D01*
X03193D02*
X03180D01*
X03193Y01493*
Y01496*
X03190Y01500*
X03183*
X03180Y01496*
X03200Y01480D02*
X03206D01*
X03203*
Y01500*
X03200Y01496*
X03216Y01480D02*
X03223D01*
X03220*
Y01500*
X03216Y01496*
X02280Y01220D02*
X02260D01*
Y01230*
X02263Y01233*
X02270*
X02273Y01230*
Y01220*
Y01226D02*
X02280Y01233D01*
Y01253D02*
Y01240D01*
X02266Y01253*
X02263*
X02260Y01250*
Y01243*
X02263Y01240*
X02280Y01260D02*
Y01266D01*
Y01263*
X02260*
X02263Y01260*
X02280Y01290D02*
Y01276D01*
X02266Y01290*
X02263*
X02260Y01286*
Y01280*
X02263Y01276*
X03210Y01690D02*
Y01710D01*
X03220*
X03223Y01706*
Y01700*
X03220Y01696*
X03210*
X03216D02*
X03223Y01690D01*
X03243D02*
X03230D01*
X03243Y01703*
Y01706*
X03240Y01710*
X03233*
X03230Y01706*
X03250Y01690D02*
X03256D01*
X03253*
Y01710*
X03250Y01706*
X03266D02*
X03270Y01710D01*
X03276*
X03280Y01706*
Y01703*
X03276Y01700*
X03273*
X03276*
X03280Y01696*
Y01693*
X03276Y01690*
X03270*
X03266Y01693*
X02380Y01220D02*
X02360D01*
Y01230*
X02363Y01233*
X02370*
X02373Y01230*
Y01220*
Y01226D02*
X02380Y01233D01*
Y01253D02*
Y01240D01*
X02366Y01253*
X02363*
X02360Y01250*
Y01243*
X02363Y01240*
X02380Y01260D02*
Y01266D01*
Y01263*
X02360*
X02363Y01260*
X02380Y01286D02*
X02360D01*
X02370Y01276*
Y01290*
X03280Y01480D02*
Y01500D01*
X03290*
X03293Y01496*
Y01490*
X03290Y01486*
X03280*
X03286D02*
X03293Y01480D01*
X03313D02*
X03300D01*
X03313Y01493*
Y01496*
X03310Y01500*
X03303*
X03300Y01496*
X03320Y01480D02*
X03326D01*
X03323*
Y01500*
X03320Y01496*
X03350Y01500D02*
X03336D01*
Y01490*
X03343Y01493*
X03346*
X03350Y01490*
Y01483*
X03346Y01480*
X03340*
X03336Y01483*
X02480Y01220D02*
X02460D01*
Y01230*
X02463Y01233*
X02470*
X02473Y01230*
Y01220*
Y01226D02*
X02480Y01233D01*
Y01253D02*
Y01240D01*
X02466Y01253*
X02463*
X02460Y01250*
Y01243*
X02463Y01240*
X02480Y01260D02*
Y01266D01*
Y01263*
X02460*
X02463Y01260*
X02460Y01290D02*
X02463Y01283D01*
X02470Y01276*
X02476*
X02480Y01280*
Y01286*
X02476Y01290*
X02473*
X02470Y01286*
Y01276*
X03345Y01690D02*
Y01710D01*
X03355*
X03358Y01706*
Y01700*
X03355Y01696*
X03345*
X03351D02*
X03358Y01690D01*
X03378D02*
X03365D01*
X03378Y01703*
Y01706*
X03375Y01710*
X03368*
X03365Y01706*
X03385Y01690D02*
X03391D01*
X03388*
Y01710*
X03385Y01706*
X03401Y01710D02*
X03415D01*
Y01706*
X03401Y01693*
Y01690*
X02580Y01220D02*
X02560D01*
Y01230*
X02563Y01233*
X02570*
X02573Y01230*
Y01220*
Y01226D02*
X02580Y01233D01*
Y01253D02*
Y01240D01*
X02566Y01253*
X02563*
X02560Y01250*
Y01243*
X02563Y01240*
X02580Y01260D02*
Y01266D01*
Y01263*
X02560*
X02563Y01260*
Y01276D02*
X02560Y01280D01*
Y01286*
X02563Y01290*
X02566*
X02570Y01286*
X02573Y01290*
X02576*
X02580Y01286*
Y01280*
X02576Y01276*
X02573*
X02570Y01280*
X02566Y01276*
X02563*
X02570Y01280D02*
Y01286D01*
X02680Y01220D02*
X02660D01*
Y01230*
X02663Y01233*
X02670*
X02673Y01230*
Y01220*
Y01226D02*
X02680Y01233D01*
Y01253D02*
Y01240D01*
X02666Y01253*
X02663*
X02660Y01250*
Y01243*
X02663Y01240*
X02680Y01260D02*
Y01266D01*
Y01263*
X02660*
X02663Y01260*
X02676Y01276D02*
X02680Y01280D01*
Y01286*
X02676Y01290*
X02663*
X02660Y01286*
Y01280*
X02663Y01276*
X02666*
X02670Y01280*
Y01290*
X01280Y03175D02*
Y03195D01*
X01290*
X01293Y03191*
Y03185*
X01290Y03181*
X01280*
X01286D02*
X01293Y03175D01*
X01313D02*
X01300D01*
X01313Y03188*
Y03191*
X01310Y03195*
X01303*
X01300Y03191*
X01333Y03175D02*
X01320D01*
X01333Y03188*
Y03191*
X01330Y03195*
X01323*
X01320Y03191*
X01350Y03175D02*
Y03195D01*
X01340Y03185*
X01353*
X01285Y02320D02*
Y02340D01*
X01295*
X01298Y02336*
Y02330*
X01295Y02326*
X01285*
X01291D02*
X01298Y02320D01*
X01318D02*
X01305D01*
X01318Y02333*
Y02336*
X01315Y02340*
X01308*
X01305Y02336*
X01338Y02320D02*
X01325D01*
X01338Y02333*
Y02336*
X01335Y02340*
X01328*
X01325Y02336*
X01358Y02340D02*
X01345D01*
Y02330*
X01351Y02333*
X01355*
X01358Y02330*
Y02323*
X01355Y02320*
X01348*
X01345Y02323*
X01380Y02180D02*
Y02200D01*
X01390*
X01393Y02196*
Y02190*
X01390Y02186*
X01380*
X01386D02*
X01393Y02180D01*
X01413D02*
X01400D01*
X01413Y02193*
Y02196*
X01410Y02200*
X01403*
X01400Y02196*
X01433Y02180D02*
X01420D01*
X01433Y02193*
Y02196*
X01430Y02200*
X01423*
X01420Y02196*
X01440Y02183D02*
X01443Y02180D01*
X01450*
X01453Y02183*
Y02196*
X01450Y02200*
X01443*
X01440Y02196*
Y02193*
X01443Y02190*
X01453*
X01550Y01995D02*
Y02015D01*
X01560*
X01563Y02011*
Y02005*
X01560Y02001*
X01550*
X01556D02*
X01563Y01995D01*
X01583D02*
X01570D01*
X01583Y02008*
Y02011*
X01580Y02015*
X01573*
X01570Y02011*
X01590D02*
X01593Y02015D01*
X01600*
X01603Y02011*
Y02008*
X01600Y02005*
X01596*
X01600*
X01603Y02001*
Y01998*
X01600Y01995*
X01593*
X01590Y01998*
X01610Y01995D02*
X01616D01*
X01613*
Y02015*
X01610Y02011*
X03400Y01480D02*
Y01500D01*
X03410*
X03413Y01496*
Y01490*
X03410Y01486*
X03400*
X03406D02*
X03413Y01480D01*
X03433D02*
X03420D01*
X03433Y01493*
Y01496*
X03430Y01500*
X03423*
X03420Y01496*
X03440D02*
X03443Y01500D01*
X03450*
X03453Y01496*
Y01493*
X03450Y01490*
X03446*
X03450*
X03453Y01486*
Y01483*
X03450Y01480*
X03443*
X03440Y01483*
X03473Y01480D02*
X03460D01*
X03473Y01493*
Y01496*
X03470Y01500*
X03463*
X03460Y01496*
X03465Y01690D02*
Y01710D01*
X03475*
X03478Y01706*
Y01700*
X03475Y01696*
X03465*
X03471D02*
X03478Y01690D01*
X03498D02*
X03485D01*
X03498Y01703*
Y01706*
X03495Y01710*
X03488*
X03485Y01706*
X03505D02*
X03508Y01710D01*
X03515*
X03518Y01706*
Y01703*
X03515Y01700*
X03511*
X03515*
X03518Y01696*
Y01693*
X03515Y01690*
X03508*
X03505Y01693*
X03525Y01706D02*
X03528Y01710D01*
X03535*
X03538Y01706*
Y01703*
X03535Y01700*
X03531*
X03535*
X03538Y01696*
Y01693*
X03535Y01690*
X03528*
X03525Y01693*
X03520Y01480D02*
Y01500D01*
X03530*
X03533Y01496*
Y01490*
X03530Y01486*
X03520*
X03526D02*
X03533Y01480D01*
X03553D02*
X03540D01*
X03553Y01493*
Y01496*
X03550Y01500*
X03543*
X03540Y01496*
X03560D02*
X03563Y01500D01*
X03570*
X03573Y01496*
Y01493*
X03570Y01490*
X03566*
X03570*
X03573Y01486*
Y01483*
X03570Y01480*
X03563*
X03560Y01483*
X03590Y01480D02*
Y01500D01*
X03580Y01490*
X03593*
X03575Y01690D02*
Y01710D01*
X03585*
X03588Y01706*
Y01700*
X03585Y01696*
X03575*
X03581D02*
X03588Y01690D01*
X03608D02*
X03595D01*
X03608Y01703*
Y01706*
X03605Y01710*
X03598*
X03595Y01706*
X03615D02*
X03618Y01710D01*
X03625*
X03628Y01706*
Y01703*
X03625Y01700*
X03621*
X03625*
X03628Y01696*
Y01693*
X03625Y01690*
X03618*
X03615Y01693*
X03648Y01710D02*
X03635D01*
Y01700*
X03641Y01703*
X03645*
X03648Y01700*
Y01693*
X03645Y01690*
X03638*
X03635Y01693*
X03640Y01480D02*
Y01500D01*
X03650*
X03653Y01496*
Y01490*
X03650Y01486*
X03640*
X03646D02*
X03653Y01480D01*
X03673D02*
X03660D01*
X03673Y01493*
Y01496*
X03670Y01500*
X03663*
X03660Y01496*
X03680D02*
X03683Y01500D01*
X03690*
X03693Y01496*
Y01493*
X03690Y01490*
X03686*
X03690*
X03693Y01486*
Y01483*
X03690Y01480*
X03683*
X03680Y01483*
X03713Y01500D02*
X03706Y01496D01*
X03700Y01490*
Y01483*
X03703Y01480*
X03710*
X03713Y01483*
Y01486*
X03710Y01490*
X03700*
X01850Y01985D02*
Y02005D01*
X01860*
X01863Y02001*
Y01995*
X01860Y01991*
X01850*
X01856D02*
X01863Y01985D01*
X01883D02*
X01870D01*
X01883Y01998*
Y02001*
X01880Y02005*
X01873*
X01870Y02001*
X01890D02*
X01893Y02005D01*
X01900*
X01903Y02001*
Y01998*
X01900Y01995*
X01896*
X01900*
X01903Y01991*
Y01988*
X01900Y01985*
X01893*
X01890Y01988*
X01910Y02005D02*
X01923D01*
Y02001*
X01910Y01988*
Y01985*
X03695Y01690D02*
Y01710D01*
X03705*
X03708Y01706*
Y01700*
X03705Y01696*
X03695*
X03701D02*
X03708Y01690D01*
X03728D02*
X03715D01*
X03728Y01703*
Y01706*
X03725Y01710*
X03718*
X03715Y01706*
X03735D02*
X03738Y01710D01*
X03745*
X03748Y01706*
Y01703*
X03745Y01700*
X03741*
X03745*
X03748Y01696*
Y01693*
X03745Y01690*
X03738*
X03735Y01693*
X03755Y01706D02*
X03758Y01710D01*
X03765*
X03768Y01706*
Y01703*
X03765Y01700*
X03768Y01696*
Y01693*
X03765Y01690*
X03758*
X03755Y01693*
Y01696*
X03758Y01700*
X03755Y01703*
Y01706*
X03758Y01700D02*
X03765D01*
X03760Y01480D02*
Y01500D01*
X03770*
X03773Y01496*
Y01490*
X03770Y01486*
X03760*
X03766D02*
X03773Y01480D01*
X03793D02*
X03780D01*
X03793Y01493*
Y01496*
X03790Y01500*
X03783*
X03780Y01496*
X03800D02*
X03803Y01500D01*
X03810*
X03813Y01496*
Y01493*
X03810Y01490*
X03806*
X03810*
X03813Y01486*
Y01483*
X03810Y01480*
X03803*
X03800Y01483*
X03820D02*
X03823Y01480D01*
X03830*
X03833Y01483*
Y01496*
X03830Y01500*
X03823*
X03820Y01496*
Y01493*
X03823Y01490*
X03833*
X01850Y01800D02*
Y01820D01*
X01860*
X01863Y01816*
Y01810*
X01860Y01806*
X01850*
X01856D02*
X01863Y01800D01*
X01883D02*
X01870D01*
X01883Y01813*
Y01816*
X01880Y01820*
X01873*
X01870Y01816*
X01900Y01800D02*
Y01820D01*
X01890Y01810*
X01903*
X01910Y01816D02*
X01913Y01820D01*
X01920*
X01923Y01816*
Y01803*
X01920Y01800*
X01913*
X01910Y01803*
Y01816*
X03815Y01690D02*
Y01710D01*
X03825*
X03828Y01706*
Y01700*
X03825Y01696*
X03815*
X03821D02*
X03828Y01690D01*
X03848D02*
X03835D01*
X03848Y01703*
Y01706*
X03845Y01710*
X03838*
X03835Y01706*
X03865Y01690D02*
Y01710D01*
X03855Y01700*
X03868*
X03875Y01690D02*
X03881D01*
X03878*
Y01710*
X03875Y01706*
X01625Y01920D02*
Y01940D01*
X01635*
X01638Y01936*
Y01930*
X01635Y01926*
X01625*
X01631D02*
X01638Y01920D01*
X01658D02*
X01645D01*
X01658Y01933*
Y01936*
X01655Y01940*
X01648*
X01645Y01936*
X01675Y01920D02*
Y01940D01*
X01665Y01930*
X01678*
X01698Y01920D02*
X01685D01*
X01698Y01933*
Y01936*
X01695Y01940*
X01688*
X01685Y01936*
X02720Y03065D02*
Y03085D01*
X02730*
X02733Y03081*
Y03075*
X02730Y03071*
X02720*
X02726D02*
X02733Y03065D01*
X02740D02*
X02746D01*
X02743*
Y03085*
X02740Y03081*
X02756D02*
X02760Y03085D01*
X02766*
X02770Y03081*
Y03068*
X02766Y03065*
X02760*
X02756Y03068*
Y03081*
X02790Y03065D02*
X02776D01*
X02790Y03078*
Y03081*
X02786Y03085*
X02780*
X02776Y03081*
X03146Y03059D02*
Y03079D01*
X03156*
X03159Y03075*
Y03069*
X03156Y03065*
X03146*
X03166Y03059D02*
X03172D01*
X03169*
Y03079*
X03166Y03075*
X03182D02*
X03186Y03079D01*
X03192*
X03196Y03075*
Y03062*
X03192Y03059*
X03186*
X03182Y03062*
Y03075*
X03212Y03059D02*
Y03079D01*
X03202Y03069*
X03216*
X02865Y03260D02*
Y03280D01*
X02875*
X02878Y03276*
Y03270*
X02875Y03266*
X02865*
X02871D02*
X02878Y03260D01*
X02885D02*
X02891D01*
X02888*
Y03280*
X02885Y03276*
X02901D02*
X02905Y03280D01*
X02911*
X02915Y03276*
Y03263*
X02911Y03260*
X02905*
X02901Y03263*
Y03276*
X02921Y03260D02*
X02928D01*
X02925*
Y03280*
X02921Y03276*
X02530Y02520D02*
Y02503D01*
X02533Y02500*
X02540*
X02543Y02503*
Y02520*
X02550Y02500D02*
X02556D01*
X02553*
Y02520*
X02550Y02516*
X02566D02*
X02570Y02520D01*
X02576*
X02580Y02516*
Y02503*
X02576Y02500*
X02570*
X02566Y02503*
Y02516*
X02586D02*
X02590Y02520D01*
X02596*
X02600Y02516*
Y02503*
X02596Y02500*
X02590*
X02586Y02503*
Y02516*
X02185Y03410D02*
Y03393D01*
X02188Y03390*
X02195*
X02198Y03393*
Y03410*
X02205Y03390D02*
X02211D01*
X02208*
Y03410*
X02205Y03406*
X02221D02*
X02225Y03410D01*
X02231*
X02235Y03406*
Y03393*
X02231Y03390*
X02225*
X02221Y03393*
Y03406*
X02255Y03390D02*
X02241D01*
X02255Y03403*
Y03406*
X02251Y03410*
X02245*
X02241Y03406*
X01705Y03060D02*
Y03043D01*
X01708Y03040*
X01715*
X01718Y03043*
Y03060*
X01725Y03040D02*
X01731D01*
X01728*
Y03060*
X01725Y03056*
X01741D02*
X01745Y03060D01*
X01751*
X01755Y03056*
Y03043*
X01751Y03040*
X01745*
X01741Y03043*
Y03056*
X01775Y03060D02*
X01768Y03056D01*
X01761Y03050*
Y03043*
X01765Y03040*
X01771*
X01775Y03043*
Y03046*
X01771Y03050*
X01761*
X02175Y02255D02*
Y02238D01*
X02178Y02235*
X02185*
X02188Y02238*
Y02255*
X02195Y02235D02*
X02201D01*
X02198*
Y02255*
X02195Y02251*
X02211D02*
X02215Y02255D01*
X02221*
X02225Y02251*
Y02238*
X02221Y02235*
X02215*
X02211Y02238*
Y02251*
X02231Y02255D02*
X02245D01*
Y02251*
X02231Y02238*
Y02235*
X03170Y02239D02*
Y02222D01*
X03173Y02219*
X03180*
X03183Y02222*
Y02239*
X03203Y02219D02*
X03190D01*
X03203Y02232*
Y02235*
X03200Y02239*
X03193*
X03190Y02235*
X03210D02*
X03213Y02239D01*
X03220*
X03223Y02235*
Y02222*
X03220Y02219*
X03213*
X03210Y02222*
Y02235*
X03230D02*
X03233Y02239D01*
X03240*
X03243Y02235*
Y02222*
X03240Y02219*
X03233*
X03230Y02222*
Y02235*
X02215Y02139D02*
Y02122D01*
X02218Y02119*
X02225*
X02228Y02122*
Y02139*
X02248Y02119D02*
X02235D01*
X02248Y02132*
Y02135*
X02245Y02139*
X02238*
X02235Y02135*
X02255D02*
X02258Y02139D01*
X02265*
X02268Y02135*
Y02122*
X02265Y02119*
X02258*
X02255Y02122*
Y02135*
X02275Y02119D02*
X02281D01*
X02278*
Y02139*
X02275Y02135*
X03705Y02240D02*
Y02223D01*
X03708Y02220*
X03715*
X03718Y02223*
Y02240*
X03738Y02220D02*
X03725D01*
X03738Y02233*
Y02236*
X03735Y02240*
X03728*
X03725Y02236*
X03745D02*
X03748Y02240D01*
X03755*
X03758Y02236*
Y02223*
X03755Y02220*
X03748*
X03745Y02223*
Y02236*
X03778Y02220D02*
X03765D01*
X03778Y02233*
Y02236*
X03775Y02240*
X03768*
X03765Y02236*
X01480Y01815D02*
Y01798D01*
X01483Y01795*
X01490*
X01493Y01798*
Y01815*
X01513Y01795D02*
X01500D01*
X01513Y01808*
Y01811*
X01510Y01815*
X01503*
X01500Y01811*
X01520D02*
X01523Y01815D01*
X01530*
X01533Y01811*
Y01798*
X01530Y01795*
X01523*
X01520Y01798*
Y01811*
X01540D02*
X01543Y01815D01*
X01550*
X01553Y01811*
Y01808*
X01550Y01805*
X01546*
X01550*
X01553Y01801*
Y01798*
X01550Y01795*
X01543*
X01540Y01798*
X02295Y02470D02*
Y02466D01*
X02301Y02460*
X02308Y02466*
Y02470*
X02301Y02460D02*
Y02450D01*
X02315D02*
X02321D01*
X02318*
Y02470*
X02315Y02466*
X02331D02*
X02335Y02470D01*
X02341*
X02345Y02466*
Y02453*
X02341Y02450*
X02335*
X02331Y02453*
Y02466*
X02351D02*
X02355Y02470D01*
X02361*
X02365Y02466*
Y02453*
X02361Y02450*
X02355*
X02351Y02453*
Y02466*
X03303Y03661D02*
X03300Y03665D01*
X03293*
X03290Y03661*
Y03648*
X03293Y03645*
X03300*
X03303Y03648*
X03310Y03645D02*
X03316D01*
X03313*
Y03665*
X03310Y03661*
X03326Y03645D02*
X03333D01*
X03330*
Y03665*
X03326Y03661*
X03343D02*
X03346Y03665D01*
X03353*
X03356Y03661*
Y03648*
X03353Y03645*
X03346*
X03343Y03648*
Y03661*
X03108Y03476D02*
X03105Y03480D01*
X03098*
X03095Y03476*
Y03463*
X03098Y03460*
X03105*
X03108Y03463*
X03115Y03460D02*
X03121D01*
X03118*
Y03480*
X03115Y03476*
X03131Y03460D02*
X03138D01*
X03135*
Y03480*
X03131Y03476*
X03148Y03460D02*
X03155D01*
X03151*
Y03480*
X03148Y03476*
X03193Y03291D02*
X03190Y03295D01*
X03183*
X03180Y03291*
Y03278*
X03183Y03275*
X03190*
X03193Y03278*
X03200Y03275D02*
X03206D01*
X03203*
Y03295*
X03200Y03291*
X03216Y03275D02*
X03223D01*
X03220*
Y03295*
X03216Y03291*
X03246Y03275D02*
X03233D01*
X03246Y03288*
Y03291*
X03243Y03295*
X03236*
X03233Y03291*
X03798Y03286D02*
X03795Y03290D01*
X03788*
X03785Y03286*
Y03273*
X03788Y03270*
X03795*
X03798Y03273*
X03805Y03270D02*
X03811D01*
X03808*
Y03290*
X03805Y03286*
X03821Y03270D02*
X03828D01*
X03825*
Y03290*
X03821Y03286*
X03838D02*
X03841Y03290D01*
X03848*
X03851Y03286*
Y03283*
X03848Y03280*
X03845*
X03848*
X03851Y03276*
Y03273*
X03848Y03270*
X03841*
X03838Y03273*
X03518Y03661D02*
X03515Y03665D01*
X03508*
X03505Y03661*
Y03648*
X03508Y03645*
X03515*
X03518Y03648*
X03525Y03645D02*
X03531D01*
X03528*
Y03665*
X03525Y03661*
X03541Y03645D02*
X03548D01*
X03545*
Y03665*
X03541Y03661*
X03568Y03645D02*
Y03665D01*
X03558Y03655*
X03571*
X03713Y03291D02*
X03710Y03295D01*
X03703*
X03700Y03291*
Y03278*
X03703Y03275*
X03710*
X03713Y03278*
X03720Y03275D02*
X03726D01*
X03723*
Y03295*
X03720Y03291*
X03736Y03275D02*
X03743D01*
X03740*
Y03295*
X03736Y03291*
X03766Y03295D02*
X03753D01*
Y03285*
X03760Y03288*
X03763*
X03766Y03285*
Y03278*
X03763Y03275*
X03756*
X03753Y03278*
X04103Y03466D02*
X04100Y03470D01*
X04093*
X04090Y03466*
Y03453*
X04093Y03450*
X04100*
X04103Y03453*
X04110Y03450D02*
X04116D01*
X04113*
Y03470*
X04110Y03466*
X04140Y03450D02*
X04126D01*
X04140Y03463*
Y03466*
X04136Y03470*
X04130*
X04126Y03466*
X04160Y03450D02*
X04146D01*
X04160Y03463*
Y03466*
X04156Y03470*
X04150*
X04146Y03466*
X03923Y02551D02*
X03920Y02555D01*
X03913*
X03910Y02551*
Y02538*
X03913Y02535*
X03920*
X03923Y02538*
X03930Y02535D02*
X03936D01*
X03933*
Y02555*
X03930Y02551*
X03960Y02535D02*
X03946D01*
X03960Y02548*
Y02551*
X03956Y02555*
X03950*
X03946Y02551*
X03966D02*
X03970Y02555D01*
X03976*
X03980Y02551*
Y02548*
X03976Y02545*
X03973*
X03976*
X03980Y02541*
Y02538*
X03976Y02535*
X03970*
X03966Y02538*
X03898Y03136D02*
X03895Y03140D01*
X03888*
X03885Y03136*
Y03123*
X03888Y03120*
X03895*
X03898Y03123*
X03905Y03120D02*
X03911D01*
X03908*
Y03140*
X03905Y03136*
X03921D02*
X03925Y03140D01*
X03931*
X03935Y03136*
Y03133*
X03931Y03130*
X03928*
X03931*
X03935Y03126*
Y03123*
X03931Y03120*
X03925*
X03921Y03123*
X03951Y03120D02*
Y03140D01*
X03941Y03130*
X03955*
X03080Y03185D02*
Y03205D01*
X03090*
X03093Y03201*
Y03195*
X03090Y03191*
X03080*
X03086D02*
X03093Y03185D01*
X03100D02*
X03106D01*
X03103*
Y03205*
X03100Y03201*
X03116D02*
X03120Y03205D01*
X03126*
X03130Y03201*
Y03188*
X03126Y03185*
X03120*
X03116Y03188*
Y03201*
X03136Y03188D02*
X03140Y03185D01*
X03146*
X03150Y03188*
Y03201*
X03146Y03205*
X03140*
X03136Y03201*
Y03198*
X03140Y03195*
X03150*
X03565Y03225D02*
Y03245D01*
X03575*
X03578Y03241*
Y03235*
X03575Y03231*
X03565*
X03571D02*
X03578Y03225D01*
X03585D02*
X03591D01*
X03588*
Y03245*
X03585Y03241*
X03601Y03225D02*
X03608D01*
X03605*
Y03245*
X03601Y03241*
X03618D02*
X03621Y03245D01*
X03628*
X03631Y03241*
Y03228*
X03628Y03225*
X03621*
X03618Y03228*
Y03241*
X04060Y03120D02*
Y03140D01*
X04070*
X04073Y03136*
Y03130*
X04070Y03126*
X04060*
X04066D02*
X04073Y03120D01*
X04080D02*
X04086D01*
X04083*
Y03140*
X04080Y03136*
X04096Y03120D02*
X04103D01*
X04100*
Y03140*
X04096Y03136*
X04113Y03120D02*
X04120D01*
X04116*
Y03140*
X04113Y03136*
X03965Y03460D02*
Y03480D01*
X03975*
X03978Y03476*
Y03470*
X03975Y03466*
X03965*
X03971D02*
X03978Y03460D01*
X03985D02*
X03991D01*
X03988*
Y03480*
X03985Y03476*
X04001Y03460D02*
X04008D01*
X04005*
Y03480*
X04001Y03476*
X04018D02*
X04021Y03480D01*
X04028*
X04031Y03476*
Y03473*
X04028Y03470*
X04025*
X04028*
X04031Y03466*
Y03463*
X04028Y03460*
X04021*
X04018Y03463*
X03685Y03120D02*
Y03140D01*
X03695*
X03698Y03136*
Y03130*
X03695Y03126*
X03685*
X03691D02*
X03698Y03120D01*
X03705D02*
X03711D01*
X03708*
Y03140*
X03705Y03136*
X03721Y03120D02*
X03728D01*
X03725*
Y03140*
X03721Y03136*
X03751Y03140D02*
X03745Y03136D01*
X03738Y03130*
Y03123*
X03741Y03120*
X03748*
X03751Y03123*
Y03126*
X03748Y03130*
X03738*
X03620Y02500D02*
Y02520D01*
X03630*
X03633Y02516*
Y02510*
X03630Y02506*
X03620*
X03626D02*
X03633Y02500D01*
X03640D02*
X03646D01*
X03643*
Y02520*
X03640Y02516*
X03656Y02500D02*
X03663D01*
X03660*
Y02520*
X03656Y02516*
X03673Y02520D02*
X03686D01*
Y02516*
X03673Y02503*
Y02500*
X03490D02*
Y02520D01*
X03500*
X03503Y02516*
Y02510*
X03500Y02506*
X03490*
X03496D02*
X03503Y02500D01*
X03510D02*
X03516D01*
X03513*
Y02520*
X03510Y02516*
X03526Y02500D02*
X03533D01*
X03530*
Y02520*
X03526Y02516*
X03543D02*
X03546Y02520D01*
X03553*
X03556Y02516*
Y02513*
X03553Y02510*
X03556Y02506*
Y02503*
X03553Y02500*
X03546*
X03543Y02503*
Y02506*
X03546Y02510*
X03543Y02513*
Y02516*
X03546Y02510D02*
X03553D01*
X03150Y03550D02*
Y03533D01*
X03153Y03530*
X03160*
X03163Y03533*
Y03550*
X03170Y03530D02*
X03176D01*
X03173*
Y03550*
X03170Y03546*
X03186D02*
X03190Y03550D01*
X03196*
X03200Y03546*
Y03533*
X03196Y03530*
X03190*
X03186Y03533*
Y03546*
X03206Y03530D02*
X03213D01*
X03210*
Y03550*
X03206Y03546*
X03320Y03040D02*
Y03023D01*
X03323Y03020*
X03330*
X03333Y03023*
Y03040*
X03340Y03020D02*
X03346D01*
X03343*
Y03040*
X03340Y03036*
X03356D02*
X03360Y03040D01*
X03366*
X03370Y03036*
Y03023*
X03366Y03020*
X03360*
X03356Y03023*
Y03036*
X03376D02*
X03380Y03040D01*
X03386*
X03390Y03036*
Y03033*
X03386Y03030*
X03383*
X03386*
X03390Y03026*
Y03023*
X03386Y03020*
X03380*
X03376Y03023*
X04245Y03200D02*
Y03183D01*
X04248Y03180*
X04255*
X04258Y03183*
Y03200*
X04265Y03180D02*
X04271D01*
X04268*
Y03200*
X04265Y03196*
X04281D02*
X04285Y03200D01*
X04291*
X04295Y03196*
Y03183*
X04291Y03180*
X04285*
X04281Y03183*
Y03196*
X04311Y03180D02*
Y03200D01*
X04301Y03190*
X04315*
X02985Y01435D02*
Y01455D01*
X02995*
X02998Y01451*
Y01445*
X02995Y01441*
X02985*
X03018Y01435D02*
X03005D01*
X03018Y01448*
Y01451*
X03015Y01455*
X03008*
X03005Y01451*
X03025D02*
X03028Y01455D01*
X03035*
X03038Y01451*
Y01438*
X03035Y01435*
X03028*
X03025Y01438*
Y01451*
X03055Y01435D02*
Y01455D01*
X03045Y01445*
X03058*
X03870Y03210D02*
Y03190D01*
X03880*
X03883Y03193*
Y03206*
X03880Y03210*
X03870*
X03890Y03190D02*
X03896D01*
X03893*
Y03210*
X03890Y03206*
X03906D02*
X03910Y03210D01*
X03916*
X03920Y03206*
Y03193*
X03916Y03190*
X03910*
X03906Y03193*
Y03206*
X03940Y03190D02*
X03926D01*
X03940Y03203*
Y03206*
X03936Y03210*
X03930*
X03926Y03206*
X03930Y03505D02*
Y03525D01*
X03940*
X03943Y03521*
Y03515*
X03940Y03511*
X03930*
X03936D02*
X03943Y03505D01*
X03950D02*
X03956D01*
X03953*
Y03525*
X03950Y03521*
X03966Y03505D02*
X03973D01*
X03970*
Y03525*
X03966Y03521*
X03996Y03525D02*
X03983D01*
Y03515*
X03990Y03518*
X03993*
X03996Y03515*
Y03508*
X03993Y03505*
X03986*
X03983Y03508*
X04210Y02535D02*
Y02555D01*
X04220*
X04223Y02551*
Y02545*
X04220Y02541*
X04210*
X04216D02*
X04223Y02535D01*
X04230D02*
X04236D01*
X04233*
Y02555*
X04230Y02551*
X04246Y02535D02*
X04253D01*
X04250*
Y02555*
X04246Y02551*
X04273Y02535D02*
Y02555D01*
X04263Y02545*
X04276*
X02970Y03130D02*
Y03150D01*
X02980*
X02983Y03146*
Y03140*
X02980Y03136*
X02970*
X02990Y03130D02*
X02996D01*
X02993*
Y03150*
X02990Y03146*
X03006D02*
X03010Y03150D01*
X03016*
X03020Y03146*
Y03133*
X03016Y03130*
X03010*
X03006Y03133*
Y03146*
X03026D02*
X03030Y03150D01*
X03036*
X03040Y03146*
Y03133*
X03036Y03130*
X03030*
X03026Y03133*
Y03146*
X02375Y03140D02*
Y03160D01*
X02385*
X02388Y03156*
Y03150*
X02385Y03146*
X02375*
X02381D02*
X02388Y03140D01*
X02395D02*
X02401D01*
X02398*
Y03160*
X02395Y03156*
X02411D02*
X02415Y03160D01*
X02421*
X02425Y03156*
Y03143*
X02421Y03140*
X02415*
X02411Y03143*
Y03156*
X02445Y03160D02*
X02438Y03156D01*
X02431Y03150*
Y03143*
X02435Y03140*
X02441*
X02445Y03143*
Y03146*
X02441Y03150*
X02431*
X02370Y03435D02*
Y03455D01*
X02380*
X02383Y03451*
Y03445*
X02380Y03441*
X02370*
X02376D02*
X02383Y03435D01*
X02390D02*
X02396D01*
X02393*
Y03455*
X02390Y03451*
X02406D02*
X02410Y03455D01*
X02416*
X02420Y03451*
Y03438*
X02416Y03435*
X02410*
X02406Y03438*
Y03451*
X02426Y03455D02*
X02440D01*
Y03451*
X02426Y03438*
Y03435*
X03260Y02705D02*
Y02725D01*
X03270*
X03273Y02721*
Y02715*
X03270Y02711*
X03260*
X03266D02*
X03273Y02705D01*
X03280D02*
X03286D01*
X03283*
Y02725*
X03280Y02721*
X03296D02*
X03300Y02725D01*
X03306*
X03310Y02721*
Y02708*
X03306Y02705*
X03300*
X03296Y02708*
Y02721*
X03316D02*
X03320Y02725D01*
X03326*
X03330Y02721*
Y02718*
X03326Y02715*
X03323*
X03326*
X03330Y02711*
Y02708*
X03326Y02705*
X03320*
X03316Y02708*
X03265Y02885D02*
Y02905D01*
X03275*
X03278Y02901*
Y02895*
X03275Y02891*
X03265*
X03271D02*
X03278Y02885D01*
X03285D02*
X03291D01*
X03288*
Y02905*
X03285Y02901*
X03301D02*
X03305Y02905D01*
X03311*
X03315Y02901*
Y02888*
X03311Y02885*
X03305*
X03301Y02888*
Y02901*
X03331Y02885D02*
Y02905D01*
X03321Y02895*
X03335*
X03060Y02980D02*
Y03000D01*
X03070*
X03073Y02996*
Y02990*
X03070Y02986*
X03060*
X03066D02*
X03073Y02980D01*
X03080D02*
X03086D01*
X03083*
Y03000*
X03080Y02996*
X03096D02*
X03100Y03000D01*
X03106*
X03110Y02996*
Y02983*
X03106Y02980*
X03100*
X03096Y02983*
Y02996*
X03130Y03000D02*
X03116D01*
Y02990*
X03123Y02993*
X03126*
X03130Y02990*
Y02983*
X03126Y02980*
X03120*
X03116Y02983*
X02823Y02001D02*
X02820Y02005D01*
X02813*
X02810Y02001*
Y01988*
X02813Y01985*
X02820*
X02823Y01988*
X02830Y01985D02*
X02836D01*
X02833*
Y02005*
X02830Y02001*
X02846D02*
X02850Y02005D01*
X02856*
X02860Y02001*
Y01998*
X02856Y01995*
X02853*
X02856*
X02860Y01991*
Y01988*
X02856Y01985*
X02850*
X02846Y01988*
X02880Y02005D02*
X02866D01*
Y01995*
X02873Y01998*
X02876*
X02880Y01995*
Y01988*
X02876Y01985*
X02870*
X02866Y01988*
X02885Y02215D02*
Y02235D01*
X02895*
X02898Y02231*
Y02225*
X02895Y02221*
X02885*
X02905Y02215D02*
X02911D01*
X02908*
Y02235*
X02905Y02231*
X02921D02*
X02925Y02235D01*
X02931*
X02935Y02231*
Y02218*
X02931Y02215*
X02925*
X02921Y02218*
Y02231*
X02941Y02235D02*
X02955D01*
Y02231*
X02941Y02218*
Y02215*
X04255Y03290D02*
Y03310D01*
X04265*
X04268Y03306*
Y03300*
X04265Y03296*
X04255*
X04261D02*
X04268Y03290D01*
X04275D02*
X04281D01*
X04278*
Y03310*
X04275Y03306*
X04291Y03290D02*
X04298D01*
X04295*
Y03310*
X04291Y03306*
X04321Y03290D02*
X04308D01*
X04321Y03303*
Y03306*
X04318Y03310*
X04311*
X04308Y03306*
X02250Y02305D02*
Y02325D01*
X02260*
X02263Y02321*
Y02315*
X02260Y02311*
X02250*
X02256D02*
X02263Y02305D01*
X02270D02*
X02276D01*
X02273*
Y02325*
X02270Y02321*
X02286Y02305D02*
X02293D01*
X02290*
Y02325*
X02286Y02321*
X02303Y02308D02*
X02306Y02305D01*
X02313*
X02316Y02308*
Y02321*
X02313Y02325*
X02306*
X02303Y02321*
Y02318*
X02306Y02315*
X02316*
X03645Y03825D02*
Y03845D01*
X03655*
X03658Y03841*
Y03835*
X03655Y03831*
X03645*
X03665Y03825D02*
X03671D01*
X03668*
Y03845*
X03665Y03841*
X03681D02*
X03685Y03845D01*
X03691*
X03695Y03841*
Y03828*
X03691Y03825*
X03685*
X03681Y03828*
Y03841*
X03715Y03845D02*
X03701D01*
Y03835*
X03708Y03838*
X03711*
X03715Y03835*
Y03828*
X03711Y03825*
X03705*
X03701Y03828*
X01485Y03830D02*
Y03850D01*
X01495*
X01498Y03846*
Y03840*
X01495Y03836*
X01485*
X01505Y03830D02*
X01511D01*
X01508*
Y03850*
X01505Y03846*
X01521D02*
X01525Y03850D01*
X01531*
X01535Y03846*
Y03833*
X01531Y03830*
X01525*
X01521Y03833*
Y03846*
X01555Y03850D02*
X01548Y03846D01*
X01541Y03840*
Y03833*
X01545Y03830*
X01551*
X01555Y03833*
Y03836*
X01551Y03840*
X01541*
X03095Y02705D02*
Y02716D01*
Y02710*
X03130*
Y02705*
Y02716*
X03101Y02756D02*
X03095Y02750D01*
Y02739*
X03101Y02733*
X03124*
X03130Y02739*
Y02750*
X03124Y02756*
X03101Y02790D02*
X03095Y02784D01*
Y02773*
X03101Y02767*
X03107*
X03112Y02773*
Y02784*
X03118Y02790*
X03124*
X03130Y02784*
Y02773*
X03124Y02767*
X03130Y02802D02*
X03095D01*
Y02819*
X03101Y02824*
X03112*
X03118Y02819*
Y02802*
X04786Y02991D02*
X04783Y02995D01*
X04776*
X04773Y02991*
Y02988*
X04776Y02985*
X04783*
X04786Y02981*
Y02978*
X04783Y02975*
X04776*
X04773Y02978*
X04806Y02995D02*
X04793D01*
Y02975*
X04806*
X04793Y02985D02*
X04799D01*
X04813Y02995D02*
X04826D01*
X04819*
Y02975*
X04773Y03100D02*
X04786D01*
X04779*
Y03080*
X04793Y03100D02*
X04806Y03080D01*
Y03100D02*
X04793Y03080D01*
X04773Y03180D02*
Y03200D01*
X04783*
X04786Y03196*
Y03190*
X04783Y03186*
X04773*
X04779D02*
X04786Y03180D01*
X04793Y03200D02*
X04806Y03180D01*
Y03200D02*
X04793Y03180D01*
X04786Y03301D02*
X04783Y03305D01*
X04776*
X04773Y03301*
Y03288*
X04776Y03285*
X04783*
X04786Y03288*
Y03295*
X04779*
X04793Y03285D02*
Y03305D01*
X04806Y03285*
Y03305*
X04813D02*
Y03285D01*
X04823*
X04826Y03288*
Y03301*
X04823Y03305*
X04813*
X04773Y03395D02*
Y03381D01*
X04779Y03375*
X04786Y03381*
Y03395*
X04806Y03388D02*
X04796D01*
X04793Y03385*
Y03378*
X04796Y03375*
X04806*
X04826Y03388D02*
X04816D01*
X04813Y03385*
Y03378*
X04816Y03375*
X04826*
X04845Y02945D02*
X04880D01*
X04862*
Y02967*
X04845*
X04880*
X04851Y03002D02*
X04845Y02996D01*
Y02984*
X04851Y02979*
X04874*
X04880Y02984*
Y02996*
X04874Y03002*
X04880Y03013D02*
Y03024D01*
Y03019*
X04845*
X04851Y03013*
X04880Y03064D02*
Y03042D01*
X04857Y03064*
X04851*
X04845Y03059*
Y03047*
X04851Y03042*
X04880Y03110D02*
X04857Y03133D01*
X04845Y03201D02*
Y03179D01*
X04880*
Y03201*
X04862Y03179D02*
Y03190D01*
X04851Y03236D02*
X04845Y03230D01*
Y03218*
X04851Y03213*
X04857*
X04862Y03218*
Y03230*
X04868Y03236*
X04874*
X04880Y03230*
Y03218*
X04874Y03213*
X04880Y03247D02*
X04845D01*
Y03264*
X04851Y03270*
X04862*
X04868Y03264*
Y03247*
X04880Y03304D02*
Y03281D01*
X04857Y03304*
X04851*
X04845Y03298*
Y03287*
X04851Y03281*
Y03315D02*
X04845Y03321D01*
Y03333*
X04851Y03338*
X04857*
X04862Y03333*
X04868Y03338*
X04874*
X04880Y03333*
Y03321*
X04874Y03315*
X04868*
X04862Y03321*
X04857Y03315*
X04851*
X04862Y03321D02*
Y03333D01*
X04845Y03373D02*
X04851Y03361D01*
X04862Y03350*
X04874*
X04880Y03355*
Y03367*
X04874Y03373*
X04868*
X04862Y03367*
Y03350*
X04845Y03407D02*
X04851Y03395D01*
X04862Y03384*
X04874*
X04880Y03390*
Y03401*
X04874Y03407*
X04868*
X04862Y03401*
Y03384*
X04880Y02318D02*
X04845D01*
X04880Y02340*
X04845*
X04880Y02352D02*
X04845D01*
Y02369*
X04851Y02375*
X04862*
X04868Y02369*
Y02352*
Y02363D02*
X04880Y02375D01*
X04845Y02409D02*
Y02386D01*
X04862*
Y02398*
Y02386*
X04880*
Y02443D02*
Y02420D01*
X04857Y02443*
X04851*
X04845Y02438*
Y02426*
X04851Y02420*
X04880Y02472D02*
X04845D01*
X04862Y02455*
Y02477*
X04845Y02489D02*
X04880D01*
Y02512*
X04851Y02523D02*
X04845Y02529D01*
Y02540*
X04851Y02546*
X04874*
X04880Y02540*
Y02529*
X04874Y02523*
X04851*
X04880Y02557D02*
Y02569D01*
Y02563*
X04845*
X04851Y02557*
X04880Y01665D02*
X04845D01*
X04880Y01687*
X04845*
X04880Y01699D02*
X04845D01*
Y01716*
X04851Y01722*
X04862*
X04868Y01716*
Y01699*
Y01710D02*
X04880Y01722D01*
X04845Y01756D02*
Y01733D01*
X04862*
Y01744*
Y01733*
X04880*
X04874Y01767D02*
X04880Y01773D01*
Y01784*
X04874Y01790*
X04851*
X04845Y01784*
Y01773*
X04851Y01767*
X04857*
X04862Y01773*
Y01790*
X04851Y01801D02*
X04845Y01807D01*
Y01819*
X04851Y01824*
X04874*
X04880Y01819*
Y01807*
X04874Y01801*
X04851*
X04845Y01859D02*
Y01836D01*
X04862*
X04857Y01847*
Y01853*
X04862Y01859*
X04874*
X04880Y01853*
Y01841*
X04874Y01836*
X04050Y01199D02*
Y01165D01*
X04067*
X04072Y01170*
Y01193*
X04067Y01199*
X04050*
X04084D02*
X04095D01*
X04089*
Y01165*
X04084*
X04095*
X04112D02*
Y01199D01*
X04135Y01165*
Y01199*
X04181Y01182D02*
X04204D01*
X04192Y01193D02*
Y01170D01*
X04238Y01199D02*
X04215D01*
Y01182*
X04226Y01187*
X04232*
X04238Y01182*
Y01170*
X04232Y01165*
X04221*
X04215Y01170*
X04249Y01199D02*
Y01176D01*
X04261Y01165*
X04272Y01176*
Y01199*
X04050Y01499D02*
Y01465D01*
X04067*
X04072Y01470*
Y01493*
X04067Y01499*
X04050*
X04084D02*
X04095D01*
X04089*
Y01465*
X04084*
X04095*
X04112D02*
Y01499D01*
X04135Y01465*
Y01499*
X04204Y01493D02*
X04198Y01499D01*
X04187*
X04181Y01493*
Y01470*
X04187Y01465*
X04198*
X04204Y01470*
Y01482*
X04192*
X04215Y01465D02*
Y01499D01*
X04238Y01465*
Y01499*
X04249D02*
Y01465D01*
X04266*
X04272Y01470*
Y01493*
X04266Y01499*
X04249*
X01975Y01045D02*
Y01067D01*
X01986Y01079*
X01997Y01067*
Y01045*
Y01062*
X01975*
X02009Y01073D02*
X02014Y01079D01*
X02026*
X02032Y01073*
Y01050*
X02026Y01045*
X02014*
X02009Y01050*
Y01073*
X02077Y01045D02*
Y01067D01*
X02089Y01079*
X02100Y01067*
Y01045*
Y01062*
X02077*
X02112Y01045D02*
X02123D01*
X02117*
Y01079*
X02112Y01073*
X02174Y01045D02*
Y01067D01*
X02186Y01079*
X02197Y01067*
Y01045*
Y01062*
X02174*
X02231Y01045D02*
X02209D01*
X02231Y01067*
Y01073*
X02226Y01079*
X02214*
X02209Y01073*
X02277Y01045D02*
Y01067D01*
X02288Y01079*
X02300Y01067*
Y01045*
Y01062*
X02277*
X02311Y01073D02*
X02317Y01079D01*
X02328*
X02334Y01073*
Y01067*
X02328Y01062*
X02323*
X02328*
X02334Y01056*
Y01050*
X02328Y01045*
X02317*
X02311Y01050*
X02380Y01045D02*
Y01067D01*
X02391Y01079*
X02403Y01067*
Y01045*
Y01062*
X02380*
X02431Y01045D02*
Y01079D01*
X02414Y01062*
X02437*
X02482Y01045D02*
Y01067D01*
X02494Y01079*
X02505Y01067*
Y01045*
Y01062*
X02482*
X02540Y01079D02*
X02517D01*
Y01062*
X02528Y01067*
X02534*
X02540Y01062*
Y01050*
X02534Y01045*
X02522*
X02517Y01050*
X02585Y01045D02*
Y01067D01*
X02597Y01079*
X02608Y01067*
Y01045*
Y01062*
X02585*
X02642Y01079D02*
X02631Y01073D01*
X02619Y01062*
Y01050*
X02625Y01045*
X02637*
X02642Y01050*
Y01056*
X02637Y01062*
X02619*
X02688Y01045D02*
Y01067D01*
X02699Y01079*
X02711Y01067*
Y01045*
Y01062*
X02688*
X02722Y01079D02*
X02745D01*
Y01073*
X02722Y01050*
Y01045*
X01475Y01365D02*
Y01387D01*
X01486Y01399*
X01497Y01387*
Y01365*
Y01382*
X01475*
X01509Y01365D02*
Y01399D01*
X01532Y01365*
Y01399*
X01543Y01365D02*
Y01387D01*
X01554Y01399*
X01566Y01387*
Y01365*
Y01382*
X01543*
X01577Y01399D02*
Y01365D01*
X01600*
X01629Y01399D02*
X01617D01*
X01612Y01393*
Y01370*
X01617Y01365*
X01629*
X01634Y01370*
Y01393*
X01629Y01399*
X01669Y01393D02*
X01663Y01399D01*
X01651*
X01646Y01393*
Y01370*
X01651Y01365*
X01663*
X01669Y01370*
Y01382*
X01657*
X01714D02*
X01737D01*
X01726Y01393D02*
Y01370D01*
X01748Y01365D02*
Y01399D01*
X01766*
X01771Y01393*
Y01382*
X01766Y01376*
X01748*
X01760D02*
X01771Y01365D01*
X01806Y01399D02*
X01783D01*
Y01365*
X01806*
X01783Y01382D02*
X01794D01*
X01840Y01399D02*
X01817D01*
Y01382*
X01828*
X01817*
Y01365*
X01475Y01040D02*
Y01062D01*
X01486Y01074*
X01497Y01062*
Y01040*
Y01057*
X01475*
X01509Y01040D02*
Y01074D01*
X01532Y01040*
Y01074*
X01543Y01040D02*
Y01062D01*
X01554Y01074*
X01566Y01062*
Y01040*
Y01057*
X01543*
X01577Y01074D02*
Y01040D01*
X01600*
X01629Y01074D02*
X01617D01*
X01612Y01068*
Y01045*
X01617Y01040*
X01629*
X01634Y01045*
Y01068*
X01629Y01074*
X01669Y01068D02*
X01663Y01074D01*
X01651*
X01646Y01068*
Y01045*
X01651Y01040*
X01663*
X01669Y01045*
Y01057*
X01657*
X01737Y01068D02*
X01731Y01074D01*
X01720*
X01714Y01068*
Y01045*
X01720Y01040*
X01731*
X01737Y01045*
Y01057*
X01726*
X01748Y01040D02*
Y01074D01*
X01771Y01040*
Y01074*
X01783D02*
Y01040D01*
X01800*
X01806Y01045*
Y01068*
X01800Y01074*
X01783*
X03560Y03885D02*
Y03923D01*
X03579*
X03585Y03916*
Y03904*
X03579Y03897*
X03560*
X03572D02*
X03585Y03885D01*
X03623Y03916D02*
X03617Y03923D01*
X03604*
X03598Y03916*
Y03910*
X03604Y03904*
X03617*
X03623Y03897*
Y03891*
X03617Y03885*
X03604*
X03598Y03891*
X03655Y03885D02*
Y03923D01*
X03636Y03904*
X03661*
X03674Y03916D02*
X03680Y03923D01*
X03693*
X03699Y03916*
Y03910*
X03693Y03904*
X03699Y03897*
Y03891*
X03693Y03885*
X03680*
X03674Y03891*
Y03897*
X03680Y03904*
X03674Y03910*
Y03916*
X03680Y03904D02*
X03693D01*
X03737Y03923D02*
X03712D01*
Y03904*
X03724Y03910*
X03730*
X03737Y03904*
Y03891*
X03730Y03885*
X03718*
X03712Y03891*
X03749Y03910D02*
X03756D01*
Y03904*
X03749*
Y03910*
Y03891D02*
X03756D01*
Y03885*
X03749*
Y03891*
X03819Y03923D02*
Y03885D01*
X03838*
X03844Y03891*
Y03897*
X03838Y03904*
X03819*
X03838*
X03844Y03910*
Y03916*
X03838Y03923*
X03819*
X04009Y03885D02*
Y03910D01*
X04022Y03923*
X04034Y03910*
Y03885*
Y03904*
X04009*
X04224Y03916D02*
X04218Y03923D01*
X04205*
X04199Y03916*
Y03891*
X04205Y03885*
X04218*
X04224Y03891*
Y03904*
X04212*
X04237Y03885D02*
Y03923D01*
X04262Y03885*
Y03923*
X04275D02*
Y03885D01*
X04294*
X04300Y03891*
Y03916*
X04294Y03923*
X04275*
X01395Y03890D02*
Y03924D01*
X01412*
X01417Y03918*
Y03907*
X01412Y03901*
X01395*
X01446Y03924D02*
X01434D01*
X01429Y03918*
Y03895*
X01434Y03890*
X01446*
X01452Y03895*
Y03918*
X01446Y03924*
X01463D02*
Y03890D01*
X01474Y03901*
X01486Y03890*
Y03924*
X01520D02*
X01497D01*
Y03890*
X01520*
X01497Y03907D02*
X01509D01*
X01532Y03890D02*
Y03924D01*
X01549*
X01554Y03918*
Y03907*
X01549Y03901*
X01532*
X01543D02*
X01554Y03890D01*
X01566Y03912D02*
X01571D01*
Y03907*
X01566*
Y03912*
Y03895D02*
X01571D01*
Y03890*
X01566*
Y03895*
X01629Y03907D02*
X01651D01*
X01640Y03918D02*
Y03895D01*
X01663Y03890D02*
X01674D01*
X01668*
Y03924*
X01663Y03918*
X01714Y03890D02*
X01691D01*
X01714Y03912*
Y03918*
X01708Y03924*
X01697*
X01691Y03918*
X01726Y03924D02*
Y03901D01*
X01737Y03890*
X01748Y03901*
Y03924*
X01817Y03918D02*
X01811Y03924D01*
X01800*
X01794Y03918*
Y03895*
X01800Y03890*
X01811*
X01817Y03895*
Y03907*
X01805*
X01828Y03890D02*
Y03924D01*
X01851Y03890*
Y03924*
X01863D02*
Y03890D01*
X01880*
X01885Y03895*
Y03918*
X01880Y03924*
X01863*
X01310Y02750D02*
X01323D01*
X01316Y02757D02*
Y02743D01*
X04721Y02255D02*
X04725Y02251D01*
Y02245*
X04721Y02241*
X04718*
X04715Y02245*
X04711Y02241*
X04708*
X04705Y02245*
Y02251*
X04708Y02255*
X04711*
X04715Y02251*
X04718Y02255*
X04721*
X04715Y02251D02*
Y02245D01*
X04625Y02255D02*
Y02241D01*
X04621*
X04608Y02255*
X04605*
Y02695D02*
Y02688D01*
Y02691*
X04625*
X04621Y02695*
X04720Y02686D02*
Y02700D01*
X04733Y02686*
X04736*
X04740Y02690*
Y02696*
X04736Y02700*
X04605Y01395D02*
Y01388D01*
Y01391*
X04625*
X04621Y01395*
Y01378D02*
X04625Y01375D01*
Y01368*
X04621Y01365*
X04618*
X04615Y01368*
Y01371*
Y01368*
X04611Y01365*
X04608*
X04605Y01368*
Y01375*
X04608Y01378*
X04705Y01395D02*
Y01388D01*
Y01391*
X04725*
X04721Y01395*
X04705Y01368D02*
X04725D01*
X04715Y01378*
Y01365*
X04610Y02150D02*
Y02143D01*
Y02146*
X04630*
X04626Y02150*
X04720Y02141D02*
Y02155D01*
X04733Y02141*
X04736*
X04740Y02145*
Y02151*
X04736Y02155*
X01865Y01561D02*
X01868Y01565D01*
X01875*
X01878Y01561*
Y01558*
X01875Y01555*
X01878Y01551*
Y01548*
X01875Y01545*
X01868*
X01865Y01548*
Y01551*
X01868Y01555*
X01865Y01558*
Y01561*
X01868Y01555D02*
X01875D01*
X01865Y01465D02*
X01878D01*
Y01461*
X01865Y01448*
Y01445*
X01425D02*
X01431D01*
X01428*
Y01465*
X01425Y01461*
X01438Y01560D02*
X01425D01*
X01438Y01573*
Y01576*
X01435Y01580*
X01428*
X01425Y01576*
X01865Y01231D02*
X01868Y01235D01*
X01875*
X01878Y01231*
Y01228*
X01875Y01225*
X01878Y01221*
Y01218*
X01875Y01215*
X01868*
X01865Y01218*
Y01221*
X01868Y01225*
X01865Y01228*
Y01231*
X01868Y01225D02*
X01875D01*
X01865Y01135D02*
X01878D01*
Y01131*
X01865Y01118*
Y01115*
X01425D02*
X01431D01*
X01428*
Y01135*
X01425Y01131*
X01438Y01230D02*
X01425D01*
X01438Y01243*
Y01246*
X01435Y01250*
X01428*
X01425Y01246*
X04375Y01361D02*
X04378Y01365D01*
X04385*
X04388Y01361*
Y01358*
X04385Y01355*
X04388Y01351*
Y01348*
X04385Y01345*
X04378*
X04375Y01348*
Y01351*
X04378Y01355*
X04375Y01358*
Y01361*
X04378Y01355D02*
X04385D01*
X04375Y01265D02*
X04388D01*
Y01261*
X04375Y01248*
Y01245*
X03945Y01250D02*
X03951D01*
X03948*
Y01270*
X03945Y01266*
X03953Y01355D02*
X03940D01*
X03953Y01368*
Y01371*
X03950Y01375*
X03943*
X03940Y01371*
X04375Y01661D02*
X04378Y01665D01*
X04385*
X04388Y01661*
Y01658*
X04385Y01655*
X04388Y01651*
Y01648*
X04385Y01645*
X04378*
X04375Y01648*
Y01651*
X04378Y01655*
X04375Y01658*
Y01661*
X04378Y01655D02*
X04385D01*
X04375Y01565D02*
X04388D01*
Y01561*
X04375Y01548*
Y01545*
X03945D02*
X03951D01*
X03948*
Y01565*
X03945Y01561*
X03953Y01655D02*
X03940D01*
X03953Y01668*
Y01671*
X03950Y01675*
X03943*
X03940Y01671*
X01545Y03012D02*
X01548Y03015D01*
X01555*
X01558Y03012*
Y03008*
X01555Y03005*
X01552*
X01555*
X01558Y03002*
Y02998*
X01555Y02995*
X01548*
X01545Y02998*
X01658Y02995D02*
X01645D01*
X01658Y03008*
Y03012*
X01655Y03015*
X01648*
X01645Y03012*
X01455Y02995D02*
X01461D01*
X01458*
Y03015*
X01455Y03012*
X03795Y01345D02*
X03801D01*
X03798*
Y01365*
X03795Y01361*
X03825Y01365D02*
X03818Y01361D01*
X03811Y01355*
Y01348*
X03815Y01345*
X03821*
X03825Y01348*
Y01351*
X03821Y01355*
X03811*
X03795Y01245D02*
X03801D01*
X03798*
Y01265*
X03795Y01261*
X03825Y01265D02*
X03811D01*
Y01255*
X03818Y01258*
X03821*
X03825Y01255*
Y01248*
X03821Y01245*
X03815*
X03811Y01248*
X02960Y01255D02*
X02966D01*
X02963*
Y01275*
X02960Y01271*
X02968Y01360D02*
X02955D01*
X02968Y01373*
Y01376*
X02965Y01380*
X02958*
X02955Y01376*
X02540Y02065D02*
X02546D01*
X02543*
Y02085*
X02540Y02081*
X02553Y02185D02*
X02540D01*
X02553Y02198*
Y02201*
X02550Y02205*
X02543*
X02540Y02201*
X02893Y02085D02*
X02880D01*
Y02075*
X02886Y02078*
X02890*
X02893Y02075*
Y02068*
X02890Y02065*
X02883*
X02880Y02068*
X02893Y02185D02*
X02886Y02181D01*
X02880Y02175*
Y02168*
X02883Y02165*
X02890*
X02893Y02168*
Y02171*
X02890Y02175*
X02880*
M02*