%FSDAX23Y23*%
%MOIN*%
%SFA1B1*%

%IPPOS*%
%ADD9500C,0.015700*%
%ADD9501C,0.030000*%
%ADD9502C,0.035400*%
%ADD9503C,0.043300*%
%ADD9504C,0.047200*%
%ADD9505C,0.157500*%
%LNde-110817-1*%
%LPD*%
G54D9500*
X02010Y01360D03*
X02110D03*
X02210D03*
X02310D03*
X02410D03*
X02510D03*
X02610Y01360D03*
X02710Y01360D03*
X03890Y01096D03*
Y01660D03*
X03825D03*
X03760D03*
X03695D03*
X03630D03*
X03565D03*
X03500D03*
X03435D03*
X03355D03*
X03290D03*
X03220D03*
X03155D03*
X03130Y01835D03*
X03280D03*
X03285Y01935D03*
Y02085D03*
X03470Y01775D03*
X03640Y01835D03*
X03690Y01935D03*
X03840Y01835D03*
Y02035D03*
Y02085D03*
X04365Y02090D03*
X04060Y02525D03*
X04020Y02580D03*
X03875Y02705D03*
X03505D03*
X03360Y02680D03*
Y02545D03*
X03290Y02930D03*
X03835Y03085D03*
X03095Y03035D03*
X02975Y02955D03*
Y02790D03*
X03040D03*
Y02685D03*
X03045Y02560D03*
X03020Y02525D03*
X03050Y02490D03*
Y02430D03*
Y02370D03*
Y02310D03*
X03020Y02340D03*
Y02400D03*
Y02460D03*
Y02280D03*
X03050Y02245D03*
X03100D03*
X03110Y02185D03*
Y02135D03*
Y02085D03*
X02955Y02035D03*
X02950Y01875D03*
X02850Y01770D03*
X02895Y01660D03*
X02955D03*
X03025D03*
X03090D03*
X02680Y01770D03*
Y01875D03*
X02790Y01920D03*
X02525Y01910D03*
Y01860D03*
Y01760D03*
Y01710D03*
X02190Y01760D03*
Y01810D03*
Y01860D03*
Y01910D03*
Y01960D03*
Y02010D03*
Y02060D03*
X02115Y02030D03*
X02066D03*
X02017D03*
X01968D03*
X01920D03*
Y02100D03*
X01968D03*
X02017D03*
X02066D03*
X02115D03*
Y02175D03*
X02066D03*
X02017D03*
X01968D03*
X01920D03*
X01795Y02220D03*
X01746D03*
X01697D03*
X01648D03*
X01600D03*
Y02300D03*
X01648D03*
X01697D03*
X01746D03*
X01795D03*
Y02370D03*
X01746D03*
X01697D03*
X01648D03*
X01600D03*
X01925Y02410D03*
X02015D03*
X02155Y02455D03*
X02020Y02670D03*
X02445Y02745D03*
X02485Y02720D03*
X02640Y02715D03*
X02725Y02730D03*
X02755Y02700D03*
X02785Y02670D03*
X02815Y02640D03*
X02720Y02635D03*
X02760Y02785D03*
X02795Y02760D03*
X02640Y02815D03*
X02615Y02970D03*
Y03035D03*
X02670Y02985D03*
X02825D03*
X02400Y03035D03*
X02585Y02565D03*
X02625Y02490D03*
X02575Y02315D03*
X02780Y02350D03*
X02920Y02305D03*
X02405Y02225D03*
X02455Y02130D03*
X01675Y01970D03*
X01965Y01635D03*
X01373Y01970D03*
X01290Y02550D03*
X02660Y03205D03*
X02615Y03275D03*
X02990Y03395D03*
X03050Y03340D03*
X03145Y03250D03*
X04225Y03500D03*
G54D9501*
X03315Y03355D03*
X03415D03*
X03515D03*
X03615D03*
G54D9502*
X01505Y01135D03*
Y01235D03*
Y01465D03*
X01605D03*
X01705D03*
X01805D03*
Y01235D03*
X01705D03*
X01605D03*
Y01135D03*
X01705D03*
X01805D03*
X02010Y01140D03*
X02110D03*
X02210D03*
X02310D03*
X02410D03*
X02510D03*
X02610D03*
X02710D03*
X03035Y01265D03*
Y01365D03*
X03135D03*
X03235D03*
X03335D03*
X03435D03*
X03535D03*
X03635D03*
X03735D03*
Y01265D03*
X03635D03*
X03535D03*
X03435D03*
X03335D03*
X03235D03*
X03135D03*
X04015D03*
Y01365D03*
X04115D03*
Y01265D03*
X04215D03*
Y01365D03*
X04315D03*
Y01265D03*
X04625Y01475D03*
X04725D03*
Y01575D03*
Y01675D03*
Y01775D03*
Y01875D03*
Y01975D03*
Y02075D03*
Y02315D03*
Y02415D03*
Y02515D03*
Y02615D03*
X04715Y02990D03*
Y03090D03*
X04625Y02615D03*
Y02515D03*
Y02415D03*
Y02315D03*
Y02075D03*
Y01975D03*
Y01875D03*
Y01775D03*
Y01675D03*
Y01575D03*
X04315Y01565D03*
X04215D03*
X04115D03*
X04015D03*
Y01665D03*
X04115D03*
X04215D03*
X04315D03*
X03195Y02580D03*
Y02680D03*
Y02780D03*
Y02880D03*
Y02980D03*
X02990Y03065D03*
X02890D03*
X02820Y02185D03*
Y02085D03*
X02720D03*
Y02185D03*
X02620D03*
Y02085D03*
X01805Y01565D03*
X01705D03*
X01605D03*
X01663Y02770D03*
X01466D03*
X01505Y01565D03*
X02170Y03780D03*
X02270D03*
X02370D03*
X02470D03*
X02570D03*
X02670D03*
X02770D03*
X02870D03*
X02970D03*
X04715Y03390D03*
Y03290D03*
Y03190D03*
G54D9503*
X01465Y03140D03*
X01565D03*
X01665D03*
G54D9504*
X01676Y03705D03*
X01873D03*
X03840Y03701D03*
X04040D03*
X04240D03*
G54D9505*
X01336Y01183D03*
X04790D03*
X01336Y03795D03*
X04785D03*
M02*