%FSDAX23Y23*%
%MOIN*%
%SFA1B1*%

%IPPOS*%
%AMD62*
4,1,8,0.039000,-0.014900,0.039000,0.014900,0.020000,0.033900,-0.020000,0.033900,-0.039000,0.014900,-0.039000,-0.014900,-0.020000,-0.033900,0.020000,-0.033900,0.039000,-0.014900,0.0*
1,1,0.038000,0.020000,-0.014900*
1,1,0.038000,0.020000,0.014900*
1,1,0.038000,-0.020000,0.014900*
1,1,0.038000,-0.020000,-0.014900*
%
%ADD58R,0.053300X0.047400*%
%ADD59O,0.094600X0.031600*%
%ADD60R,0.047400X0.051300*%
%ADD61R,0.051300X0.047400*%
G04~CAMADD=62~8~0.0~0.0~678.0~781.0~190.0~0.0~15~0.0~0.0~0.0~0.0~0~0.0~0.0~0.0~0.0~0~0.0~0.0~0.0~270.0~780.0~677.0*
%ADD62D62*%
%ADD63R,0.059200X0.067100*%
%ADD64R,0.067100X0.059200*%
%ADD65R,0.078900X0.102500*%
%ADD66R,0.043400X0.045400*%
%ADD67R,0.043400X0.045400*%
%ADD68R,0.137900X0.094600*%
%ADD69R,0.047400X0.094600*%
%ADD70R,0.051300X0.069000*%
%ADD71R,0.051300X0.069000*%
%ADD72R,0.143800X0.069000*%
%ADD73R,0.067100X0.031600*%
%ADD74O,0.031600X0.082800*%
%ADD75R,0.043400X0.063100*%
%ADD76R,0.043400X0.063100*%
%ADD77O,0.078900X0.019800*%
%ADD78O,0.019800X0.078900*%
%ADD79R,0.067100X0.031600*%
%ADD80O,0.067100X0.031600*%
%ADD81R,0.029700X0.065100*%
%ADD82R,0.086700X0.224500*%
%ADD83C,0.122000*%
%ADD84C,0.067100*%
%ADD85R,0.067100X0.067100*%
%ADD86C,0.008000*%
%ADD87R,0.067100X0.067100*%
%ADD88R,0.074900X0.074900*%
%ADD89C,0.074900*%
%ADD90C,0.068000*%
%ADD91C,0.106400*%
%ADD92C,0.039500*%
%LNde-110817-1*%
%LPD*%
G54D58*
X02111Y01825D03*
X02018D03*
X01501Y02445D03*
X01408D03*
X02496Y02290D03*
X02403D03*
G54D59*
X03759Y01835D03*
Y01885D03*
Y01935D03*
Y01985D03*
Y02035D03*
Y02085D03*
Y02135D03*
Y02185D03*
X03570Y01835D03*
Y01885D03*
Y01935D03*
Y01985D03*
Y02035D03*
Y02085D03*
Y02135D03*
Y02185D03*
X02454Y01710D03*
Y01760D03*
Y01810D03*
Y01860D03*
Y01910D03*
Y01960D03*
Y02010D03*
Y02060D03*
X02265Y01710D03*
Y01760D03*
Y01810D03*
Y01860D03*
Y01910D03*
Y01960D03*
Y02010D03*
Y02060D03*
X02515Y03230D03*
Y03280D03*
Y03330D03*
Y03380D03*
X02326Y03230D03*
Y03280D03*
Y03330D03*
Y03380D03*
X03219Y01835D03*
Y01885D03*
Y01935D03*
Y01985D03*
Y02035D03*
Y02085D03*
Y02135D03*
Y02185D03*
X03030Y01835D03*
Y01885D03*
Y01935D03*
Y01985D03*
Y02035D03*
Y02085D03*
Y02135D03*
Y02185D03*
G54D60*
X03495Y01893D03*
Y01826D03*
X02015Y01636D03*
Y01703D03*
X01330Y02376D03*
Y02443D03*
X01445Y01933D03*
Y01866D03*
X03895Y01333D03*
Y01266D03*
X02940Y01608D03*
Y01541D03*
X03000Y01608D03*
Y01541D03*
X02010Y01241D03*
Y01308D03*
X03060Y01608D03*
Y01541D03*
X02110Y01241D03*
Y01308D03*
X03120Y01608D03*
Y01541D03*
X02210Y01241D03*
Y01308D03*
X03180Y01608D03*
Y01541D03*
X02310Y01241D03*
Y01308D03*
X03240Y01608D03*
Y01541D03*
X02410Y01241D03*
Y01308D03*
X03300Y01608D03*
Y01541D03*
X02510Y01241D03*
Y01308D03*
X03360Y01608D03*
Y01541D03*
X02610Y01241D03*
Y01308D03*
X02710Y01241D03*
Y01308D03*
X01320Y03133D03*
Y03066D03*
X03420Y01608D03*
Y01541D03*
X03480Y01608D03*
Y01541D03*
X03540Y01608D03*
Y01541D03*
X03600Y01608D03*
Y01541D03*
X03658Y01608D03*
Y01541D03*
X03717Y01608D03*
Y01541D03*
X03776Y01608D03*
Y01541D03*
X03835Y01608D03*
Y01541D03*
X01665Y01878D03*
Y01811D03*
X02890Y03156D03*
Y03223D03*
X03585Y03188D03*
Y03121D03*
X02125Y02758D03*
Y02691D03*
Y02891D03*
Y02958D03*
X02605Y03341D03*
Y03408D03*
X02485Y02933D03*
Y02866D03*
X02425D03*
Y02933D03*
X02975Y02836D03*
Y02903D03*
X03290Y02596D03*
Y02663D03*
X03095Y02948D03*
Y02881D03*
X03290Y02848D03*
Y02781D03*
X03745Y03413D03*
Y03346D03*
X03195Y03413D03*
Y03346D03*
X03185Y03188D03*
Y03121D03*
X04740Y03568D03*
Y03501D03*
G54D61*
X02881Y01835D03*
X02948D03*
X04698Y02755D03*
X04631D03*
X04493Y02025D03*
X04426D03*
X01923Y02460D03*
X01856D03*
X02021D03*
X02088D03*
X01678Y03300D03*
X01611D03*
X01451D03*
X01518D03*
X02196Y01635D03*
X02263D03*
X01306Y02230D03*
X01373D03*
X01446Y02290D03*
X01513D03*
X01746Y01955D03*
X01813D03*
X01306Y02290D03*
X01373D03*
X01513Y02230D03*
X01446D03*
X01513Y02005D03*
X01446D03*
X01813Y02015D03*
X01746D03*
X01813Y01810D03*
X01746D03*
X04096Y03500D03*
X04163D03*
X04178Y02555D03*
X04111D03*
X02431Y02360D03*
X02498D03*
X02431Y02420D03*
X02498D03*
X02553Y02995D03*
X02486D03*
X02851Y02485D03*
X02918D03*
X02616Y03080D03*
X02683D03*
X02548Y03155D03*
X02481D03*
X02477Y03450D03*
X02544D03*
X04153Y03085D03*
X04086D03*
X03773D03*
X03706D03*
X03906D03*
X03973D03*
X03873Y02555D03*
X03806D03*
X03646D03*
X03713D03*
X03573D03*
X03506D03*
X02696Y01995D03*
X02763D03*
X02338Y02360D03*
X02271D03*
X04531Y03570D03*
X04598D03*
G54D62*
X03805Y03010D03*
X03705D03*
X03605D03*
X03505D03*
X03805Y02636D03*
X03705D03*
X03605D03*
X03505D03*
X03970Y02635D03*
X04070D03*
X04170D03*
X04270D03*
X03970Y03009D03*
X04070D03*
X04170D03*
X04270D03*
G54D63*
X04702Y02825D03*
X04627D03*
X04497Y02095D03*
X04422D03*
X02022Y02610D03*
X02097D03*
X02022Y02530D03*
X02097D03*
X01927Y02690D03*
X01852D03*
X01927Y02610D03*
X01852D03*
X01927Y02530D03*
X01852D03*
X01432Y02360D03*
X01507D03*
X01742Y01885D03*
X01817D03*
X03892Y03495D03*
X03817D03*
X02537Y03070D03*
X02462D03*
X03892Y03415D03*
X03967D03*
X03392Y03605D03*
X03317D03*
X03612D03*
X03537D03*
G54D64*
X02110Y01632D03*
Y01707D03*
X02210Y01487D03*
Y01412D03*
X02110Y01487D03*
Y01412D03*
X02010Y01487D03*
Y01412D03*
X02310Y01487D03*
Y01412D03*
X02510Y01487D03*
Y01412D03*
X02610Y01487D03*
Y01412D03*
X02710Y01487D03*
Y01412D03*
X02410Y01487D03*
Y01412D03*
X03815Y03417D03*
Y03342D03*
X03125Y03417D03*
Y03342D03*
X04280Y03347D03*
Y03422D03*
X04670Y03572D03*
Y03497D03*
G54D65*
X04560Y03365D03*
Y03204D03*
X04435Y03180D03*
Y03019D03*
G54D66*
X01480Y02169D03*
X01442Y02070D03*
G54D67*
X01517Y02070D03*
G54D68*
X01694Y02338D03*
G54D69*
X01784Y02101D03*
X01694D03*
X01603D03*
G54D70*
X02105Y02347D03*
G54D71*
X02015Y02347D03*
X01924D03*
G54D72*
X02015Y02082D03*
G54D73*
X01597Y01895D03*
X01522Y01857D03*
Y01932D03*
G54D74*
X04205Y03402D03*
X04155D03*
X04105D03*
X04055D03*
X04205Y03217D03*
X04155D03*
X04105D03*
X04055D03*
G54D75*
X03935Y03247D03*
X03972Y03332D03*
G54D76*
X03897Y03332D03*
G54D77*
X02570Y02833D03*
Y02813D03*
Y02793D03*
Y02774D03*
Y02754D03*
Y02734D03*
Y02715D03*
Y02695D03*
Y02675D03*
Y02656D03*
Y02636D03*
Y02616D03*
X02889D03*
Y02636D03*
Y02656D03*
Y02675D03*
Y02695D03*
Y02715D03*
Y02734D03*
Y02754D03*
Y02774D03*
Y02793D03*
Y02813D03*
Y02833D03*
G54D78*
X02621Y02565D03*
X02641D03*
X02661D03*
X02680D03*
X02700D03*
X02720D03*
X02739D03*
X02759D03*
X02779D03*
X02798D03*
X02818D03*
X02838D03*
Y02884D03*
X02818D03*
X02798D03*
X02779D03*
X02759D03*
X02739D03*
X02720D03*
X02700D03*
X02680D03*
X02661D03*
X02641D03*
X02621D03*
G54D79*
X03265Y03220D03*
G54D80*
X03265Y03120D03*
X03501Y03220D03*
Y03120D03*
G54D81*
X02595Y01801D03*
Y01708D03*
Y01971D03*
Y01878D03*
G54D82*
X02275Y02977D03*
Y02603D03*
G54D83*
X02075Y03190D03*
G54D84*
X02270Y03780D03*
X02970D03*
X02870D03*
X02770D03*
X02670D03*
X02570D03*
X02470D03*
X02370D03*
X01663Y02770D03*
X04725Y02615D03*
X04625Y02515D03*
X04725D03*
X04625Y02415D03*
X04725D03*
X04625Y02315D03*
X04725D03*
X04715Y03290D03*
Y03190D03*
Y03090D03*
Y02990D03*
X04725Y01475D03*
X04625D03*
X04725Y01575D03*
X04625D03*
X04725Y01675D03*
X04625D03*
X04725Y01775D03*
X04625D03*
X04725Y01875D03*
X04625D03*
X04725Y01975D03*
X04625D03*
X04725Y02075D03*
X02710Y01140D03*
X02610D03*
X02510D03*
X02410D03*
X02310D03*
X02210D03*
X02110D03*
X01505Y01565D03*
X01605Y01465D03*
Y01565D03*
X01705Y01465D03*
Y01565D03*
X01805Y01465D03*
Y01565D03*
X01505Y01235D03*
X01605Y01135D03*
Y01235D03*
X01705Y01135D03*
Y01235D03*
X01805Y01135D03*
Y01235D03*
X04015Y01365D03*
X04115Y01265D03*
Y01365D03*
X04215Y01265D03*
Y01365D03*
X04315Y01265D03*
Y01365D03*
X04015Y01665D03*
X04115Y01565D03*
Y01665D03*
X04215Y01565D03*
Y01665D03*
X04315Y01565D03*
Y01665D03*
X03195Y02680D03*
Y02780D03*
Y02880D03*
Y02980D03*
X03735Y01365D03*
Y01265D03*
X03635Y01365D03*
Y01265D03*
X03535Y01365D03*
Y01265D03*
X03435Y01365D03*
Y01265D03*
X03335Y01365D03*
Y01265D03*
X03235Y01365D03*
Y01265D03*
X03135Y01365D03*
Y01265D03*
X03035Y01365D03*
X02990Y03065D03*
X02820Y02185D03*
Y02085D03*
X02720Y02185D03*
Y02085D03*
X02620Y02185D03*
G54D85*
X02170Y03780D03*
X01466Y02770D03*
X02010Y01140D03*
X01505Y01465D03*
Y01135D03*
X04015Y01265D03*
Y01565D03*
X03035Y01265D03*
X02890Y03065D03*
X02620Y02085D03*
G54D86*
X01336Y01183D03*
Y03795D03*
X04790Y01183D03*
X04785Y03795D03*
G54D87*
X04625Y02615D03*
X04715Y03390D03*
X04625Y02075D03*
X03195Y02580D03*
G54D88*
X01465Y03140D03*
G54D89*
X01565Y03140D03*
X01665D03*
G54D90*
X03315Y03355D03*
X03415D03*
X03515D03*
X03615D03*
G54D91*
X03840Y03701D03*
X04040D03*
X04240D03*
X01676Y03705D03*
X01873D03*
G54D92*
X02895Y01660D03*
X02955D03*
X03025D03*
X03090D03*
X03155D03*
X03220D03*
X03290D03*
X03355D03*
X03435D03*
X03500D03*
X03565D03*
X03630D03*
X03695D03*
X03760D03*
X03825D03*
X03890D03*
X02010Y01360D03*
X02110D03*
X02210D03*
X02310D03*
X02410D03*
X02510D03*
X02610Y01360D03*
X02710Y01360D03*
X02190Y01860D03*
Y01810D03*
Y01760D03*
Y01910D03*
X02525D03*
Y01860D03*
Y01760D03*
Y01710D03*
X03130Y01835D03*
X02850Y01770D03*
X03280Y01835D03*
X03840D03*
Y02035D03*
X03470Y01775D03*
X03285Y01935D03*
X03690D03*
X02950Y01875D03*
X03640Y01835D03*
X03285Y02085D03*
X03840D03*
X02190Y02060D03*
Y02010D03*
Y01960D03*
X03110Y02085D03*
Y02135D03*
X01675Y01970D03*
X02585Y02565D03*
X02625Y02490D03*
X02575Y02315D03*
X01373Y01970D03*
X02405Y02225D03*
X02455Y02130D03*
X02670Y02985D03*
X02615Y03035D03*
X02755Y02700D03*
X02785Y02670D03*
X02815Y02640D03*
X02760Y02785D03*
X02725Y02730D03*
X02795Y02760D03*
X04225Y03500D03*
X03835Y03085D03*
X02975Y02955D03*
X03095Y03035D03*
X03290Y02930D03*
X02640Y02715D03*
X03040Y02790D03*
Y02685D03*
X02660Y03205D03*
X02825Y02985D03*
X02400Y03035D03*
X02445Y02745D03*
X02485Y02720D03*
X02955Y02035D03*
X02790Y01920D03*
X02720Y02635D03*
X03875Y02705D03*
X03505D03*
X04020Y02580D03*
X01925Y02410D03*
X02015D03*
X02155Y02455D03*
X01290Y02550D03*
X01965Y01635D03*
X02680Y01875D03*
Y01770D03*
X02615Y03275D03*
X02640Y02815D03*
X02780Y02350D03*
X03045Y02560D03*
X03020Y02525D03*
X03050Y02490D03*
X03100Y02245D03*
X03050D03*
Y02430D03*
X03110Y02185D03*
X03050Y02370D03*
Y02310D03*
X03020Y02340D03*
Y02400D03*
Y02460D03*
Y02280D03*
X02920Y02305D03*
X02615Y02970D03*
X03360Y02680D03*
X02990Y03395D03*
X02975Y02790D03*
X03050Y03340D03*
X02020Y02670D03*
X03360Y02545D03*
X03145Y03250D03*
X04060Y02525D03*
X04365Y02090D03*
X03890Y01096D03*
X01920Y02175D03*
X01968D03*
X02017D03*
X02066D03*
X02115D03*
Y02100D03*
X02066D03*
X02017D03*
X01968D03*
X01920D03*
X02115Y02030D03*
X02066D03*
X02017D03*
X01968D03*
X01920D03*
X01795Y02220D03*
X01746D03*
X01697D03*
X01648D03*
X01600D03*
X01795Y02300D03*
X01746D03*
X01697D03*
X01648D03*
X01600D03*
X01795Y02370D03*
X01746D03*
X01697D03*
X01648D03*
X01600D03*
M02*