%FSDAX23Y23*%
%MOIN*%
%SFA1B1*%

%IPPOS*%
%ADD12R,0.039400X0.043300*%
%ADD49R,0.032700X0.024800*%
%LNde-110817-1*%
%LPD*%
G54D12*
X03835Y01163D03*
Y01096D03*
X03775Y01163D03*
Y01096D03*
X03715Y01163D03*
Y01096D03*
X03656Y01163D03*
Y01096D03*
X03596Y01163D03*
Y01096D03*
X03415Y01163D03*
Y01096D03*
X03535Y01163D03*
Y01096D03*
X03357Y01163D03*
Y01096D03*
X03475Y01163D03*
Y01096D03*
X03298Y01163D03*
Y01096D03*
X03238Y01163D03*
Y01096D03*
X03178Y01163D03*
Y01096D03*
X03119Y01163D03*
Y01096D03*
X03059Y01163D03*
Y01096D03*
X02999Y01163D03*
Y01096D03*
X02940Y01163D03*
Y01096D03*
X02895Y01706D03*
Y01773D03*
X02955Y01711D03*
Y01778D03*
X03025Y01711D03*
Y01778D03*
X03090Y01706D03*
Y01773D03*
X03355Y01706D03*
Y01773D03*
X03290Y01706D03*
Y01773D03*
X03220Y01706D03*
Y01773D03*
X03155Y01706D03*
Y01773D03*
X03435Y01706D03*
Y01773D03*
X03500Y01706D03*
Y01773D03*
X03565Y01706D03*
Y01773D03*
X03630Y01706D03*
Y01773D03*
X03890Y01706D03*
Y01773D03*
X03825Y01706D03*
Y01773D03*
X03760Y01706D03*
Y01773D03*
X03695Y01706D03*
Y01773D03*
X02170Y03611D03*
Y03678D03*
X02270Y03611D03*
Y03678D03*
X02370Y03611D03*
Y03678D03*
X02470Y03611D03*
Y03678D03*
X02570Y03611D03*
Y03678D03*
X02670Y03611D03*
Y03678D03*
X02770Y03611D03*
Y03678D03*
X02870Y03611D03*
Y03678D03*
G54D49*
X02895Y01613D03*
Y01526D03*
X02955Y01613D03*
Y01526D03*
X03025Y01613D03*
Y01526D03*
X03090Y01613D03*
Y01526D03*
X03355Y01613D03*
Y01526D03*
X03290Y01613D03*
Y01526D03*
X03220Y01613D03*
Y01526D03*
X03155Y01613D03*
Y01526D03*
X03435Y01613D03*
Y01526D03*
X03500Y01613D03*
Y01526D03*
X03565Y01613D03*
Y01526D03*
X03630Y01613D03*
Y01526D03*
X03890Y01613D03*
Y01526D03*
X03825Y01613D03*
Y01526D03*
X03760Y01613D03*
Y01526D03*
X03695Y01613D03*
Y01526D03*
M02*