%FSDAX23Y23*%
%MOIN*%
%SFA1B1*%

%IPPOS*%
%AMD14*
4,1,8,0.035000,-0.014900,0.035000,0.014900,0.020000,0.029900,-0.020000,0.029900,-0.035000,0.014900,-0.035000,-0.014900,-0.020000,-0.029900,0.020000,-0.029900,0.035000,-0.014900,0.0*
1,1,0.030000,0.020000,-0.014900*
1,1,0.030000,0.020000,0.014900*
1,1,0.030000,-0.020000,0.014900*
1,1,0.030000,-0.020000,-0.014900*
%
%ADD10R,0.045300X0.039400*%
%ADD11O,0.086600X0.023600*%
%ADD12R,0.039400X0.043300*%
%ADD13R,0.043300X0.039400*%
G04~CAMADD=14~8~0.0~0.0~598.0~701.0~150.0~0.0~15~0.0~0.0~0.0~0.0~0~0.0~0.0~0.0~0.0~0~0.0~0.0~0.0~270.0~700.0~597.0*
%ADD14D14*%
%ADD15R,0.051200X0.059100*%
%ADD16R,0.059100X0.051200*%
%ADD17R,0.070900X0.094500*%
%ADD18R,0.035400X0.037400*%
%ADD19R,0.035400X0.037400*%
%ADD20R,0.129900X0.086600*%
%ADD21R,0.039400X0.086600*%
%ADD22R,0.043300X0.061000*%
%ADD23R,0.043300X0.061000*%
%ADD24R,0.135800X0.061000*%
%ADD25R,0.059100X0.023600*%
%ADD26O,0.023600X0.074800*%
%ADD27R,0.035400X0.055100*%
%ADD28R,0.035400X0.055100*%
%ADD29O,0.070900X0.011800*%
%ADD30O,0.011800X0.070900*%
%ADD31R,0.059100X0.023600*%
%ADD32O,0.059100X0.023600*%
%ADD33R,0.021700X0.057100*%
%ADD34R,0.078700X0.216500*%
%ADD35C,0.059100*%
%ADD36C,0.030000*%
%ADD37C,0.050000*%
%ADD38C,0.010000*%
%ADD39C,0.020000*%
%ADD40R,0.240000X0.300000*%
%ADD41R,0.275000X0.230000*%
%ADD42R,0.059100X0.059100*%
%ADD43R,0.059100X0.059100*%
%ADD44R,0.066900X0.066900*%
%ADD45C,0.066900*%
%ADD46C,0.060000*%
%ADD47C,0.098400*%
%ADD48C,0.031500*%
%LNde-110817-1*%
%LPD*%
G36*
X04255Y02249D02*
X04461D01*
X04535Y02175*
X04542Y02171*
X04550Y02169*
X04631*
X04693Y02107*
X04693Y02106*
X04686Y02097*
X04681Y02086*
X04680Y02075*
X04681Y02063*
X04686Y02052*
X04693Y02043*
X04702Y02036*
X04713Y02031*
X04725Y02030*
X04736Y02031*
X04747Y02036*
X04750Y02038*
X04754Y02035*
Y02014*
X04750Y02011*
X04747Y02013*
X04736Y02018*
X04725Y02019*
X04713Y02018*
X04702Y02013*
X04693Y02006*
X04686Y01997*
X04681Y01986*
X04680Y01975*
X04681Y01963*
X04682Y01961*
X04672Y01951*
X04668Y01952*
X04665Y01956*
X04668Y01963*
X04669Y01975*
X04668Y01986*
X04663Y01997*
X04656Y02006*
X04647Y02013*
X04636Y02018*
X04625Y02019*
X04613Y02018*
X04602Y02013*
X04593Y02006*
X04586Y01997*
X04585Y01995*
X04530*
Y02044*
X04580*
Y02030*
X04669*
Y02119*
X04580*
Y02105*
X04538*
Y02139*
X04456*
Y02134*
X04427*
Y02095*
X04417*
Y02134*
X04387*
Y02111*
X04382Y02109*
X04378Y02112*
X04371Y02115*
X04370Y02115*
Y02090*
Y02064*
X04371Y02064*
X04378Y02067*
X04382Y02070*
X04387Y02068*
Y02055*
X04390*
X04394Y02054*
Y02030*
X04426*
Y02020*
X04394*
Y01995*
X04373*
X04250Y02118*
Y02246*
X04254Y02249*
X04255Y02249*
G37*
G36*
X02849Y01843D02*
Y01840D01*
X02881*
Y01835*
X02886*
Y01805*
X02911*
Y01800*
X02985*
Y01804*
X03030*
X03038Y01805*
X03043Y01808*
X03062*
X03069Y01808*
X03075Y01811*
X03076Y01812*
X03080Y01810*
Y01689*
X03074Y01686*
X03068Y01681*
X03063Y01675*
X03060Y01668*
Y01667*
X03055*
Y01668*
X03051Y01675*
X03046Y01681*
X03040Y01686*
X03033Y01690*
X03025Y01691*
X03023Y01690*
X02981Y01732*
X02974Y01736*
X02967Y01738*
X02862*
X02860Y01741*
X02861Y01746*
X02863Y01747*
X02868Y01751*
X02872Y01757*
X02875Y01763*
X02875Y01765*
X02850*
Y01770*
X02845*
Y01796*
X02841Y01799*
Y01841*
X02845Y01845*
X02849Y01843*
G37*
G36*
X02818Y02519D02*
X02820Y02520D01*
X02820Y02519*
X02819Y02514*
Y02490*
X02851*
Y02485*
X02856*
Y02455*
X02881*
Y02450*
X02889*
Y02310*
X02889Y02305*
X02890Y02297*
X02893Y02289*
X02898Y02283*
X02904Y02278*
X02912Y02275*
X02920Y02274*
X02928Y02275*
X02930Y02276*
X02934Y02273*
Y02236*
X02930Y02234*
X02896Y02267*
X02890Y02271*
X02882Y02273*
X02830*
X02784Y02320*
X02785Y02324*
X02786Y02324*
X02793Y02327*
X02798Y02331*
X02802Y02337*
X02805Y02343*
X02805Y02345*
X02780*
Y02350*
X02775*
Y02375*
X02773Y02375*
X02767Y02372*
X02765Y02371*
X02760Y02373*
Y02466*
X02773Y02480*
X02778Y02486*
X02779Y02494*
Y02514*
X02787Y02516*
X02789Y02517*
X02790Y02516*
X02798Y02514*
X02807Y02516*
X02813Y02520*
X02818Y02519*
G37*
G36*
X03450Y02130D02*
X03457Y02126D01*
X03465Y02124*
X03486*
X03489Y02121*
Y02105*
X03491Y02097*
X03495Y02090*
X03515Y02070*
X03517Y02069*
X03519Y02065*
X03523Y02063*
X03523Y02062*
Y02057*
X03523Y02057*
X03519Y02054*
X03515Y02048*
X03512Y02042*
X03512Y02035*
X03512Y02028*
X03515Y02021*
X03519Y02015*
X03522Y02013*
X03523Y02008*
X03519Y02005*
X03475*
X03467Y02003*
X03460Y01999*
X03395Y01934*
X03391Y01927*
X03389Y01920*
Y01735*
X03391Y01727*
X03395Y01720*
X03414Y01701*
Y01683*
X03413Y01681*
X03408Y01675*
X03405Y01668*
X03404Y01660*
X03404Y01657*
X03401Y01652*
X03399Y01645*
X03386*
X03383Y01649*
X03385Y01652*
X03386Y01660*
X03385Y01668*
X03381Y01675*
X03376Y01681*
X03375Y01683*
Y01720*
X03373Y01727*
X03369Y01734*
X03350Y01753*
Y01955*
X03348Y01962*
X03344Y01969*
X03314Y01999*
X03307Y02003*
X03300Y02005*
X03268*
X03266Y02007*
X03266Y02007*
Y02012*
X03266Y02013*
X03270Y02015*
X03274Y02021*
X03277Y02028*
X03278Y02035*
X03277Y02042*
X03274Y02048*
X03270Y02054*
X03264Y02058*
X03261Y02059*
X03260Y02060*
X03260Y02065*
X03265Y02068*
X03266Y02066*
X03272Y02062*
X03278Y02059*
X03280Y02059*
Y02085*
Y02110*
X03278Y02110*
X03272Y02107*
X03266Y02103*
X03265Y02101*
X03259Y02105*
X03251Y02107*
X03224*
Y02085*
X03214*
Y02107*
X03188*
X03183Y02106*
X03183Y02107*
X03182Y02108*
X03186Y02113*
X03188Y02112*
X03214*
Y02135*
Y02157*
X03188*
X03185Y02160*
X03187Y02162*
X03188Y02162*
X03214*
Y02185*
X03219*
Y02190*
X03272*
X03271Y02193*
X03271Y02194*
X03273Y02198*
X03382*
X03450Y02130*
G37*
G36*
X02686Y03119D02*
X02684Y03114D01*
X02646*
Y03109*
X02621*
Y03080*
X02616*
Y03075*
X02584*
Y03050*
X02588*
X02591Y03045*
X02589Y03041*
X02589Y03040*
X02640*
X02640Y03041*
X02638Y03045*
X02641Y03050*
X02646*
Y03045*
X02663*
X02664Y03038*
X02669Y03032*
X02677Y03023*
X02677Y03019*
X02673Y03015*
X02670Y03016*
X02662Y03015*
X02654Y03011*
X02648Y03006*
X02643Y03000*
X02640Y02995*
X02640Y02994*
X02636Y02993*
X02635Y02993*
X02630Y02996*
X02623Y03000*
X02615Y03001*
X02607Y03000*
X02599Y02996*
X02593Y02991*
X02590Y02988*
X02585Y02989*
Y02990*
X02553*
Y02995*
X02548*
Y03024*
X02523*
Y03029*
X02527Y03030*
X02532*
Y03070*
Y03109*
X02503*
Y03114*
X02492*
Y03120*
X02585*
Y03134*
X02671*
X02686Y03119*
G37*
G36*
X04372Y03325D02*
X04332Y03285D01*
Y03265*
Y02945*
X04298Y02915*
X03445*
X03420Y02940*
Y03262*
X03462Y03305*
Y03939*
X04372*
Y03325*
G37*
G36*
X02458Y02324D02*
Y02255D01*
X02466*
Y02163*
X02466Y02158*
X02462Y02154*
X02461Y02155*
X02460Y02155*
Y02130*
Y02104*
X02461Y02104*
X02468Y02107*
X02473Y02111*
X02477Y02117*
X02480Y02123*
X02480Y02129*
X02482Y02130*
X02485Y02131*
X02489Y02127*
X02496Y02122*
X02503Y02119*
X02511Y02118*
X02512Y02118*
X02526Y02104*
Y02037*
X02528Y02029*
X02532Y02023*
X02558Y01997*
X02564Y01993*
X02569Y01992*
Y01927*
X02609*
Y01922*
X02569*
Y01830*
X02545*
X02543Y01835*
X02546Y01838*
X02551Y01844*
X02555Y01852*
X02556Y01860*
X02555Y01868*
X02551Y01875*
X02546Y01881*
X02546Y01882*
Y01887*
X02546Y01888*
X02551Y01894*
X02555Y01902*
X02556Y01910*
X02555Y01918*
X02551Y01925*
X02546Y01931*
X02540Y01936*
X02533Y01940*
X02525Y01941*
X02517Y01940*
X02509Y01936*
X02507Y01935*
X02497*
X02496Y01940*
X02501Y01944*
X02506Y01951*
X02507Y01955*
X02454*
Y01965*
X02507*
X02506Y01968*
X02501Y01975*
X02495Y01979*
X02495Y01984*
X02496Y01985*
X02499Y01986*
X02505Y01990*
X02509Y01996*
X02512Y02003*
X02513Y02010*
X02512Y02017*
X02509Y02023*
X02505Y02029*
X02499Y02033*
X02496Y02034*
X02495Y02035*
X02495Y02040*
X02501Y02044*
X02506Y02051*
X02507Y02055*
X02454*
Y02060*
X02449*
Y02082*
X02423*
X02415Y02080*
X02410Y02083*
Y02160*
X02409Y02167*
X02406Y02175*
X02401Y02181*
X02390Y02192*
X02393Y02196*
X02397Y02195*
X02405Y02194*
X02413Y02195*
X02420Y02198*
X02426Y02203*
X02431Y02209*
X02435Y02217*
X02436Y02225*
X02435Y02233*
X02431Y02240*
X02429Y02243*
Y02255*
X02441*
Y02324*
X02446Y02325*
X02453*
X02458Y02324*
G37*
G36*
X04931Y01045D02*
X01230D01*
Y03939*
X03403*
Y03714*
X03399Y03713*
X03373Y03738*
X03365Y03744*
X03355Y03749*
X03345Y03750*
X03231*
X03093Y03888*
X03085Y03894*
X03075Y03899*
X03065Y03900*
X02100*
X02089Y03899*
X02079Y03894*
X02071Y03888*
X02036Y03853*
X02030Y03845*
X02026Y03835*
X02024Y03825*
Y03436*
X01898Y03310*
X01892Y03302*
X01888Y03292*
X01887Y03282*
Y02870*
X01882Y02868*
X01880Y02869*
X01870Y02874*
X01860Y02875*
X01736*
X01705Y02906*
Y03113*
X01707Y03115*
X01712Y03127*
X01713Y03140*
X01712Y03152*
X01707Y03164*
X01699Y03174*
X01695Y03177*
Y03207*
X01699Y03212*
X01704Y03218*
X01707Y03225*
X01708Y03233*
Y03265*
X01715*
Y03334*
X01641*
Y03329*
X01616*
Y03300*
Y03270*
X01641*
Y03265*
X01648*
Y03246*
X01643Y03241*
X01638Y03235*
X01635Y03227*
X01634Y03220*
Y03177*
X01630Y03174*
X01622Y03164*
X01617Y03152*
X01616Y03140*
X01617Y03127*
X01622Y03115*
X01624Y03113*
Y02890*
X01626Y02879*
X01630Y02869*
X01636Y02861*
X01691Y02806*
X01699Y02800*
X01709Y02796*
X01720Y02794*
X01843*
X01887Y02750*
Y02734*
X01886*
Y02729*
X01857*
Y02690*
X01852*
Y02685*
X01817*
Y02650*
Y02649*
Y02615*
X01852*
Y02605*
X01817*
Y02570*
Y02569*
Y02535*
X01852*
Y02525*
X01817*
Y02490*
X01820*
X01824Y02489*
Y02465*
X01856*
Y02455*
X01824*
Y02445*
X01610*
Y02495*
X01609Y02502*
X01606Y02510*
X01601Y02516*
X01596Y02521*
X01590Y02526*
X01582Y02529*
X01575Y02530*
X01410*
X01402Y02529*
X01394Y02526*
X01388Y02521*
X01387Y02520*
X01382Y02513*
X01379Y02506*
X01378Y02498*
Y02479*
X01371*
Y02469*
X01364*
Y02480*
X01310*
Y02526*
X01311Y02528*
X01316Y02534*
X01320Y02542*
X01321Y02550*
X01320Y02558*
X01316Y02565*
X01311Y02571*
X01310Y02573*
Y02641*
X01334Y02665*
X01338Y02672*
X01340Y02680*
Y03029*
X01354*
Y03096*
Y03113*
X01416*
Y03091*
X01424*
Y02814*
X01422*
Y02725*
X01511*
Y02814*
X01505*
Y03091*
X01513*
Y03188*
X01485*
Y03265*
X01488*
Y03270*
X01513*
Y03300*
Y03329*
X01488*
Y03334*
X01485*
Y03451*
X01674Y03640*
X01676Y03640*
X01689Y03641*
X01701Y03645*
X01712Y03651*
X01722Y03659*
X01730Y03669*
X01736Y03680*
X01739Y03692*
X01741Y03705*
X01739Y03717*
X01736Y03729*
X01730Y03740*
X01722Y03750*
X01712Y03758*
X01701Y03764*
X01689Y03768*
X01676Y03769*
X01664Y03768*
X01651Y03764*
X01640Y03758*
X01630Y03750*
X01622Y03740*
X01617Y03729*
X01613Y03717*
X01612Y03705*
X01613Y03693*
X01416Y03497*
X01410Y03488*
X01406Y03478*
X01404Y03468*
Y03160*
X01405Y03157*
X01401Y03153*
X01354*
Y03170*
X01285*
Y03096*
Y03029*
X01299*
Y02688*
X01275Y02664*
X01271Y02657*
X01269Y02650*
Y02573*
X01268Y02571*
X01263Y02565*
X01260Y02558*
X01259Y02550*
X01260Y02542*
X01263Y02534*
X01268Y02528*
X01269Y02526*
Y02240*
X01269Y02238*
Y02195*
X01343*
Y01975*
X01342Y01970*
X01343Y01964*
Y01361*
X01344Y01353*
X01347Y01346*
X01352Y01340*
X01460Y01231*
X01461Y01223*
X01466Y01212*
X01473Y01203*
X01474Y01202*
Y01179*
X01460*
Y01090*
X01549*
Y01104*
X01572*
X01573Y01103*
X01582Y01096*
X01593Y01091*
X01605Y01090*
X01616Y01091*
X01627Y01096*
X01636Y01103*
X01637Y01104*
X01672*
X01673Y01103*
X01682Y01096*
X01693Y01091*
X01705Y01090*
X01716Y01091*
X01727Y01096*
X01736Y01103*
X01737Y01104*
X01772*
X01773Y01103*
X01782Y01096*
X01793Y01091*
X01805Y01090*
X01816Y01091*
X01827Y01096*
X01836Y01103*
X01843Y01112*
X01848Y01123*
X01849Y01135*
X01848Y01146*
X01843Y01157*
X01836Y01166*
X01835Y01167*
Y01202*
X01836Y01203*
X01837Y01204*
X01875*
X01882Y01205*
X01890Y01208*
X01896Y01213*
X01928Y01246*
X01933Y01252*
X01936Y01259*
X01937Y01267*
Y01457*
X01965*
Y01446*
Y01372*
X01979*
Y01366*
X01979Y01360*
X01979Y01354*
Y01345*
X01975*
Y01271*
Y01204*
X01979*
Y01184*
X01965*
Y01095*
X02054*
Y01184*
X02040*
Y01204*
X02044*
Y01271*
Y01345*
X02040*
Y01354*
X02041Y01360*
X02040Y01366*
Y01372*
X02054*
Y01446*
Y01457*
X02065*
Y01446*
Y01372*
X02079*
Y01366*
X02079Y01360*
X02079Y01354*
Y01345*
X02075*
Y01271*
Y01204*
X02079*
Y01172*
X02078Y01171*
X02071Y01162*
X02066Y01151*
X02065Y01140*
X02066Y01128*
X02071Y01117*
X02078Y01108*
X02087Y01101*
X02098Y01096*
X02110Y01095*
X02121Y01096*
X02132Y01101*
X02141Y01108*
X02148Y01117*
X02153Y01128*
X02154Y01140*
X02153Y01151*
X02148Y01162*
X02141Y01171*
X02140Y01172*
Y01204*
X02144*
Y01271*
Y01345*
X02140*
Y01354*
X02141Y01360*
X02140Y01366*
Y01372*
X02154*
Y01446*
Y01457*
X02165*
Y01446*
Y01372*
X02179*
Y01366*
X02179Y01360*
X02179Y01354*
Y01345*
X02175*
Y01271*
Y01204*
X02179*
Y01172*
X02178Y01171*
X02171Y01162*
X02166Y01151*
X02165Y01140*
X02166Y01128*
X02171Y01117*
X02178Y01108*
X02187Y01101*
X02198Y01096*
X02210Y01095*
X02221Y01096*
X02232Y01101*
X02241Y01108*
X02248Y01117*
X02253Y01128*
X02254Y01140*
X02253Y01151*
X02248Y01162*
X02241Y01171*
X02240Y01172*
Y01204*
X02244*
Y01271*
Y01345*
X02240*
Y01354*
X02241Y01360*
X02240Y01366*
Y01372*
X02254*
Y01446*
Y01457*
X02265*
Y01446*
Y01372*
X02279*
Y01366*
X02279Y01360*
X02279Y01354*
Y01345*
X02275*
Y01271*
Y01204*
X02279*
Y01172*
X02278Y01171*
X02271Y01162*
X02266Y01151*
X02265Y01140*
X02266Y01128*
X02271Y01117*
X02278Y01108*
X02287Y01101*
X02298Y01096*
X02310Y01095*
X02321Y01096*
X02332Y01101*
X02341Y01108*
X02348Y01117*
X02353Y01128*
X02354Y01140*
X02353Y01151*
X02348Y01162*
X02341Y01171*
X02340Y01172*
Y01204*
X02344*
Y01271*
Y01345*
X02340*
Y01354*
X02341Y01360*
X02340Y01366*
Y01372*
X02354*
Y01446*
Y01457*
X02365*
Y01446*
Y01372*
X02379*
Y01366*
X02379Y01360*
X02379Y01354*
Y01345*
X02375*
Y01271*
Y01204*
X02379*
Y01172*
X02378Y01171*
X02371Y01162*
X02366Y01151*
X02365Y01140*
X02366Y01128*
X02371Y01117*
X02378Y01108*
X02387Y01101*
X02398Y01096*
X02410Y01095*
X02421Y01096*
X02432Y01101*
X02441Y01108*
X02448Y01117*
X02453Y01128*
X02454Y01140*
X02453Y01151*
X02448Y01162*
X02441Y01171*
X02440Y01172*
Y01204*
X02444*
Y01271*
Y01345*
X02440*
Y01354*
X02441Y01360*
X02440Y01366*
Y01372*
X02454*
Y01446*
Y01457*
X02465*
Y01446*
Y01372*
X02479*
Y01366*
X02479Y01360*
X02479Y01354*
Y01345*
X02475*
Y01271*
Y01204*
X02479*
Y01172*
X02478Y01171*
X02471Y01162*
X02466Y01151*
X02465Y01140*
X02466Y01128*
X02471Y01117*
X02478Y01108*
X02487Y01101*
X02498Y01096*
X02510Y01095*
X02521Y01096*
X02532Y01101*
X02541Y01108*
X02548Y01117*
X02553Y01128*
X02554Y01140*
X02553Y01151*
X02548Y01162*
X02541Y01171*
X02540Y01172*
Y01204*
X02544*
Y01271*
Y01345*
X02540*
Y01354*
X02541Y01360*
X02540Y01366*
Y01372*
X02554*
Y01446*
Y01457*
X02565*
Y01446*
Y01372*
X02579*
Y01365*
X02579Y01360*
X02579Y01354*
Y01345*
X02575*
Y01271*
Y01204*
X02579*
Y01172*
X02578Y01171*
X02571Y01162*
X02566Y01151*
X02565Y01140*
X02566Y01128*
X02571Y01117*
X02578Y01108*
X02587Y01101*
X02598Y01096*
X02610Y01095*
X02621Y01096*
X02632Y01101*
X02641Y01108*
X02648Y01117*
X02653Y01128*
X02654Y01140*
X02653Y01151*
X02648Y01162*
X02641Y01171*
X02640Y01172*
Y01204*
X02644*
Y01271*
Y01345*
X02640*
Y01354*
X02641Y01360*
X02640Y01365*
Y01372*
X02654*
Y01446*
Y01457*
X02665*
Y01446*
Y01372*
X02679*
Y01366*
X02679Y01360*
X02679Y01354*
Y01345*
X02675*
Y01271*
Y01204*
X02679*
Y01172*
X02678Y01171*
X02671Y01162*
X02666Y01151*
X02665Y01140*
X02666Y01128*
X02671Y01117*
X02678Y01108*
X02687Y01101*
X02698Y01096*
X02710Y01095*
X02721Y01096*
X02732Y01101*
X02741Y01108*
X02748Y01117*
X02753Y01128*
X02754Y01140*
X02753Y01151*
X02748Y01162*
X02741Y01171*
X02740Y01172*
Y01204*
X02744*
Y01271*
Y01345*
X02740*
Y01354*
X02741Y01360*
X02740Y01366*
Y01372*
X02754*
Y01446*
Y01528*
X02665*
Y01517*
X02654*
Y01528*
X02565*
Y01517*
X02554*
Y01528*
X02465*
Y01517*
X02454*
Y01528*
X02365*
Y01517*
X02354*
Y01528*
X02347*
X02345Y01532*
X02401Y01588*
X02406Y01594*
X02409Y01602*
X02410Y01610*
Y01634*
X02580*
X02589Y01636*
X02598Y01642*
X02613Y01657*
X02618Y01665*
X02620*
Y01752*
X02569*
Y01685*
X02551*
X02548Y01690*
X02551Y01694*
X02555Y01702*
X02556Y01710*
X02555Y01718*
X02551Y01725*
X02546Y01731*
X02546Y01732*
Y01737*
X02546Y01738*
X02551Y01744*
X02555Y01752*
X02556Y01760*
X02555Y01768*
X02551Y01775*
X02546Y01781*
X02543Y01784*
X02545Y01789*
X02569*
Y01757*
X02620*
Y01835*
Y01858*
X02623*
X02631Y01859*
X02638Y01864*
X02642Y01868*
X02643Y01868*
X02654Y01857*
X02658Y01853*
X02664Y01848*
X02672Y01845*
X02680Y01844*
X02688Y01845*
X02695Y01848*
X02701Y01853*
X02706Y01859*
X02710Y01867*
X02711Y01875*
X02710Y01883*
X02706Y01890*
X02701Y01896*
X02697Y01900*
X02695Y01902*
Y01960*
X02733*
Y01965*
X02758*
Y01995*
Y02024*
X02733*
Y02029*
X02695*
Y02040*
X02695Y02042*
X02695Y02042*
X02699Y02045*
X02708Y02041*
X02720Y02040*
X02731Y02041*
X02742Y02046*
X02751Y02053*
X02758Y02062*
X02763Y02073*
X02764Y02085*
X02763Y02096*
X02758Y02107*
X02751Y02116*
X02742Y02123*
X02731Y02128*
X02720Y02129*
X02708Y02128*
X02706Y02127*
X02692Y02141*
X02692Y02143*
X02697Y02145*
X02698Y02145*
X02708Y02141*
X02720Y02140*
X02731Y02141*
X02742Y02146*
X02745Y02148*
X02749Y02145*
Y02135*
X02751Y02127*
X02755Y02120*
X02777Y02098*
X02776Y02096*
X02775Y02085*
X02776Y02073*
X02781Y02062*
X02788Y02053*
X02797Y02046*
X02808Y02041*
X02820Y02040*
X02831Y02041*
X02842Y02046*
X02851Y02053*
X02858Y02062*
X02863Y02073*
X02864Y02085*
X02863Y02096*
X02858Y02107*
X02851Y02116*
X02842Y02123*
X02831Y02128*
X02820Y02129*
X02808Y02128*
X02806Y02127*
X02790Y02143*
Y02151*
X02795Y02154*
X02800Y02150*
X02809Y02146*
X02815Y02145*
Y02185*
X02820*
Y02190*
X02859*
X02858Y02195*
X02854Y02204*
X02850Y02209*
X02853Y02214*
X02866*
X02894Y02186*
Y02033*
X02806Y01945*
X02805Y01946*
X02798Y01950*
X02790Y01951*
X02782Y01950*
X02774Y01946*
X02768Y01941*
X02763Y01935*
X02760Y01928*
X02759Y01920*
X02760Y01912*
X02763Y01904*
X02768Y01898*
X02774Y01893*
X02777Y01892*
X02778Y01887*
X02770Y01879*
X02766Y01872*
X02764Y01865*
Y01720*
X02766Y01712*
X02770Y01705*
X02830Y01645*
X02837Y01641*
X02845Y01639*
X02871*
X02873Y01638*
X02879Y01633*
X02887Y01630*
X02890Y01629*
X02905Y01614*
Y01571*
Y01504*
X02919*
Y01360*
X02921Y01352*
X02925Y01345*
X02990Y01280*
Y01220*
X03079*
Y01285*
X03084Y01287*
X03092Y01278*
X03091Y01276*
X03090Y01265*
X03091Y01253*
X03096Y01242*
X03103Y01233*
X03112Y01226*
X03123Y01221*
X03135Y01220*
X03146Y01221*
X03157Y01226*
X03166Y01233*
X03173Y01242*
X03178Y01253*
X03179Y01265*
X03178Y01276*
X03173Y01287*
X03166Y01296*
X03157Y01303*
X03146Y01308*
X03135Y01309*
X03123Y01308*
X03121Y01307*
X03107Y01321*
X03107Y01323*
X03112Y01325*
X03113Y01325*
X03123Y01321*
X03135Y01320*
X03146Y01321*
X03154Y01324*
X03159Y01321*
Y01320*
X03161Y01312*
X03165Y01305*
X03192Y01278*
X03191Y01276*
X03190Y01265*
X03191Y01253*
X03196Y01242*
X03203Y01233*
X03212Y01226*
X03223Y01221*
X03235Y01220*
X03246Y01221*
X03257Y01226*
X03266Y01233*
X03273Y01242*
X03278Y01253*
X03279Y01265*
X03278Y01276*
X03273Y01287*
X03266Y01296*
X03257Y01303*
X03246Y01308*
X03235Y01309*
X03223Y01308*
X03221Y01307*
X03203Y01325*
X03203Y01326*
X03209Y01328*
X03212Y01326*
X03223Y01321*
X03235Y01320*
X03246Y01321*
X03257Y01326*
X03260Y01328*
X03264Y01325*
Y01315*
X03266Y01307*
X03270Y01300*
X03292Y01278*
X03291Y01276*
X03290Y01265*
X03291Y01253*
X03296Y01242*
X03303Y01233*
X03312Y01226*
X03323Y01221*
X03335Y01220*
X03346Y01221*
X03357Y01226*
X03366Y01233*
X03373Y01242*
X03378Y01253*
X03379Y01265*
X03378Y01276*
X03373Y01287*
X03366Y01296*
X03357Y01303*
X03346Y01308*
X03335Y01309*
X03323Y01308*
X03321Y01307*
X03307Y01321*
X03307Y01323*
X03312Y01325*
X03313Y01325*
X03323Y01321*
X03335Y01320*
X03346Y01321*
X03357Y01326*
X03364Y01331*
X03369Y01329*
Y01310*
X03371Y01302*
X03375Y01295*
X03392Y01278*
X03391Y01276*
X03390Y01265*
X03391Y01253*
X03396Y01242*
X03403Y01233*
X03412Y01226*
X03423Y01221*
X03435Y01220*
X03446Y01221*
X03457Y01226*
X03466Y01233*
X03473Y01242*
X03478Y01253*
X03479Y01265*
X03478Y01276*
X03473Y01287*
X03466Y01296*
X03457Y01303*
X03446Y01308*
X03435Y01309*
X03423Y01308*
X03421Y01307*
X03411Y01317*
X03412Y01321*
X03416Y01324*
X03423Y01321*
X03435Y01320*
X03446Y01321*
X03457Y01326*
X03460Y01328*
X03464Y01325*
Y01315*
X03466Y01307*
X03470Y01300*
X03492Y01278*
X03491Y01276*
X03490Y01265*
X03491Y01253*
X03496Y01242*
X03503Y01233*
X03512Y01226*
X03523Y01221*
X03535Y01220*
X03546Y01221*
X03557Y01226*
X03566Y01233*
X03573Y01242*
X03578Y01253*
X03579Y01265*
X03578Y01276*
X03573Y01287*
X03566Y01296*
X03557Y01303*
X03546Y01308*
X03535Y01309*
X03523Y01308*
X03521Y01307*
X03507Y01321*
X03507Y01323*
X03512Y01325*
X03513Y01325*
X03523Y01321*
X03535Y01320*
X03546Y01321*
X03557Y01326*
X03560Y01328*
X03564Y01325*
Y01315*
X03566Y01307*
X03570Y01300*
X03592Y01278*
X03591Y01276*
X03590Y01265*
X03591Y01253*
X03596Y01242*
X03603Y01233*
X03612Y01226*
X03623Y01221*
X03635Y01220*
X03646Y01221*
X03657Y01226*
X03666Y01233*
X03673Y01242*
X03678Y01253*
X03679Y01265*
X03678Y01276*
X03673Y01287*
X03666Y01296*
X03657Y01303*
X03646Y01308*
X03635Y01309*
X03623Y01308*
X03621Y01307*
X03607Y01321*
X03607Y01323*
X03612Y01325*
X03613Y01325*
X03623Y01321*
X03635Y01320*
X03646Y01321*
X03657Y01326*
X03660Y01328*
X03664Y01325*
Y01315*
X03666Y01307*
X03670Y01300*
X03692Y01278*
X03691Y01276*
X03690Y01265*
X03691Y01253*
X03696Y01242*
X03703Y01233*
X03712Y01226*
X03723Y01221*
X03735Y01220*
X03746Y01221*
X03757Y01226*
X03766Y01233*
X03773Y01242*
X03778Y01253*
X03779Y01265*
X03778Y01276*
X03773Y01287*
X03766Y01296*
X03757Y01303*
X03746Y01308*
X03735Y01309*
X03723Y01308*
X03721Y01307*
X03707Y01321*
X03707Y01323*
X03712Y01325*
X03713Y01325*
X03723Y01321*
X03735Y01320*
X03746Y01321*
X03757Y01326*
X03766Y01333*
X03773Y01342*
X03778Y01353*
X03779Y01365*
X03778Y01376*
X03773Y01387*
X03766Y01396*
X03760Y01401*
X03760Y01406*
X03849Y01495*
X03853Y01502*
X03854Y01504*
X03869*
Y01571*
Y01610*
X03888Y01629*
X03890Y01629*
X03898Y01630*
X03905Y01633*
X03911Y01638*
X03916Y01644*
X03920Y01652*
X03921Y01660*
X03920Y01668*
X03916Y01675*
X03911Y01681*
X03910Y01683*
Y01945*
X03908Y01952*
X03904Y01959*
X03864Y01999*
X03857Y02003*
X03857Y02003*
X03857Y02004*
X03856Y02009*
X03861Y02013*
X03866Y02019*
X03870Y02027*
X03871Y02035*
X03870Y02043*
X03866Y02050*
X03861Y02056*
X03857Y02060*
X03857Y02066*
X03858Y02066*
X03862Y02072*
X03865Y02078*
X03865Y02080*
X03840*
Y02085*
X03835*
Y02110*
X03833Y02110*
X03827Y02107*
X03821Y02103*
X03817Y02098*
X03816Y02094*
X03815Y02094*
X03810Y02094*
X03806Y02100*
X03799Y02105*
X03791Y02107*
X03764*
Y02085*
X03759*
Y02080*
X03706*
X03707Y02076*
X03712Y02069*
X03718Y02065*
X03718Y02060*
X03718Y02059*
X03714Y02058*
X03708Y02054*
X03704Y02048*
X03701Y02042*
X03700Y02035*
X03701Y02028*
X03704Y02021*
X03708Y02015*
X03712Y02013*
X03712Y02012*
Y02007*
X03712Y02007*
X03708Y02004*
X03704Y01998*
X03701Y01992*
X03700Y01985*
X03701Y01978*
X03704Y01971*
X03706Y01969*
X03704Y01963*
X03703Y01962*
X03698Y01965*
X03690Y01966*
X03682Y01965*
X03674Y01961*
X03668Y01956*
X03663Y01950*
X03660Y01943*
X03655Y01944*
Y02020*
X03653Y02027*
X03649Y02034*
X03634Y02049*
X03627Y02053*
X03620Y02055*
X03619*
X03617Y02057*
X03617Y02057*
Y02062*
X03617Y02063*
X03621Y02065*
X03625Y02071*
X03628Y02078*
X03629Y02085*
X03628Y02092*
X03625Y02098*
X03621Y02104*
X03617Y02107*
X03617Y02107*
Y02112*
X03617Y02113*
X03621Y02115*
X03625Y02121*
X03628Y02128*
X03629Y02135*
X03628Y02142*
X03625Y02148*
X03621Y02154*
X03617Y02157*
X03617Y02157*
Y02162*
X03617Y02163*
X03621Y02165*
X03625Y02171*
X03628Y02178*
X03629Y02185*
X03628Y02192*
X03625Y02198*
X03621Y02204*
X03615Y02208*
X03609Y02211*
X03602Y02212*
X03539*
X03532Y02211*
X03525Y02208*
X03521Y02205*
X03488*
X03444Y02249*
X03446Y02253*
X04036*
X04083Y02206*
Y02057*
X04085Y02050*
X04089Y02043*
X04328Y01804*
X04335Y01800*
X04342Y01798*
X04450*
X04477Y01771*
Y01602*
X04478Y01594*
X04483Y01587*
X04560Y01510*
X04567Y01506*
X04575Y01504*
X04591*
X04594Y01499*
X04590Y01494*
X04586Y01485*
X04585Y01480*
X04625*
X04664*
X04663Y01485*
X04659Y01494*
X04655Y01499*
X04658Y01504*
X04675*
X04682Y01506*
X04689Y01510*
X04711Y01532*
X04713Y01531*
X04725Y01530*
X04736Y01531*
X04747Y01536*
X04756Y01543*
X04763Y01552*
X04768Y01563*
X04769Y01575*
X04768Y01586*
X04763Y01597*
X04758Y01604*
X04760Y01609*
X04770*
X04777Y01611*
X04784Y01615*
X04825Y01656*
X04829Y01663*
X04831Y01671*
Y02404*
X04829Y02411*
X04825Y02418*
X04764Y02479*
X04761Y02481*
X04760Y02488*
X04763Y02492*
X04768Y02503*
X04769Y02515*
X04768Y02526*
X04763Y02537*
X04756Y02546*
X04747Y02553*
X04736Y02558*
X04725Y02559*
X04713Y02558*
X04702Y02553*
X04693Y02546*
X04686Y02537*
X04683Y02531*
X04680Y02529*
X04673Y02522*
X04668Y02523*
X04668Y02526*
X04663Y02537*
X04656Y02546*
X04647Y02553*
X04636Y02558*
X04625Y02559*
X04613Y02558*
X04602Y02553*
X04593Y02546*
X04586Y02537*
X04581Y02526*
X04580Y02515*
X04581Y02503*
X04582Y02501*
X04425Y02344*
X04286*
X04165Y02465*
X04167Y02469*
X04300*
X04307Y02471*
X04314Y02475*
X04359Y02520*
X04363Y02527*
X04365Y02535*
Y02671*
X04608Y02914*
X04740*
X04747Y02916*
X04754Y02920*
X04784Y02950*
X04788Y02957*
X04790Y02965*
Y03065*
X04788Y03072*
X04784Y03079*
X04759Y03104*
X04756Y03106*
X04753Y03112*
X04746Y03121*
X04737Y03128*
X04726Y03133*
X04715Y03134*
X04703Y03133*
X04692Y03128*
X04689Y03126*
X04683Y03128*
X04683Y03129*
X04701Y03147*
X04703Y03146*
X04715Y03145*
X04726Y03146*
X04737Y03151*
X04746Y03158*
X04753Y03167*
X04758Y03178*
X04759Y03190*
X04758Y03201*
X04753Y03212*
X04746Y03221*
X04737Y03228*
X04726Y03233*
X04715Y03234*
X04703Y03233*
X04692Y03228*
X04683Y03221*
X04676Y03212*
X04671Y03201*
X04670Y03190*
X04671Y03178*
X04672Y03176*
X04645Y03149*
X04641Y03142*
X04639Y03135*
Y03033*
X04326Y02720*
X03940*
X03932Y02718*
X03925Y02714*
X03902Y02691*
X03898Y02694*
X03900Y02698*
X03900Y02700*
X03880*
Y02679*
X03881Y02679*
X03888Y02682*
X03892Y02685*
X03895Y02683*
X03896Y02682*
X03894Y02675*
Y02584*
X03878*
Y02555*
X03868*
Y02584*
X03843*
Y02589*
X03840*
X03839Y02594*
X03840Y02594*
X03846Y02599*
X03851Y02605*
X03854Y02613*
X03855Y02621*
Y02650*
X03854Y02658*
X03851Y02666*
X03846Y02672*
X03840Y02677*
X03832Y02680*
X03825Y02681*
X03784*
X03777Y02680*
X03769Y02677*
X03763Y02672*
X03758Y02666*
X03751*
X03746Y02672*
X03740Y02677*
Y02784*
X04335*
X04342Y02785*
X04350Y02788*
X04356Y02793*
X04456Y02893*
X04461Y02899*
X04464Y02907*
X04465Y02915*
Y02957*
X04485*
Y03081*
X04384*
Y02957*
X04404*
Y02927*
X04322Y02845*
X03457*
X03447Y02855*
X03449Y02860*
X04310*
X04370Y02920*
Y03260*
X04420Y03310*
Y03939*
X04931*
Y01045*
G37*
G36*
X02331Y03207D02*
X02357D01*
X02366Y03209*
X02369Y03211*
X02374Y03209*
Y03195*
X02375Y03187*
X02378Y03179*
X02383Y03173*
X02423Y03133*
X02429Y03128*
X02432Y03127*
Y03114*
X02422*
Y03056*
X02417Y03054*
X02413Y03057*
X02406Y03060*
X02405Y03060*
Y03035*
Y03009*
X02406Y03009*
X02413Y03012*
X02418Y03016*
X02422Y03022*
X02423Y03025*
X02432*
Y03018*
X02433Y03011*
X02436Y03003*
X02441Y02997*
X02449Y02988*
Y02965*
X02430*
Y02933*
X02425*
Y02928*
X02395*
Y02903*
X02390*
Y02829*
X02516*
X02519*
X02521Y02825*
X02521Y02825*
X02522Y02823*
X02521Y02821*
X02519Y02814*
X02334*
X02300Y02848*
Y02853*
X02329*
Y03100*
X02220*
Y02978*
X02159*
Y02995*
X02090*
Y02921*
X02095*
Y02896*
X02125*
X02154*
Y02921*
X02159*
Y02938*
X02220*
Y02853*
X02259*
Y02840*
X02261Y02832*
X02265Y02825*
X02306Y02785*
X02265Y02744*
X02261Y02737*
X02259Y02730*
Y02726*
X02220*
Y02711*
X02159*
Y02728*
X02154*
Y02753*
X02095*
Y02728*
X02090*
Y02654*
X02159*
Y02671*
X02220*
Y02479*
X02329*
Y02726*
X02311*
X02309Y02730*
X02332Y02753*
X02410*
X02414Y02748*
X02414Y02745*
X02415Y02737*
X02418Y02729*
X02423Y02723*
X02429Y02718*
X02437Y02715*
X02445Y02714*
X02449Y02714*
X02455Y02712*
X02458Y02704*
X02463Y02698*
X02468Y02694*
X02469Y02688*
X02432Y02651*
X02431Y02651*
X02423Y02650*
X02416Y02647*
X02410Y02642*
X02405Y02636*
X02402Y02629*
X02401Y02621*
Y02454*
X02394*
Y02390*
X02375*
Y02394*
X02301*
Y02389*
X02276*
Y02360*
Y02330*
X02301*
Y02325*
X02309*
Y02200*
X02310Y02192*
X02313Y02184*
X02318Y02178*
X02349Y02147*
Y02025*
Y01675*
Y01622*
X02288Y01561*
X02283Y01555*
X02280Y01547*
X02279Y01540*
Y01528*
X02265*
Y01517*
X02254*
Y01528*
X02165*
Y01517*
X02154*
Y01528*
X02065*
Y01517*
X02054*
Y01528*
X01965*
Y01517*
X01907*
X01899Y01516*
X01892Y01513*
X01886Y01508*
X01881Y01502*
X01878Y01495*
X01877Y01487*
Y01279*
X01862Y01265*
X01837*
X01836Y01266*
X01827Y01273*
X01816Y01278*
X01805Y01279*
X01793Y01278*
X01782Y01273*
X01773Y01266*
X01772Y01265*
X01737*
X01736Y01266*
X01727Y01273*
X01716Y01278*
X01705Y01279*
X01693Y01278*
X01682Y01273*
X01673Y01266*
X01672Y01265*
X01637*
X01636Y01266*
X01627Y01273*
X01616Y01278*
X01605Y01279*
X01593Y01278*
X01582Y01273*
X01573Y01266*
X01572Y01265*
X01537*
X01536Y01266*
X01527Y01273*
X01516Y01278*
X01505Y01279*
X01498Y01279*
X01403Y01374*
Y01911*
X01408Y01914*
X01410Y01913*
Y01896*
Y01829*
X01479*
Y01830*
X01506*
X01508Y01828*
X01540Y01795*
X01547Y01791*
X01555Y01789*
X01630*
Y01774*
X01699*
Y01789*
X01709*
Y01775*
X01783*
Y01604*
X01782Y01603*
X01773Y01596*
X01772Y01595*
X01737*
X01736Y01596*
X01727Y01603*
X01716Y01608*
X01705Y01609*
X01693Y01608*
X01682Y01603*
X01673Y01596*
X01672Y01595*
X01637*
X01636Y01596*
X01627Y01603*
X01616Y01608*
X01605Y01609*
X01593Y01608*
X01582Y01603*
X01573Y01596*
X01572Y01595*
X01537*
X01536Y01596*
X01527Y01603*
X01516Y01608*
X01505Y01609*
X01493Y01608*
X01482Y01603*
X01473Y01596*
X01466Y01587*
X01461Y01576*
X01460Y01565*
X01461Y01553*
X01466Y01542*
X01473Y01533*
X01474Y01532*
Y01509*
X01460*
Y01420*
X01549*
Y01434*
X01572*
X01573Y01433*
X01582Y01426*
X01593Y01421*
X01605Y01420*
X01616Y01421*
X01627Y01426*
X01636Y01433*
X01637Y01434*
X01672*
X01673Y01433*
X01682Y01426*
X01693Y01421*
X01705Y01420*
X01716Y01421*
X01727Y01426*
X01736Y01433*
X01737Y01434*
X01772*
X01773Y01433*
X01782Y01426*
X01793Y01421*
X01805Y01420*
X01816Y01421*
X01827Y01426*
X01836Y01433*
X01843Y01442*
X01848Y01453*
X01849Y01465*
X01848Y01476*
X01843Y01487*
X01843Y01487*
Y01542*
X01843Y01542*
X01848Y01553*
X01849Y01565*
X01848Y01576*
X01843Y01587*
X01843Y01587*
Y01775*
X01850*
Y01840*
X01856*
X01864Y01832*
X01871Y01827*
X01878Y01824*
X01886Y01823*
X01973*
X01981Y01816*
Y01790*
X01984*
Y01740*
X01980*
Y01666*
X01985*
Y01658*
X01980Y01655*
X01978Y01657*
X01971Y01660*
X01970Y01660*
Y01635*
Y01609*
X01971Y01609*
X01978Y01612*
X01980Y01614*
X01985Y01611*
Y01604*
X02010*
Y01636*
X02015*
Y01641*
X02044*
Y01666*
X02049*
Y01740*
X02045*
Y01790*
X02056*
Y01859*
X02023*
X02007Y01875*
X02001Y01880*
X01994Y01883*
X01986Y01884*
X01898*
X01895Y01887*
Y01969*
X02135*
X02140Y01970*
X02145Y01974*
X02149Y01979*
X02150Y01985*
Y02285*
X02149Y02290*
X02145Y02295*
X02140Y02299*
X02135Y02300*
X02055*
X02051Y02302*
Y02393*
X02045*
Y02402*
X02054Y02411*
X02058Y02417*
X02061Y02424*
X02062Y02430*
X02083*
Y02460*
X02088*
Y02465*
X02120*
Y02489*
X02124Y02490*
X02133*
Y02525*
X02097*
Y02535*
X02133*
Y02569*
Y02570*
Y02605*
X02097*
Y02610*
X02092*
Y02649*
X02063*
Y02654*
X02052*
Y03023*
X02076Y03047*
X02158*
X02165Y03048*
X02173Y03051*
X02179Y03056*
X02183Y03060*
X02188Y03066*
X02191Y03074*
X02192Y03082*
Y03133*
X02271Y03212*
X02273Y03215*
X02278Y03214*
X02278Y03214*
X02286Y03209*
X02294Y03207*
X02321*
Y03230*
X02331*
Y03207*
G37*
G36*
X03186Y03681D02*
D01*
X03194Y03675*
X03204Y03671*
X03215Y03669*
X03328*
X03348Y03649*
X03346Y03644*
X03322*
Y03605*
Y03565*
X03351*
Y03560*
X03362*
Y03451*
X03357Y03447*
X03352Y03447*
X03229*
Y03450*
X03169*
Y03458*
X03080*
Y03376*
X03085*
Y03347*
X03125*
Y03342*
X03130*
Y03307*
X03164*
Y03310*
X03165Y03314*
X03190*
Y03346*
X03195*
Y03351*
X03224*
Y03376*
X03229*
Y03387*
X03283*
X03285Y03382*
X03280Y03375*
X03276Y03365*
X03275Y03360*
X03354*
X03354Y03365*
X03353Y03366*
X03357Y03369*
X03369Y03357*
X03369Y03355*
X03371Y03343*
X03375Y03332*
X03379Y03327*
X03358Y03306*
X03353Y03300*
X03350Y03292*
X03349Y03285*
Y02880*
X03350Y02872*
X03353Y02864*
X03358Y02858*
X03423Y02793*
X03429Y02788*
X03437Y02785*
X03445Y02784*
X03679*
Y02680*
X03677Y02680*
X03669Y02677*
X03663Y02672*
X03658Y02666*
X03657Y02663*
X03652*
X03651Y02666*
X03646Y02672*
X03640Y02677*
X03632Y02680*
X03625Y02681*
X03584*
X03577Y02680*
X03569Y02677*
X03563Y02672*
X03558Y02666*
X03555Y02658*
X03555Y02653*
X03550Y02653*
X03548Y02660*
X03543Y02668*
X03534Y02674*
X03525Y02676*
X03516*
X03515Y02681*
X03518Y02682*
X03523Y02686*
X03527Y02692*
X03530Y02698*
X03530Y02700*
X03479*
X03479Y02698*
X03482Y02692*
X03486Y02686*
X03492Y02682*
X03494Y02681*
X03493Y02676*
X03484*
X03475Y02674*
X03466Y02668*
X03461Y02660*
X03459Y02650*
Y02641*
X03505*
Y02636*
X03510*
Y02595*
X03525*
X03534Y02597*
X03543Y02603*
X03548Y02611*
X03550Y02618*
X03555Y02618*
X03555Y02613*
X03558Y02605*
X03560Y02603*
X03552Y02594*
X03548Y02589*
X03536*
Y02584*
X03511*
Y02555*
X03506*
Y02550*
X03474*
Y02530*
X03391*
X03389Y02534*
X03390Y02537*
X03391Y02545*
X03390Y02553*
X03386Y02560*
X03381Y02566*
X03380Y02568*
Y02656*
X03381Y02658*
X03386Y02664*
X03390Y02672*
X03391Y02680*
X03390Y02688*
X03386Y02695*
X03381Y02701*
X03375Y02706*
X03368Y02710*
X03360Y02711*
X03352Y02710*
X03344Y02706*
X03338Y02701*
X03333Y02695*
X03330Y02688*
X03329Y02685*
X03324Y02685*
Y02700*
X03255*
X03250Y02699*
X03245Y02700*
X03234*
X03233Y02702*
X03226Y02711*
X03217Y02718*
X03206Y02723*
X03195Y02724*
X03183Y02723*
X03172Y02718*
X03163Y02711*
X03156Y02702*
X03151Y02691*
X03150Y02680*
X03151Y02668*
X03156Y02657*
X03163Y02648*
X03172Y02641*
X03183Y02636*
X03195Y02635*
X03206Y02636*
X03217Y02641*
X03226Y02648*
X03232Y02656*
X03237Y02657*
X03239Y02657*
X03247Y02649*
X03253Y02644*
X03255Y02644*
Y02605*
X03239*
Y02624*
X03150*
Y02550*
X03145Y02548*
X03115Y02579*
Y02700*
X03113Y02707*
X03109Y02714*
X03079Y02744*
X03079Y02745*
X03093Y02759*
X03155*
X03156Y02757*
X03163Y02748*
X03172Y02741*
X03183Y02736*
X03195Y02735*
X03206Y02736*
X03217Y02741*
X03226Y02748*
X03227Y02749*
X03255*
Y02744*
X03324*
Y02811*
Y02885*
X03310*
Y02906*
X03311Y02908*
X03316Y02914*
X03320Y02922*
X03321Y02930*
X03320Y02938*
X03316Y02945*
X03311Y02951*
X03305Y02956*
X03298Y02960*
X03290Y02961*
X03282Y02960*
X03274Y02956*
X03268Y02951*
X03263Y02945*
X03260Y02938*
X03259Y02936*
X03254Y02934*
X03244Y02944*
X03237Y02948*
X03230Y02950*
X03228*
X03225Y02955*
X03229Y02960*
X03233Y02969*
X03234Y02975*
X03195*
Y02980*
X03190*
Y03019*
X03184Y03018*
X03175Y03014*
X03166Y03008*
X03160Y02999*
X03160Y02999*
X03155Y03000*
Y03084*
X03219*
Y03089*
X03265*
X03272Y03090*
X03278Y03093*
X03282*
X03289Y03093*
X03296Y03096*
X03301Y03100*
X03306Y03106*
X03308Y03113*
X03309Y03120*
X03308Y03127*
X03306Y03133*
X03301Y03139*
X03296Y03143*
X03289Y03146*
X03282Y03147*
X03278*
X03272Y03149*
X03265Y03150*
X03219*
Y03188*
X03220Y03193*
X03309*
Y03246*
X03287*
X03283Y03253*
X03279Y03256*
X03279Y03257*
X03276Y03265*
X03271Y03271*
X03265Y03276*
X03257Y03279*
X03250Y03280*
X03150*
X03145Y03281*
X03139Y03280*
X03030*
X03022Y03279*
X03014Y03276*
X03008Y03271*
X02968Y03231*
X02963Y03225*
X02960Y03217*
X02959Y03210*
Y03097*
X02958Y03096*
X02951Y03087*
X02946Y03076*
X02945Y03065*
X02946Y03053*
X02951Y03042*
X02958Y03033*
X02967Y03026*
X02978Y03021*
X02990Y03020*
X03001Y03021*
X03012Y03026*
X03021Y03033*
X03028Y03042*
X03033Y03053*
X03034Y03065*
X03033Y03076*
X03028Y03087*
X03021Y03096*
X03020Y03097*
Y03197*
X03042Y03219*
X03139*
X03145Y03219*
X03146Y03219*
X03150Y03215*
Y03208*
X03148*
X03140Y03207*
X03134Y03202*
X03120Y03189*
X03116Y03182*
X03114Y03175*
Y03064*
X03109Y03062*
X03103Y03065*
X03095Y03066*
X03087Y03065*
X03079Y03061*
X03073Y03056*
X03068Y03050*
X03065Y03043*
X03064Y03035*
X03065Y03027*
X03068Y03019*
X03073Y03013*
X03074Y03011*
Y02985*
X03060*
Y02911*
Y02901*
X03046*
X03045Y02903*
Y02970*
X03043Y02977*
X03039Y02984*
X03024Y02999*
X03017Y03003*
X03010Y03005*
X02908*
Y03020*
X02934*
Y03109*
X02910*
Y03119*
X02924*
Y03193*
X02919*
Y03218*
X02860*
Y03193*
X02855*
Y03119*
X02869*
Y03109*
X02845*
Y03020*
X02868*
Y03012*
X02856Y03000*
X02850Y03002*
X02846Y03006*
X02840Y03011*
X02833Y03015*
X02825Y03016*
X02817Y03015*
X02809Y03011*
X02803Y03006*
X02798Y03000*
X02795Y02994*
X02784Y02983*
X02779Y02985*
Y03140*
X02778Y03148*
X02773Y03154*
X02709Y03219*
X02702Y03223*
X02695Y03225*
X02683*
X02681Y03226*
X02675Y03231*
X02668Y03235*
X02660Y03236*
X02652Y03235*
X02644Y03231*
X02638Y03226*
X02633Y03220*
X02630Y03213*
X02629Y03205*
X02629Y03200*
X02625Y03195*
X02608*
X02597Y03205*
Y03250*
X02602Y03252*
X02608Y03249*
X02610Y03249*
Y03275*
Y03300*
X02608Y03300*
X02602Y03297*
X02596Y03293*
X02592Y03288*
X02591Y03287*
X02587Y03286*
X02579Y03294*
X02572Y03298*
X02565Y03300*
X02564*
X02560Y03303*
X02556Y03304*
X02556Y03305*
X02556Y03310*
X02562Y03314*
X02567Y03321*
X02567Y03325*
X02515*
Y03335*
X02567*
X02567Y03338*
X02562Y03345*
X02556Y03349*
X02556Y03354*
X02556Y03355*
X02560Y03356*
X02565Y03360*
X02569Y03366*
X02570Y03368*
X02575Y03367*
Y03346*
X02635*
Y03371*
X02640*
X02644Y03369*
X02644Y03368*
X02652Y03365*
X02660Y03364*
X02984*
X02990Y03364*
X02998Y03365*
X03005Y03368*
X03011Y03373*
X03016Y03379*
X03020Y03387*
X03021Y03395*
X03020Y03403*
X03016Y03410*
X03011Y03416*
X03005Y03421*
X02998Y03425*
X02990Y03426*
X02984Y03425*
X02672*
X02667Y03429*
X02661Y03434*
X02654Y03437*
X02646Y03438*
X02640*
Y03445*
X02633*
X02631Y03449*
X02626Y03455*
X02605Y03477*
Y03485*
X02604Y03492*
X02601Y03500*
X02596Y03506*
X02580Y03522*
X02574Y03527*
X02566Y03530*
X02559Y03531*
X02401*
X02393Y03530*
X02385Y03527*
X02379Y03522*
X02304Y03447*
X02299Y03441*
X02296Y03433*
X02295Y03426*
Y03407*
X02294*
X02287Y03406*
X02281Y03403*
X02275Y03399*
X02271Y03393*
X02268Y03387*
X02267Y03380*
X02268Y03373*
X02271Y03366*
X02275Y03360*
X02279Y03358*
X02279Y03357*
Y03352*
X02279Y03352*
X02275Y03349*
X02271Y03343*
X02268Y03337*
X02267Y03330*
X02268Y03323*
X02271Y03316*
X02272Y03315*
X02269Y03310*
X02265*
X02257Y03309*
X02249Y03306*
X02243Y03301*
X02228Y03286*
X02223Y03280*
X02220Y03272*
X02219Y03265*
Y03246*
X02160Y03186*
X02155Y03188*
X02155Y03190*
X02154Y03205*
X02149Y03220*
X02142Y03234*
X02132Y03247*
X02119Y03257*
X02105Y03264*
X02090Y03269*
X02075Y03270*
X02059Y03269*
X02044Y03264*
X02030Y03257*
X02018Y03247*
X02008Y03234*
X02000Y03220*
X01996Y03205*
X01994Y03190*
X01996Y03174*
X02000Y03159*
X02008Y03145*
X02018Y03133*
X02030Y03123*
X02044Y03115*
X02055Y03112*
X02056Y03109*
X02055Y03106*
X02049Y03104*
X02042Y03099*
X02006Y03063*
X02001Y03059*
X01996Y03052*
X01993Y03045*
X01992Y03037*
Y02683*
X01990Y02678*
X01989Y02670*
X01990Y02662*
X01991Y02659*
X01987Y02654*
X01982*
Y02565*
Y02485*
X01984*
Y02425*
X01985Y02420*
X01985Y02418*
X01985Y02418*
X01984Y02410*
X01984Y02404*
Y02393*
X01978*
Y02302*
X01974Y02300*
X01965*
X01961Y02302*
Y02393*
X01954*
Y02401*
X01955Y02402*
X01956Y02410*
X01955Y02418*
X01954Y02418*
Y02425*
X01960*
Y02485*
X01968*
Y02565*
Y02645*
Y02734*
X01967*
Y02767*
Y03265*
X02093Y03391*
X02099Y03399*
X02104Y03409*
X02105Y03420*
Y03808*
X02116Y03819*
X02125*
Y03735*
X02214*
Y03819*
X02240*
X02242Y03814*
X02238Y03811*
X02231Y03802*
X02226Y03791*
X02225Y03780*
X02226Y03768*
X02231Y03757*
X02238Y03748*
X02247Y03741*
X02258Y03736*
X02270Y03735*
X02281Y03736*
X02292Y03741*
X02301Y03748*
X02308Y03757*
X02313Y03768*
X02314Y03780*
X02313Y03791*
X02308Y03802*
X02301Y03811*
X02298Y03814*
X02299Y03819*
X02340*
X02342Y03814*
X02338Y03811*
X02331Y03802*
X02326Y03791*
X02325Y03780*
X02326Y03768*
X02331Y03757*
X02338Y03748*
X02347Y03741*
X02358Y03736*
X02370Y03735*
X02381Y03736*
X02392Y03741*
X02401Y03748*
X02408Y03757*
X02413Y03768*
X02414Y03780*
X02413Y03791*
X02408Y03802*
X02401Y03811*
X02398Y03814*
X02399Y03819*
X02440*
X02442Y03814*
X02438Y03811*
X02431Y03802*
X02426Y03791*
X02425Y03780*
X02426Y03768*
X02431Y03757*
X02438Y03748*
X02447Y03741*
X02458Y03736*
X02470Y03735*
X02481Y03736*
X02492Y03741*
X02501Y03748*
X02508Y03757*
X02513Y03768*
X02514Y03780*
X02513Y03791*
X02508Y03802*
X02501Y03811*
X02498Y03814*
X02499Y03819*
X02540*
X02542Y03814*
X02538Y03811*
X02531Y03802*
X02526Y03791*
X02525Y03780*
X02526Y03768*
X02531Y03757*
X02538Y03748*
X02547Y03741*
X02558Y03736*
X02570Y03735*
X02581Y03736*
X02592Y03741*
X02601Y03748*
X02608Y03757*
X02613Y03768*
X02614Y03780*
X02613Y03791*
X02608Y03802*
X02601Y03811*
X02598Y03814*
X02599Y03819*
X02640*
X02642Y03814*
X02638Y03811*
X02631Y03802*
X02626Y03791*
X02625Y03780*
X02626Y03768*
X02631Y03757*
X02638Y03748*
X02647Y03741*
X02658Y03736*
X02670Y03735*
X02681Y03736*
X02692Y03741*
X02701Y03748*
X02708Y03757*
X02713Y03768*
X02714Y03780*
X02713Y03791*
X02708Y03802*
X02701Y03811*
X02698Y03814*
X02699Y03819*
X02740*
X02742Y03814*
X02738Y03811*
X02731Y03802*
X02726Y03791*
X02725Y03780*
X02726Y03768*
X02731Y03757*
X02738Y03748*
X02747Y03741*
X02758Y03736*
X02770Y03735*
X02781Y03736*
X02792Y03741*
X02801Y03748*
X02808Y03757*
X02813Y03768*
X02814Y03780*
X02813Y03791*
X02808Y03802*
X02801Y03811*
X02798Y03814*
X02799Y03819*
X02840*
X02842Y03814*
X02838Y03811*
X02831Y03802*
X02826Y03791*
X02825Y03780*
X02826Y03768*
X02831Y03757*
X02838Y03748*
X02847Y03741*
X02858Y03736*
X02870Y03735*
X02881Y03736*
X02892Y03741*
X02901Y03748*
X02908Y03757*
X02913Y03768*
X02914Y03780*
X02913Y03791*
X02908Y03802*
X02901Y03811*
X02898Y03814*
X02899Y03819*
X02949*
X02950Y03814*
X02950Y03814*
X02941Y03808*
X02935Y03799*
X02931Y03790*
X02930Y03785*
X03009*
X03008Y03790*
X03004Y03799*
X02998Y03808*
X02989Y03814*
X02989Y03814*
X02990Y03819*
X03048*
X03186Y03681*
G37*
G36*
X03624Y01808D02*
X03632Y01805D01*
X03640Y01804*
X03643Y01804*
X03645Y01799*
X03550Y01704*
X03546Y01697*
X03544Y01690*
Y01683*
X03543Y01681*
X03538Y01675*
X03535Y01668*
Y01667*
X03530*
Y01668*
X03526Y01675*
X03521Y01681*
X03520Y01683*
Y01710*
X03518Y01717*
X03514Y01724*
X03499Y01739*
X03492Y01743*
X03485Y01745*
X03478*
X03477Y01750*
X03483Y01752*
X03488Y01756*
X03492Y01762*
X03495Y01768*
X03495Y01770*
X03470*
Y01780*
X03495*
X03495Y01781*
X03493Y01784*
X03497Y01789*
X03529*
Y01801*
X03562*
X03571Y01803*
X03579Y01808*
X03602*
X03609Y01808*
X03610Y01809*
X03622*
X03624Y01808*
G37*
G36*
X03024Y02867D02*
X03030Y02862D01*
X03038Y02861*
X03060*
Y02844*
X03061Y02839*
X03041Y02820*
X03040Y02821*
X03032Y02820*
X03024Y02816*
X03018Y02811*
X03013Y02805*
X03010Y02798*
X03009Y02790*
X03009Y02787*
X03005Y02783*
X03004*
X03003Y02785*
X02975*
Y02795*
X03000*
X03000Y02796*
X02998Y02799*
X03002Y02804*
X03004*
Y02831*
X02975*
Y02841*
X03004*
Y02866*
X03009*
Y02874*
X03014Y02876*
X03024Y02867*
G37*
%LNde-110817-2*%
%LPC*%
G36*
X04360Y02085D02*
X04339D01*
X04339Y02083*
X04342Y02077*
X04346Y02071*
X04352Y02067*
X04358Y02064*
X04360Y02064*
Y02085*
G37*
G36*
Y02115D02*
X04358Y02115D01*
X04352Y02112*
X04346Y02108*
X04342Y02103*
X04339Y02096*
X04339Y02095*
X04360*
Y02115*
G37*
G36*
X02855Y01795D02*
Y01775D01*
X02875*
X02875Y01776*
X02872Y01783*
X02868Y01788*
X02863Y01792*
X02856Y01795*
X02855Y01795*
G37*
G36*
X02876Y01830D02*
X02849D01*
Y01805*
X02876*
Y01830*
G37*
G36*
X02785Y02375D02*
Y02355D01*
X02805*
X02805Y02356*
X02802Y02363*
X02798Y02368*
X02793Y02372*
X02786Y02375*
X02785Y02375*
G37*
G36*
X02846Y02480D02*
X02819D01*
Y02455*
X02846*
Y02480*
G37*
G36*
X03310Y02080D02*
X03290D01*
Y02059*
X03291Y02059*
X03298Y02062*
X03303Y02066*
X03307Y02072*
X03310Y02078*
X03310Y02080*
G37*
G36*
X03290Y02110D02*
Y02090D01*
X03310*
X03310Y02091*
X03307Y02098*
X03303Y02103*
X03298Y02107*
X03291Y02110*
X03290Y02110*
G37*
G36*
X03272Y02130D02*
X03224D01*
Y02112*
X03251*
X03259Y02114*
X03266Y02119*
X03271Y02126*
X03272Y02130*
G37*
G36*
X03251Y02157D02*
X03224D01*
Y02140*
X03272*
X03271Y02143*
X03266Y02150*
X03259Y02155*
X03251Y02157*
G37*
G36*
X03272Y02180D02*
X03224D01*
Y02162*
X03251*
X03259Y02164*
X03266Y02169*
X03271Y02176*
X03272Y02180*
G37*
G36*
X02573Y03109D02*
X02542D01*
Y03075*
X02573*
Y03109*
G37*
G36*
X02611Y03109D02*
X02584D01*
Y03085*
X02611*
Y03109*
G37*
G36*
X02573Y03065D02*
X02542D01*
Y03030*
X02573*
Y03065*
G37*
G36*
X02610Y03030D02*
X02589D01*
X02589Y03028*
X02592Y03022*
X02596Y03016*
X02602Y03012*
X02608Y03009*
X02610Y03009*
Y03030*
G37*
G36*
X02640D02*
X02620D01*
Y03009*
X02621Y03009*
X02628Y03012*
X02633Y03016*
X02637Y03022*
X02640Y03028*
X02640Y03030*
G37*
G36*
X02585Y03024D02*
X02558D01*
Y03000*
X02585*
Y03024*
G37*
G36*
X03854Y03337D02*
X03820D01*
Y03307*
X03854*
Y03337*
G37*
G36*
X03510Y03350D02*
X03475D01*
X03476Y03344*
X03480Y03334*
X03486Y03326*
X03494Y03320*
X03504Y03316*
X03510Y03315*
Y03350*
G37*
G36*
X03740Y03341D02*
X03715D01*
Y03314*
X03740*
Y03341*
G37*
G36*
X04299Y03696D02*
X04245D01*
Y03642*
X04251Y03643*
X04262Y03646*
X04273Y03652*
X04282Y03659*
X04289Y03668*
X04295Y03678*
X04298Y03689*
X04299Y03696*
G37*
G36*
X04235D02*
X04181D01*
X04181Y03689*
X04185Y03678*
X04190Y03668*
X04197Y03659*
X04206Y03652*
X04217Y03646*
X04228Y03643*
X04235Y03642*
Y03696*
G37*
G36*
Y03760D02*
X04228Y03759D01*
X04217Y03756*
X04206Y03750*
X04197Y03743*
X04190Y03734*
X04185Y03724*
X04181Y03713*
X04181Y03706*
X04235*
Y03760*
G37*
G36*
X04245D02*
Y03706D01*
X04299*
X04298Y03713*
X04295Y03724*
X04289Y03734*
X04282Y03743*
X04273Y03750*
X04262Y03756*
X04251Y03759*
X04245Y03760*
G37*
G36*
X03510Y03394D02*
X03504Y03394D01*
X03494Y03389*
X03486Y03383*
X03480Y03375*
X03476Y03365*
X03475Y03360*
X03510*
Y03394*
G37*
G36*
X03520D02*
Y03360D01*
X03554*
X03554Y03365*
X03549Y03375*
X03543Y03383*
X03535Y03389*
X03525Y03394*
X03520Y03394*
G37*
G36*
X04210Y03449D02*
Y03407D01*
X04227*
Y03428*
X04225Y03436*
X04220Y03443*
X04213Y03448*
X04210Y03449*
G37*
G36*
X03554Y03350D02*
X03520D01*
Y03315*
X03525Y03316*
X03535Y03320*
X03543Y03326*
X03549Y03334*
X03554Y03344*
X03554Y03350*
G37*
G36*
X03532Y03600D02*
X03502D01*
Y03565*
X03532*
Y03600*
G37*
G36*
Y03644D02*
X03502D01*
Y03610*
X03532*
Y03644*
G37*
G36*
X03900Y03835D02*
X03785D01*
X03777Y03834*
X03769Y03831*
X03763Y03826*
X03723Y03786*
X03718Y03780*
X03715Y03772*
X03714Y03765*
Y03450*
X03710*
Y03447*
X03645*
Y03560*
X03653*
Y03649*
X03571*
Y03644*
X03542*
Y03605*
Y03565*
X03571*
Y03560*
X03584*
Y03420*
Y03388*
X03582Y03387*
X03575Y03377*
X03571Y03366*
X03569Y03355*
X03571Y03343*
X03575Y03332*
X03579Y03327*
X03499Y03247*
X03483*
X03476Y03246*
X03470Y03243*
X03464Y03239*
X03460Y03233*
X03457Y03227*
X03456Y03220*
X03457Y03213*
X03460Y03206*
X03464Y03200*
X03470Y03196*
X03476Y03193*
X03483Y03193*
X03518*
X03525Y03193*
X03532Y03196*
X03538Y03200*
X03542Y03206*
X03545Y03213*
X03546Y03220*
X03545Y03227*
X03542Y03232*
X03620Y03310*
X03626Y03311*
X03637Y03315*
X03647Y03322*
X03654Y03332*
X03658Y03343*
X03660Y03355*
X03658Y03366*
X03654Y03377*
X03650Y03382*
X03653Y03387*
X03710*
Y03376*
X03715*
Y03351*
X03745*
Y03346*
X03750*
Y03314*
X03774*
X03775Y03310*
Y03307*
X03810*
Y03342*
X03815*
Y03347*
X03854*
Y03370*
X03864*
Y03289*
X03906*
X03907Y03285*
Y03284*
Y03252*
X03962*
Y03284*
Y03285*
X03963Y03289*
X03988*
X03989Y03289*
X04019*
X04020Y03284*
X04020Y03284*
X04000Y03264*
X03996Y03257*
X03994Y03250*
Y03196*
X03993Y03195*
X03835*
X03827Y03193*
X03820Y03189*
X03796Y03165*
X03669*
X03661Y03163*
X03655Y03159*
X03637Y03141*
X03619*
Y03158*
X03614*
Y03183*
X03585*
X03555*
Y03158*
X03550*
Y03145*
X03527*
X03525Y03146*
X03518Y03147*
X03483*
X03476Y03146*
X03470Y03143*
X03464Y03139*
X03460Y03133*
X03457Y03127*
X03456Y03120*
X03457Y03113*
X03460Y03106*
X03464Y03100*
X03470Y03096*
X03476Y03093*
X03483Y03093*
X03518*
X03525Y03093*
X03527Y03094*
X03550*
Y03084*
X03599*
X03601Y03080*
X03590Y03069*
X03586Y03062*
X03584Y03055*
X03577Y03054*
X03569Y03051*
X03563Y03046*
X03558Y03040*
X03557Y03037*
X03552*
X03551Y03040*
X03546Y03046*
X03540Y03051*
X03532Y03054*
X03525Y03055*
X03484*
X03477Y03054*
X03469Y03051*
X03463Y03046*
X03458Y03040*
X03455Y03032*
X03454Y03025*
Y02995*
X03455Y02987*
X03458Y02979*
X03463Y02973*
X03469Y02968*
X03477Y02965*
X03484Y02964*
X03525*
X03532Y02965*
X03540Y02968*
X03546Y02973*
X03551Y02979*
X03552Y02982*
X03557*
X03558Y02979*
X03563Y02973*
X03569Y02968*
X03577Y02965*
X03584Y02964*
X03625*
X03632Y02965*
X03640Y02968*
X03646Y02973*
X03651Y02979*
X03652Y02982*
X03657*
X03658Y02979*
X03663Y02973*
X03669Y02968*
X03677Y02965*
X03684Y02964*
X03725*
X03732Y02965*
X03740Y02968*
X03746Y02973*
X03751Y02979*
X03752Y02982*
X03757*
X03758Y02979*
X03763Y02973*
X03769Y02968*
X03777Y02965*
X03784Y02964*
X03825*
X03832Y02965*
X03840Y02968*
X03846Y02973*
X03851Y02979*
X03854Y02987*
X03855Y02995*
Y03025*
X03854Y03032*
X03851Y03040*
X03846Y03046*
X03841Y03049*
X03843Y03055*
X03850Y03058*
X03856Y03063*
X03861Y03069*
X03862Y03071*
X03868Y03077*
X03869Y03079*
X03874Y03078*
Y03055*
X03901*
Y03085*
X03911*
Y03055*
X03934*
X03935Y03050*
X03934Y03050*
X03928Y03045*
X03923Y03039*
X03920Y03031*
X03919Y03024*
Y02994*
X03920Y02986*
X03923Y02978*
X03928Y02972*
X03934Y02967*
X03942Y02964*
X03949Y02963*
X03990*
X03997Y02964*
X04005Y02967*
X04011Y02972*
X04016Y02978*
X04017Y02981*
X04022*
X04023Y02978*
X04028Y02972*
X04034Y02967*
X04042Y02964*
X04049Y02963*
X04090*
X04097Y02964*
X04105Y02967*
X04111Y02972*
X04116Y02978*
X04117Y02981*
X04122*
X04123Y02978*
X04128Y02972*
X04134Y02967*
X04142Y02964*
X04149Y02963*
X04190*
X04197Y02964*
X04205Y02967*
X04211Y02972*
X04216Y02978*
X04219Y02986*
X04219Y02991*
X04225Y02991*
X04226Y02984*
X04231Y02976*
X04240Y02970*
X04249Y02968*
X04265*
Y03009*
Y03049*
X04249*
X04240Y03047*
X04231Y03042*
X04226Y03033*
X04225Y03026*
X04219Y03026*
X04219Y03031*
X04216Y03039*
X04211Y03045*
X04205Y03050*
X04197Y03053*
X04193Y03053*
X04193Y03054*
X04190Y03059*
Y03114*
X04223Y03147*
X04228Y03155*
X04230Y03165*
Y03183*
X04231Y03184*
X04232Y03191*
Y03243*
X04231Y03250*
X04228Y03256*
X04224Y03262*
X04218Y03266*
X04212Y03269*
X04205Y03270*
X04198Y03269*
X04191Y03266*
X04185Y03262*
X04183Y03258*
X04182Y03258*
X04177*
X04177Y03258*
X04174Y03262*
X04168Y03266*
X04162Y03269*
X04155Y03270*
X04148Y03269*
X04141Y03266*
X04135Y03262*
X04133Y03258*
X04132Y03258*
X04127*
X04127Y03258*
X04125Y03260*
X04123Y03267*
X04119Y03274*
X04109Y03284*
X04109Y03284*
X04110Y03289*
X04210*
X04219Y03291*
X04228Y03297*
X04238Y03307*
X04324*
Y03381*
Y03463*
X04305*
Y03515*
X04303Y03524*
X04298Y03533*
X04253Y03578*
X04244Y03583*
X04235Y03585*
X04192*
X04099Y03677*
X04103Y03688*
X04104Y03701*
X04103Y03714*
X04099Y03726*
X04093Y03737*
X04085Y03747*
X04075Y03755*
X04064Y03761*
X04052Y03764*
X04040Y03766*
X04027Y03764*
X04015Y03761*
X04004Y03755*
X03994Y03747*
X03986Y03737*
X03980Y03726*
X03976Y03714*
X03975Y03701*
X03976Y03688*
X03980Y03676*
X03986Y03665*
X03994Y03655*
X04004Y03647*
X04015Y03641*
X04027Y03638*
X04040Y03636*
X04052Y03638*
X04063Y03641*
X04163Y03542*
X04171Y03536*
X04180Y03534*
X04180Y03529*
X04168*
Y03500*
Y03470*
X04195*
Y03492*
X04199Y03493*
X04202Y03487*
X04206Y03481*
X04212Y03477*
X04218Y03474*
X04220Y03474*
Y03500*
X04230*
Y03474*
X04231Y03474*
X04238Y03477*
X04243Y03481*
X04247Y03487*
X04249Y03491*
X04254Y03490*
Y03463*
X04235*
Y03381*
Y03369*
X04230Y03368*
X04228Y03369*
X04226Y03371*
X04227Y03376*
Y03397*
X04205*
Y03402*
X04200*
Y03449*
X04196Y03448*
X04189Y03443*
X04185Y03438*
X04185Y03437*
X04180Y03438*
X04178Y03447*
X04173Y03455*
X04164Y03461*
X04155Y03462*
X04145Y03461*
X04137Y03455*
X04131Y03447*
X04131Y03446*
X04125Y03444*
X04124Y03447*
X04118Y03451*
X04112Y03454*
X04105Y03455*
X04098Y03454*
X04096Y03453*
X04094Y03458*
X04101Y03465*
X04133*
Y03470*
X04158*
Y03500*
Y03529*
X04133*
Y03534*
X04059*
X04054Y03532*
X03970Y03617*
Y03765*
X03969Y03772*
X03966Y03780*
X03961Y03786*
X03921Y03826*
X03915Y03831*
X03907Y03834*
X03900Y03835*
G37*
G36*
X03962Y03242D02*
X03940D01*
Y03210*
X03962*
Y03242*
G37*
G36*
X04290Y03049D02*
X04275D01*
Y03014*
X04315*
Y03024*
X04313Y03033*
X04308Y03042*
X04299Y03047*
X04290Y03049*
G37*
G36*
X03580Y03220D02*
X03555D01*
Y03193*
X03580*
Y03220*
G37*
G36*
X03614D02*
X03590D01*
Y03193*
X03614*
Y03220*
G37*
G36*
X03930Y03242D02*
X03907D01*
Y03210*
X03930*
Y03242*
G37*
G36*
X04315Y03004D02*
X04275D01*
Y02968*
X04290*
X04299Y02970*
X04308Y02976*
X04313Y02984*
X04315Y02994*
Y03004*
G37*
G36*
X02486Y02082D02*
X02459D01*
Y02065*
X02507*
X02506Y02068*
X02501Y02075*
X02494Y02080*
X02486Y02082*
G37*
G36*
X02450Y02125D02*
X02429D01*
X02429Y02123*
X02432Y02117*
X02436Y02111*
X02442Y02107*
X02448Y02104*
X02450Y02104*
Y02125*
G37*
G36*
Y02155D02*
X02448Y02155D01*
X02442Y02152*
X02436Y02148*
X02432Y02143*
X02429Y02136*
X02429Y02135*
X02450*
Y02155*
G37*
G36*
X02795Y01990D02*
X02768D01*
Y01965*
X02795*
Y01990*
G37*
G36*
Y02024D02*
X02768D01*
Y02000*
X02795*
Y02024*
G37*
G36*
X03754Y02107D02*
X03728D01*
X03719Y02105*
X03712Y02100*
X03707Y02093*
X03706Y02090*
X03754*
Y02107*
G37*
G36*
X04320Y01704D02*
Y01670D01*
X04354*
X04353Y01675*
X04349Y01684*
X04343Y01693*
X04334Y01699*
X04325Y01703*
X04320Y01704*
G37*
G36*
X04310D02*
X04304Y01703D01*
X04295Y01699*
X04286Y01693*
X04280Y01684*
X04276Y01675*
X04275Y01670*
X04310*
Y01704*
G37*
G36*
X04210D02*
X04204Y01703D01*
X04195Y01699*
X04186Y01693*
X04180Y01684*
X04176Y01675*
X04175Y01670*
X04210*
Y01704*
G37*
G36*
X04220D02*
Y01670D01*
X04254*
X04253Y01675*
X04249Y01684*
X04243Y01693*
X04234Y01699*
X04225Y01703*
X04220Y01704*
G37*
G36*
X02675Y01765D02*
X02654D01*
X02654Y01763*
X02657Y01757*
X02661Y01751*
X02667Y01747*
X02673Y01744*
X02675Y01744*
Y01765*
G37*
G36*
X02685Y01795D02*
Y01775D01*
X02705*
X02705Y01776*
X02702Y01783*
X02698Y01788*
X02693Y01792*
X02686Y01795*
X02685Y01795*
G37*
G36*
X02705Y01765D02*
X02685D01*
Y01744*
X02686Y01744*
X02693Y01747*
X02698Y01751*
X02702Y01757*
X02705Y01763*
X02705Y01765*
G37*
G36*
X02675Y01795D02*
X02673Y01795D01*
X02667Y01792*
X02661Y01788*
X02657Y01783*
X02654Y01776*
X02654Y01775*
X02675*
Y01795*
G37*
G36*
X03791Y02207D02*
X03764D01*
Y02190*
X03812*
X03811Y02193*
X03806Y02200*
X03799Y02205*
X03791Y02207*
G37*
G36*
X03754Y02180D02*
X03706D01*
X03707Y02176*
X03712Y02169*
X03719Y02164*
X03728Y02162*
X03754*
Y02180*
G37*
G36*
X03812D02*
X03764D01*
Y02162*
X03791*
X03799Y02164*
X03806Y02169*
X03811Y02176*
X03812Y02180*
G37*
G36*
X03754Y02207D02*
X03728D01*
X03719Y02205*
X03712Y02200*
X03707Y02193*
X03706Y02190*
X03754*
Y02207*
G37*
G36*
Y02130D02*
X03706D01*
X03707Y02126*
X03712Y02119*
X03719Y02114*
X03728Y02112*
X03754*
Y02130*
G37*
G36*
X03812D02*
X03764D01*
Y02112*
X03791*
X03799Y02114*
X03806Y02119*
X03811Y02126*
X03812Y02130*
G37*
G36*
X03845Y02110D02*
Y02090D01*
X03865*
X03865Y02091*
X03862Y02098*
X03858Y02103*
X03853Y02107*
X03846Y02110*
X03845Y02110*
G37*
G36*
X02859Y02180D02*
X02825D01*
Y02145*
X02830Y02146*
X02839Y02150*
X02848Y02156*
X02854Y02165*
X02858Y02174*
X02859Y02180*
G37*
G36*
X03754Y02157D02*
X03728D01*
X03719Y02155*
X03712Y02150*
X03707Y02143*
X03706Y02140*
X03754*
Y02157*
G37*
G36*
X03791D02*
X03764D01*
Y02140*
X03812*
X03811Y02143*
X03806Y02150*
X03799Y02155*
X03791Y02157*
G37*
G36*
X04120Y01704D02*
Y01670D01*
X04154*
X04153Y01675*
X04149Y01684*
X04143Y01693*
X04134Y01699*
X04125Y01703*
X04120Y01704*
G37*
G36*
X04010Y01560D02*
X03975D01*
Y01525*
X04010*
Y01560*
G37*
G36*
X04054D02*
X04020D01*
Y01525*
X04054*
Y01560*
G37*
G36*
X04110D02*
X04075D01*
X04076Y01554*
X04080Y01545*
X04086Y01536*
X04095Y01530*
X04104Y01526*
X04110Y01525*
Y01560*
G37*
G36*
X04764Y01470D02*
X04730D01*
Y01435*
X04735Y01436*
X04744Y01440*
X04753Y01446*
X04759Y01455*
X04763Y01464*
X04764Y01470*
G37*
G36*
X04720Y01514D02*
X04714Y01513D01*
X04705Y01509*
X04696Y01503*
X04690Y01494*
X04686Y01485*
X04685Y01480*
X04720*
Y01514*
G37*
G36*
X04730D02*
Y01480D01*
X04764*
X04763Y01485*
X04759Y01494*
X04753Y01503*
X04744Y01509*
X04735Y01513*
X04730Y01514*
G37*
G36*
X04310Y01560D02*
X04275D01*
X04276Y01554*
X04280Y01545*
X04286Y01536*
X04295Y01530*
X04304Y01526*
X04310Y01525*
Y01560*
G37*
G36*
X04354D02*
X04320D01*
Y01525*
X04325Y01526*
X04334Y01530*
X04343Y01536*
X04349Y01545*
X04353Y01554*
X04354Y01560*
G37*
G36*
X04010Y01604D02*
X03975D01*
Y01570*
X04010*
Y01604*
G37*
G36*
X04154Y01560D02*
X04120D01*
Y01525*
X04125Y01526*
X04134Y01530*
X04143Y01536*
X04149Y01545*
X04153Y01554*
X04154Y01560*
G37*
G36*
X04210D02*
X04175D01*
X04176Y01554*
X04180Y01545*
X04186Y01536*
X04195Y01530*
X04204Y01526*
X04210Y01525*
Y01560*
G37*
G36*
X04254D02*
X04220D01*
Y01525*
X04225Y01526*
X04234Y01530*
X04243Y01536*
X04249Y01545*
X04253Y01554*
X04254Y01560*
G37*
G36*
X04790Y01277D02*
X04771Y01275D01*
X04754Y01270*
X04737Y01261*
X04723Y01249*
X04711Y01235*
X04703Y01219*
X04697Y01201*
X04695Y01183*
X04697Y01164*
X04703Y01147*
X04711Y01130*
X04723Y01116*
X04737Y01104*
X04754Y01096*
X04771Y01090*
X04790Y01089*
X04808Y01090*
X04826Y01096*
X04842Y01104*
X04856Y01116*
X04868Y01130*
X04877Y01147*
X04882Y01164*
X04884Y01183*
X04882Y01201*
X04877Y01219*
X04868Y01235*
X04856Y01249*
X04842Y01261*
X04826Y01270*
X04808Y01275*
X04790Y01277*
G37*
G36*
X03885Y01121D02*
X03883Y01121D01*
X03877Y01119*
X03871Y01114*
X03867Y01109*
X03864Y01103*
X03864Y01101*
X03885*
Y01121*
G37*
G36*
X03895D02*
Y01101D01*
X03915*
X03915Y01103*
X03912Y01109*
X03908Y01114*
X03903Y01119*
X03896Y01121*
X03895Y01121*
G37*
G36*
X03885Y01091D02*
X03864D01*
X03864Y01089*
X03867Y01083*
X03871Y01078*
X03877Y01074*
X03883Y01071*
X03885Y01071*
Y01091*
G37*
G36*
X03915D02*
X03895D01*
Y01071*
X03896Y01071*
X03903Y01074*
X03908Y01078*
X03912Y01083*
X03915Y01089*
X03915Y01091*
G37*
G36*
X01336Y01277D02*
X01317Y01275D01*
X01300Y01270*
X01283Y01261*
X01269Y01249*
X01257Y01235*
X01249Y01219*
X01243Y01201*
X01242Y01183*
X01243Y01164*
X01249Y01147*
X01257Y01130*
X01269Y01116*
X01283Y01104*
X01300Y01096*
X01317Y01090*
X01336Y01089*
X01354Y01090*
X01372Y01096*
X01388Y01104*
X01402Y01116*
X01414Y01130*
X01423Y01147*
X01428Y01164*
X01430Y01183*
X01428Y01201*
X01423Y01219*
X01414Y01235*
X01402Y01249*
X01388Y01261*
X01372Y01270*
X01354Y01275*
X01336Y01277*
G37*
G36*
X04620Y01470D02*
X04585D01*
X04586Y01464*
X04590Y01455*
X04596Y01446*
X04605Y01440*
X04614Y01436*
X04620Y01435*
Y01470*
G37*
G36*
X04720D02*
X04685D01*
X04686Y01464*
X04690Y01455*
X04696Y01446*
X04705Y01440*
X04714Y01436*
X04720Y01435*
Y01470*
G37*
G36*
X04664D02*
X04630D01*
Y01435*
X04635Y01436*
X04644Y01440*
X04653Y01446*
X04659Y01455*
X04663Y01464*
X04664Y01470*
G37*
G36*
X03890Y01365D02*
X03865D01*
Y01338*
X03890*
Y01365*
G37*
G36*
X03924D02*
X03900D01*
Y01338*
X03924*
Y01365*
G37*
G36*
X04315Y01409D02*
X04303Y01408D01*
X04292Y01403*
X04283Y01396*
X04282Y01395*
X04247*
X04246Y01396*
X04237Y01403*
X04226Y01408*
X04215Y01409*
X04203Y01408*
X04192Y01403*
X04183Y01396*
X04182Y01395*
X04147*
X04146Y01396*
X04137Y01403*
X04126Y01408*
X04115Y01409*
X04103Y01408*
X04092Y01403*
X04083Y01396*
X04082Y01395*
X04047*
X04046Y01396*
X04037Y01403*
X04026Y01408*
X04015Y01409*
X04003Y01408*
X03992Y01403*
X03983Y01396*
X03976Y01387*
X03971Y01376*
X03970Y01365*
X03971Y01353*
X03976Y01342*
X03983Y01333*
X03992Y01326*
X04003Y01321*
X04015Y01320*
X04026Y01321*
X04037Y01326*
X04046Y01333*
X04047Y01334*
X04082*
X04083Y01333*
X04092Y01326*
X04103Y01321*
X04115Y01320*
X04126Y01321*
X04137Y01326*
X04146Y01333*
X04147Y01334*
X04182*
X04183Y01333*
X04192Y01326*
X04203Y01321*
X04215Y01320*
X04226Y01321*
X04237Y01326*
X04246Y01333*
X04247Y01334*
X04282*
X04283Y01333*
X04284Y01332*
Y01297*
X04283Y01296*
X04282Y01295*
X04247*
X04246Y01296*
X04237Y01303*
X04226Y01308*
X04215Y01309*
X04203Y01308*
X04192Y01303*
X04183Y01296*
X04182Y01295*
X04147*
X04146Y01296*
X04137Y01303*
X04126Y01308*
X04115Y01309*
X04103Y01308*
X04092Y01303*
X04083Y01296*
X04082Y01295*
X04059*
Y01309*
X03970*
Y01296*
X03929*
Y01303*
X03924*
Y01328*
X03865*
Y01303*
X03860*
Y01229*
X03929*
Y01236*
X03970*
Y01220*
X04059*
Y01234*
X04082*
X04083Y01233*
X04092Y01226*
X04103Y01221*
X04115Y01220*
X04126Y01221*
X04137Y01226*
X04146Y01233*
X04147Y01234*
X04182*
X04183Y01233*
X04192Y01226*
X04203Y01221*
X04215Y01220*
X04226Y01221*
X04237Y01226*
X04246Y01233*
X04247Y01234*
X04282*
X04283Y01233*
X04292Y01226*
X04303Y01221*
X04315Y01220*
X04326Y01221*
X04337Y01226*
X04346Y01233*
X04353Y01242*
X04358Y01253*
X04359Y01265*
X04358Y01276*
X04353Y01287*
X04346Y01296*
X04345Y01297*
Y01332*
X04346Y01333*
X04353Y01342*
X04358Y01353*
X04359Y01365*
X04358Y01376*
X04353Y01387*
X04346Y01396*
X04337Y01403*
X04326Y01408*
X04315Y01409*
G37*
G36*
X04054Y01604D02*
X04020D01*
Y01570*
X04054*
Y01604*
G37*
G36*
X04210Y01660D02*
X04175D01*
X04176Y01654*
X04180Y01645*
X04186Y01636*
X04195Y01630*
X04204Y01626*
X04210Y01625*
Y01660*
G37*
G36*
X04254D02*
X04220D01*
Y01625*
X04225Y01626*
X04234Y01630*
X04243Y01636*
X04249Y01645*
X04253Y01654*
X04254Y01660*
G37*
G36*
X04310D02*
X04275D01*
X04276Y01654*
X04280Y01645*
X04286Y01636*
X04295Y01630*
X04304Y01626*
X04310Y01625*
Y01660*
G37*
G36*
X04054D02*
X04020D01*
Y01625*
X04025Y01626*
X04034Y01630*
X04043Y01636*
X04049Y01645*
X04053Y01654*
X04054Y01660*
G37*
G36*
X04110D02*
X04075D01*
X04076Y01654*
X04080Y01645*
X04086Y01636*
X04095Y01630*
X04104Y01626*
X04110Y01625*
Y01660*
G37*
G36*
X04154D02*
X04120D01*
Y01625*
X04125Y01626*
X04134Y01630*
X04143Y01636*
X04149Y01645*
X04153Y01654*
X04154Y01660*
G37*
G36*
X04010Y01704D02*
X04004Y01703D01*
X03995Y01699*
X03986Y01693*
X03980Y01684*
X03976Y01675*
X03975Y01670*
X04010*
Y01704*
G37*
G36*
X04020D02*
Y01670D01*
X04054*
X04053Y01675*
X04049Y01684*
X04043Y01693*
X04034Y01699*
X04025Y01703*
X04020Y01704*
G37*
G36*
X04110D02*
X04104Y01703D01*
X04095Y01699*
X04086Y01693*
X04080Y01684*
X04076Y01675*
X04075Y01670*
X04110*
Y01704*
G37*
G36*
X04354Y01660D02*
X04320D01*
Y01625*
X04325Y01626*
X04334Y01630*
X04343Y01636*
X04349Y01645*
X04353Y01654*
X04354Y01660*
G37*
G36*
X04220Y01604D02*
Y01570D01*
X04254*
X04253Y01575*
X04249Y01584*
X04243Y01593*
X04234Y01599*
X04225Y01603*
X04220Y01604*
G37*
G36*
X04310D02*
X04304Y01603D01*
X04295Y01599*
X04286Y01593*
X04280Y01584*
X04276Y01575*
X04275Y01570*
X04310*
Y01604*
G37*
G36*
X04320D02*
Y01570D01*
X04354*
X04353Y01575*
X04349Y01584*
X04343Y01593*
X04334Y01599*
X04325Y01603*
X04320Y01604*
G37*
G36*
X04110D02*
X04104Y01603D01*
X04095Y01599*
X04086Y01593*
X04080Y01584*
X04076Y01575*
X04075Y01570*
X04110*
Y01604*
G37*
G36*
X04120D02*
Y01570D01*
X04154*
X04153Y01575*
X04149Y01584*
X04143Y01593*
X04134Y01599*
X04125Y01603*
X04120Y01604*
G37*
G36*
X04210D02*
X04204Y01603D01*
X04195Y01599*
X04186Y01593*
X04180Y01584*
X04176Y01575*
X04175Y01570*
X04210*
Y01604*
G37*
G36*
X04010Y01660D02*
X03975D01*
X03976Y01654*
X03980Y01645*
X03986Y01636*
X03995Y01630*
X04004Y01626*
X04010Y01625*
Y01660*
G37*
G36*
X01550Y03329D02*
X01523D01*
Y03305*
X01550*
Y03329*
G37*
G36*
X04710Y03285D02*
X04675D01*
X04676Y03279*
X04680Y03270*
X04686Y03261*
X04695Y03255*
X04704Y03251*
X04710Y03250*
Y03285*
G37*
G36*
X04754D02*
X04720D01*
Y03250*
X04725Y03251*
X04734Y03255*
X04743Y03261*
X04749Y03270*
X04753Y03279*
X04754Y03285*
G37*
G36*
X04610Y03266D02*
X04509D01*
Y03234*
X04485*
Y03243*
X04384*
Y03118*
X04485*
Y03174*
X04509*
Y03142*
X04610*
Y03266*
G37*
G36*
X04710Y03329D02*
X04704Y03328D01*
X04695Y03324*
X04686Y03318*
X04680Y03309*
X04676Y03300*
X04675Y03295*
X04710*
Y03329*
G37*
G36*
X04720D02*
Y03295D01*
X04754*
X04753Y03300*
X04749Y03309*
X04743Y03318*
X04734Y03324*
X04725Y03328*
X04720Y03329*
G37*
G36*
X01606Y03329D02*
X01579D01*
Y03305*
X01606*
Y03329*
G37*
G36*
X01550Y03295D02*
X01523D01*
Y03270*
X01550*
Y03295*
G37*
G36*
X01606D02*
X01579D01*
Y03270*
X01606*
Y03295*
G37*
G36*
X01932Y03700D02*
X01878D01*
Y03646*
X01885Y03646*
X01896Y03650*
X01906Y03655*
X01915Y03662*
X01922Y03671*
X01928Y03682*
X01931Y03693*
X01932Y03700*
G37*
G36*
X01336Y03889D02*
X01317Y03887D01*
X01300Y03882*
X01283Y03873*
X01269Y03861*
X01257Y03847*
X01249Y03831*
X01243Y03813*
X01242Y03795*
X01243Y03776*
X01249Y03759*
X01257Y03742*
X01269Y03728*
X01283Y03716*
X01300Y03708*
X01317Y03702*
X01336Y03700*
X01354Y03702*
X01372Y03708*
X01388Y03716*
X01402Y03728*
X01414Y03742*
X01423Y03759*
X01428Y03776*
X01430Y03795*
X01428Y03813*
X01423Y03831*
X01414Y03847*
X01402Y03861*
X01388Y03873*
X01372Y03882*
X01354Y03887*
X01336Y03889*
G37*
G36*
X04785D02*
X04766Y03887D01*
X04749Y03882*
X04732Y03873*
X04718Y03861*
X04706Y03847*
X04698Y03831*
X04692Y03813*
X04690Y03795*
X04692Y03776*
X04698Y03759*
X04706Y03742*
X04718Y03728*
X04732Y03716*
X04749Y03708*
X04766Y03702*
X04785Y03700*
X04803Y03702*
X04821Y03708*
X04837Y03716*
X04851Y03728*
X04863Y03742*
X04872Y03759*
X04877Y03776*
X04879Y03795*
X04877Y03813*
X04872Y03831*
X04863Y03847*
X04851Y03861*
X04837Y03873*
X04821Y03882*
X04803Y03887*
X04785Y03889*
G37*
G36*
X01868Y03700D02*
X01814D01*
X01815Y03693*
X01818Y03682*
X01824Y03671*
X01831Y03662*
X01840Y03655*
X01850Y03650*
X01861Y03646*
X01868Y03646*
Y03700*
G37*
G36*
X01878Y03764D02*
Y03710D01*
X01932*
X01931Y03716*
X01928Y03727*
X01922Y03738*
X01915Y03747*
X01906Y03754*
X01896Y03760*
X01885Y03763*
X01878Y03764*
G37*
G36*
X01868D02*
X01861Y03763D01*
X01850Y03760*
X01840Y03754*
X01831Y03747*
X01824Y03738*
X01818Y03727*
X01815Y03716*
X01814Y03710*
X01868*
Y03764*
G37*
G36*
X04769Y03496D02*
X04745D01*
Y03469*
X04769*
Y03496*
G37*
G36*
X03870Y02730D02*
X03868Y02730D01*
X03862Y02727*
X03856Y02723*
X03852Y02718*
X03849Y02711*
X03849Y02710*
X03870*
Y02730*
G37*
G36*
X03880D02*
Y02710D01*
X03900*
X03900Y02711*
X03897Y02718*
X03893Y02723*
X03888Y02727*
X03881Y02730*
X03880Y02730*
G37*
G36*
X03870Y02700D02*
X03849D01*
X03849Y02698*
X03852Y02692*
X03856Y02686*
X03862Y02682*
X03868Y02679*
X03870Y02679*
Y02700*
G37*
G36*
X01847Y02729D02*
X01817D01*
Y02695*
X01847*
Y02729*
G37*
G36*
X01658Y02809D02*
X01653Y02808D01*
X01643Y02804*
X01635Y02798*
X01628Y02789*
X01624Y02780*
X01624Y02775*
X01658*
Y02809*
G37*
G36*
X04626Y02750D02*
X04599D01*
Y02725*
X04626*
Y02750*
G37*
G36*
X01658Y02765D02*
X01624D01*
X01624Y02759*
X01628Y02750*
X01635Y02741*
X01643Y02735*
X01653Y02731*
X01658Y02730*
Y02765*
G37*
G36*
X01702D02*
X01668D01*
Y02730*
X01673Y02731*
X01683Y02735*
X01691Y02741*
X01698Y02750*
X01701Y02759*
X01702Y02765*
G37*
G36*
X04620Y02654D02*
X04585D01*
Y02620*
X04620*
Y02654*
G37*
G36*
X04664D02*
X04630D01*
Y02620*
X04664*
Y02654*
G37*
G36*
X04620Y02610D02*
X04585D01*
Y02575*
X04620*
Y02610*
G37*
G36*
X04664D02*
X04630D01*
Y02575*
X04664*
Y02610*
G37*
G36*
X01560Y03135D02*
X01521D01*
X01522Y03128*
X01527Y03118*
X01534Y03109*
X01543Y03102*
X01553Y03097*
X01560Y03096*
Y03135*
G37*
G36*
X01608D02*
X01570D01*
Y03096*
X01576Y03097*
X01586Y03102*
X01596Y03109*
X01603Y03118*
X01607Y03128*
X01608Y03135*
G37*
G36*
X01560Y03183D02*
X01553Y03182D01*
X01543Y03178*
X01534Y03171*
X01527Y03161*
X01522Y03151*
X01521Y03145*
X01560*
Y03183*
G37*
G36*
X01570D02*
Y03145D01*
X01608*
X01607Y03151*
X01603Y03161*
X01596Y03171*
X01586Y03178*
X01576Y03182*
X01570Y03183*
G37*
G36*
X01668Y02809D02*
Y02775D01*
X01702*
X01701Y02780*
X01698Y02789*
X01691Y02798*
X01683Y02804*
X01673Y02808*
X01668Y02809*
G37*
G36*
X04622Y02864D02*
X04592D01*
Y02830*
X04622*
Y02864*
G37*
G36*
X04555Y03665D02*
X04547Y03664D01*
X04539Y03661*
X04533Y03656*
X04510Y03632*
X04505Y03626*
X04502Y03619*
X04501Y03611*
Y03604*
X04494*
Y03535*
X04568*
Y03496*
X04543Y03471*
X04538Y03465*
X04535Y03457*
X04534Y03450*
Y03428*
X04509*
Y03303*
X04610*
Y03359*
X04670*
Y03345*
X04759*
Y03434*
X04670*
Y03420*
X04610*
Y03428*
X04595*
Y03437*
X04619Y03462*
X04624Y03468*
X04625Y03470*
X04630Y03469*
Y03462*
X04665*
Y03497*
X04675*
Y03462*
X04709*
Y03465*
X04710Y03469*
X04735*
Y03501*
X04740*
Y03506*
X04769*
Y03531*
X04774*
Y03600*
X04779Y03602*
X04829Y03552*
Y02897*
X04783Y02851*
X04743*
Y02869*
X04661*
Y02864*
X04632*
Y02825*
X04627*
Y02820*
X04592*
Y02785*
X04595*
X04599Y02784*
Y02760*
X04631*
Y02755*
X04636*
Y02725*
X04661*
Y02720*
X04690*
X04694Y02715*
Y02647*
X04693Y02646*
X04686Y02637*
X04681Y02626*
X04680Y02615*
X04681Y02603*
X04686Y02592*
X04693Y02583*
X04702Y02576*
X04713Y02571*
X04725Y02570*
X04736Y02571*
X04747Y02576*
X04756Y02583*
X04763Y02592*
X04768Y02603*
X04769Y02615*
X04768Y02626*
X04763Y02637*
X04756Y02646*
X04755Y02647*
Y02728*
X04754Y02736*
X04751Y02743*
X04746Y02749*
X04735Y02761*
Y02780*
X04743*
Y02790*
X04796*
X04803Y02791*
X04811Y02794*
X04817Y02799*
X04881Y02863*
X04886Y02869*
X04889Y02877*
X04890Y02885*
Y03565*
X04889Y03572*
X04886Y03580*
X04881Y03586*
X04811Y03656*
X04805Y03661*
X04797Y03664*
X04790Y03665*
X04555*
G37*
G36*
X02190Y02091D02*
X02182Y02090D01*
X02174Y02086*
X02168Y02081*
X02163Y02075*
X02160Y02068*
X02159Y02060*
X02160Y02052*
X02163Y02044*
X02168Y02038*
X02168Y02037*
Y02032*
X02168Y02031*
X02163Y02025*
X02160Y02018*
X02159Y02010*
X02160Y02002*
X02163Y01994*
X02168Y01988*
X02168Y01987*
Y01982*
X02168Y01981*
X02163Y01975*
X02160Y01968*
X02159Y01960*
X02160Y01952*
X02163Y01944*
X02168Y01938*
X02168Y01937*
Y01932*
X02168Y01931*
X02163Y01925*
X02160Y01918*
X02159Y01910*
X02160Y01902*
X02163Y01894*
X02168Y01888*
X02168Y01887*
Y01882*
X02168Y01881*
X02163Y01875*
X02160Y01868*
X02159Y01860*
X02160Y01852*
X02163Y01844*
X02168Y01838*
X02168Y01837*
Y01832*
X02168Y01831*
X02163Y01825*
X02160Y01818*
X02159Y01810*
X02160Y01802*
X02163Y01794*
X02168Y01788*
X02168Y01787*
Y01782*
X02168Y01781*
X02163Y01775*
X02160Y01768*
X02159Y01760*
X02160Y01752*
X02163Y01744*
X02166Y01740*
X02163Y01735*
X02154*
Y01748*
X02140*
Y01790*
X02148*
Y01859*
X02073*
Y01790*
X02079*
Y01748*
X02065*
Y01666*
X02070*
Y01637*
X02110*
X02149*
Y01666*
X02154*
Y01684*
X02225*
X02227Y01683*
X02234Y01683*
X02238*
Y01669*
X02226*
Y01664*
X02201*
Y01635*
Y01605*
X02226*
Y01600*
X02300*
Y01669*
X02289*
Y01683*
X02297*
X02304Y01683*
X02310Y01686*
X02316Y01690*
X02320Y01696*
X02323Y01703*
X02324Y01710*
X02323Y01717*
X02320Y01723*
X02316Y01729*
X02312Y01732*
X02312Y01732*
Y01737*
X02312Y01738*
X02316Y01740*
X02320Y01746*
X02323Y01753*
X02324Y01760*
X02323Y01767*
X02320Y01773*
X02316Y01779*
X02312Y01782*
X02312Y01782*
Y01787*
X02312Y01788*
X02316Y01790*
X02320Y01796*
X02323Y01803*
X02324Y01810*
X02323Y01817*
X02320Y01823*
X02316Y01829*
X02312Y01832*
X02312Y01832*
Y01837*
X02312Y01838*
X02316Y01840*
X02320Y01846*
X02323Y01853*
X02324Y01860*
X02323Y01867*
X02320Y01873*
X02316Y01879*
X02312Y01882*
X02312Y01882*
Y01887*
X02312Y01888*
X02316Y01890*
X02320Y01896*
X02323Y01903*
X02324Y01910*
X02323Y01917*
X02320Y01923*
X02316Y01929*
X02312Y01932*
X02312Y01932*
Y01937*
X02312Y01938*
X02316Y01940*
X02320Y01946*
X02323Y01953*
X02324Y01960*
X02323Y01967*
X02320Y01973*
X02316Y01979*
X02312Y01982*
X02312Y01982*
Y01987*
X02312Y01988*
X02316Y01990*
X02320Y01996*
X02323Y02003*
X02324Y02010*
X02323Y02017*
X02320Y02023*
X02316Y02029*
X02312Y02032*
X02312Y02032*
Y02037*
X02312Y02038*
X02316Y02040*
X02320Y02046*
X02323Y02053*
X02324Y02060*
X02323Y02067*
X02320Y02073*
X02316Y02079*
X02310Y02083*
X02304Y02086*
X02297Y02087*
X02234*
X02227Y02086*
X02220Y02083*
X02216Y02080*
X02213*
X02211Y02081*
X02205Y02086*
X02198Y02090*
X02190Y02091*
G37*
G36*
X02100Y02342D02*
X02073D01*
Y02307*
X02100*
Y02342*
G37*
G36*
X02137D02*
X02110D01*
Y02307*
X02137*
Y02342*
G37*
G36*
X02266Y02389D02*
X02239D01*
Y02365*
X02266*
Y02389*
G37*
G36*
X02150Y02450D02*
X02129D01*
X02129Y02448*
X02132Y02442*
X02136Y02436*
X02142Y02432*
X02148Y02429*
X02150Y02429*
Y02450*
G37*
G36*
X02266Y02355D02*
X02239D01*
Y02330*
X02266*
Y02355*
G37*
G36*
X02100Y02388D02*
X02073D01*
Y02352*
X02100*
Y02388*
G37*
G36*
X02137D02*
X02110D01*
Y02352*
X02137*
Y02388*
G37*
G36*
X02191Y01664D02*
X02164D01*
Y01640*
X02191*
Y01664*
G37*
G36*
X01960Y01660D02*
X01958Y01660D01*
X01952Y01657*
X01946Y01653*
X01942Y01648*
X01939Y01641*
X01939Y01640*
X01960*
Y01660*
G37*
G36*
X02191Y01630D02*
X02164D01*
Y01605*
X02191*
Y01630*
G37*
G36*
X01960D02*
X01939D01*
X01939Y01628*
X01942Y01622*
X01946Y01616*
X01952Y01612*
X01958Y01609*
X01960Y01609*
Y01630*
G37*
G36*
X02105Y01627D02*
X02070D01*
Y01597*
X02105*
Y01627*
G37*
G36*
X02149D02*
X02115D01*
Y01597*
X02149*
Y01627*
G37*
G36*
X02044Y01631D02*
X02020D01*
Y01604*
X02044*
Y01631*
G37*
G36*
X02120Y02790D02*
X02095D01*
Y02763*
X02120*
Y02790*
G37*
G36*
X02154D02*
X02130D01*
Y02763*
X02154*
Y02790*
G37*
G36*
X02150Y02480D02*
X02148Y02480D01*
X02142Y02477*
X02136Y02473*
X02132Y02468*
X02129Y02461*
X02129Y02460*
X02150*
Y02480*
G37*
G36*
X02160D02*
Y02460D01*
X02180*
X02180Y02461*
X02177Y02468*
X02173Y02473*
X02168Y02477*
X02161Y02480*
X02160Y02480*
G37*
G36*
X02180Y02450D02*
X02160D01*
Y02429*
X02161Y02429*
X02168Y02432*
X02173Y02436*
X02177Y02442*
X02180Y02448*
X02180Y02450*
G37*
G36*
X02120Y02455D02*
X02093D01*
Y02430*
X02120*
Y02455*
G37*
G36*
X02133Y02649D02*
X02102D01*
Y02615*
X02133*
Y02649*
G37*
G36*
X02395Y03060D02*
X02393Y03060D01*
X02387Y03057*
X02381Y03053*
X02377Y03048*
X02374Y03041*
X02374Y03040*
X02395*
Y03060*
G37*
G36*
X02120Y02886D02*
X02095D01*
Y02859*
X02120*
Y02886*
G37*
G36*
X02154D02*
X02130D01*
Y02859*
X02154*
Y02886*
G37*
G36*
X02420Y02965D02*
X02395D01*
Y02938*
X02420*
Y02965*
G37*
G36*
X02395Y03030D02*
X02374D01*
X02374Y03028*
X02377Y03022*
X02381Y03016*
X02387Y03012*
X02393Y03009*
X02395Y03009*
Y03030*
G37*
G36*
X02600Y03336D02*
X02575D01*
Y03309*
X02600*
Y03336*
G37*
G36*
X02635D02*
X02610D01*
Y03309*
X02635*
Y03336*
G37*
G36*
X03045Y03335D02*
X03024D01*
X03024Y03333*
X03027Y03327*
X03031Y03321*
X03037Y03317*
X03043Y03314*
X03045Y03314*
Y03335*
G37*
G36*
X03120Y03337D02*
X03085D01*
Y03307*
X03120*
Y03337*
G37*
G36*
X03310Y03350D02*
X03275D01*
X03276Y03344*
X03280Y03334*
X03286Y03326*
X03294Y03320*
X03304Y03316*
X03310Y03315*
Y03350*
G37*
G36*
X03354D02*
X03320D01*
Y03315*
X03325Y03316*
X03335Y03320*
X03343Y03326*
X03349Y03334*
X03354Y03344*
X03354Y03350*
G37*
G36*
X03075Y03335D02*
X03055D01*
Y03314*
X03056Y03314*
X03063Y03317*
X03068Y03321*
X03072Y03327*
X03075Y03333*
X03075Y03335*
G37*
G36*
X03224Y03341D02*
X03200D01*
Y03314*
X03224*
Y03341*
G37*
G36*
X02640Y03270D02*
X02620D01*
Y03249*
X02621Y03249*
X02628Y03252*
X02633Y03256*
X02637Y03262*
X02640Y03268*
X02640Y03270*
G37*
G36*
X02885Y03255D02*
X02860D01*
Y03228*
X02885*
Y03255*
G37*
G36*
X02919D02*
X02895D01*
Y03228*
X02919*
Y03255*
G37*
G36*
X02620Y03300D02*
Y03280D01*
X02640*
X02640Y03281*
X02637Y03288*
X02633Y03293*
X02628Y03297*
X02621Y03300*
X02620Y03300*
G37*
G36*
X02965Y03775D02*
X02930D01*
X02931Y03769*
X02935Y03760*
X02941Y03751*
X02950Y03745*
X02959Y03741*
X02965Y03740*
Y03775*
G37*
G36*
X03009D02*
X02975D01*
Y03740*
X02980Y03741*
X02989Y03745*
X02998Y03751*
X03004Y03760*
X03008Y03769*
X03009Y03775*
G37*
G36*
X03045Y03365D02*
X03043Y03365D01*
X03037Y03362*
X03031Y03358*
X03027Y03353*
X03024Y03346*
X03024Y03345*
X03045*
Y03365*
G37*
G36*
X03055D02*
Y03345D01*
X03075*
X03075Y03346*
X03072Y03353*
X03068Y03358*
X03063Y03362*
X03056Y03365*
X03055Y03365*
G37*
G36*
X03312Y03644D02*
X03282D01*
Y03610*
X03312*
Y03644*
G37*
G36*
Y03600D02*
X03282D01*
Y03565*
X03312*
Y03600*
G37*
G36*
X03510Y02730D02*
Y02710D01*
X03530*
X03530Y02711*
X03527Y02718*
X03523Y02723*
X03518Y02727*
X03511Y02730*
X03510Y02730*
G37*
G36*
X03500D02*
X03498Y02730D01*
X03492Y02727*
X03486Y02723*
X03482Y02718*
X03479Y02711*
X03479Y02710*
X03500*
Y02730*
G37*
G36*
X03501Y02584D02*
X03474D01*
Y02560*
X03501*
Y02584*
G37*
G36*
X03500Y02631D02*
X03459D01*
Y02621*
X03461Y02611*
X03466Y02603*
X03475Y02597*
X03484Y02595*
X03500*
Y02631*
G37*
G36*
X03200Y03019D02*
Y02985D01*
X03234*
X03233Y02990*
X03229Y02999*
X03223Y03008*
X03214Y03014*
X03205Y03018*
X03200Y03019*
G37*
%LNde-110817-3*%
%LPD*%
G54D10*
X02111Y01825D03*
X02018D03*
X01501Y02445D03*
X01408D03*
X02496Y02290D03*
X02403D03*
G54D11*
X03759Y01835D03*
Y01885D03*
Y01935D03*
Y01985D03*
Y02035D03*
Y02085D03*
Y02135D03*
Y02185D03*
X03570Y01835D03*
Y01885D03*
Y01935D03*
Y01985D03*
Y02035D03*
Y02085D03*
Y02135D03*
Y02185D03*
X02454Y01710D03*
Y01760D03*
Y01810D03*
Y01860D03*
Y01910D03*
Y01960D03*
Y02010D03*
Y02060D03*
X02265Y01710D03*
Y01760D03*
Y01810D03*
Y01860D03*
Y01910D03*
Y01960D03*
Y02010D03*
Y02060D03*
X02515Y03230D03*
Y03280D03*
Y03330D03*
Y03380D03*
X02326Y03230D03*
Y03280D03*
Y03330D03*
Y03380D03*
X03219Y01835D03*
Y01885D03*
Y01935D03*
Y01985D03*
Y02035D03*
Y02085D03*
Y02135D03*
Y02185D03*
X03030Y01835D03*
Y01885D03*
Y01935D03*
Y01985D03*
Y02035D03*
Y02085D03*
Y02135D03*
Y02185D03*
G54D12*
X03495Y01893D03*
Y01826D03*
X02015Y01636D03*
Y01703D03*
X01330Y02376D03*
Y02443D03*
X01445Y01933D03*
Y01866D03*
X03895Y01333D03*
Y01266D03*
X02940Y01608D03*
Y01541D03*
X03000Y01608D03*
Y01541D03*
X02010Y01241D03*
Y01308D03*
X03060Y01608D03*
Y01541D03*
X02110Y01241D03*
Y01308D03*
X03120Y01608D03*
Y01541D03*
X02210Y01241D03*
Y01308D03*
X03180Y01608D03*
Y01541D03*
X02310Y01241D03*
Y01308D03*
X03240Y01608D03*
Y01541D03*
X02410Y01241D03*
Y01308D03*
X03300Y01608D03*
Y01541D03*
X02510Y01241D03*
Y01308D03*
X03360Y01608D03*
Y01541D03*
X02610Y01241D03*
Y01308D03*
X02710Y01241D03*
Y01308D03*
X01320Y03133D03*
Y03066D03*
X03420Y01608D03*
Y01541D03*
X03480Y01608D03*
Y01541D03*
X03540Y01608D03*
Y01541D03*
X03600Y01608D03*
Y01541D03*
X03658Y01608D03*
Y01541D03*
X03717Y01608D03*
Y01541D03*
X03776Y01608D03*
Y01541D03*
X03835Y01608D03*
Y01541D03*
X01665Y01878D03*
Y01811D03*
X02890Y03156D03*
Y03223D03*
X03585Y03188D03*
Y03121D03*
X02125Y02758D03*
Y02691D03*
Y02891D03*
Y02958D03*
X02605Y03341D03*
Y03408D03*
X02485Y02933D03*
Y02866D03*
X02425D03*
Y02933D03*
X02975Y02836D03*
Y02903D03*
X03290Y02596D03*
Y02663D03*
X03095Y02948D03*
Y02881D03*
X03290Y02848D03*
Y02781D03*
X03745Y03413D03*
Y03346D03*
X03195Y03413D03*
Y03346D03*
X03185Y03188D03*
Y03121D03*
X04740Y03568D03*
Y03501D03*
G54D13*
X02881Y01835D03*
X02948D03*
X04698Y02755D03*
X04631D03*
X04493Y02025D03*
X04426D03*
X01923Y02460D03*
X01856D03*
X02021D03*
X02088D03*
X01678Y03300D03*
X01611D03*
X01451D03*
X01518D03*
X02196Y01635D03*
X02263D03*
X01306Y02230D03*
X01373D03*
X01446Y02290D03*
X01513D03*
X01746Y01955D03*
X01813D03*
X01306Y02290D03*
X01373D03*
X01513Y02230D03*
X01446D03*
X01513Y02005D03*
X01446D03*
X01813Y02015D03*
X01746D03*
X01813Y01810D03*
X01746D03*
X04096Y03500D03*
X04163D03*
X04178Y02555D03*
X04111D03*
X02431Y02360D03*
X02498D03*
X02431Y02420D03*
X02498D03*
X02553Y02995D03*
X02486D03*
X02851Y02485D03*
X02918D03*
X02616Y03080D03*
X02683D03*
X02548Y03155D03*
X02481D03*
X02477Y03450D03*
X02544D03*
X04153Y03085D03*
X04086D03*
X03773D03*
X03706D03*
X03906D03*
X03973D03*
X03873Y02555D03*
X03806D03*
X03646D03*
X03713D03*
X03573D03*
X03506D03*
X02696Y01995D03*
X02763D03*
X02338Y02360D03*
X02271D03*
X04531Y03570D03*
X04598D03*
G54D14*
X03805Y03010D03*
X03705D03*
X03605D03*
X03505D03*
X03805Y02636D03*
X03705D03*
X03605D03*
X03505D03*
X03970Y02635D03*
X04070D03*
X04170D03*
X04270D03*
X03970Y03009D03*
X04070D03*
X04170D03*
X04270D03*
G54D15*
X04702Y02825D03*
X04627D03*
X04497Y02095D03*
X04422D03*
X02022Y02610D03*
X02097D03*
X02022Y02530D03*
X02097D03*
X01927Y02690D03*
X01852D03*
X01927Y02610D03*
X01852D03*
X01927Y02530D03*
X01852D03*
X01432Y02360D03*
X01507D03*
X01742Y01885D03*
X01817D03*
X03892Y03495D03*
X03817D03*
X02537Y03070D03*
X02462D03*
X03892Y03415D03*
X03967D03*
X03392Y03605D03*
X03317D03*
X03612D03*
X03537D03*
G54D16*
X02110Y01632D03*
Y01707D03*
X02210Y01487D03*
Y01412D03*
X02110Y01487D03*
Y01412D03*
X02010Y01487D03*
Y01412D03*
X02310Y01487D03*
Y01412D03*
X02510Y01487D03*
Y01412D03*
X02610Y01487D03*
Y01412D03*
X02710Y01487D03*
Y01412D03*
X02410Y01487D03*
Y01412D03*
X03815Y03417D03*
Y03342D03*
X03125Y03417D03*
Y03342D03*
X04280Y03347D03*
Y03422D03*
X04670Y03572D03*
Y03497D03*
G54D17*
X04560Y03365D03*
Y03204D03*
X04435Y03180D03*
Y03019D03*
G54D18*
X01480Y02169D03*
X01442Y02070D03*
G54D19*
X01517Y02070D03*
G54D20*
X01694Y02338D03*
G54D21*
X01784Y02101D03*
X01694D03*
X01603D03*
G54D22*
X02105Y02347D03*
G54D23*
X02015Y02347D03*
X01924D03*
G54D24*
X02015Y02082D03*
G54D25*
X01597Y01895D03*
X01522Y01857D03*
Y01932D03*
G54D26*
X04205Y03402D03*
X04155D03*
X04105D03*
X04055D03*
X04205Y03217D03*
X04155D03*
X04105D03*
X04055D03*
G54D27*
X03935Y03247D03*
X03972Y03332D03*
G54D28*
X03897Y03332D03*
G54D29*
X02570Y02833D03*
Y02813D03*
Y02793D03*
Y02774D03*
Y02754D03*
Y02734D03*
Y02715D03*
Y02695D03*
Y02675D03*
Y02656D03*
Y02636D03*
Y02616D03*
X02889D03*
Y02636D03*
Y02656D03*
Y02675D03*
Y02695D03*
Y02715D03*
Y02734D03*
Y02754D03*
Y02774D03*
Y02793D03*
Y02813D03*
Y02833D03*
G54D30*
X02621Y02565D03*
X02641D03*
X02661D03*
X02680D03*
X02700D03*
X02720D03*
X02739D03*
X02759D03*
X02779D03*
X02798D03*
X02818D03*
X02838D03*
Y02884D03*
X02818D03*
X02798D03*
X02779D03*
X02759D03*
X02739D03*
X02720D03*
X02700D03*
X02680D03*
X02661D03*
X02641D03*
X02621D03*
G54D31*
X03265Y03220D03*
G54D32*
X03265Y03120D03*
X03501Y03220D03*
Y03120D03*
G54D33*
X02595Y01801D03*
Y01708D03*
Y01971D03*
Y01878D03*
G54D34*
X02275Y02977D03*
Y02603D03*
G54D35*
X02075Y03190D03*
X02270Y03780D03*
X02970D03*
X02870D03*
X02770D03*
X02670D03*
X02570D03*
X02470D03*
X02370D03*
X01663Y02770D03*
X04725Y02615D03*
X04625Y02515D03*
X04725D03*
X04625Y02415D03*
X04725D03*
X04625Y02315D03*
X04725D03*
X04715Y03290D03*
Y03190D03*
Y03090D03*
Y02990D03*
X04725Y01475D03*
X04625D03*
X04725Y01575D03*
X04625D03*
X04725Y01675D03*
X04625D03*
X04725Y01775D03*
X04625D03*
X04725Y01875D03*
X04625D03*
X04725Y01975D03*
X04625D03*
X04725Y02075D03*
X02710Y01140D03*
X02610D03*
X02510D03*
X02410D03*
X02310D03*
X02210D03*
X02110D03*
X01505Y01565D03*
X01605Y01465D03*
Y01565D03*
X01705Y01465D03*
Y01565D03*
X01805Y01465D03*
Y01565D03*
X01505Y01235D03*
X01605Y01135D03*
Y01235D03*
X01705Y01135D03*
Y01235D03*
X01805Y01135D03*
Y01235D03*
X04015Y01365D03*
X04115Y01265D03*
Y01365D03*
X04215Y01265D03*
Y01365D03*
X04315Y01265D03*
Y01365D03*
X04015Y01665D03*
X04115Y01565D03*
Y01665D03*
X04215Y01565D03*
Y01665D03*
X04315Y01565D03*
Y01665D03*
X03195Y02680D03*
Y02780D03*
Y02880D03*
Y02980D03*
X03735Y01365D03*
Y01265D03*
X03635Y01365D03*
Y01265D03*
X03535Y01365D03*
Y01265D03*
X03435Y01365D03*
Y01265D03*
X03335Y01365D03*
Y01265D03*
X03235Y01365D03*
Y01265D03*
X03135Y01365D03*
Y01265D03*
X03035Y01365D03*
X02990Y03065D03*
X02820Y02185D03*
Y02085D03*
X02720Y02185D03*
Y02085D03*
X02620Y02185D03*
G54D36*
X01705Y01565D02*
X01805D01*
X01605D02*
X01705D01*
X01505D02*
X01605D01*
X01705Y01465D02*
X01805D01*
X01605D02*
X01705D01*
X01505D02*
X01605D01*
X01813Y01473D02*
Y01810D01*
X01505Y01465D02*
Y01565D01*
X01805Y01465D02*
X01813Y01473D01*
X01805Y01235D02*
X01875D01*
X01705D02*
X01805D01*
X01605D02*
X01705D01*
X01505D02*
X01605D01*
X01500D02*
X01505D01*
X01705Y01135D02*
X01805D01*
X01605D02*
X01705D01*
X01505D02*
X01605D01*
X01805D02*
Y01235D01*
X01505Y01135D02*
Y01235D01*
X01373Y01361D02*
X01500Y01235D01*
X01373Y01361D02*
Y01970D01*
X01907Y01267D02*
Y01487D01*
X01875Y01235D02*
X01907Y01267D01*
X02022Y03037D02*
X02023D01*
X02022Y02610D02*
Y03037D01*
X02023D02*
X02064Y03078D01*
X02065Y03025D02*
X02080Y03040D01*
X02065Y02745D02*
Y03025D01*
X02080Y03040D02*
X02185D01*
X02064Y03078D02*
X02158D01*
X02010Y01140D02*
Y01241D01*
X02110Y01140D02*
Y01241D01*
X02210Y01140D02*
Y01241D01*
X02310Y01140D02*
Y01241D01*
X02410Y01140D02*
Y01241D01*
X02510Y01140D02*
Y01241D01*
X02610Y01140D02*
Y01241D01*
X02710Y01140D02*
Y01241D01*
X02010Y01487D02*
X02110D01*
X02210*
X02310*
X02410*
X02510*
X02610*
X02710*
X02195Y01636D02*
X02196Y01635D01*
X01746Y01888D02*
Y01955D01*
X01742Y01885D02*
X01746Y01888D01*
X01736Y01878D02*
X01742Y01885D01*
X01665Y01878D02*
X01736D01*
X01852Y02463D02*
X01856Y02460D01*
X01852Y02463D02*
Y02530D01*
Y02610*
Y02690*
X01927Y02530D02*
Y02610D01*
Y02690*
X01613Y01878D02*
X01665D01*
X01597Y01895D02*
X01613Y01878D01*
X01784Y02101D02*
X01813Y02073D01*
Y01955D02*
Y02015D01*
Y02073*
X02110Y01707D02*
Y01823D01*
X02111Y01825*
X02015Y02415D02*
X02032Y02432D01*
X01927Y02480D02*
Y02530D01*
X01924Y02477D02*
X01927Y02480D01*
X03515Y03300D02*
Y03355D01*
X03485Y03270D02*
X03515Y03300D01*
X03450Y03270D02*
X03485D01*
X03435Y03255D02*
X03450Y03270D01*
X03435Y03175D02*
Y03255D01*
Y03175D02*
X03440Y03170D01*
X03535*
X03553Y03188*
X03585*
X03186Y03120D02*
X03265D01*
X03352Y03417D02*
X03392Y03377D01*
X03125Y03417D02*
X03352D01*
X03392Y03377D02*
X03415Y03355D01*
X03392Y03377D02*
Y03605D01*
X03612D02*
X03615Y03602D01*
X03515Y03355D02*
X03537Y03377D01*
Y03605*
X02015Y02240D02*
Y02347D01*
X01694Y02101D02*
Y02245D01*
X01690Y02250D02*
X01694Y02245D01*
X01507Y02360D02*
X01513Y02353D01*
Y02230D02*
Y02290D01*
Y02353*
X01422Y02370D02*
X01432Y02360D01*
X01480Y02169D02*
X01549D01*
X01560Y02180*
X02431Y02360D02*
Y02420D01*
X04725Y02615D02*
Y02728D01*
X04698Y02755D02*
X04725Y02728D01*
X04698Y02755D02*
Y02821D01*
X04584Y03390D02*
X04715D01*
X04738Y03570D02*
X04740Y03568D01*
X04435Y03204D02*
X04560D01*
X04176Y02555D02*
Y02628D01*
X04170Y02635D02*
X04176Y02628D01*
X03806Y02555D02*
Y02634D01*
X03805Y02636D02*
X03806Y02634D01*
X03506Y02555D02*
Y02634D01*
X03573Y02555D02*
Y02573D01*
X03605Y02605*
Y02636*
X03573Y02555D02*
X03646D01*
X04517Y02075D02*
X04625D01*
X04497Y02028D02*
Y02075D01*
X04426Y02025D02*
Y02091D01*
X04315Y01565D02*
Y01665D01*
X04015D02*
X04115D01*
X04215*
X04315*
X04015Y01565D02*
X04115D01*
X04215*
X04315*
Y01265D02*
Y01365D01*
X04015D02*
X04115D01*
X04215*
X04315*
X04015Y01265D02*
X04115D01*
X04215*
X04315*
X03895Y01266D02*
X04013D01*
X04015Y01265*
X02948Y01835D02*
X03030D01*
X02948D02*
Y01873D01*
X02950Y01875*
X02431Y02420D02*
X02435Y02423D01*
X02553Y02995D02*
Y03026D01*
X02535Y03045D02*
X02553Y03026D01*
X02535Y03045D02*
Y03055D01*
X02537Y03070D02*
X02547Y03080D01*
X02616*
X02010Y01308D02*
Y01360D01*
Y01412*
X02110Y01308D02*
Y01360D01*
Y01412*
X02210Y01308D02*
Y01360D01*
Y01412*
X02310Y01308D02*
Y01360D01*
Y01412*
X02410Y01308D02*
Y01360D01*
Y01412*
X02510Y01308D02*
Y01360D01*
Y01412*
X02610Y01308D02*
Y01360D01*
Y01412*
X02710Y01308D02*
Y01360D01*
Y01412*
X02355Y02360D02*
X02431D01*
X02340Y02345D02*
X02355Y02360D01*
X02340Y02200D02*
Y02345D01*
X02496Y02163D02*
Y02290D01*
Y02163D02*
X02511Y02148D01*
X02380Y02025D02*
Y02160D01*
X02340Y02200D02*
X02380Y02160D01*
X01877Y02347D02*
X01924D01*
X01865Y02335D02*
X01877Y02347D01*
X02097Y02610D02*
Y02632D01*
X02065Y02665D02*
X02097Y02632D01*
X02065Y02665D02*
Y02745D01*
X02078Y02758*
X02125*
X01507Y02360D02*
Y02438D01*
X01501Y02445D02*
X01507Y02438D01*
X01590Y02415D02*
X01924D01*
X01580Y02425D02*
X01590Y02415D01*
X01408Y02498D02*
X01410Y02500D01*
X01408Y02445D02*
Y02498D01*
X01410Y02500D02*
X01575D01*
X01580Y02495*
Y02425D02*
Y02495D01*
X01507Y02360D02*
X01585D01*
X01590Y02365*
X01675Y01888D02*
Y01970D01*
X01665Y01878D02*
X01675Y01888D01*
X01665Y03140D02*
Y03220D01*
X01678Y03233*
Y03300*
X02496Y02290D02*
Y02422D01*
X02431Y02420D02*
Y02621D01*
X01813Y01810D02*
Y01955D01*
X01432Y02327D02*
Y02360D01*
Y02327D02*
X01446Y02313D01*
Y02290D02*
Y02313D01*
X01330Y02376D02*
X01336Y02370D01*
X01355*
D01*
X01373D02*
X01422D01*
X01373Y02290D02*
Y02351D01*
X01355Y02370D02*
X01373Y02351D01*
Y01970D02*
Y02290D01*
Y02351*
X02616Y03036D02*
Y03080D01*
X02615Y03035D02*
X02616Y03036D01*
X02990Y03210D02*
X03030Y03250D01*
X02990Y03065D02*
Y03210D01*
X04270Y02955D02*
Y03009D01*
X04250Y02935D02*
X04270Y02955D01*
X03940Y02935D02*
X04250D01*
X03902Y02972D02*
X03940Y02935D01*
X03902Y02972D02*
Y03082D01*
X03905Y03085*
X03972Y03332D02*
Y03415D01*
X04238Y03700D02*
X04240Y03701D01*
X03615Y03420D02*
X03617Y03417D01*
X03615Y03355D02*
Y03420D01*
Y03602*
X04045Y03500D02*
X04096D01*
X03940Y03605D02*
X04045Y03500D01*
X03940Y03605D02*
Y03765D01*
X03900Y03805D02*
X03940Y03765D01*
X03785Y03805D02*
X03900D01*
X03745Y03413D02*
Y03417D01*
X03617D02*
X03745D01*
X03815*
X03585Y03188D02*
Y03230D01*
X03697Y03342*
X03815Y03275D02*
Y03342D01*
Y03275D02*
X03842Y03247D01*
X03935*
X03697Y03342D02*
X03815D01*
X04755Y03290D02*
X04785Y03320D01*
Y03475*
X04762Y03497D02*
X04785Y03475D01*
X04670Y03497D02*
X04762D01*
X03745Y03417D02*
Y03765D01*
X03785Y03805*
X03415Y03320D02*
Y03355D01*
X03380Y03285D02*
X03415Y03320D01*
X03713Y02636D02*
X03805D01*
X03096Y02880D02*
X03195D01*
X03095Y02881D02*
X03096Y02880D01*
X03315Y03315D02*
Y03355D01*
X03195Y02780D02*
X03290D01*
X03195Y02980D02*
X03340D01*
X01518Y03300D02*
X01565D01*
X01611*
X02462Y03018D02*
X02486Y02995D01*
X02462Y03136D02*
X02481Y03155D01*
X02462Y03018D02*
Y03070D01*
Y03136*
X02445Y03155D02*
X02481D01*
X02405Y03195D02*
X02445Y03155D01*
X02405Y03195D02*
Y03260D01*
X02385Y03280D02*
X02405Y03260D01*
X02326Y03280D02*
X02385D01*
X02326D02*
Y03330D01*
Y03380*
X02425Y02933D02*
Y02975D01*
X02400Y03000D02*
X02425Y02975D01*
X02620Y02085D02*
X02665Y02040D01*
X02763Y01995D02*
X02830D01*
X02882Y02046*
Y02168*
X04531Y03570D02*
Y03611D01*
X04555Y03635*
X04790*
X04598Y03570D02*
X04738D01*
X04598Y03483D02*
Y03570D01*
X04565Y03450D02*
X04598Y03483D01*
X04565Y03409D02*
Y03450D01*
Y03409D02*
X04584Y03390D01*
X03704Y02644D02*
X03710Y02650D01*
X03704Y02644D02*
X03713Y02636D01*
Y02555D02*
Y02636D01*
X03505D02*
Y02705D01*
X03875Y02555D02*
Y02705D01*
X04630Y03034D02*
Y03270D01*
X04650Y03290*
X04715*
X04325Y02730D02*
X04630Y03034D01*
X03875Y02705D02*
X03900Y02730D01*
X04325*
X03450Y02705D02*
X03505D01*
X03340Y02815D02*
Y02980D01*
Y02815D02*
X03450Y02705D01*
X01924Y02347D02*
Y02415D01*
Y02477*
X02015Y02347D02*
Y02410D01*
Y02415*
X02115Y02360D02*
X02250D01*
X02115Y02456D02*
X02153D01*
X02107Y02463D02*
Y02610D01*
X02400Y03000D02*
Y03035D01*
Y03130*
X02380Y03150D02*
X02400Y03130D01*
X02325Y03165D02*
Y03215D01*
Y03165D02*
X02340Y03150D01*
X02380*
X02326Y03380D02*
Y03426D01*
X02401Y03501*
X02265Y03280D02*
X02326D01*
X01907Y01487D02*
X02010D01*
X01965Y01636D02*
X02015D01*
X02195*
X02665Y01890D02*
X02680Y01875D01*
X02763Y01963D02*
Y01995D01*
X02730Y01930D02*
X02763Y01963D01*
X02730Y01820D02*
Y01930D01*
X02680Y01770D02*
X02730Y01820D01*
X02310Y01540D02*
X02380Y01610D01*
X02310Y01487D02*
Y01540D01*
X02380Y01610D02*
Y01675D01*
Y02025*
X03910Y01565D02*
X04015D01*
X03895Y01550D02*
X03910Y01565D01*
X03895Y01333D02*
Y01550D01*
X03130Y03605D02*
X03317D01*
X03065Y03540D02*
X03130Y03605D01*
X03065Y03341D02*
Y03540D01*
X03190Y03341D02*
X03195Y03346D01*
X02970Y03780D02*
X03030D01*
X03065Y03745*
Y03540D02*
Y03745D01*
X02605Y03341D02*
X02615Y03332D01*
Y03275D02*
Y03332D01*
X04315Y01565D02*
X04405D01*
X04495Y01475*
X04625*
X04725*
X02820Y02185D02*
X02865D01*
X02882Y02168*
X02918Y02485D02*
X02920Y02483D01*
Y02305D02*
Y02483D01*
X02605Y03408D02*
Y03434D01*
Y03408D02*
X02646D01*
X02660Y03395*
X02990*
X02575Y03465D02*
X02590Y03450D01*
X02605Y03434*
X03065Y03341D02*
X03190D01*
X02605D02*
X03065D01*
X02032Y02432D02*
Y02610D01*
X03030Y03250D02*
X03145D01*
X03250*
X04698Y02821D02*
X04796D01*
X04860Y02885*
Y03565*
X04790Y03635D02*
X04860Y03565D01*
X04365Y02090D02*
X04366Y02091D01*
X04426*
X03853Y01333D02*
X03895D01*
X03835Y01315D02*
X03853Y01333D01*
X03835Y01120D02*
Y01315D01*
X03858Y01096D02*
X03890D01*
X03835Y01120D02*
X03858Y01096D01*
X02665Y01890D02*
Y02040D01*
X03340Y02980D02*
Y03290D01*
X03315Y03315D02*
X03340Y03290D01*
X03710Y02650D02*
Y02815D01*
X03380Y02880D02*
Y03285D01*
Y02880D02*
X03445Y02815D01*
X03710*
X04335*
X04435Y02915*
Y03019*
X02401Y03501D02*
X02559D01*
X02575Y03485*
Y03465D02*
Y03485D01*
X02200Y03130D02*
X02220Y03150D01*
X02200Y03055D02*
Y03130D01*
X02185Y03040D02*
X02200Y03055D01*
X02220Y03150D02*
X02340D01*
X02250Y03265D02*
X02265Y03280D01*
X02250Y03233D02*
Y03265D01*
X02162Y03145D02*
X02250Y03233D01*
X02158Y03078D02*
X02162Y03082D01*
Y03145*
X02015Y01703D02*
Y01825D01*
X01986Y01853D02*
X02015Y01825D01*
X01865Y01875D02*
Y02335D01*
Y01875D02*
X01886Y01853D01*
X01986*
G54D37*
X01565Y03391D02*
X01873Y03700D01*
X01565Y03300D02*
Y03391D01*
X01927Y02767D02*
Y03282D01*
X02065Y03420*
Y03825*
X02100Y03860*
X01465Y02771D02*
X01466Y02770D01*
X01565Y02868D02*
Y03140D01*
X04625Y02822D02*
X04627Y02825D01*
X01663Y02770D02*
X01815D01*
X01852Y02732*
Y02690D02*
Y02732D01*
X01860Y02835D02*
X01927Y02767D01*
X01565Y02868D02*
X01663Y02770D01*
X01665Y02890D02*
Y03140D01*
Y02890D02*
X01720Y02835D01*
X01860*
X01465Y02771D02*
Y03140D01*
X01445Y03160D02*
X01465Y03140D01*
X01565D02*
Y03300D01*
X02107Y02463D02*
X02115Y02456D01*
Y02360D02*
Y02456D01*
X04627Y02825D02*
Y02877D01*
X04640Y02890*
X04768*
X04812Y02933*
Y03253*
X04775Y03290D02*
X04812Y03253D01*
X04715Y03290D02*
X04755D01*
X04775*
X04625Y02615D02*
Y02822D01*
X03392Y03605D02*
Y03662D01*
X03345Y03710D02*
X03392Y03662D01*
X01927Y02690D02*
Y02767D01*
X02100Y03860D02*
X03065D01*
X03215Y03710*
X03345*
X01445Y03160D02*
Y03468D01*
X01676Y03700*
G54D38*
X02940Y01360D02*
Y01541D01*
Y01360D02*
X03035Y01265D01*
X03000Y01400D02*
Y01541D01*
Y01400D02*
X03035Y01365D01*
X03060Y01440D02*
Y01541D01*
Y01440D02*
X03085Y01415D01*
Y01315D02*
Y01415D01*
Y01315D02*
X03135Y01265D01*
X03180Y01320D02*
Y01541D01*
Y01320D02*
X03235Y01265D01*
X03300Y01480D02*
Y01541D01*
X03285Y01465D02*
X03300Y01480D01*
X03285Y01315D02*
Y01465D01*
Y01315D02*
X03335Y01265D01*
X03390Y01310D02*
X03435Y01265D01*
X03390Y01310D02*
Y01450D01*
X03420Y01480*
Y01541*
X03540Y01480D02*
Y01541D01*
X03485Y01425D02*
X03540Y01480D01*
X03485Y01315D02*
Y01425D01*
Y01315D02*
X03535Y01265D01*
X03658Y01493D02*
Y01541D01*
X03585Y01420D02*
X03658Y01493D01*
X03585Y01315D02*
Y01420D01*
Y01315D02*
X03635Y01265D01*
X03776Y01506D02*
Y01541D01*
X03685Y01415D02*
X03776Y01506D01*
X03685Y01315D02*
Y01415D01*
Y01315D02*
X03735Y01265D01*
Y01365D02*
Y01410D01*
X03835Y01510*
Y01541*
X03635Y01365D02*
Y01425D01*
X03717Y01507*
Y01541*
X03535Y01365D02*
Y01430D01*
X03600Y01495*
Y01541*
X03435Y01365D02*
Y01435D01*
X03480Y01480*
Y01541*
X03335Y01365D02*
Y01440D01*
X03360Y01465*
Y01541*
X03135Y01365D02*
Y01435D01*
X03120Y01450D02*
X03135Y01435D01*
X03120Y01450D02*
Y01541D01*
X03240Y01370D02*
Y01541D01*
X01453Y01857D02*
X01522D01*
X01445Y01866D02*
X01453Y01857D01*
X01555Y01810D02*
X01746D01*
X01522Y01842D02*
X01555Y01810D01*
X01522Y01842D02*
Y01857D01*
X01445Y01933D02*
X01446Y01932D01*
X01513Y01933D02*
Y02005D01*
Y01933D02*
X01515Y01932D01*
X01446D02*
X01515D01*
X01442Y02008D02*
Y02070D01*
X03501Y03220D02*
X03615Y03333D01*
Y03355*
X02889Y02813D02*
X02952D01*
X02975Y02836*
X02889Y02833D02*
X02959Y02903D01*
X02975*
X02570Y02833D02*
Y02844D01*
X02548Y02866D02*
X02570Y02844D01*
X02425Y02866D02*
X02485D01*
X02548*
X02838Y02565D02*
X02879D01*
X02918Y02526*
Y02485D02*
Y02526D01*
X02818Y02518D02*
Y02565D01*
Y02518D02*
X02851Y02485D01*
X02125Y02958D02*
X02266D01*
X02125Y02691D02*
X02255D01*
X02326Y02793D02*
X02570D01*
X02280Y02840D02*
X02326Y02793D01*
X02280Y02840D02*
Y02997D01*
Y02623D02*
Y02730D01*
X02324Y02774*
X02570*
X02895Y01653D02*
Y01660D01*
Y01653D02*
X02940Y01608D01*
X02955Y01660D02*
X03000Y01615D01*
Y01608D02*
Y01615D01*
X03025Y01660D02*
X03060Y01625D01*
Y01608D02*
Y01625D01*
X03090Y01660D02*
X03120Y01630D01*
Y01608D02*
Y01630D01*
X03155Y01660D02*
X03180Y01635D01*
Y01608D02*
Y01635D01*
X03220Y01660D02*
X03240Y01640D01*
Y01608D02*
Y01640D01*
X03355Y01613D02*
Y01660D01*
Y01613D02*
X03360Y01608D01*
X03290Y01618D02*
X03300Y01608D01*
X03290Y01618D02*
Y01660D01*
X03838Y01608D02*
X03890Y01660D01*
X03835Y01608D02*
X03838D01*
X03776Y01611D02*
X03825Y01660D01*
X03776Y01608D02*
Y01611D01*
X03760Y01651D02*
Y01660D01*
X03717Y01608D02*
X03760Y01651D01*
X03658Y01623D02*
X03695Y01660D01*
X03658Y01608D02*
Y01623D01*
X03600Y01630D02*
X03630Y01660D01*
X03600Y01608D02*
Y01630D01*
X03540Y01635D02*
X03565Y01660D01*
X03540Y01608D02*
Y01635D01*
X03480Y01640D02*
X03500Y01660D01*
X03480Y01608D02*
Y01640D01*
X03420Y01645D02*
X03435Y01660D01*
X03420Y01608D02*
Y01645D01*
X01421Y01933D02*
X01445D01*
X02915Y01700D02*
X02955Y01660D01*
X02967Y01718D02*
X03025Y01660D01*
X03290D02*
Y01725D01*
X03220Y01660D02*
Y01735D01*
X03170Y02035D02*
X03219D01*
X03160Y01795D02*
X03220Y01735D01*
X03160Y01795D02*
Y02025D01*
X03170Y02035*
X03030D02*
X03080D01*
X03130Y01685D02*
X03155Y01660D01*
X03130Y01685D02*
Y01835D01*
X02845Y01660D02*
X02895D01*
X02840Y01700D02*
X02915D01*
X02852Y01718D02*
X02967D01*
X01405Y01950D02*
X01421Y01933D01*
X03219Y01835D02*
X03280D01*
X03219Y01885D02*
X03279D01*
X03290Y01725D02*
X03308Y01743D01*
Y01855*
X03279Y01885D02*
X03308Y01855D01*
X03355Y01660D02*
Y01720D01*
X03759Y01799D02*
Y01835D01*
X03695Y01735D02*
X03759Y01799D01*
X03695Y01660D02*
Y01735D01*
X03825Y01660D02*
Y01735D01*
X03870Y01780*
Y01870*
X03855Y01885D02*
X03870Y01870D01*
X03759Y01885D02*
X03855D01*
X03759Y01985D02*
X03850D01*
X03890Y01945*
Y01660D02*
Y01945D01*
X03760Y01660D02*
Y01730D01*
X03840Y01810*
Y01835*
X03759Y02035D02*
X03840D01*
X03450Y01725D02*
X03485D01*
X03500Y01710*
Y01660D02*
Y01710D01*
X03435Y01660D02*
Y01710D01*
X03460Y01935D02*
X03570D01*
X03430Y01904D02*
X03460Y01935D01*
X03430Y01745D02*
Y01904D01*
Y01745D02*
X03450Y01725D01*
X03410Y01735D02*
X03435Y01710D01*
X03330Y01745D02*
X03355Y01720D01*
X02803Y01736D02*
Y01857D01*
X02821Y01748D02*
X02852Y01718D01*
X02821Y01748D02*
Y01850D01*
X02803Y01736D02*
X02840Y01700D01*
X02785Y01720D02*
X02845Y01660D01*
X02785Y01720D02*
Y01865D01*
X03219Y01985D02*
X03300D01*
X03330Y01955*
Y01745D02*
Y01955D01*
X02975Y01905D02*
X02995Y01885D01*
X03030*
X03101Y01671D02*
Y02013D01*
X03080Y02035D02*
X03101Y02013D01*
X03090Y01660D02*
X03101Y01671D01*
X03630Y01660D02*
Y01720D01*
X03690Y01780*
X03565Y01660D02*
Y01690D01*
X03670Y01795*
X03690Y01780D02*
Y01860D01*
X03670Y01795D02*
Y01854D01*
X03639Y01885D02*
X03670Y01854D01*
X03635Y01915D02*
X03690Y01860D01*
X03570Y01885D02*
X03639D01*
X03635Y01915D02*
Y02020D01*
X03620Y02035D02*
X03635Y02020D01*
X03570Y02035D02*
X03620D01*
X03410Y01735D02*
Y01920D01*
X03475Y01985*
X03570*
X02465Y03280D02*
X02515D01*
X02440Y03305D02*
X02465Y03280D01*
X02440Y03305D02*
Y03445D01*
X02445Y03450*
X02477*
X02515Y03230D02*
X02548Y03196D01*
Y03155D02*
Y03196D01*
X02739Y02884D02*
Y03120D01*
X02548Y03155D02*
X02679D01*
X02720Y03114*
Y02884D02*
Y03114D01*
X02515Y03280D02*
X02565D01*
X02685Y03175D02*
X02739Y03120D01*
X02565Y03280D02*
X02577Y03267D01*
Y03197D02*
Y03267D01*
Y03197D02*
X02600Y03175D01*
X02685*
X02683Y03046D02*
Y03080D01*
X02888Y03066D02*
X02890Y03065D01*
X02700Y02294D02*
X02770Y02225D01*
Y02135D02*
Y02225D01*
Y02135D02*
X02820Y02085D01*
X02720Y02185D02*
Y02240D01*
X02680Y02279D02*
X02720Y02240D01*
X02680Y02279D02*
Y02565D01*
X02700Y02294D02*
Y02565D01*
X02670Y02135D02*
X02720Y02085D01*
X02190Y02060D02*
X02265D01*
X02190Y02010D02*
X02265D01*
X02190Y01960D02*
X02265D01*
X02586Y01810D02*
X02595Y01801D01*
X02454Y01810D02*
X02586D01*
X03030Y02135D02*
X03110D01*
X03030Y02085D02*
X03110D01*
X02595Y01801D02*
Y01878D01*
X02623*
X02630Y01885*
Y02020*
X02615Y02035D02*
X02630Y02020D01*
X02575Y02035D02*
X02615D01*
X02565Y02045D02*
X02575Y02035D01*
X02595Y01971D02*
Y02012D01*
X02572D02*
X02595D01*
X02547Y02037D02*
X02572Y02012D01*
X02547Y02037D02*
Y02113D01*
X02511Y02148D02*
X02547Y02113D01*
X02535Y02170D02*
X02565Y02140D01*
Y02045D02*
Y02140D01*
X02620Y02185D02*
Y02445D01*
X02505Y02695D02*
X02570D01*
X02535Y02170D02*
Y02470D01*
X02523Y02482D02*
X02535Y02470D01*
X02523Y02482D02*
Y02482D01*
X02515Y02675D02*
X02570D01*
X02521Y02656D02*
X02570D01*
X02531Y02636D02*
X02570D01*
X02553Y02616D02*
X02570D01*
X02485Y02645D02*
X02515Y02675D01*
X02503Y02637D02*
X02521Y02656D01*
X02503Y02502D02*
X02523Y02482D01*
X02521Y02626D02*
X02531Y02636D01*
X02503Y02502D02*
Y02637D01*
X02521Y02517D02*
Y02626D01*
X02485Y02495D02*
Y02645D01*
X02496Y02422D02*
Y02483D01*
X02485Y02495D02*
X02496Y02483D01*
X02521Y02517D02*
X02575Y02463D01*
X01320Y03133D02*
X01458D01*
X01320Y02680D02*
Y03066D01*
X01290Y02650D02*
X01320Y02680D01*
X01405Y01950D02*
Y02188D01*
X01446Y02230*
X02553Y02995D02*
X02570D01*
X02641Y02884D02*
Y02928D01*
X02661Y02884D02*
Y02938D01*
X02680Y02884D02*
Y02944D01*
X02670Y02955D02*
X02680Y02944D01*
X02670Y02955D02*
Y02985D01*
X02890Y03065D02*
Y03156D01*
X02839Y02754D02*
X02889D01*
X02810Y02725D02*
X02839Y02754D01*
X02795Y02760D02*
X02809Y02774D01*
X02889*
X02780Y02725D02*
X02810D01*
X02760Y02745D02*
X02780Y02725D01*
X02760Y02745D02*
Y02785D01*
X02798Y02565D02*
Y02611D01*
X02785Y02625D02*
X02798Y02611D01*
X02785Y02625D02*
Y02670D01*
X02838Y02616D02*
X02889D01*
X02815Y02640D02*
X02838Y02616D01*
X02779Y02565D02*
Y02605D01*
X02755Y02629D02*
X02779Y02605D01*
X02755Y02629D02*
Y02700D01*
X02818Y02838D02*
Y02884D01*
X02795Y02815D02*
X02818Y02838D01*
X02740Y02815D02*
X02795D01*
X02725Y02800D02*
X02740Y02815D01*
X02725Y02730D02*
Y02800D01*
X03585Y03121D02*
X03646D01*
X03669Y03145*
X03805*
X03835Y03175*
X04002*
X04015Y03188D02*
Y03250D01*
X04105Y03217D02*
Y03260D01*
X04002Y03175D02*
X04015Y03188D01*
X04095Y03270D02*
X04105Y03260D01*
X04015Y03250D02*
X04035Y03270D01*
X04095*
X04055Y03175D02*
Y03217D01*
X03605Y03010D02*
Y03055D01*
X03675Y03125*
X03810D02*
X03812Y03127D01*
X03812*
X03675Y03125D02*
X03810D01*
X03812Y03127D02*
X03840Y03155D01*
X04035D02*
X04055Y03175D01*
X03840Y03155D02*
X04035D01*
X02889Y02636D02*
X02928D01*
X02955Y02610*
Y02105D02*
X02975Y02085D01*
X03030*
X02978Y02135D02*
X03030D01*
X02973Y02140D02*
X02978Y02135D01*
X02934Y02656D02*
X02973Y02617D01*
X02889Y02656D02*
X02934D01*
X02889Y02675D02*
X02940D01*
X02991Y02624*
Y02214D02*
X03020Y02185D01*
X03030*
X03110Y02085D02*
X03135D01*
X03110Y02135D02*
X03132D01*
X03135Y02085D02*
X03160Y02110D01*
X03132Y02135D02*
X03142Y02145D01*
X03530Y02085D02*
X03570D01*
X03480Y02185D02*
X03570D01*
X03535Y02135D02*
X03570D01*
X03510Y02105D02*
X03530Y02085D01*
X03505Y02165D02*
X03518Y02152D01*
Y02152D02*
Y02152D01*
Y02152D02*
X03535Y02135D01*
X03470Y02165D02*
X03505D01*
X03465Y02145D02*
X03495D01*
X03510Y02130*
Y02105D02*
Y02130D01*
X03195Y02680D02*
X03245D01*
X03261Y02663*
X03290*
X03573Y02510D02*
Y02555D01*
X03025Y02895D02*
Y02970D01*
Y02895D02*
X03038Y02881D01*
X03095*
Y02948D02*
Y03035D01*
X03290Y02848D02*
Y02930D01*
X02570Y02715D02*
X02639D01*
X02640Y02715*
X03148Y03188D02*
X03185D01*
X03135Y03175D02*
X03148Y03188D01*
X03135Y02950D02*
Y03175D01*
Y02950D02*
X03155Y02930D01*
X03230*
X03245Y02915*
Y02850D02*
Y02915D01*
X03054Y02715D02*
X03075Y02694D01*
X03060Y02734D02*
X03095Y02700D01*
X02585Y02565D02*
X02621D01*
X02585Y02565D02*
X02585Y02565D01*
X02625Y02490D02*
X02641Y02506D01*
Y02565*
X02975Y02903D02*
Y02955D01*
X03010Y02985D02*
X03025Y02970D01*
X02779Y02884D02*
Y02949D01*
X02815Y02985*
X02798Y02884D02*
Y02938D01*
X02888Y03003D02*
Y03066D01*
X02798Y02938D02*
X02810Y02950D01*
X02838Y02884D02*
Y02928D01*
X02895Y02985*
X03010*
X02810Y02950D02*
X02834D01*
X02887Y03003*
X02888*
X02888Y03003*
X02475Y02754D02*
X02570D01*
X02465Y02745D02*
X02475Y02754D01*
X02445Y02745D02*
X02465D01*
X02519Y02734D02*
X02570D01*
X02505Y02720D02*
X02519Y02734D01*
X02485Y02720D02*
X02505D01*
X02905Y01985D02*
X03030D01*
X02880Y01935D02*
X03030D01*
X02821Y01850D02*
X02876Y01905D01*
X02975*
X02803Y01857D02*
X02880Y01935D01*
X02785Y01865D02*
X02905Y01985D01*
X02790Y01920D02*
X02810D01*
X02661Y02243D02*
Y02565D01*
Y02243D02*
X02670Y02235D01*
Y02135D02*
Y02235D01*
X02720Y02565D02*
Y02634D01*
X02720Y02635D02*
X02720Y02634D01*
X04090Y02490D02*
X04111Y02511D01*
Y02555*
X03905Y02510D02*
X03915Y02520D01*
X04300Y02490D02*
X04345Y02535D01*
Y02680*
X03915Y02520D02*
Y02675D01*
X04715Y03090D02*
X04745D01*
X04770Y03065*
X04660Y03135D02*
X04715Y03190D01*
X03915Y02675D02*
X03940Y02700D01*
X04335*
X02815Y02485D02*
X02851D01*
X01290Y02240D02*
Y02550D01*
Y02650*
X02570Y02813D02*
X02638D01*
X02640Y02815*
X02780Y02350D02*
Y02450D01*
X02815Y02485*
X02739Y02509D02*
Y02565D01*
X02720Y02330D02*
X02815Y02235D01*
X02720Y02330D02*
Y02490D01*
X02739Y02509*
X02759Y02494D02*
Y02565D01*
X02740Y02335D02*
Y02475D01*
X02759Y02494*
X04365Y01975D02*
X04625D01*
X04230Y02110D02*
X04365Y01975D01*
X04230Y02110D02*
Y02270D01*
X04100Y02400D02*
X04230Y02270D01*
X04725Y02075D02*
Y02105D01*
X04680Y01930D02*
X04725Y01975D01*
X04384Y01930D02*
X04680D01*
X04212Y02102D02*
X04384Y01930D01*
X04212Y02102D02*
Y02262D01*
X04092Y02382D02*
X04212Y02262D01*
X04675Y01825D02*
X04725Y01875D01*
X04580Y01825D02*
X04675D01*
X04493Y01912D02*
X04580Y01825D01*
X04377Y01912D02*
X04493D01*
X04194Y02095D02*
X04377Y01912D01*
X04194Y02095D02*
Y02255D01*
X04085Y02364D02*
X04194Y02255D01*
X04569Y01755D02*
X04600Y01725D01*
X04569Y01755D02*
Y01809D01*
X04485Y01894D02*
X04569Y01809D01*
X04369Y01894D02*
X04485D01*
X04176Y02087D02*
X04369Y01894D01*
X04176Y02087D02*
Y02247D01*
X04077Y02346D02*
X04176Y02247D01*
X04478Y01876D02*
X04551Y01802D01*
X04362Y01876D02*
X04478D01*
X04158Y02080D02*
X04362Y01876D01*
X04158Y02080D02*
Y02240D01*
X04533Y01676D02*
X04580Y01630D01*
X04533Y01676D02*
Y01794D01*
X04470Y01858D02*
X04533Y01794D01*
X04354Y01858D02*
X04470D01*
X04140Y02072D02*
X04354Y01858D01*
X04070Y02328D02*
X04158Y02240D01*
X04140Y02072D02*
Y02232D01*
X04062Y02310D02*
X04140Y02232D01*
X04609Y01575D02*
X04625D01*
X04515Y01668D02*
X04609Y01575D01*
X04515Y01668D02*
Y01787D01*
X04463Y01840D02*
X04515Y01787D01*
X04347Y01840D02*
X04463D01*
X04122Y02065D02*
X04347Y01840D01*
X04122Y02065D02*
Y02225D01*
X04055Y02292D02*
X04122Y02225D01*
X04675Y01525D02*
X04725Y01575D01*
X04575Y01525D02*
X04675D01*
X04497Y01602D02*
X04575Y01525D01*
X04497Y01602D02*
Y01779D01*
X04458Y01818D02*
X04497Y01779D01*
X04342Y01818D02*
X04458D01*
X04104Y02057D02*
X04342Y01818D01*
X04104Y02057D02*
Y02215D01*
X04045Y02274D02*
X04104Y02215D01*
X04670Y02370D02*
X04725Y02315D01*
X04755Y01725D02*
X04775Y01745D01*
X04811Y01671D02*
Y02404D01*
X04770Y01630D02*
X04811Y01671D01*
X04690Y01675D02*
X04725D01*
X04645Y01630D02*
X04690Y01675D01*
X04580Y01630D02*
X04645D01*
X04600Y01725D02*
X04650D01*
X04700Y01775*
X04725*
X04625Y01675D02*
X04635D01*
X04685Y01725*
X04755*
X04625Y01575D02*
X04635D01*
X04690Y01630*
X04770*
X04750Y02465D02*
X04811Y02404D01*
X04725Y02415D02*
X04793Y02347D01*
X04625Y02315D02*
X04775Y02165D01*
Y01745D02*
Y02165D01*
X04645Y02465D02*
X04695Y02515D01*
X04725*
X04625Y02415D02*
X04635D01*
X04685Y02465*
X04750*
X04605D02*
X04645D01*
X04540Y02370D02*
X04670D01*
X04107Y02418D02*
X04255Y02270D01*
X04114Y02436D02*
X04262Y02288D01*
X04458*
X04540Y02370*
X04122Y02454D02*
X04270Y02306D01*
X04446*
X04605Y02465*
X04129Y02472D02*
X04277Y02324D01*
X04434*
X04625Y02515*
X04640Y02190D02*
X04725Y02105D01*
X04550Y02190D02*
X04640D01*
X04470Y02270D02*
X04550Y02190D01*
X04255Y02270D02*
X04470D01*
X03110Y02210D02*
X03154Y02255D01*
X03142Y02215D02*
X03163Y02237D01*
X03160Y02208D02*
X03170Y02219D01*
X03045Y02560D02*
X03055D01*
X03075Y02565D02*
Y02694D01*
X03020Y02525D02*
X03060D01*
X03050Y02490D02*
X03069D01*
X03050Y02245D02*
X03059D01*
X02575Y02315D02*
Y02463D01*
X03095Y02570D02*
Y02700D01*
X03050Y02430D02*
X03078D01*
X03160Y02110D02*
Y02208D01*
X03142Y02145D02*
Y02215D01*
X03030Y02185D02*
X03110D01*
Y02210*
X03050Y02370D02*
X03085D01*
X03060Y02340D02*
X03066Y02346D01*
X03050Y02310D02*
X03060D01*
X03083Y02400D02*
X03101Y02382D01*
X03085Y02370D02*
X03091Y02364D01*
X03100Y02245D02*
X03129Y02274D01*
X03059Y02245D02*
X03106Y02292D01*
X03060Y02280D02*
X03078Y02298D01*
Y02298*
X03090Y02310*
X03060D02*
X03078Y02328D01*
X03020Y02340D02*
X03060D01*
X03074Y02460D02*
X03116Y02418D01*
X03078Y02430D02*
X03108Y02400D01*
X03020D02*
X03083D01*
X03095Y02570D02*
X03155Y02510D01*
X03075Y02565D02*
X03150Y02490D01*
X03055Y02560D02*
X03143Y02472D01*
X03060Y02525D02*
X03131Y02454D01*
X03069Y02490D02*
X03123Y02436D01*
X03020Y02460D02*
X03074D01*
X02991Y02214D02*
Y02624D01*
X03020Y02280D02*
X03060D01*
X02973Y02140D02*
Y02617D01*
X02955Y02105D02*
Y02610D01*
X02815Y02235D02*
X02875D01*
X02822Y02253D02*
X02882D01*
X02935Y02200*
X02740Y02335D02*
X02822Y02253D01*
X02810Y01920D02*
X02915Y02025D01*
Y02195*
X02875Y02235D02*
X02915Y02195D01*
X02935Y02055D02*
Y02200D01*
Y02055D02*
X02955Y02035D01*
X02759Y02884D02*
Y03140D01*
X02695Y03205D02*
X02759Y03140D01*
X02660Y03205D02*
X02695D01*
X02630Y02940D02*
X02641Y02928D01*
X02485Y02933D02*
X02546D01*
X02595Y02884*
X02621*
X02553Y02961D02*
Y02995D01*
Y02961D02*
X02575Y02940D01*
X02630*
Y02970D02*
X02661Y02938D01*
X02615Y02970D02*
X02630D01*
X02889Y02793D02*
X02931D01*
X03015Y02685D02*
X03040D01*
X02889Y02695D02*
X03004D01*
X03015Y02685*
X02889Y02715D02*
X03054D01*
X02889Y02734D02*
X03060D01*
X02931Y02793D02*
X02945Y02780D01*
Y02770D02*
X02955Y02760D01*
X02945Y02770D02*
Y02780D01*
X02955Y02760D02*
X03065D01*
X02975Y02790D02*
Y02836D01*
X03065Y02760D02*
X03085Y02780D01*
X03195*
X03225Y02830D02*
X03245Y02850D01*
X03080Y02830D02*
X03225D01*
X03040Y02790D02*
X03080Y02830D01*
X03170Y02219D02*
X03391D01*
X03465Y02145*
X03163Y02237D02*
X03398D01*
X03470Y02165*
X03154Y02255D02*
X03410D01*
X03480Y02185*
X03129Y02274D02*
X04045D01*
X03106Y02292D02*
X04055D01*
X03090Y02310D02*
X04062D01*
X03078Y02328D02*
X04070D01*
X03066Y02346D02*
X04077D01*
X03091Y02364D02*
X04085D01*
X03101Y02382D02*
X04092D01*
X03108Y02400D02*
X04100D01*
X03116Y02418D02*
X04107D01*
X03123Y02436D02*
X04114D01*
X03131Y02454D02*
X04122D01*
X03143Y02472D02*
X04129D01*
X03150Y02490D02*
X04300D01*
X03155Y02510D02*
X03905D01*
X03360Y02545D02*
Y02680D01*
X04770Y02965D02*
Y03065D01*
X04345Y02680D02*
X04600Y02935D01*
X04740*
X04770Y02965*
X04335Y02700D02*
X04660Y03025D01*
Y03135*
X04725Y01675D02*
X04760D01*
X04793Y01708*
Y02347*
X04551Y01728D02*
Y01802D01*
Y01728D02*
X04605Y01675D01*
X04625*
X02431Y02621D02*
X02505Y02695D01*
X02540Y02525D02*
X02620Y02445D01*
X02540Y02525D02*
Y02586D01*
X02570Y02616*
X02700Y02884D02*
Y03029D01*
X02683Y03046D02*
X02700Y03029D01*
G54D39*
X01625Y02015D02*
X01746D01*
X01603Y02036D02*
X01625Y02015D01*
X01603Y02036D02*
Y02101D01*
X01572Y02070D02*
X01603Y02101D01*
X01517Y02070D02*
X01572D01*
X04105Y03217D02*
X04155D01*
X04153Y03085D02*
Y03113D01*
X04205Y03165*
Y03217*
X03970Y03009D02*
X04070D01*
X03705Y03010D02*
Y03083D01*
X03501Y03120D02*
X03583D01*
X03250Y03355D02*
X03315D01*
X03237Y03342D02*
X03250Y03355D01*
X01320Y02443D02*
X01407D01*
X01408Y02445*
X02190Y01910D02*
X02265D01*
X02190Y01860D02*
X02265D01*
X02190Y01810D02*
X02265D01*
X02190Y01760D02*
X02265D01*
X02454Y01910D02*
X02525D01*
X02454Y01860D02*
X02525D01*
X02454Y01760D02*
X02525D01*
X02454Y01710D02*
X02525D01*
X02850Y01770D02*
Y01803D01*
X02881Y01835*
X03219Y02085D02*
Y02135D01*
Y02185*
X03759Y02085D02*
Y02135D01*
Y02185*
X03562Y01826D02*
X03570Y01835D01*
X03495Y01826D02*
X03562D01*
X03470Y01890D02*
X03491D01*
X03455Y01790D02*
X03470Y01775D01*
X03455Y01790D02*
Y01875D01*
X03470Y01890*
X03690Y01935D02*
X03759D01*
X03219D02*
X03285D01*
X03570Y01835D02*
X03640D01*
X03219Y02085D02*
X03285D01*
X03759D02*
X03840D01*
X02515Y03380D02*
X02544Y03409D01*
Y03450*
X02515Y03330D02*
X02565D01*
X02575Y03340*
X02604*
X02112Y01710D02*
X02265D01*
X02110Y01707D02*
X02112Y01710D01*
X02263Y01635D02*
Y01708D01*
X02265Y01710*
X02395Y02010D02*
X02454D01*
X02380Y02025D02*
X02395Y02010D01*
X02380Y01675D02*
X02395Y01660D01*
X02580*
X02595Y01675*
Y01708*
X02510Y01960D02*
X02524Y01974D01*
Y02046*
X02510Y02060D02*
X02524Y02046D01*
X02454Y01960D02*
X02510D01*
X02454Y02060D02*
X02510D01*
X02125Y02758D02*
Y02891D01*
X02890Y03223D02*
Y03336D01*
X02403Y02226D02*
Y02290D01*
Y02226D02*
X02405Y02225D01*
X02454Y02129D02*
X02455Y02130D01*
X02454Y02060D02*
Y02129D01*
X02485Y02995D02*
X02486D01*
X03265Y03220D02*
Y03235D01*
X03250Y03250D02*
X03265Y03235D01*
X04153Y03061D02*
Y03085D01*
Y03061D02*
X04170Y03045D01*
Y03020D02*
Y03045D01*
X03970Y03009D02*
Y03081D01*
X04070Y03009D02*
Y03068D01*
X04086Y03085*
X03973D02*
Y03118D01*
X03962Y03130D02*
X03973Y03118D01*
X03840Y03085D02*
X03850Y03095D01*
Y03120*
X03860Y03130*
X03962*
X03967Y03415D02*
X03972D01*
X03980*
X04155Y03402D02*
Y03437D01*
X03892Y03337D02*
X03897Y03332D01*
X03892Y03337D02*
Y03495D01*
X04055Y03402D02*
Y03455D01*
X04090Y03490*
X03892Y03495D02*
X03985D01*
X03817D02*
Y03547D01*
X04040Y03701D02*
X04181Y03560D01*
X04235*
X04163Y03495D02*
X04205Y03453D01*
Y03402D02*
Y03453D01*
X04163Y03500D02*
X04225D01*
X03935Y03247D02*
X03947D01*
X03773Y03085D02*
X03835D01*
X03840*
X04105Y03360D02*
Y03402D01*
X03985Y03495D02*
X04020Y03460D01*
Y03355D02*
Y03460D01*
X03972Y03332D02*
X03989Y03315D01*
X04020Y03355D02*
X04030Y03345D01*
X04090*
X04105Y03360*
X04277Y03345D02*
X04280Y03347D01*
X04240Y03345D02*
X04277D01*
X04210Y03315D02*
X04240Y03345D01*
X03989Y03315D02*
X04210D01*
X04155D02*
Y03402D01*
X04235Y03560D02*
X04280Y03515D01*
Y03422D02*
Y03515D01*
X03195Y02580D02*
X03273D01*
X03290Y02596*
X02544Y03450D02*
X02590D01*
X02485Y02933D02*
Y02995D01*
X04020Y02580D02*
X04045D01*
X04070Y02605*
Y02635*
X03195Y03342D02*
X03237D01*
X04020Y02565D02*
Y02580D01*
Y02565D02*
X04060Y02525D01*
X03817Y03547D02*
X03840Y03570D01*
Y03701*
G54D40*
X02015Y02135D03*
G54D41*
X01692Y02275D03*
G54D42*
X02170Y03780D03*
X01466Y02770D03*
X02010Y01140D03*
X01505Y01465D03*
Y01135D03*
X04015Y01265D03*
Y01565D03*
X03035Y01265D03*
X02890Y03065D03*
X02620Y02085D03*
G54D43*
X04625Y02615D03*
X04715Y03390D03*
X04625Y02075D03*
X03195Y02580D03*
G54D44*
X01465Y03140D03*
G54D45*
X01565Y03140D03*
X01665D03*
G54D46*
X03315Y03355D03*
X03415D03*
X03515D03*
X03615D03*
G54D47*
X03840Y03701D03*
X04040D03*
X04240D03*
X01676Y03705D03*
X01873D03*
G54D48*
X02895Y01660D03*
X02955D03*
X03025D03*
X03090D03*
X03155D03*
X03220D03*
X03290D03*
X03355D03*
X03435D03*
X03500D03*
X03565D03*
X03630D03*
X03695D03*
X03760D03*
X03825D03*
X03890D03*
X02010Y01360D03*
X02110D03*
X02210D03*
X02310D03*
X02410D03*
X02510D03*
X02610Y01360D03*
X02710Y01360D03*
X02190Y01860D03*
Y01810D03*
Y01760D03*
Y01910D03*
X02525D03*
Y01860D03*
Y01760D03*
Y01710D03*
X03130Y01835D03*
X02850Y01770D03*
X03280Y01835D03*
X03840D03*
Y02035D03*
X03470Y01775D03*
X03285Y01935D03*
X03690D03*
X02950Y01875D03*
X03640Y01835D03*
X03285Y02085D03*
X03840D03*
X02190Y02060D03*
Y02010D03*
Y01960D03*
X03110Y02085D03*
Y02135D03*
X01675Y01970D03*
X02585Y02565D03*
X02625Y02490D03*
X02575Y02315D03*
X01373Y01970D03*
X02405Y02225D03*
X02455Y02130D03*
X02670Y02985D03*
X02615Y03035D03*
X02755Y02700D03*
X02785Y02670D03*
X02815Y02640D03*
X02760Y02785D03*
X02725Y02730D03*
X02795Y02760D03*
X04225Y03500D03*
X03835Y03085D03*
X02975Y02955D03*
X03095Y03035D03*
X03290Y02930D03*
X02640Y02715D03*
X03040Y02790D03*
Y02685D03*
X02660Y03205D03*
X02825Y02985D03*
X02400Y03035D03*
X02445Y02745D03*
X02485Y02720D03*
X02955Y02035D03*
X02790Y01920D03*
X02720Y02635D03*
X03875Y02705D03*
X03505D03*
X04020Y02580D03*
X01925Y02410D03*
X02015D03*
X02155Y02455D03*
X01290Y02550D03*
X01965Y01635D03*
X02680Y01875D03*
Y01770D03*
X02615Y03275D03*
X02640Y02815D03*
X02780Y02350D03*
X03045Y02560D03*
X03020Y02525D03*
X03050Y02490D03*
X03100Y02245D03*
X03050D03*
Y02430D03*
X03110Y02185D03*
X03050Y02370D03*
Y02310D03*
X03020Y02340D03*
Y02400D03*
Y02460D03*
Y02280D03*
X02920Y02305D03*
X02615Y02970D03*
X03360Y02680D03*
X02990Y03395D03*
X02975Y02790D03*
X03050Y03340D03*
X02020Y02670D03*
X03360Y02545D03*
X03145Y03250D03*
X04060Y02525D03*
X04365Y02090D03*
X03890Y01096D03*
X01920Y02175D03*
X01968D03*
X02017D03*
X02066D03*
X02115D03*
Y02100D03*
X02066D03*
X02017D03*
X01968D03*
X01920D03*
X02115Y02030D03*
X02066D03*
X02017D03*
X01968D03*
X01920D03*
X01795Y02220D03*
X01746D03*
X01697D03*
X01648D03*
X01600D03*
X01795Y02300D03*
X01746D03*
X01697D03*
X01648D03*
X01600D03*
X01795Y02370D03*
X01746D03*
X01697D03*
X01648D03*
X01600D03*
M02*