%FSDAX23Y23*%
%MOIN*%
%SFA1B1*%

%IPPOS*%
%ADD12R,0.039400X0.043300*%
%ADD35C,0.059100*%
%ADD42R,0.059100X0.059100*%
%ADD43R,0.059100X0.059100*%
%ADD44R,0.066900X0.066900*%
%ADD45C,0.066900*%
%ADD46C,0.060000*%
%ADD47C,0.098400*%
%ADD49R,0.032700X0.024800*%
%LNde-110817-1*%
%LPD*%
G54D12*
X03835Y01163D03*
Y01096D03*
X03775Y01163D03*
Y01096D03*
X03715Y01163D03*
Y01096D03*
X03656Y01163D03*
Y01096D03*
X03596Y01163D03*
Y01096D03*
X03415Y01163D03*
Y01096D03*
X03535Y01163D03*
Y01096D03*
X03357Y01163D03*
Y01096D03*
X03475Y01163D03*
Y01096D03*
X03298Y01163D03*
Y01096D03*
X03238Y01163D03*
Y01096D03*
X03178Y01163D03*
Y01096D03*
X03119Y01163D03*
Y01096D03*
X03059Y01163D03*
Y01096D03*
X02999Y01163D03*
Y01096D03*
X02940Y01163D03*
Y01096D03*
X02895Y01706D03*
Y01773D03*
X02955Y01711D03*
Y01778D03*
X03025Y01711D03*
Y01778D03*
X03090Y01706D03*
Y01773D03*
X03355Y01706D03*
Y01773D03*
X03290Y01706D03*
Y01773D03*
X03220Y01706D03*
Y01773D03*
X03155Y01706D03*
Y01773D03*
X03435Y01706D03*
Y01773D03*
X03500Y01706D03*
Y01773D03*
X03565Y01706D03*
Y01773D03*
X03630Y01706D03*
Y01773D03*
X03890Y01706D03*
Y01773D03*
X03825Y01706D03*
Y01773D03*
X03760Y01706D03*
Y01773D03*
X03695Y01706D03*
Y01773D03*
X02170Y03611D03*
Y03678D03*
X02270Y03611D03*
Y03678D03*
X02370Y03611D03*
Y03678D03*
X02470Y03611D03*
Y03678D03*
X02570Y03611D03*
Y03678D03*
X02670Y03611D03*
Y03678D03*
X02770Y03611D03*
Y03678D03*
X02870Y03611D03*
Y03678D03*
G54D35*
X02270Y03780D03*
X02970D03*
X02870D03*
X02770D03*
X02670D03*
X02570D03*
X02470D03*
X02370D03*
X01663Y02770D03*
X04725Y02615D03*
X04625Y02515D03*
X04725D03*
X04625Y02415D03*
X04725D03*
X04625Y02315D03*
X04725D03*
X04715Y03290D03*
Y03190D03*
Y03090D03*
Y02990D03*
X04725Y01475D03*
X04625D03*
X04725Y01575D03*
X04625D03*
X04725Y01675D03*
X04625D03*
X04725Y01775D03*
X04625D03*
X04725Y01875D03*
X04625D03*
X04725Y01975D03*
X04625D03*
X04725Y02075D03*
X02710Y01140D03*
X02610D03*
X02510D03*
X02410D03*
X02310D03*
X02210D03*
X02110D03*
X01505Y01565D03*
X01605Y01465D03*
Y01565D03*
X01705Y01465D03*
Y01565D03*
X01805Y01465D03*
Y01565D03*
X01505Y01235D03*
X01605Y01135D03*
Y01235D03*
X01705Y01135D03*
Y01235D03*
X01805Y01135D03*
Y01235D03*
X04015Y01365D03*
X04115Y01265D03*
Y01365D03*
X04215Y01265D03*
Y01365D03*
X04315Y01265D03*
Y01365D03*
X04015Y01665D03*
X04115Y01565D03*
Y01665D03*
X04215Y01565D03*
Y01665D03*
X04315Y01565D03*
Y01665D03*
X03195Y02680D03*
Y02780D03*
Y02880D03*
Y02980D03*
X03735Y01365D03*
Y01265D03*
X03635Y01365D03*
Y01265D03*
X03535Y01365D03*
Y01265D03*
X03435Y01365D03*
Y01265D03*
X03335Y01365D03*
Y01265D03*
X03235Y01365D03*
Y01265D03*
X03135Y01365D03*
Y01265D03*
X03035Y01365D03*
X02990Y03065D03*
X02820Y02185D03*
Y02085D03*
X02720Y02185D03*
Y02085D03*
X02620Y02185D03*
G54D42*
X02170Y03780D03*
X01466Y02770D03*
X02010Y01140D03*
X01505Y01465D03*
Y01135D03*
X04015Y01265D03*
Y01565D03*
X03035Y01265D03*
X02890Y03065D03*
X02620Y02085D03*
G54D43*
X04625Y02615D03*
X04715Y03390D03*
X04625Y02075D03*
X03195Y02580D03*
G54D44*
X01465Y03140D03*
G54D45*
X01565Y03140D03*
X01665D03*
G54D46*
X03315Y03355D03*
X03415D03*
X03515D03*
X03615D03*
G54D47*
X03840Y03701D03*
X04040D03*
X04240D03*
X01676Y03705D03*
X01873D03*
G54D49*
X02895Y01613D03*
Y01526D03*
X02955Y01613D03*
Y01526D03*
X03025Y01613D03*
Y01526D03*
X03090Y01613D03*
Y01526D03*
X03355Y01613D03*
Y01526D03*
X03290Y01613D03*
Y01526D03*
X03220Y01613D03*
Y01526D03*
X03155Y01613D03*
Y01526D03*
X03435Y01613D03*
Y01526D03*
X03500Y01613D03*
Y01526D03*
X03565Y01613D03*
Y01526D03*
X03630Y01613D03*
Y01526D03*
X03890Y01613D03*
Y01526D03*
X03825Y01613D03*
Y01526D03*
X03760Y01613D03*
Y01526D03*
X03695Y01613D03*
Y01526D03*
M02*