%FSDAX23Y23*%
%MOIN*%
%SFA1B1*%

%IPPOS*%
%ADD56C,0.003900*%
%ADD94C,0.002000*%
%LNde-110817-1*%
%LPD*%
G54D56*
X02065Y01805D02*
Y01844D01*
X02045Y01825D02*
X02084D01*
X01986Y01787D02*
X02143D01*
X01986Y01862D02*
X02143D01*
Y01787D02*
Y01862D01*
X01986Y01787D02*
Y01862D01*
X03812Y01803D02*
Y02216D01*
X03517Y01803D02*
Y02216D01*
Y01803D02*
X03812D01*
X03517Y02216D02*
X03812D01*
X03645Y02010D02*
X03684D01*
X03665Y01990D02*
Y02029D01*
X01455Y02425D02*
Y02464D01*
X01435Y02445D02*
X01474D01*
X01376Y02407D02*
X01533D01*
X01376Y02482D02*
X01533D01*
Y02407D02*
Y02482D01*
X01376Y02407D02*
Y02482D01*
X01674Y02220D02*
X01714D01*
X01694Y02200D02*
Y02239D01*
X01836Y02048D02*
Y02391D01*
X01552Y02048D02*
Y02391D01*
X01836*
X01552Y02048D02*
X01836D01*
X02507Y01678D02*
Y02091D01*
X02212Y01678D02*
Y02091D01*
Y01678D02*
X02507D01*
X02212Y02091D02*
X02507D01*
X02340Y01885D02*
X02379D01*
X02360Y01865D02*
Y01904D01*
X01560Y01875D02*
Y01914D01*
X01540Y01895D02*
X01579D01*
X04110Y03310D02*
X04149D01*
X04130Y03290D02*
Y03329D01*
X04232Y03176D02*
Y03443D01*
X04027Y03176D02*
Y03443D01*
X04232*
X04027Y03176D02*
X04232D01*
X03915Y03290D02*
X03954D01*
X03935Y03270D02*
Y03309D01*
X03872Y03227D02*
Y03353D01*
X03998Y03227D02*
Y03353D01*
X03872Y03227D02*
X03998D01*
X03872Y03353D02*
X03998D01*
X02450Y02270D02*
Y02309D01*
X02430Y02290D02*
X02469D01*
X02371Y02252D02*
X02528D01*
X02371Y02327D02*
X02528D01*
Y02252D02*
Y02327D01*
X02371Y02252D02*
Y02327D01*
X02710Y02725D02*
X02749D01*
X02730Y02705D02*
Y02744D01*
X02875Y01570D02*
X02914D01*
X02895Y01550D02*
Y01589D01*
X02935Y01570D02*
X02974D01*
X02955Y01550D02*
Y01589D01*
X03005Y01570D02*
X03044D01*
X03025Y01550D02*
Y01589D01*
X03070Y01570D02*
X03109D01*
X03090Y01550D02*
Y01589D01*
X03335Y01570D02*
X03374D01*
X03355Y01550D02*
Y01589D01*
X03270Y01570D02*
X03309D01*
X03290Y01550D02*
Y01589D01*
X03200Y01570D02*
X03239D01*
X03220Y01550D02*
Y01589D01*
X03135Y01570D02*
X03174D01*
X03155Y01550D02*
Y01589D01*
X03415Y01570D02*
X03454D01*
X03435Y01550D02*
Y01589D01*
X03480Y01570D02*
X03519D01*
X03500Y01550D02*
Y01589D01*
X03545Y01570D02*
X03584D01*
X03565Y01550D02*
Y01589D01*
X03610Y01570D02*
X03649D01*
X03630Y01550D02*
Y01589D01*
X03870Y01570D02*
X03909D01*
X03890Y01550D02*
Y01589D01*
X03805Y01570D02*
X03844D01*
X03825Y01550D02*
Y01589D01*
X03740Y01570D02*
X03779D01*
X03760Y01550D02*
Y01589D01*
X03675Y01570D02*
X03714D01*
X03695Y01550D02*
Y01589D01*
X02420Y03285D02*
Y03324D01*
X02400Y03305D02*
X02440D01*
X02272Y03196D02*
X02568D01*
X02272Y03413D02*
X02568D01*
Y03196D02*
Y03413D01*
X02272Y03196D02*
Y03413D01*
X03272Y01803D02*
Y02216D01*
X02977Y01803D02*
Y02216D01*
Y01803D02*
X03272D01*
X02977Y02216D02*
X03272D01*
X03105Y02010D02*
X03144D01*
X03125Y01990D02*
Y02029D01*
G54D94*
X01483Y01826D02*
X01636D01*
X01483Y01963D02*
X01636D01*
Y01826D02*
Y01963D01*
X01483Y01826D02*
Y01963D01*
X02525Y02520D02*
Y02929D01*
X02934Y02520D02*
Y02929D01*
X02525D02*
X02934D01*
X02525Y02520D02*
X02934D01*
X02864Y01509D02*
X02925D01*
Y01630*
X02864D02*
X02925D01*
X02864Y01509D02*
Y01630D01*
X02924Y01509D02*
X02985D01*
Y01630*
X02924D02*
X02985D01*
X02924Y01509D02*
Y01630D01*
X02994Y01509D02*
X03055D01*
Y01630*
X02994D02*
X03055D01*
X02994Y01509D02*
Y01630D01*
X03059Y01509D02*
X03120D01*
Y01630*
X03059D02*
X03120D01*
X03059Y01509D02*
Y01630D01*
X03324Y01509D02*
X03385D01*
Y01630*
X03324D02*
X03385D01*
X03324Y01509D02*
Y01630D01*
X03259Y01509D02*
X03320D01*
Y01630*
X03259D02*
X03320D01*
X03259Y01509D02*
Y01630D01*
X03189Y01509D02*
X03250D01*
Y01630*
X03189D02*
X03250D01*
X03189Y01509D02*
Y01630D01*
X03124Y01509D02*
X03185D01*
Y01630*
X03124D02*
X03185D01*
X03124Y01509D02*
Y01630D01*
X03404Y01509D02*
X03465D01*
Y01630*
X03404D02*
X03465D01*
X03404Y01509D02*
Y01630D01*
X03469Y01509D02*
X03530D01*
Y01630*
X03469D02*
X03530D01*
X03469Y01509D02*
Y01630D01*
X03534Y01509D02*
X03595D01*
Y01630*
X03534D02*
X03595D01*
X03534Y01509D02*
Y01630D01*
X03599Y01509D02*
X03660D01*
Y01630*
X03599D02*
X03660D01*
X03599Y01509D02*
Y01630D01*
X03859Y01509D02*
X03920D01*
Y01630*
X03859D02*
X03920D01*
X03859Y01509D02*
Y01630D01*
X03794Y01509D02*
X03855D01*
Y01630*
X03794D02*
X03855D01*
X03794Y01509D02*
Y01630D01*
X03729Y01509D02*
X03790D01*
Y01630*
X03729D02*
X03790D01*
X03729Y01509D02*
Y01630D01*
X03664Y01509D02*
X03725D01*
Y01630*
X03664D02*
X03725D01*
X03664Y01509D02*
Y01630D01*
M02*