%FSDAX23Y23*%
%MOIN*%
%SFA1B1*%

%IPPOS*%
%ADD38C,0.010000*%
%ADD56C,0.003900*%
%LNde-110817-1*%
%LPD*%
G54D38*
X04118Y03701D02*
D01*
X04118Y03706*
X04117Y03712*
X04116Y03717*
X04115Y03723*
X04113Y03728*
X04111Y03733*
X04109Y03738*
X04106Y03743*
X04103Y03747*
X04100Y03752*
X04096Y03756*
X04092Y03759*
X04088Y03763*
X04084Y03766*
X04079Y03769*
X04074Y03772*
X04069Y03774*
X04064Y03776*
X04059Y03777*
X04053Y03779*
X04048Y03779*
X04042Y03780*
X04037*
X04031Y03779*
X04026Y03779*
X04020Y03777*
X04015Y03776*
X04010Y03774*
X04005Y03772*
X04000Y03769*
X03995Y03766*
X03991Y03763*
X03987Y03759*
X03983Y03756*
X03979Y03752*
X03976Y03747*
X03973Y03743*
X03970Y03738*
X03968Y03733*
X03966Y03728*
X03964Y03723*
X03963Y03717*
X03962Y03712*
X03961Y03706*
X03961Y03701*
X03961Y03696*
X03962Y03690*
X03963Y03685*
X03964Y03679*
X03966Y03674*
X03968Y03669*
X03970Y03664*
X03973Y03659*
X03976Y03655*
X03979Y03650*
X03983Y03646*
X03987Y03643*
X03991Y03639*
X03995Y03636*
X04000Y03633*
X04005Y03630*
X04010Y03628*
X04015Y03626*
X04020Y03625*
X04026Y03623*
X04031Y03623*
X04037Y03622*
X04042*
X04048Y03623*
X04053Y03623*
X04059Y03625*
X04064Y03626*
X04069Y03628*
X04074Y03630*
X04079Y03633*
X04084Y03636*
X04088Y03639*
X04092Y03643*
X04096Y03646*
X04100Y03650*
X04103Y03655*
X04106Y03659*
X04109Y03664*
X04111Y03669*
X04113Y03674*
X04115Y03679*
X04116Y03685*
X04117Y03690*
X04118Y03696*
X04118Y03701*
X03917D02*
D01*
X03917Y03706*
X03916Y03712*
X03915Y03717*
X03914Y03723*
X03912Y03728*
X03910Y03733*
X03907Y03738*
X03905Y03743*
X03902Y03747*
X03898Y03752*
X03895Y03756*
X03891Y03759*
X03886Y03763*
X03882Y03766*
X03877Y03769*
X03872Y03772*
X03867Y03774*
X03862Y03776*
X03857Y03777*
X03852Y03779*
X03846Y03779*
X03841Y03780*
X03835*
X03830Y03779*
X03824Y03779*
X03819Y03777*
X03814Y03776*
X03809Y03774*
X03804Y03772*
X03799Y03769*
X03794Y03766*
X03790Y03763*
X03785Y03759*
X03781Y03756*
X03778Y03752*
X03774Y03747*
X03771Y03743*
X03769Y03738*
X03766Y03733*
X03764Y03728*
X03762Y03723*
X03761Y03717*
X03760Y03712*
X03759Y03706*
X03759Y03701*
X03759Y03696*
X03760Y03690*
X03761Y03685*
X03762Y03679*
X03764Y03674*
X03766Y03669*
X03769Y03664*
X03771Y03659*
X03774Y03655*
X03778Y03650*
X03781Y03646*
X03785Y03643*
X03790Y03639*
X03794Y03636*
X03799Y03633*
X03804Y03630*
X03809Y03628*
X03814Y03626*
X03819Y03625*
X03824Y03623*
X03830Y03623*
X03835Y03622*
X03841*
X03846Y03623*
X03852Y03623*
X03857Y03625*
X03862Y03626*
X03867Y03628*
X03872Y03630*
X03877Y03633*
X03882Y03636*
X03886Y03639*
X03891Y03643*
X03895Y03646*
X03898Y03650*
X03902Y03655*
X03905Y03659*
X03907Y03664*
X03910Y03669*
X03912Y03674*
X03914Y03679*
X03915Y03685*
X03916Y03690*
X03917Y03696*
X03917Y03701*
X04317D02*
D01*
X04317Y03706*
X04316Y03712*
X04315Y03717*
X04314Y03723*
X04312Y03728*
X04310Y03733*
X04307Y03738*
X04305Y03743*
X04302Y03747*
X04298Y03752*
X04295Y03756*
X04291Y03759*
X04286Y03763*
X04282Y03766*
X04277Y03769*
X04272Y03772*
X04267Y03774*
X04262Y03776*
X04257Y03777*
X04252Y03779*
X04246Y03779*
X04241Y03780*
X04235*
X04230Y03779*
X04224Y03779*
X04219Y03777*
X04214Y03776*
X04209Y03774*
X04204Y03772*
X04199Y03769*
X04194Y03766*
X04190Y03763*
X04185Y03759*
X04181Y03756*
X04178Y03752*
X04174Y03747*
X04171Y03743*
X04169Y03738*
X04166Y03733*
X04164Y03728*
X04162Y03723*
X04161Y03717*
X04160Y03712*
X04159Y03706*
X04159Y03701*
X04159Y03696*
X04160Y03690*
X04161Y03685*
X04162Y03679*
X04164Y03674*
X04166Y03669*
X04169Y03664*
X04171Y03659*
X04174Y03655*
X04178Y03650*
X04181Y03646*
X04185Y03643*
X04190Y03639*
X04194Y03636*
X04199Y03633*
X04204Y03630*
X04209Y03628*
X04214Y03626*
X04219Y03625*
X04224Y03623*
X04230Y03623*
X04235Y03622*
X04241*
X04246Y03623*
X04252Y03623*
X04257Y03625*
X04262Y03626*
X04267Y03628*
X04272Y03630*
X04277Y03633*
X04282Y03636*
X04286Y03639*
X04291Y03643*
X04295Y03646*
X04298Y03650*
X04302Y03655*
X04305Y03659*
X04307Y03664*
X04310Y03669*
X04312Y03674*
X04314Y03679*
X04315Y03685*
X04316Y03690*
X04317Y03696*
X04317Y03701*
X01755Y03705D02*
D01*
X01755Y03710*
X01754Y03715*
X01753Y03721*
X01752Y03726*
X01750Y03731*
X01748Y03737*
X01746Y03741*
X01743Y03746*
X01740Y03751*
X01736Y03755*
X01733Y03759*
X01729Y03763*
X01725Y03767*
X01720Y03770*
X01715Y03773*
X01711Y03775*
X01706Y03777*
X01700Y03779*
X01695Y03781*
X01690Y03782*
X01684Y03783*
X01679Y03783*
X01673*
X01668Y03783*
X01662Y03782*
X01657Y03781*
X01652Y03779*
X01647Y03777*
X01642Y03775*
X01637Y03773*
X01632Y03770*
X01628Y03767*
X01623Y03763*
X01619Y03759*
X01616Y03755*
X01612Y03751*
X01609Y03746*
X01607Y03741*
X01604Y03737*
X01602Y03731*
X01600Y03726*
X01599Y03721*
X01598Y03715*
X01598Y03710*
X01597Y03705*
X01598Y03699*
X01598Y03694*
X01599Y03688*
X01600Y03683*
X01602Y03678*
X01604Y03672*
X01607Y03668*
X01609Y03663*
X01612Y03658*
X01616Y03654*
X01619Y03650*
X01623Y03646*
X01628Y03642*
X01632Y03639*
X01637Y03636*
X01642Y03634*
X01647Y03632*
X01652Y03630*
X01657Y03628*
X01662Y03627*
X01668Y03626*
X01673Y03626*
X01679*
X01684Y03626*
X01690Y03627*
X01695Y03628*
X01700Y03630*
X01706Y03632*
X01711Y03634*
X01715Y03636*
X01720Y03639*
X01725Y03642*
X01729Y03646*
X01733Y03650*
X01736Y03654*
X01740Y03658*
X01743Y03663*
X01746Y03668*
X01748Y03672*
X01750Y03678*
X01752Y03683*
X01753Y03688*
X01754Y03694*
X01755Y03699*
X01755Y03705*
X01953D02*
D01*
X01953Y03710*
X01952Y03715*
X01951Y03721*
X01950Y03726*
X01948Y03731*
X01946Y03737*
X01944Y03741*
X01941Y03746*
X01938Y03751*
X01935Y03755*
X01931Y03759*
X01927Y03763*
X01923Y03767*
X01919Y03770*
X01914Y03773*
X01909Y03775*
X01904Y03777*
X01899Y03779*
X01894Y03781*
X01888Y03782*
X01883Y03783*
X01877Y03783*
X01872*
X01866Y03783*
X01861Y03782*
X01855Y03781*
X01850Y03779*
X01845Y03777*
X01840Y03775*
X01835Y03773*
X01830Y03770*
X01826Y03767*
X01822Y03763*
X01818Y03759*
X01814Y03755*
X01811Y03751*
X01808Y03746*
X01805Y03741*
X01803Y03737*
X01801Y03731*
X01799Y03726*
X01798Y03721*
X01797Y03715*
X01796Y03710*
X01796Y03705*
X01796Y03699*
X01797Y03694*
X01798Y03688*
X01799Y03683*
X01801Y03678*
X01803Y03672*
X01805Y03668*
X01808Y03663*
X01811Y03658*
X01814Y03654*
X01818Y03650*
X01822Y03646*
X01826Y03642*
X01830Y03639*
X01835Y03636*
X01840Y03634*
X01845Y03632*
X01850Y03630*
X01855Y03628*
X01861Y03627*
X01866Y03626*
X01872Y03626*
X01877*
X01883Y03626*
X01888Y03627*
X01894Y03628*
X01899Y03630*
X01904Y03632*
X01909Y03634*
X01914Y03636*
X01919Y03639*
X01923Y03642*
X01927Y03646*
X01931Y03650*
X01935Y03654*
X01938Y03658*
X01941Y03663*
X01944Y03668*
X01946Y03672*
X01948Y03678*
X01950Y03683*
X01951Y03688*
X01952Y03694*
X01953Y03699*
X01953Y03705*
X03980Y03746D02*
X04085Y03641D01*
X04000Y03766D02*
X04105Y03661D01*
X03780Y03656D02*
X03885Y03761D01*
X03795Y03636D02*
X03902Y03744D01*
X04180Y03656D02*
X04285Y03761D01*
X04195Y03636D02*
X04302Y03744D01*
X01810Y03745D02*
X01915Y03640D01*
X01830Y03765D02*
Y03770D01*
Y03765D02*
X01935Y03660D01*
X01612Y03662D02*
X01720Y03770D01*
X01630Y03645D02*
X01735Y03750D01*
G54D56*
X04560Y03277D02*
Y03292D01*
X04552Y03285D02*
X04567D01*
X04435Y03092D02*
Y03107D01*
X04427Y03100D02*
X04442D01*
M02*