%FSDAX23Y23*%
%MOIN*%
%SFA1B1*%

%IPPOS*%
%ADD56C,0.003900*%
%LNde-110817-1*%
%LPD*%
G54D56*
X03728Y01848D02*
D01*
X03727Y01849*
X03727Y01851*
X03727Y01852*
X03727Y01854*
X03726Y01855*
X03726Y01856*
X03725Y01857*
X03725Y01859*
X03724Y01860*
X03723Y01861*
X03722Y01862*
X03721Y01863*
X03720Y01864*
X03719Y01864*
X03718Y01865*
X03716Y01866*
X03715Y01866*
X03714Y01867*
X03713Y01867*
X03711Y01868*
X03710Y01868*
X03708Y01868*
X03707*
X03706Y01868*
X03704Y01868*
X03703Y01867*
X03702Y01867*
X03700Y01866*
X03699Y01866*
X03698Y01865*
X03697Y01864*
X03696Y01864*
X03695Y01863*
X03694Y01862*
X03693Y01861*
X03692Y01860*
X03691Y01859*
X03690Y01857*
X03690Y01856*
X03689Y01855*
X03689Y01854*
X03689Y01852*
X03688Y01851*
X03688Y01849*
X03688Y01848*
X03688Y01847*
X03688Y01845*
X03689Y01844*
X03689Y01843*
X03689Y01841*
X03690Y01840*
X03690Y01839*
X03691Y01838*
X03692Y01837*
X03693Y01835*
X03694Y01834*
X03695Y01833*
X03696Y01833*
X03697Y01832*
X03698Y01831*
X03699Y01830*
X03700Y01830*
X03702Y01829*
X03703Y01829*
X03704Y01829*
X03706Y01829*
X03707Y01828*
X03708*
X03710Y01829*
X03711Y01829*
X03713Y01829*
X03714Y01829*
X03715Y01830*
X03716Y01830*
X03718Y01831*
X03719Y01832*
X03720Y01833*
X03721Y01833*
X03722Y01834*
X03723Y01835*
X03724Y01837*
X03725Y01838*
X03725Y01839*
X03726Y01840*
X03726Y01841*
X03727Y01843*
X03727Y01844*
X03727Y01845*
X03727Y01847*
X03728Y01848*
X02423Y01723D02*
D01*
X02422Y01724*
X02422Y01726*
X02422Y01727*
X02422Y01729*
X02421Y01730*
X02421Y01731*
X02420Y01732*
X02420Y01734*
X02419Y01735*
X02418Y01736*
X02417Y01737*
X02416Y01738*
X02415Y01739*
X02414Y01739*
X02413Y01740*
X02411Y01741*
X02410Y01741*
X02409Y01742*
X02408Y01742*
X02406Y01743*
X02405Y01743*
X02403Y01743*
X02402*
X02401Y01743*
X02399Y01743*
X02398Y01742*
X02397Y01742*
X02395Y01741*
X02394Y01741*
X02393Y01740*
X02392Y01739*
X02391Y01739*
X02390Y01738*
X02389Y01737*
X02388Y01736*
X02387Y01735*
X02386Y01734*
X02385Y01732*
X02385Y01731*
X02384Y01730*
X02384Y01729*
X02384Y01727*
X02383Y01726*
X02383Y01724*
X02383Y01723*
X02383Y01722*
X02383Y01720*
X02384Y01719*
X02384Y01718*
X02384Y01716*
X02385Y01715*
X02385Y01714*
X02386Y01713*
X02387Y01712*
X02388Y01710*
X02389Y01709*
X02390Y01708*
X02391Y01708*
X02392Y01707*
X02393Y01706*
X02394Y01705*
X02395Y01705*
X02397Y01704*
X02398Y01704*
X02399Y01704*
X02401Y01704*
X02402Y01703*
X02403*
X02405Y01704*
X02406Y01704*
X02408Y01704*
X02409Y01704*
X02410Y01705*
X02411Y01705*
X02413Y01706*
X02414Y01707*
X02415Y01708*
X02416Y01708*
X02417Y01709*
X02418Y01710*
X02419Y01712*
X02420Y01713*
X02420Y01714*
X02421Y01715*
X02421Y01716*
X02422Y01718*
X02422Y01719*
X02422Y01720*
X02422Y01722*
X02423Y01723*
X04086Y03266D02*
D01*
X04086Y03268*
X04086Y03269*
X04086Y03270*
X04085Y03272*
X04085Y03273*
X04084Y03274*
X04084Y03275*
X04083Y03277*
X04082Y03278*
X04082Y03279*
X04081Y03280*
X04080Y03281*
X04079Y03282*
X04078Y03283*
X04076Y03283*
X04075Y03284*
X04074Y03284*
X04073Y03285*
X04071Y03285*
X04070Y03286*
X04069Y03286*
X04067Y03286*
X04066*
X04064Y03286*
X04063Y03286*
X04062Y03285*
X04060Y03285*
X04059Y03284*
X04058Y03284*
X04057Y03283*
X04055Y03283*
X04054Y03282*
X04053Y03281*
X04052Y03280*
X04051Y03279*
X04051Y03278*
X04050Y03277*
X04049Y03275*
X04049Y03274*
X04048Y03273*
X04048Y03272*
X04047Y03270*
X04047Y03269*
X04047Y03268*
X04047Y03266*
X04047Y03265*
X04047Y03263*
X04047Y03262*
X04048Y03261*
X04048Y03259*
X04049Y03258*
X04049Y03257*
X04050Y03256*
X04051Y03255*
X04051Y03254*
X04052Y03253*
X04053Y03252*
X04054Y03251*
X04055Y03250*
X04057Y03249*
X04058Y03248*
X04059Y03248*
X04060Y03247*
X04062Y03247*
X04063Y03247*
X04064Y03247*
X04066Y03247*
X04067*
X04069Y03247*
X04070Y03247*
X04071Y03247*
X04073Y03247*
X04074Y03248*
X04075Y03248*
X04076Y03249*
X04078Y03250*
X04079Y03251*
X04080Y03252*
X04081Y03253*
X04082Y03254*
X04082Y03255*
X04083Y03256*
X04084Y03257*
X04084Y03258*
X04085Y03259*
X04085Y03261*
X04086Y03262*
X04086Y03263*
X04086Y03265*
X04086Y03266*
X02647Y02827D02*
D01*
X02647Y02828*
X02647Y02830*
X02646Y02831*
X02646Y02832*
X02646Y02834*
X02645Y02835*
X02644Y02836*
X02644Y02837*
X02643Y02838*
X02642Y02840*
X02641Y02841*
X02640Y02842*
X02639Y02842*
X02638Y02843*
X02637Y02844*
X02636Y02845*
X02634Y02845*
X02633Y02846*
X02632Y02846*
X02631Y02846*
X02629Y02846*
X02628Y02847*
X02626*
X02625Y02846*
X02624Y02846*
X02622Y02846*
X02621Y02846*
X02620Y02845*
X02618Y02845*
X02617Y02844*
X02616Y02843*
X02615Y02842*
X02614Y02842*
X02613Y02841*
X02612Y02840*
X02611Y02838*
X02610Y02837*
X02610Y02836*
X02609Y02835*
X02609Y02834*
X02608Y02832*
X02608Y02831*
X02608Y02830*
X02607Y02828*
X02607Y02827*
X02607Y02826*
X02608Y02824*
X02608Y02823*
X02608Y02821*
X02609Y02820*
X02609Y02819*
X02610Y02818*
X02610Y02816*
X02611Y02815*
X02612Y02814*
X02613Y02813*
X02614Y02812*
X02615Y02811*
X02616Y02811*
X02617Y02810*
X02618Y02809*
X02620Y02809*
X02621Y02808*
X02622Y02808*
X02624Y02807*
X02625Y02807*
X02626Y02807*
X02628*
X02629Y02807*
X02631Y02807*
X02632Y02808*
X02633Y02808*
X02634Y02809*
X02636Y02809*
X02637Y02810*
X02638Y02811*
X02639Y02811*
X02640Y02812*
X02641Y02813*
X02642Y02814*
X02643Y02815*
X02644Y02816*
X02644Y02818*
X02645Y02819*
X02646Y02820*
X02646Y02821*
X02646Y02823*
X02647Y02824*
X02647Y02826*
X02647Y02827*
X02396Y03368D02*
D01*
X02396Y03369*
X02396Y03370*
X02396Y03372*
X02396Y03373*
X02395Y03374*
X02395Y03376*
X02394Y03377*
X02393Y03378*
X02393Y03379*
X02392Y03380*
X02391Y03381*
X02390Y03382*
X02389Y03383*
X02388Y03384*
X02387Y03385*
X02385Y03385*
X02384Y03386*
X02383Y03386*
X02381Y03387*
X02380Y03387*
X02379Y03387*
X02377Y03387*
X02376*
X02375Y03387*
X02373Y03387*
X02372Y03387*
X02371Y03386*
X02369Y03386*
X02368Y03385*
X02367Y03385*
X02366Y03384*
X02365Y03383*
X02364Y03382*
X02363Y03381*
X02362Y03380*
X02361Y03379*
X02360Y03378*
X02359Y03377*
X02359Y03376*
X02358Y03374*
X02358Y03373*
X02357Y03372*
X02357Y03370*
X02357Y03369*
X02357Y03368*
X02357Y03366*
X02357Y03365*
X02357Y03363*
X02358Y03362*
X02358Y03361*
X02359Y03359*
X02359Y03358*
X02360Y03357*
X02361Y03356*
X02362Y03355*
X02363Y03354*
X02364Y03353*
X02365Y03352*
X02366Y03351*
X02367Y03350*
X02368Y03350*
X02369Y03349*
X02371Y03349*
X02372Y03348*
X02373Y03348*
X02375Y03348*
X02376Y03348*
X02377*
X02379Y03348*
X02380Y03348*
X02381Y03348*
X02383Y03349*
X02384Y03349*
X02385Y03350*
X02387Y03350*
X02388Y03351*
X02389Y03352*
X02390Y03353*
X02391Y03354*
X02392Y03355*
X02393Y03356*
X02393Y03357*
X02394Y03358*
X02395Y03359*
X02395Y03361*
X02396Y03362*
X02396Y03363*
X02396Y03365*
X02396Y03366*
X02396Y03368*
X03188Y01848D02*
D01*
X03187Y01849*
X03187Y01851*
X03187Y01852*
X03187Y01854*
X03186Y01855*
X03186Y01856*
X03185Y01857*
X03185Y01859*
X03184Y01860*
X03183Y01861*
X03182Y01862*
X03181Y01863*
X03180Y01864*
X03179Y01864*
X03178Y01865*
X03176Y01866*
X03175Y01866*
X03174Y01867*
X03173Y01867*
X03171Y01868*
X03170Y01868*
X03168Y01868*
X03167*
X03166Y01868*
X03164Y01868*
X03163Y01867*
X03162Y01867*
X03160Y01866*
X03159Y01866*
X03158Y01865*
X03157Y01864*
X03156Y01864*
X03155Y01863*
X03154Y01862*
X03153Y01861*
X03152Y01860*
X03151Y01859*
X03150Y01857*
X03150Y01856*
X03149Y01855*
X03149Y01854*
X03149Y01852*
X03148Y01851*
X03148Y01849*
X03148Y01848*
X03148Y01847*
X03148Y01845*
X03149Y01844*
X03149Y01843*
X03149Y01841*
X03150Y01840*
X03150Y01839*
X03151Y01838*
X03152Y01837*
X03153Y01835*
X03154Y01834*
X03155Y01833*
X03156Y01833*
X03157Y01832*
X03158Y01831*
X03159Y01830*
X03160Y01830*
X03162Y01829*
X03163Y01829*
X03164Y01829*
X03166Y01829*
X03167Y01828*
X03168*
X03170Y01829*
X03171Y01829*
X03173Y01829*
X03174Y01829*
X03175Y01830*
X03176Y01830*
X03178Y01831*
X03179Y01832*
X03180Y01833*
X03181Y01833*
X03182Y01834*
X03183Y01835*
X03184Y01837*
X03185Y01838*
X03185Y01839*
X03186Y01840*
X03186Y01841*
X03187Y01843*
X03187Y01844*
X03187Y01845*
X03187Y01847*
X03188Y01848*
X02021Y01797D02*
X02108D01*
X02021Y01852D02*
X02108D01*
Y01797D02*
Y01852D01*
X02021Y01797D02*
Y01852D01*
X03743Y01813D02*
Y02206D01*
X03586Y01813D02*
Y02206D01*
Y01813D02*
X03743D01*
X03586Y02206D02*
X03743D01*
X01411Y02417D02*
X01498D01*
X01411Y02472D02*
X01498D01*
Y02417D02*
Y02472D01*
X01411Y02417D02*
Y02472D01*
X01826Y02147D02*
Y02292D01*
X01562Y02147D02*
Y02292D01*
X01826*
X01562Y02147D02*
X01826D01*
X02438Y01688D02*
Y02081D01*
X02281Y01688D02*
Y02081D01*
Y01688D02*
X02438D01*
X02281Y02081D02*
X02438D01*
X01532Y01835D02*
X01587D01*
X01532Y01954D02*
X01587D01*
Y01835D02*
Y01954D01*
X01532Y01835D02*
Y01954D01*
X04228Y03231D02*
Y03388D01*
X04031Y03231D02*
Y03388D01*
X04228*
X04031Y03231D02*
X04228D01*
X03875Y03262D02*
X03994D01*
X02406Y02262D02*
X02493D01*
X02406Y02317D02*
X02493D01*
Y02262D02*
Y02317D01*
X02406Y02262D02*
Y02317D01*
X02592Y02587D02*
Y02862D01*
X02867Y02587D02*
Y02862D01*
X02592D02*
X02867D01*
X02592Y02587D02*
X02867D01*
X02870Y01536D02*
X02919D01*
Y01603*
X02870D02*
X02919D01*
X02870Y01536D02*
Y01603D01*
X02930Y01536D02*
X02979D01*
Y01603*
X02930D02*
X02979D01*
X02930Y01536D02*
Y01603D01*
X03000Y01536D02*
X03049D01*
Y01603*
X03000D02*
X03049D01*
X03000Y01536D02*
Y01603D01*
X03065Y01536D02*
X03114D01*
Y01603*
X03065D02*
X03114D01*
X03065Y01536D02*
Y01603D01*
X03330Y01536D02*
X03379D01*
Y01603*
X03330D02*
X03379D01*
X03330Y01536D02*
Y01603D01*
X03265Y01536D02*
X03314D01*
Y01603*
X03265D02*
X03314D01*
X03265Y01536D02*
Y01603D01*
X03195Y01536D02*
X03244D01*
Y01603*
X03195D02*
X03244D01*
X03195Y01536D02*
Y01603D01*
X03130Y01536D02*
X03179D01*
Y01603*
X03130D02*
X03179D01*
X03130Y01536D02*
Y01603D01*
X03410Y01536D02*
X03459D01*
Y01603*
X03410D02*
X03459D01*
X03410Y01536D02*
Y01603D01*
X03475Y01536D02*
X03524D01*
Y01603*
X03475D02*
X03524D01*
X03475Y01536D02*
Y01603D01*
X03540Y01536D02*
X03589D01*
Y01603*
X03540D02*
X03589D01*
X03540Y01536D02*
Y01603D01*
X03605Y01536D02*
X03654D01*
Y01603*
X03605D02*
X03654D01*
X03605Y01536D02*
Y01603D01*
X03865Y01536D02*
X03914D01*
Y01603*
X03865D02*
X03914D01*
X03865Y01536D02*
Y01603D01*
X03800Y01536D02*
X03849D01*
Y01603*
X03800D02*
X03849D01*
X03800Y01536D02*
Y01603D01*
X03735Y01536D02*
X03784D01*
Y01603*
X03735D02*
X03784D01*
X03735Y01536D02*
Y01603D01*
X03670Y01536D02*
X03719D01*
Y01603*
X03670D02*
X03719D01*
X03670Y01536D02*
Y01603D01*
X02341Y03206D02*
X02499D01*
X02341Y03403D02*
X02499D01*
Y03206D02*
Y03403D01*
X02341Y03206D02*
Y03403D01*
X03203Y01813D02*
Y02206D01*
X03046Y01813D02*
Y02206D01*
Y01813D02*
X03203D01*
X03046Y02206D02*
X03203D01*
M02*